<?xml version="1.0" encoding="UTF-8"?>
<svg version="1.1" xmlns="http://www.w3.org/2000/svg" width="1536" height="850">
<path d="M0 0 C506.88 0 1013.76 0 1536 0 C1536 280.5 1536 561 1536 850 C1029.12 850 522.24 850 0 850 C0 569.5 0 289 0 0 Z " fill="#FEFEFE" transform="translate(0,0)"/>
<path d="M0 0 C16.14015927 9.26678346 27.87077088 22.52811468 33.44140625 40.37890625 C34.0005585 43.00262063 34.11120352 45.32628047 34 48 C34.66902344 47.7834375 35.33804687 47.566875 36.02734375 47.34375 C53.00552891 42.42121578 69.68798393 44.19656634 85.2265625 52.34375 C88 54 88 54 89 56 C87.91918475 58.62397924 86.78166862 61.1006478 85.5 63.625 C85.13197266 64.35195068 84.76394531 65.07890137 84.38476562 65.82788086 C81.55225226 71.25950557 78.47850833 75.77967618 74 80 C73.11248047 80.89912109 73.11248047 80.89912109 72.20703125 81.81640625 C59.54018586 93.90867309 42.90553783 97.27513534 26 97 C25.87431641 97.95326172 25.87431641 97.95326172 25.74609375 98.92578125 C24.69570831 103.25380923 22.89978211 107.14028864 21.0625 111.1875 C20.66426025 112.06664062 20.26602051 112.94578125 19.85571289 113.8515625 C9.50749381 136.31668596 -3.93001016 157.0519774 -21 175 C-21.52158691 175.55413574 -22.04317383 176.10827148 -22.58056641 176.67919922 C-54.46842181 210.35921908 -97.36892977 230.21463847 -143 237 C-144.07886475 237.17732666 -145.15772949 237.35465332 -146.26928711 237.53735352 C-156.19857616 239.05130564 -165.94796542 239.34010691 -175.97729492 239.31567383 C-178.66692102 239.3125241 -181.35543138 239.33603665 -184.04492188 239.36132812 C-199.85871088 239.41998528 -215.55996567 237.86029754 -230.75 233.25 C-231.6157666 232.99323486 -232.4815332 232.73646973 -233.37353516 232.47192383 C-252.99831536 226.46009462 -269.8608262 216.81553019 -285 203 C-285.73734375 202.34515625 -286.4746875 201.6903125 -287.234375 201.015625 C-311.06487771 178.71027446 -323.98086009 141.97403045 -325.10620117 109.98071289 C-325.16805942 106.88217715 -325.18555209 103.78661786 -325.1875 100.6875 C-325.19974609 99.64271484 -325.21199219 98.59792969 -325.22460938 97.52148438 C-325.22654297 96.50763672 -325.22847656 95.49378906 -325.23046875 94.44921875 C-325.23457764 93.54518311 -325.23868652 92.64114746 -325.24291992 91.7097168 C-324.9624505 88.58114387 -324.02913043 85.95801053 -323 83 C-322.41821568 82.99864347 -321.83643136 82.99728694 -321.23701721 82.99588931 C-286.69845637 82.91510812 -252.1599378 82.82410029 -217.62143946 82.71994839 C-213.46743447 82.70743064 -209.31342923 82.69499769 -205.15942383 82.68261719 C-204.3324922 82.68015119 -203.50556057 82.6776852 -202.65357041 82.67514448 C-189.29228919 82.63550166 -175.93099959 82.60271696 -162.56969411 82.57250018 C-148.84332639 82.5413039 -135.11699394 82.50266004 -121.39066595 82.45720994 C-112.93179561 82.42943276 -104.47295086 82.40735348 -96.01404738 82.39273749 C-90.20077627 82.38213438 -84.38755493 82.36424857 -78.57432146 82.34083296 C-75.22846859 82.32756486 -71.8827451 82.31840425 -68.5368576 82.31578636 C-36.98597247 82.9064708 -36.98597247 82.9064708 -8 72 C-8.64129077 68.31257807 -9.66537048 64.99358903 -11 61.5 C-16.02710123 48.34082326 -16.27026064 30.11665615 -11 17 C-8.08608416 10.67814235 -4.71036203 5.12598221 0 0 Z " fill="#299AD2" transform="translate(365,428)"/>
<path d="M0 0 C4.46616098 2.09413326 8.11614448 4.99436522 12 8 C12.969375 8.70125 13.93875 9.4025 14.9375 10.125 C23.78484313 17.64282435 31.2357498 29.69170373 34 41 C34.07522969 43.33212027 34.09325876 45.6685311 34 48 C34.82564453 47.67515625 34.82564453 47.67515625 35.66796875 47.34375 C49.16410739 42.82411287 66.01951801 43.06709272 79 49 C82.45364978 50.83895637 85.76067354 52.8063252 89 55 C86.05753316 67.91883058 78.84640769 78.72062692 67.8359375 86.12890625 C57.17131937 92.71163277 45.34135323 97.20155333 32.6875 97.0625 C31.61886719 97.05347656 30.55023437 97.04445313 29.44921875 97.03515625 C28.64097656 97.02355469 27.83273437 97.01195312 27 97 C26.83999512 97.59643311 26.67999023 98.19286621 26.51513672 98.80737305 C24.63593797 105.46464451 22.1276552 111.58802163 19.125 117.8125 C18.64740234 118.8037085 18.16980469 119.79491699 17.67773438 120.81616211 C7.33489888 141.82379556 -5.88076211 160.12193922 -22 177 C-23.30904297 178.38832031 -23.30904297 178.38832031 -24.64453125 179.8046875 C-56.43969148 212.67054859 -99.56686991 229.70242166 -144 237 C-145.28777344 237.226875 -146.57554687 237.45375 -147.90234375 237.6875 C-190.2822563 243.98544366 -237.73495616 238.15893977 -272.98217773 212.48779297 C-293.28242762 197.19246425 -306.50576053 176.75773438 -315 153 C-315.36738281 152.00355469 -315.73476562 151.00710938 -316.11328125 149.98046875 C-321.52952321 134.0245127 -323.3780347 117.57592146 -323.375 100.8125 C-323.37661133 99.50547119 -323.37822266 98.19844238 -323.37988281 96.85180664 C-323.26552971 87.20485216 -323.26552971 87.20485216 -321 83 C-320.40763583 82.99902319 -319.81527166 82.99804638 -319.20495707 82.99703997 C-284.04010018 82.93867616 -248.87530876 82.86481031 -213.71052811 82.77101372 C-209.48141682 82.75974653 -205.2523052 82.74860792 -201.02319336 82.73754883 C-200.18130866 82.73534514 -199.33942395 82.73314146 -198.47202759 82.730871 C-184.86825031 82.6955684 -171.26447308 82.67066463 -157.66066707 82.64965298 C-143.68568517 82.62783471 -129.71076233 82.59472748 -115.73583072 82.55129844 C-107.12339886 82.52488516 -98.51104049 82.50711394 -89.89857017 82.50065396 C-83.98015703 82.49536829 -78.0618361 82.47904584 -72.1434725 82.45433434 C-68.7368083 82.44042708 -65.33044762 82.43275291 -61.92373466 82.43499184 C-32.77007767 82.51331426 -32.77007767 82.51331426 -6 72 C-6.32613281 71.28457031 -6.65226562 70.56914062 -6.98828125 69.83203125 C-14.47039267 52.77105151 -16.4717248 36.05669184 -11 18 C-8.36500555 11.26301066 -4.5458116 5.59244176 0 0 Z " fill="#2A9AD2" transform="translate(1398,428)"/>
<path d="M0 0 C0.9505142 -0.00768229 1.9010284 -0.01536458 2.88034606 -0.02327967 C3.92157567 -0.0215467 4.96280529 -0.01981374 6.03558731 -0.01802826 C7.14408673 -0.0239705 8.25258614 -0.02991275 9.39467645 -0.03603506 C13.1225242 -0.0534284 16.85024366 -0.05642715 20.57812881 -0.0594101 C23.24551375 -0.06866507 25.91288696 -0.0786729 28.58026505 -0.08950043 C35.83652553 -0.11665671 43.09276389 -0.12871488 50.34906673 -0.13752174 C54.88062826 -0.14304839 59.41218126 -0.15152343 63.94373703 -0.16053009 C76.49230158 -0.18491414 89.0408593 -0.20551298 101.58944702 -0.21228027 C102.3924843 -0.21271941 103.19552158 -0.21315854 104.02289332 -0.21361098 C105.23031799 -0.21426581 105.23031799 -0.21426581 106.46213508 -0.21493387 C108.09324758 -0.2158208 109.72436007 -0.21671393 111.35547256 -0.21761322 C112.16455929 -0.21805608 112.97364602 -0.21849894 113.80725053 -0.21895522 C126.91581014 -0.22685037 140.02414732 -0.26175629 153.13262102 -0.30833226 C166.59350287 -0.35577401 180.05427315 -0.38068463 193.51523995 -0.38301611 C201.07206985 -0.38484884 208.62860994 -0.39633318 216.18535995 -0.43265533 C222.62049827 -0.46347754 229.05525725 -0.47368692 235.49045536 -0.45717913 C238.77273427 -0.44937244 242.05409086 -0.45446327 245.33630753 -0.47929382 C248.89850918 -0.50466221 252.45875132 -0.4930212 256.02093887 -0.47212982 C257.56939896 -0.49629904 257.56939896 -0.49629904 259.14914107 -0.52095652 C265.309886 -0.43645981 268.93406016 0.67126585 273.73282266 4.58556986 C276.51187629 7.59398835 277.53011066 10.28750976 277.54965591 14.34130096 C277.56245087 15.54601295 277.56245087 15.54601295 277.5755043 16.77506256 C277.57459793 17.64735504 277.57369156 18.51964752 277.57275772 19.41837311 C277.57947495 20.34405594 277.58619217 21.26973877 277.59311295 22.2234726 C277.61211639 25.28483189 277.61601848 28.34597217 277.61816788 31.40738678 C277.62459467 33.53724508 277.63132295 35.66710249 277.63834 37.79695892 C277.65031899 42.26323238 277.65402023 46.72942846 277.65283585 51.19571686 C277.65263274 56.9122322 277.67992378 62.62824993 277.71438026 68.34464741 C277.73664501 72.74478676 277.74067349 77.14480635 277.73961639 81.54499626 C277.74197341 83.6520808 277.75080259 85.75916858 277.76628113 87.86619759 C277.78593002 90.81753484 277.78010686 93.76779893 277.76807022 96.71915436 C277.77930923 97.58537415 277.79054825 98.45159393 277.80212784 99.34406281 C277.74485761 104.88473364 276.99456884 109.01476143 273.28223038 113.26285553 C267.31598382 117.60471872 261.3453081 117.83176411 254.19298172 117.76406097 C253.09669325 117.76959537 252.00040478 117.77512977 250.87089545 117.78083187 C247.2082139 117.79441308 243.54621674 117.77948212 239.88354874 117.76456451 C237.25336289 117.76834856 234.62317904 117.77384931 231.99300003 117.78093719 C225.5974803 117.79484705 219.20215844 117.78733049 212.80664819 117.77226161 C205.35509113 117.75537478 197.903583 117.7586151 190.45201273 117.76235569 C177.15506293 117.76823004 163.85820793 117.7540789 150.56128311 117.72940826 C137.66508812 117.7054839 124.76901975 117.69840643 111.87280655 117.70890045 C97.82062434 117.72031468 83.76850065 117.72223386 69.71631914 117.70780236 C68.21742635 117.70627655 66.71853354 117.7047562 65.21964073 117.70324135 C64.48220407 117.70248353 63.7447674 117.70172572 62.98498417 117.70094494 C57.79342259 117.69620639 52.60188718 117.69805047 47.410326 117.70230675 C40.42122183 117.70775323 33.43229596 117.69697263 26.44322395 117.6753521 C23.87735968 117.66978494 21.31147856 117.66931825 18.7456131 117.67430496 C15.24504556 117.68025536 11.74501458 117.66775645 8.24449539 117.65053558 C6.71910445 117.65955065 6.71910445 117.65955065 5.16289753 117.66874784 C-2.12055724 117.60352936 -7.01853811 116.67111154 -12.61384201 111.67897797 C-15.63316776 107.64811376 -15.42722068 103.47375218 -15.38061142 98.60489655 C-15.39097931 97.64966095 -15.4013472 96.69442535 -15.41202927 95.71024323 C-15.43906726 92.56197527 -15.42944382 89.41510356 -15.41698837 86.26676178 C-15.4228986 84.07249819 -15.43014586 81.87823783 -15.43867111 79.68398285 C-15.45054634 75.0882765 -15.44385208 70.4930546 -15.42455673 65.89737701 C-15.40167836 60.01468662 -15.42844168 54.13344143 -15.4696188 48.25089359 C-15.49522326 43.72029087 -15.49260946 39.19003266 -15.48172569 34.65938377 C-15.48024095 32.49089941 -15.48790648 30.3223884 -15.50497627 28.15397072 C-15.52499202 25.11849844 -15.5065207 22.08556527 -15.47826767 19.05020905 C-15.4919841 18.15907913 -15.50570053 17.26794922 -15.51983261 16.34981537 C-15.41591835 10.74940167 -14.23353979 7.7482084 -10.39415836 3.64533138 C-7.05815285 0.8942111 -4.30284644 0.01307504 0 0 Z " fill="#3E4443" transform="translate(1138.7177696228027,148.73714447021484)"/>
<path d="M0 0 C0.94129741 -0.00583219 1.88259482 -0.01166439 2.8524164 -0.01767331 C4.39879791 -0.01200433 4.39879791 -0.01200433 5.97641945 -0.00622082 C7.07407934 -0.01004636 8.17173923 -0.01387191 9.30266154 -0.01781338 C12.99373657 -0.02816125 16.68465655 -0.02414779 20.37574196 -0.02018261 C23.01681475 -0.02452811 25.65787602 -0.02964597 28.29894447 -0.03567028 C34.73606083 -0.04842902 41.1731355 -0.05020949 47.61026238 -0.04787002 C52.84229083 -0.04608789 58.07430661 -0.04783424 63.30633354 -0.05209446 C64.05063142 -0.05268965 64.79492929 -0.05328484 65.56178165 -0.05389806 C67.07377413 -0.0551098 68.58576661 -0.05632393 70.09775908 -0.05754044 C84.28219465 -0.06842065 98.46660646 -0.0662513 112.65104337 -0.06015559 C125.62831751 -0.05498687 138.60551658 -0.06623982 151.58277588 -0.08525381 C164.9057848 -0.10462481 178.2287582 -0.11288946 191.5517813 -0.10913056 C199.0324371 -0.10721728 206.513029 -0.10971833 213.99367332 -0.1238451 C220.36255423 -0.13575054 226.73133193 -0.13717331 233.10021423 -0.12505493 C236.34959075 -0.11916007 239.59873912 -0.11970645 242.8481102 -0.13005733 C246.37111804 -0.14047196 249.8936158 -0.13246609 253.416605 -0.11974621 C254.44306456 -0.12712049 255.46952412 -0.13449478 256.52708852 -0.14209253 C261.87596729 -0.10136733 265.72644246 0.19935435 270.32349586 3.25447559 C275.16130503 8.61529116 275.47898322 12.14597794 275.50049782 19.18294239 C275.50706902 20.10833317 275.51364021 21.03372395 275.52041054 21.98715687 C275.54017141 25.0593368 275.55181349 28.13146774 275.56177711 31.20369434 C275.56585264 32.25224913 275.56992817 33.30080391 275.5741272 34.38113308 C275.59500168 39.93290607 275.60929638 45.48465425 275.61866188 51.03645802 C275.62971799 56.76869522 275.66410498 62.50054334 275.70383358 68.23264313 C275.72999538 72.64134913 275.73835344 77.04996248 275.74194336 81.45873928 C275.74681188 83.57141524 275.75843339 85.68408698 275.77698135 87.79668713 C275.80135884 90.75778206 275.8004099 93.71787133 275.79346657 96.67903614 C275.81268166 97.98307896 275.81268166 97.98307896 275.83228493 99.31346607 C275.78495443 104.86520677 275.04613345 108.99908368 271.32349586 113.25447559 C265.36097614 117.5893601 259.38810474 117.82914441 252.24097633 117.77586842 C251.14539343 117.78351951 250.04981052 117.7911706 248.92102814 117.79905355 C245.26071633 117.81964284 241.60103612 117.81174317 237.94068336 117.803792 C235.31211709 117.8124888 232.68355589 117.82285595 230.05500221 117.83476734 C223.66318459 117.8602213 217.27153516 117.86385393 210.87967539 117.85916682 C205.68350068 117.85559627 200.4873769 117.8591087 195.29120827 117.8676157 C194.55080516 117.86880608 193.81040205 117.86999646 193.04756248 117.87122291 C191.54330459 117.87364647 190.03904672 117.87607474 188.53478885 117.87850766 C174.43943133 117.90024255 160.3441696 117.89594088 146.24880672 117.88373797 C133.36034543 117.87339663 120.47218633 117.89592092 107.58378482 117.93393441 C94.33971897 117.97269661 81.09579607 117.98920258 67.85167313 117.9816879 C60.42012139 117.97786515 52.98882695 117.98282635 45.55732155 118.01111698 C38.57054114 118.03744635 31.58437572 118.03241791 24.59759712 118.0062952 C22.03375737 118.00155749 19.46987519 118.00705526 16.90608406 118.02354145 C13.40535601 118.04442934 9.90666979 118.02831759 6.4060154 118.0029192 C5.39200094 118.01766777 4.37798649 118.03241634 3.33324432 118.04761183 C-3.59418754 117.94190412 -7.75591243 116.19114654 -12.67650414 111.25447559 C-15.45721253 106.95157995 -14.98609006 101.87341753 -14.99876976 96.89363575 C-15.00869957 95.95805332 -15.01862938 95.02247089 -15.02886009 94.05853748 C-15.05801872 90.97017421 -15.07169166 87.88201627 -15.08275414 84.79353809 C-15.09426256 82.64268967 -15.10577796 80.49184128 -15.11730003 78.34099293 C-15.13829488 73.83362849 -15.1499971 69.32633515 -15.15697289 64.81892872 C-15.16794767 59.04954728 -15.21602243 53.28110861 -15.27291679 47.51202297 C-15.31020116 43.06984697 -15.32058228 38.6278976 -15.32364464 34.18557835 C-15.32969005 32.0589211 -15.34572172 29.93226749 -15.372015 27.8057642 C-15.40621286 24.82781772 -15.40236113 21.85216885 -15.38939476 18.8741045 C-15.40782433 18.00010502 -15.42625389 17.12610554 -15.44524193 16.22562122 C-15.3695813 10.66521474 -14.15879594 7.71611853 -10.35456657 3.64284801 C-7.03446124 0.89590453 -4.28839807 0.00457551 0 0 Z " fill="#3E4443" transform="translate(100.67650413513184,148.7455244064331)"/>
<path d="M0 0 C3.82771139 0.95692785 5.61518718 1.89979228 8.78125 4.09765625 C9.70083496 4.73074707 10.62041992 5.36383789 11.56787109 6.01611328 C12.53547363 6.6914209 13.50307617 7.36672852 14.5 8.0625 C16.48109592 9.43717108 18.4628621 10.81087673 20.4453125 12.18359375 C21.87665527 13.17528564 21.87665527 13.17528564 23.33691406 14.18701172 C25.57112532 15.70802866 27.82038482 17.17401338 30.1171875 18.59765625 C31.72980469 19.60119141 31.72980469 19.60119141 33.375 20.625 C34.29023437 21.17414062 35.20546875 21.72328125 36.1484375 22.2890625 C38 24 38 24 38.40380859 26.37524414 C38 29 38 29 36.07910156 30.90942383 C35.1919043 31.50263428 34.30470703 32.09584473 33.390625 32.70703125 C31.92447754 33.70573242 31.92447754 33.70573242 30.42871094 34.72460938 C28.85524902 35.75811523 28.85524902 35.75811523 27.25 36.8125 C26.19844727 37.52083984 25.14689453 38.22917969 24.06347656 38.95898438 C21.98459756 40.35690672 19.90103401 41.74789165 17.8125 43.13134766 C15.49282688 44.67256103 13.19297083 46.23482868 10.90625 47.82421875 C3.3981149 53 3.3981149 53 0 53 C0 45.74 0 38.48 0 31 C-4.0867212 31.00276538 -4.0867212 31.00276538 -8.25600243 31.00558662 C-55.90899766 31.03760366 -103.56199343 31.06708127 -151.21499634 31.08468628 C-151.96047138 31.08496239 -152.70594643 31.08523851 -153.47401163 31.08552299 C-169.67343772 31.09150818 -185.87286393 31.09704863 -202.07229032 31.10213066 C-210.01596701 31.10462543 -217.95964367 31.10721852 -225.90332031 31.10986328 C-226.69383058 31.1101248 -227.48434085 31.11038632 -228.29880597 31.11065576 C-253.94228831 31.1191853 -279.58576186 31.13421302 -305.22923887 31.15259444 C-331.5713477 31.17144245 -357.91345166 31.18376689 -384.25556713 31.18782998 C-387.97236606 31.18840633 -391.68916498 31.1890576 -395.4059639 31.18975449 C-396.13751566 31.18988933 -396.86906741 31.19002418 -397.62278741 31.19016311 C-409.42012223 31.19253069 -421.21744205 31.20181793 -433.01477075 31.21366407 C-444.86212298 31.2254138 -456.70945895 31.22977975 -468.5568168 31.22700275 C-474.98122723 31.22571579 -481.40559345 31.22775324 -487.82999611 31.23841095 C-493.70213308 31.24808191 -499.57419573 31.24867534 -505.44633599 31.24179779 C-507.57960256 31.2409467 -509.71287361 31.24353569 -511.84613125 31.24976636 C-514.7282857 31.25770023 -517.61016579 31.25352326 -520.49231529 31.24609566 C-521.33576 31.25134968 -522.17920471 31.25660371 -523.04820836 31.26201695 C-528.7717084 31.2282916 -528.7717084 31.2282916 -531 29 C-530.46428571 25.46428571 -530.46428571 25.46428571 -529 24 C-526.1970753 23.9009946 -523.41876847 23.86824773 -520.61536312 23.87695217 C-519.7210596 23.87579833 -518.82675607 23.87464448 -517.90535244 23.87345567 C-514.86917012 23.87078112 -511.83303944 23.87531802 -508.79685974 23.87974548 C-506.61397717 23.87930995 -504.43109464 23.87843538 -502.2482124 23.87715632 C-496.21903259 23.87490779 -490.18987037 23.8789375 -484.16069281 23.88393438 C-477.67053388 23.8882336 -471.18037602 23.88679283 -464.69021606 23.8860321 C-453.43535066 23.88533333 -442.18049066 23.88862207 -430.92562675 23.89426994 C-419.11736461 23.90018038 -407.30910476 23.90403456 -395.50084114 23.90512276 C-394.76753243 23.9051915 -394.03422373 23.90526024 -393.27869354 23.90533106 C-389.55481875 23.90566938 -385.83094395 23.90597077 -382.10706914 23.90625793 C-355.70850351 23.90836017 -329.30994089 23.9151026 -302.91137695 23.92456055 C-277.26033545 23.93374009 -251.60929477 23.9408261 -225.95825195 23.94506836 C-225.1680279 23.94519989 -224.37780385 23.94533141 -223.56363362 23.94546692 C-215.62811468 23.94678541 -207.69259574 23.94806123 -199.7570768 23.94930578 C-183.59049765 23.95184222 -167.42391855 23.95466347 -151.25733948 23.95765686 C-150.51397313 23.95779415 -149.77060678 23.95793144 -149.00471417 23.95807289 C-99.33647482 23.96727862 -49.6682373 23.98320108 0 24 C0 16.08 0 8.16 0 0 Z " fill="#304459" transform="translate(1008,521)"/>
<path d="M0 0 C1.82421875 2.5546875 1.82421875 2.5546875 3.6875 5.875 C13.27872058 22.25746356 26.07495239 33.41815107 42.25170898 42.90014648 C44.25580047 44.16092461 46.12248252 45.55898281 48 47 C17.88319154 54.34833301 -15.8488945 46.83684621 -42.12792969 31.17480469 C-47.00589609 28.11367084 -51.53479293 24.6333134 -56 21 C-56.62390625 20.51660156 -57.2478125 20.03320312 -57.890625 19.53515625 C-61.46494426 16.70999987 -64.26538073 13.61934904 -67 10 C-67 9.34 -67 8.68 -67 8 C-65.89096313 7.970271 -65.89096313 7.970271 -64.75952148 7.93994141 C-44.92726908 7.38146024 -25.61477405 6.82440652 -6.81640625 -0.1875 C-2.61648116 -1.39912887 -2.61648116 -1.39912887 0 0 Z " fill="#FBFDFD" transform="translate(1184,609)"/>
<path d="M0 0 C2.07272779 2.63416513 3.85262531 5.21175818 5.54296875 8.1015625 C8.71242639 13.26504978 12.38538364 17.55139022 16.5703125 21.91796875 C18.29296875 23.9140625 18.29296875 23.9140625 18.29296875 25.9140625 C18.8653125 26.17058594 19.43765625 26.42710937 20.02734375 26.69140625 C22.52088495 28.03705866 24.40096915 29.622909 26.54296875 31.4765625 C33.21724384 36.93824406 40.72073844 40.85549737 48.29296875 44.9140625 C31.35066907 53.67732096 2.86829329 47.83808359 -14.7043457 42.29394531 C-30.60235875 37.06109147 -43.84847114 29.68989808 -56.70703125 18.9140625 C-57.56683594 18.24117187 -58.42664063 17.56828125 -59.3125 16.875 C-62.28347374 14.44200029 -64.38410609 11.96704986 -66.70703125 8.9140625 C-66.70703125 8.2540625 -66.70703125 7.5940625 -66.70703125 6.9140625 C-65.93327148 6.9047168 -65.15951172 6.89537109 -64.36230469 6.88574219 C-46.87189103 6.6214426 -30.161041 5.78863197 -13.328125 0.5859375 C-12.29631104 0.27619995 -12.29631104 0.27619995 -11.24365234 -0.03979492 C-9.4092678 -0.60535523 -7.59041928 -1.22064884 -5.7734375 -1.83984375 C-2.70703125 -2.0859375 -2.70703125 -2.0859375 0 0 Z " fill="#FBFDFD" transform="translate(149.70703125,610.0859375)"/>
<path d="M0 0 C2.20025522 1.21775132 4.32540081 2.48726295 6.421875 3.875 C6.421875 2.555 6.421875 1.235 6.421875 -0.125 C9.061875 -0.125 11.701875 -0.125 14.421875 -0.125 C14.52140997 5.81570658 14.59365654 11.75591827 14.64160156 17.69726562 C14.66160716 19.71460435 14.6888206 21.7318859 14.72363281 23.74902344 C14.77264077 26.66355573 14.79495464 29.57731559 14.8125 32.4921875 C14.83314514 33.38114716 14.85379028 34.27010681 14.87506104 35.18600464 C14.87732934 41.64380166 13.63265933 47.21292005 10.421875 52.875 C4.67315169 58.51657179 -0.73802839 59.04260922 -8.578125 59 C-9.64546875 59.00580078 -9.64546875 59.00580078 -10.734375 59.01171875 C-14.15350517 59.00533978 -17.31105506 58.94700732 -20.578125 57.875 C-20.578125 55.235 -20.578125 52.595 -20.578125 49.875 C-18.60779297 49.96201172 -18.60779297 49.96201172 -16.59765625 50.05078125 C-14.86201477 50.09769048 -13.12633477 50.14318939 -11.390625 50.1875 C-10.09415039 50.2503418 -10.09415039 50.2503418 -8.77148438 50.31445312 C-4.27346809 50.40062202 -2.2218222 50.34314342 1.515625 47.625 C3.43179164 44.86069402 4.01163763 43.83419903 3.734375 40.5625 C3.63125 39.345625 3.528125 38.12875 3.421875 36.875 C2.82375 37.349375 2.225625 37.82375 1.609375 38.3125 C-2.3776843 41.1603995 -5.79323024 41.19399298 -10.578125 40.875 C-16.46407138 39.04832699 -19.14157644 36.78435508 -22.578125 31.875 C-25.74256009 25.26951837 -25.72832236 17.33642792 -23.328125 10.4375 C-18.68406455 0.9835198 -10.39245276 -4.53488847 0 0 Z " fill="#314355" transform="translate(1249.578125,715.125)"/>
<path d="M0 0 C0.33 0 0.66 0 1 0 C1 8.25 1 16.5 1 25 C-122.75 25 -246.5 25 -374 25 C-373.67 25.99 -373.34 26.98 -373 28 C-249.91 28.33 -126.82 28.66 0 29 C0 29.33 0 29.66 0 30 C-174.9 30 -349.8 30 -530 30 C-530.33 28.68 -530.66 27.36 -531 26 C-528.39599603 23.39599603 -526.59496022 23.75888205 -523.04820836 23.73798305 C-521.78304129 23.74586409 -521.78304129 23.74586409 -520.49231529 23.75390434 C-519.59685792 23.75159665 -518.70140056 23.74928897 -517.77880812 23.74691135 C-514.74466779 23.74157054 -511.71073501 23.75062909 -508.67660522 23.75949097 C-506.49285921 23.75861973 -504.3091134 23.75687027 -502.12536871 23.75431263 C-496.0984284 23.74981893 -490.07155852 23.75787043 -484.04462719 23.76786876 C-477.55516746 23.77647197 -471.06571199 23.77358532 -464.57624817 23.77206421 C-453.32412178 23.77066709 -442.07201705 23.77724122 -430.8198967 23.78853989 C-419.01525132 23.80036306 -407.21061515 23.80806958 -395.4059639 23.81024551 C-394.30610395 23.81045173 -394.30610395 23.81045173 -393.1840246 23.81066212 C-389.46045877 23.81133876 -385.73689293 23.81194154 -382.01332708 23.81251587 C-355.6208576 23.8167197 -329.22840018 23.83020279 -302.8359375 23.84912109 C-277.19173242 23.86748186 -251.54753064 23.88165305 -225.90332031 23.89013672 C-225.11322779 23.89039977 -224.32313526 23.89066282 -223.50910054 23.89093385 C-215.57486124 23.89357083 -207.64062192 23.89612246 -199.70638258 23.89861157 C-183.54258699 23.90368436 -167.37879161 23.90932686 -151.21499634 23.91531372 C-150.47176728 23.9155883 -149.72853822 23.91586288 -148.96278706 23.91614578 C-99.30851953 23.93455547 -49.65425931 23.96640024 0 24 C0 16.08 0 8.16 0 0 Z " fill="#24384F" transform="translate(1008,521)"/>
<path d="M0 0 C13.86 0 27.72 0 42 0 C42 13.2 42 26.4 42 40 C28.14 40 14.28 40 0 40 C0 26.8 0 13.6 0 0 Z " fill="#2D9CD3" transform="translate(1158,413)"/>
<path d="M0 0 C13.53 0 27.06 0 41 0 C41 13.2 41 26.4 41 40 C27.47 40 13.94 40 0 40 C0 26.8 0 13.6 0 0 Z " fill="#2A9BD3" transform="translate(125,413)"/>
<path d="M0 0 C13.53 0 27.06 0 41 0 C41 13.2 41 26.4 41 40 C27.47 40 13.94 40 0 40 C0 26.8 0 13.6 0 0 Z " fill="#2A9BD3" transform="translate(1260,364)"/>
<path d="M0 0 C13.53 0 27.06 0 41 0 C41 13.2 41 26.4 41 40 C27.47 40 13.94 40 0 40 C0 26.8 0 13.6 0 0 Z " fill="#2B9BD2" transform="translate(227,364)"/>
<path d="M0 0 C13.86 0 27.72 0 42 0 C42 12.87 42 25.74 42 39 C28.14 39 14.28 39 0 39 C0 26.13 0 13.26 0 0 Z " fill="#2A9BD3" transform="translate(1158,462)"/>
<path d="M0 0 C13.53 0 27.06 0 41 0 C41 12.87 41 25.74 41 39 C27.47 39 13.94 39 0 39 C0 26.13 0 13.26 0 0 Z " fill="#2A9BD2" transform="translate(1210,462)"/>
<path d="M0 0 C13.53 0 27.06 0 41 0 C41 12.87 41 25.74 41 39 C27.47 39 13.94 39 0 39 C0 26.13 0 13.26 0 0 Z " fill="#289AD2" transform="translate(1311,462)"/>
<path d="M0 0 C13.53 0 27.06 0 41 0 C41 12.87 41 25.74 41 39 C27.47 39 13.94 39 0 39 C0 26.13 0 13.26 0 0 Z " fill="#299BD2" transform="translate(1108,462)"/>
<path d="M0 0 C13.53 0 27.06 0 41 0 C41 12.87 41 25.74 41 39 C27.47 39 13.94 39 0 39 C0 26.13 0 13.26 0 0 Z " fill="#299BD2" transform="translate(278,462)"/>
<path d="M0 0 C13.53 0 27.06 0 41 0 C41 12.87 41 25.74 41 39 C27.47 39 13.94 39 0 39 C0 26.13 0 13.26 0 0 Z " fill="#2A9BD2" transform="translate(227,462)"/>
<path d="M0 0 C13.53 0 27.06 0 41 0 C41 12.87 41 25.74 41 39 C27.47 39 13.94 39 0 39 C0 26.13 0 13.26 0 0 Z " fill="#289AD2" transform="translate(176,462)"/>
<path d="M0 0 C13.53 0 27.06 0 41 0 C41 12.87 41 25.74 41 39 C27.47 39 13.94 39 0 39 C0 26.13 0 13.26 0 0 Z " fill="#2A9BD3" transform="translate(125,462)"/>
<path d="M0 0 C13.53 0 27.06 0 41 0 C41 12.87 41 25.74 41 39 C27.47 39 13.94 39 0 39 C0 26.13 0 13.26 0 0 Z " fill="#2A9AD2" transform="translate(1210,413)"/>
<path d="M0 0 C13.53 0 27.06 0 41 0 C41 12.87 41 25.74 41 39 C27.47 39 13.94 39 0 39 C0 26.13 0 13.26 0 0 Z " fill="#2A9AD2" transform="translate(227,413)"/>
<path d="M0 0 C13.53 0 27.06 0 41 0 C41 12.87 41 25.74 41 39 C27.47 39 13.94 39 0 39 C0 26.13 0 13.26 0 0 Z " fill="#289AD2" transform="translate(176,413)"/>
<path d="M0 0 C13.2 0 26.4 0 40 0 C40 12.87 40 25.74 40 39 C26.8 39 13.6 39 0 39 C0 26.13 0 13.26 0 0 Z " fill="#289AD2" transform="translate(1261,462)"/>
<path d="M0 0 C13.2 0 26.4 0 40 0 C40 12.87 40 25.74 40 39 C26.8 39 13.6 39 0 39 C0 26.13 0 13.26 0 0 Z " fill="#289AD2" transform="translate(75,462)"/>
<path d="M0 0 C13.2 0 26.4 0 40 0 C40 12.87 40 25.74 40 39 C26.8 39 13.6 39 0 39 C0 26.13 0 13.26 0 0 Z " fill="#289AD2" transform="translate(1261,413)"/>
<path d="M0 0 C0 3.63 0 7.26 0 11 C-2.80664034 9.87734386 -5.59862253 8.70633612 -8.3125 7.375 C-13.543099 5.42460715 -17.61409748 5.03548622 -22.9375 7.1875 C-25.16713881 8.87134362 -25.16713881 8.87134362 -26 11.5 C-26.25927403 14.00405311 -26.25927403 14.00405311 -24.76708984 15.55102539 C-22.79162552 17.17086247 -21.14256681 17.86985021 -18.7265625 18.68359375 C-17.4890625 19.11575195 -17.4890625 19.11575195 -16.2265625 19.55664062 C-14.50038268 20.14110541 -12.77382308 20.72444979 -11.046875 21.30664062 C-5.62774148 23.20164915 -1.07632936 24.96100885 2.2890625 29.88671875 C4.14110668 35.39197096 4.10325692 42.63028943 1.625 47.9375 C-1.5402061 52.37531473 -5.83328739 54.56374287 -11 56 C-20.69222243 57.33536216 -29.22416276 56.45756812 -38 52 C-37.34 48.37 -36.68 44.74 -36 41 C-31 43 -31 43 -27.8125 44.625 C-23.29478689 46.54848047 -18.82690074 46.71333508 -14 46 C-10.35160743 44.54424611 -10.35160743 44.54424611 -8 42 C-7 39.5 -7 39.5 -8 37 C-12.25526388 33.69106561 -16.29093449 32.11049793 -21.4375 30.625 C-27.50731584 28.75383148 -31.68146792 26.72982085 -36 22 C-37.9862706 16.0411882 -37.95432682 9.38581705 -35.625 3.5625 C-24.81190294 -6.99314237 -13.049027 -5.10119031 0 0 Z " fill="#F9F9F9" transform="translate(1193,182)"/>
<path d="M0 0 C3.3 0 6.6 0 10 0 C14.64502029 11.4895943 19.19672675 23.01427346 23.67810059 34.568573 C24.227097 35.98393273 24.77665982 37.3990729 25.32678223 38.81399536 C26.10507957 40.81670803 26.8810423 42.82030844 27.65625 44.82421875 C28.10806641 45.99041748 28.55988281 47.15661621 29.02539062 48.3581543 C30 51 30 51 30 52 C26.37 52 22.74 52 19 52 C17.02 46.555 17.02 46.555 15 41 C8.07 40.67 1.14 40.34 -6 40 C-6.99 43.96 -7.98 47.92 -9 52 C-12.3 52 -15.6 52 -19 52 C-17.54758089 43.70046222 -14.55466474 36.10912653 -11.51464844 28.2890625 C-10.62801248 26.00775111 -9.75072321 23.72301977 -8.875 21.4375 C-6.09299148 14.20557814 -3.24747389 7.03885965 0 0 Z " fill="#32414B" transform="translate(633,459)"/>
<path d="M0 0 C11.88 0 23.76 0 36 0 C36 2.97 36 5.94 36 9 C27.42 9 18.84 9 10 9 C10 13.62 10 18.24 10 23 C17.59 23 25.18 23 33 23 C33 25.97 33 28.94 33 32 C25.08 32 17.16 32 9 32 C9 37.28 9 42.56 9 48 C18.57 48 28.14 48 38 48 C38 50.97 38 53.94 38 57 C25.46 57 12.92 57 0 57 C0 38.19 0 19.38 0 0 Z " fill="#304153" transform="translate(1133,700)"/>
<path d="M0 0 C26.36842105 0 26.36842105 0 32.875 5.375 C36.54813064 10.0908258 35.65110058 16.38336309 35 22 C33.39955942 26.80132174 31.17464064 29.18211757 27 32 C23.37918537 33.20693821 20.0749281 33.10782079 16.3125 33.0625 C12.6928125 33.0315625 12.6928125 33.0315625 9 33 C9 39.27 9 45.54 9 52 C6.03 52 3.06 52 0 52 C0 34.84 0 17.68 0 0 Z " fill="#32424C" transform="translate(671,459)"/>
<path d="M0 0 C4.6209371 2.66082649 6.89459424 6.37128273 8.5625 11.375 C8.5625 15.335 8.5625 19.295 8.5625 23.375 C-4.8025 23.87 -4.8025 23.87 -18.4375 24.375 C-16.09901858 30.29231018 -16.09901858 30.29231018 -12.4375 32.375 C-6.43780518 33.00374244 -0.37609881 32.25479242 5.5625 31.375 C6.0575 35.335 6.0575 35.335 6.5625 39.375 C-1.35146576 42.65783024 -9.332877 43.86361111 -17.6875 41.375 C-23.42705297 38.88313647 -27.22843327 33.8982697 -29.875 28.375 C-31.22441654 21.17811179 -30.7007935 14.95883777 -27.4375 8.375 C-20.81802859 -1.15376995 -11.15152881 -5.01192306 0 0 Z " fill="#F8F8F8" transform="translate(1349.4375,195.625)"/>
<path d="M0 0 C5.57567438 3.29988892 7.49309504 7.32820168 9.546875 13.23828125 C10.0625 15.8125 10.0625 15.8125 10.0625 23.8125 C0.8225 23.8125 -8.4175 23.8125 -17.9375 23.8125 C-15.79545748 30.4109976 -15.79545748 30.4109976 -13.046875 32.23828125 C-6.60326314 33.99237559 0.5571629 32.77625364 7.0625 31.8125 C7.5575 35.7725 7.5575 35.7725 8.0625 39.8125 C0.04977815 42.73253746 -8.56228942 44.81963303 -16.8125 41.5625 C-23.51930904 37.80668694 -26.81420091 34.23836953 -28.9375 26.8125 C-30.02931195 19.24701517 -28.82619996 12.42090423 -24.9375 5.8125 C-18.4860132 -1.53598496 -9.12771787 -3.47722586 0 0 Z " fill="#F7F7F7" transform="translate(1231.9375,195.1875)"/>
<path d="M0 0 C0 3.63 0 7.26 0 11 C-5.75 9.125 -5.75 9.125 -8 8 C-14.11643518 7.5216634 -19.93117618 7.10826559 -25.625 9.5625 C-30.93107086 15.00820431 -32.25250344 18.42318444 -32.4375 26 C-32.23644094 32.11608676 -32.01271309 36.93908351 -27.53515625 41.48828125 C-22.48177565 45.87446734 -19.32646332 46.26842183 -12.83203125 46.234375 C-8.98932743 45.91635813 -6.4284886 44.7142443 -3 43 C-2.01 43 -1.02 43 0 43 C0.495 47.95 0.495 47.95 1 53 C-6.3750008 57.98897113 -15.36184106 57.81905366 -24 57 C-31.40532146 54.8555632 -36.77330686 50.38124702 -41 44 C-45.23236993 35.53526015 -46.46738942 25.51446131 -44.38671875 16.27734375 C-41.60666541 8.35357939 -36.32517371 2.486556 -28.9375 -1.5 C-19.63868663 -5.12605374 -8.98596537 -3.78356436 0 0 Z " fill="#F7F8F7" transform="translate(168,182)"/>
<path d="M0 0 C3.65113225 2.78597265 4.90681401 5.05939211 6.796875 9.37109375 C6.796875 13.66109375 6.796875 17.95109375 6.796875 22.37109375 C-2.113125 22.37109375 -11.023125 22.37109375 -20.203125 22.37109375 C-18.02252667 29.2193527 -18.02252667 29.2193527 -14.203125 31.37109375 C-8.20343018 31.99983619 -2.14172381 31.25088617 3.796875 30.37109375 C5.15127168 33.0798871 4.86188951 35.38042643 4.796875 38.37109375 C-2.35789851 42.36445571 -10.49768668 42.63437645 -18.375 40.51953125 C-23.65786439 38.37427969 -27.10796097 35.10215948 -30.140625 30.30859375 C-32.38895312 24.03841161 -32.43869517 15.6504995 -30.015625 9.43359375 C-26.65089764 3.74836477 -23.76014489 -0.15189061 -17.375 -2.15625 C-11.10574159 -3.520603 -5.63189446 -3.255235 0 0 Z " fill="#F9F9F9" transform="translate(253.203125,197.62890625)"/>
<path d="M0 0 C4.45355131 3.4258087 6.49728048 8.08287194 7.828125 13.40625 C7.828125 16.37625 7.828125 19.34625 7.828125 22.40625 C-1.081875 22.40625 -9.991875 22.40625 -19.171875 22.40625 C-17.86535568 28.91899453 -17.86535568 28.91899453 -15.44140625 31.328125 C-12.44454303 32.75176398 -10.16806958 32.73401015 -6.859375 32.65625 C-5.7146875 32.63046875 -4.57 32.6046875 -3.390625 32.578125 C0.08800582 32.39237287 3.40610897 32.04290414 6.828125 31.40625 C6.828125 33.71625 6.828125 36.02625 6.828125 38.40625 C1.8863835 40.35796465 -2.37762422 40.77199845 -7.609375 40.78125 C-8.33447266 40.80574219 -9.05957031 40.83023438 -9.80664062 40.85546875 C-15.38331698 40.8855317 -18.56909181 39.55765306 -23.171875 36.40625 C-29.12092527 30.13562945 -29.62464181 24.24031683 -29.484375 15.859375 C-28.9276258 9.70729634 -26.80802677 5.63217291 -22.234375 1.53125 C-14.97373968 -3.50674186 -7.81141832 -4.30550616 0 0 Z " fill="#344557" transform="translate(1372.171875,716.59375)"/>
<path d="M0 0 C0 3.3 0 6.6 0 10 C-0.86625 9.67 -1.7325 9.34 -2.625 9 C-8.89953214 7.22927314 -16.93041592 6.55403057 -23.1328125 8.7578125 C-27.11947996 11.30206761 -29.52883081 14.58649244 -31 19 C-31.14703064 21.43448818 -31.22105339 23.8737477 -31.25 26.3125 C-31.27578125 27.60800781 -31.3015625 28.90351562 -31.328125 30.23828125 C-30.85503265 35.66194716 -29.06659157 38.82935072 -25.4375 42.8125 C-20.46306217 46.60138385 -14.65228413 46.31902474 -8.6875 45.6015625 C-5.77573937 45.12771466 -2.88804863 44.60043623 0 44 C0 46.97 0 49.94 0 53 C-10.14185568 56.29561268 -19.5997849 57.97515655 -29.63671875 53.4609375 C-35.00625371 50.14158862 -39.00617847 45.68364184 -41.19921875 39.76171875 C-42.11312737 35.4685773 -42.34432837 31.499787 -42.3125 27.125 C-42.30758545 26.3299707 -42.3026709 25.53494141 -42.29760742 24.71582031 C-42.14449926 17.06198232 -41.11788473 10.13879101 -35.60546875 4.3515625 C-25.50637971 -4.15034701 -12.07627265 -3.94101165 0 0 Z " fill="#34424F" transform="translate(193,701)"/>
<path d="M0 0 C4.24653342 2.61325134 5.89529825 5.31436493 7.25 10 C7.72898096 15.51196551 7.62856798 20.97400258 7.5 26.5 C7.47990494 28.00518458 7.46165948 29.51039505 7.4453125 31.015625 C7.40155298 34.67762737 7.33269216 38.33864578 7.25 42 C3.62 42 -0.01 42 -3.75 42 C-3.7593457 41.14245117 -3.76869141 40.28490234 -3.77832031 39.40136719 C-3.82241291 36.21027321 -3.88406056 33.02013244 -3.95751953 29.82958984 C-3.98569099 28.45048349 -4.00692472 27.07121682 -4.02099609 25.69189453 C-4.04247545 23.70577051 -4.09123132 21.72000091 -4.140625 19.734375 C-4.16157227 18.54038086 -4.18251953 17.34638672 -4.20410156 16.11621094 C-4.8487364 12.43637234 -5.7983097 11.22361575 -8.75 9 C-11.91374283 8.6141777 -13.70713516 8.98571172 -16.75 10 C-18.53726146 14.10867294 -19.03193148 17.8250266 -19.1640625 22.2734375 C-19.22207031 24.00400391 -19.22207031 24.00400391 -19.28125 25.76953125 C-19.3121875 26.95933594 -19.343125 28.14914063 -19.375 29.375 C-19.43300781 31.19451172 -19.43300781 31.19451172 -19.4921875 33.05078125 C-19.58613786 36.03370521 -19.67180807 39.01662825 -19.75 42 C-23.05 42 -26.35 42 -29.75 42 C-29.75 28.14 -29.75 14.28 -29.75 0 C-26.78 0 -23.81 0 -20.75 0 C-20.75 1.32 -20.75 2.64 -20.75 4 C-20.193125 3.6390625 -19.63625 3.278125 -19.0625 2.90625 C-12.11842494 -1.31649835 -8.00145424 -2.13372113 0 0 Z " fill="#FAFAFA" transform="translate(298.75,196)"/>
<path d="M0 0 C3.25702903 2.72060917 3.94150273 6.41795343 4.75512695 10.46606445 C5.08905236 14.99691236 5.04060857 19.48874948 4.94262695 24.02856445 C4.92232422 25.82777344 4.92232422 25.82777344 4.90161133 27.66333008 C4.86653496 30.59805324 4.81738122 33.53181328 4.75512695 36.46606445 C2.11512695 36.46606445 -0.52487305 36.46606445 -3.24487305 36.46606445 C-3.24487305 35.47606445 -3.24487305 34.48606445 -3.24487305 33.46606445 C-4.02862305 34.12606445 -4.81237305 34.78606445 -5.61987305 35.46606445 C-9.89672876 38.32068786 -14.28213626 38.13827462 -19.24487305 37.46606445 C-22.8508488 36.08505246 -23.93600545 34.93469115 -26.05737305 31.71606445 C-27.43804616 27.93738014 -27.74432402 25.46167221 -27.24487305 21.46606445 C-25.140899 17.48354214 -23.50393768 14.99222928 -19.24487305 13.46606445 C-16.620608 13.32647589 -14.11194558 13.27675076 -11.49487305 13.34106445 C-10.79749023 13.35008789 -10.10010742 13.35911133 -9.3815918 13.3684082 C-7.66920347 13.39186558 -5.95699301 13.42773341 -4.24487305 13.46606445 C-5.23487305 11.15606445 -6.22487305 8.84606445 -7.24487305 6.46606445 C-12.85487305 6.46606445 -18.46487305 6.46606445 -24.24487305 6.46606445 C-24.24487305 4.15606445 -24.24487305 1.84606445 -24.24487305 -0.53393555 C-16.24395737 -2.90457723 -7.5420832 -4.57537426 0 0 Z " fill="#344450" transform="translate(818.244873046875,474.533935546875)"/>
<path d="M0 0 C5.10209922 2.69544864 8.17381037 5.5214311 10 11 C10.0845387 13.4410776 10.11605786 15.85259213 10.09765625 18.29296875 C10.0962413 18.99899734 10.09482635 19.70502594 10.09336853 20.43244934 C10.08777764 22.68417626 10.07522688 24.93580321 10.0625 27.1875 C10.05748382 28.71549335 10.05292112 30.24348827 10.04882812 31.77148438 C10.0378112 35.51436135 10.02055287 39.25716373 10 43 C6.7 43 3.4 43 0 43 C-0.33 32.11 -0.66 21.22 -1 10 C-10.20737385 8.02359705 -10.20737385 8.02359705 -14.08081055 11.01049805 C-16.36436245 14.5675637 -16.65144212 16.62578702 -16.70703125 20.83203125 C-16.73603516 22.12431641 -16.76503906 23.41660156 -16.79492188 24.74804688 C-16.8013102 26.10286219 -16.80716288 27.45768013 -16.8125 28.8125 C-16.83565748 30.1868884 -16.86102545 31.56124144 -16.88867188 32.93554688 C-16.94753342 36.29065515 -16.98382337 39.64445874 -17 43 C-19.97 43 -22.94 43 -26 43 C-26 29.47 -26 15.94 -26 2 C-23.36 2 -20.72 2 -18 2 C-18 3.32 -18 4.64 -18 6 C-17.52949219 5.65066406 -17.05898437 5.30132813 -16.57421875 4.94140625 C-15.95160156 4.48636719 -15.32898437 4.03132812 -14.6875 3.5625 C-14.07261719 3.11003906 -13.45773437 2.65757812 -12.82421875 2.19140625 C-8.86886202 -0.39185671 -4.58019763 -0.63324702 0 0 Z " fill="#37485B" transform="translate(1206,714)"/>
<path d="M0 0 C4.69994029 1.71728588 7.20959499 3.86606666 10 8 C11.1687481 11.5062443 11.12514267 14.6477866 11.09765625 18.29296875 C11.0962413 18.99899734 11.09482635 19.70502594 11.09336853 20.43244934 C11.08777764 22.68417626 11.07522688 24.93580321 11.0625 27.1875 C11.05748382 28.71549335 11.05292112 30.24348827 11.04882812 31.77148438 C11.0378112 35.51436135 11.02055287 39.25716373 11 43 C7.7 43 4.4 43 1 43 C0.97494385 42.0713916 0.9498877 41.1427832 0.92407227 40.18603516 C0.82902068 36.74564196 0.72978293 33.30542287 0.62768555 29.86523438 C0.58433411 28.37537359 0.54265916 26.88546305 0.50268555 25.39550781 C0.44498785 23.25570673 0.38129245 21.11615615 0.31640625 18.9765625 C0.27974854 17.68830566 0.24309082 16.40004883 0.20532227 15.07275391 C0.20469325 12.0872318 0.20469325 12.0872318 -1 10 C-2.94601054 9.37777113 -2.94601054 9.37777113 -5.25 9.125 C-6.01828125 9.00382813 -6.7865625 8.88265625 -7.578125 8.7578125 C-11.1177752 9.11177752 -12.52040775 10.49283143 -15 13 C-15.7781731 16.27365752 -15.7781731 16.27365752 -15.70703125 19.953125 C-15.72215256 20.61334656 -15.73727386 21.27356812 -15.75285339 21.95379639 C-15.795682 24.0528796 -15.80456202 26.1505237 -15.8125 28.25 C-15.83564864 29.67712146 -15.86101477 31.10420879 -15.88867188 32.53125 C-15.95147146 36.02080563 -15.98384791 39.50988132 -16 43 C-18.97 43 -21.94 43 -25 43 C-25 29.47 -25 15.94 -25 2 C-22.36 2 -19.72 2 -17 2 C-17 3.32 -17 4.64 -17 6 C-16.443125 5.566875 -15.88625 5.13375 -15.3125 4.6875 C-9.90082974 0.73844333 -6.70763577 -0.98965118 0 0 Z " fill="#39495B" transform="translate(1323,714)"/>
<path d="M0 0 C3.63 0 7.26 0 11 0 C11 15.18 11 30.36 11 46 C19.58 46 28.16 46 37 46 C37 48.97 37 51.94 37 55 C24.79 55 12.58 55 0 55 C0 36.85 0 18.7 0 0 Z " fill="#3E494F" transform="translate(203,700)"/>
<path d="M0 0 C3.3 0 6.6 0 10 0 C9.22356674 4.78870461 7.64191492 9.2334021 6.05859375 13.80078125 C5.77146011 14.63715622 5.48432648 15.47353119 5.18849182 16.33525085 C4.27448582 18.99537396 3.35605824 21.65394581 2.4375 24.3125 C1.8154625 26.12034202 1.19371442 27.92828365 0.57226562 29.73632812 C-0.94847202 34.15871322 -2.47317587 38.57971276 -4 43 C-8.29 43 -12.58 43 -17 43 C-18.69651085 37.98485909 -20.38699242 32.96774081 -22.07202148 27.94873047 C-22.6455802 26.24310113 -23.22075638 24.53801478 -23.79760742 22.83349609 C-24.6284926 20.37740236 -25.45346033 17.91938746 -26.27734375 15.4609375 C-26.66332985 14.32620499 -26.66332985 14.32620499 -27.05711365 13.16854858 C-28.4054437 9.12483052 -29.43352038 5.24419445 -30 1 C-26.7 1 -23.4 1 -20 1 C-16.7 10.9 -13.4 20.8 -10 31 C-8.19933179 24.54103314 -8.19933179 24.54103314 -6.41113281 18.07861328 C-4.6560924 11.86092872 -2.48890456 5.96254961 0 0 Z " fill="#F8F8F8" transform="translate(1308,194)"/>
<path d="M0 0 C0 3.96 0 7.92 0 12 C3.63 12 7.26 12 11 12 C11 14.97 11 17.94 11 21 C7.7 21 4.4 21 1 21 C1 28.92 1 36.84 1 45 C3.97 45 6.94 45 10 45 C12 50.75 12 50.75 12 53 C6.7775461 55.61122695 1.74030635 55.79164406 -3.8125 54.1875 C-7.35260899 52.26572655 -8.71825194 50.84524417 -10 47 C-10.08291953 45.0079697 -10.10738177 43.01326287 -10.09765625 41.01953125 C-10.09443359 39.85615234 -10.09121094 38.69277344 -10.08789062 37.49414062 C-10.07951172 36.27919922 -10.07113281 35.06425781 -10.0625 33.8125 C-10.05798828 32.58595703 -10.05347656 31.35941406 -10.04882812 30.09570312 C-10.03703065 27.06375332 -10.02056921 24.03190094 -10 21 C-11.98 21 -13.96 21 -16 21 C-16 18.03 -16 15.06 -16 12 C-14.02 12 -12.04 12 -10 12 C-10 9.03 -10 6.06 -10 3 C-2.25 0 -2.25 0 0 0 Z " fill="#F7F7F7" transform="translate(328,184)"/>
<path d="M0 0 C3.63 0 7.26 0 11 0 C11.33 17.49 11.66 34.98 12 53 C13.65 53.33 15.3 53.66 17 54 C17 56.64 17 59.28 17 62 C13.92805092 63.53597454 11.39755707 63.2265038 8 63 C4.01933905 61.42275698 2.39332726 60.58999089 0 57 C-0.24050903 54.47529602 -0.24050903 54.47529602 -0.22705078 51.42700195 C-0.22689972 50.28604568 -0.22674866 49.14508942 -0.22659302 47.96955872 C-0.21627045 46.73823715 -0.20594788 45.50691559 -0.1953125 44.23828125 C-0.1924826 42.97735153 -0.18965271 41.71642181 -0.18673706 40.4172821 C-0.17743125 37.06839578 -0.15946703 33.71978209 -0.1373291 30.37097168 C-0.11685386 26.95241653 -0.10773176 23.5338332 -0.09765625 20.11523438 C-0.07558177 13.41007108 -0.04104438 6.70507293 0 0 Z " fill="#F6F6F6" transform="translate(178,176)"/>
<path d="M0 0 C0 2.64 0 5.28 0 8 C-0.804375 7.835 -1.60875 7.67 -2.4375 7.5 C-10.37559763 6.12632595 -10.37559763 6.12632595 -17.5625 8.8125 C-19.69376823 13.53835565 -19.65112835 17.89821784 -19 23 C-17.62747293 26.11937969 -17.020457 27.4897715 -14 29 C-9.26055347 29.31658385 -4.61552596 29.19110347 0 28 C0 30.64 0 33.28 0 36 C-5.88543367 38.73995981 -11.62234139 38.62731068 -18 38 C-23.55118988 35.62091862 -26.40079793 31.301958 -29 26 C-30.77284526 20.3469651 -30.61161336 14.83484009 -28.75 9.25 C-22.65498236 -2.06931848 -11.86390312 -5.46392602 0 0 Z " fill="#37454D" transform="translate(785,474)"/>
<path d="M0 0 C2.05078125 0.03255208 4.1015625 0.06510417 6.15234375 0.09765625 C6.48234375 1.74765625 6.81234375 3.39765625 7.15234375 5.09765625 C8.14234375 4.27265625 9.13234375 3.44765625 10.15234375 2.59765625 C14.28329964 -0.40129946 17.15514577 -0.34069445 22.15234375 0.09765625 C22.15234375 3.39765625 22.15234375 6.69765625 22.15234375 10.09765625 C20.56421875 10.15953125 18.97609375 10.22140625 17.33984375 10.28515625 C14.63747958 10.28359127 14.63747958 10.28359127 12.15234375 11.09765625 C9.2850824 14.88616764 8.75181937 17.79978516 8.640625 22.4921875 C8.60517578 23.69423828 8.56972656 24.89628906 8.53320312 26.13476562 C8.49936523 28.00358398 8.49936523 28.00358398 8.46484375 29.91015625 C8.43068359 31.17537109 8.39652344 32.44058594 8.36132812 33.74414062 C8.27897246 36.8618907 8.20977846 39.97936384 8.15234375 43.09765625 C4.52234375 43.09765625 0.89234375 43.09765625 -2.84765625 43.09765625 C-2.87230199 37.13452459 -2.89049025 31.1714223 -2.90258789 25.20825195 C-2.90762903 23.17797327 -2.91446182 21.14769823 -2.9230957 19.11743164 C-2.93517092 16.20588278 -2.94088659 13.29438175 -2.9453125 10.3828125 C-2.95047379 9.46927505 -2.95563507 8.55573761 -2.96095276 7.61451721 C-2.96114793 5.44190198 -2.9097743 3.26938329 -2.84765625 1.09765625 C-1.84765625 0.09765625 -1.84765625 0.09765625 0 0 Z " fill="#F2F2F2" transform="translate(1252.84765625,193.90234375)"/>
<path d="M0 0 C0 2.64 0 5.28 0 8 C-1.2375 7.505 -1.2375 7.505 -2.5 7 C-6.5873983 5.83217191 -9.76923344 5.8541115 -14 6 C-14.33 7.32 -14.66 8.64 -15 10 C-13.989375 10.4125 -12.97875 10.825 -11.9375 11.25 C-2.51936197 15.33819785 -2.51936197 15.33819785 1 19.1875 C2.46655411 23.31218344 2.25706275 26.81988772 1 31 C-1.56535196 34.24044458 -3.086805 35.69560167 -7 37 C-9.33175914 37.09528823 -11.66629974 37.12986188 -14 37.125 C-15.2375 37.12757813 -16.475 37.13015625 -17.75 37.1328125 C-21 37 -21 37 -24 36 C-24 33.36 -24 30.72 -24 28 C-23.195625 28.165 -22.39125 28.33 -21.5625 28.5 C-17.37024562 29.08838658 -13.22821441 29.30265114 -9 29 C-7.70366379 27.93354885 -7.70366379 27.93354885 -7.9375 25.4375 C-7.958125 24.633125 -7.97875 23.82875 -8 23 C-8.83144531 22.67386719 -9.66289063 22.34773438 -10.51953125 22.01171875 C-11.60621094 21.57472656 -12.69289063 21.13773437 -13.8125 20.6875 C-14.89144531 20.25824219 -15.97039063 19.82898438 -17.08203125 19.38671875 C-19.72635978 18.13004321 -21.23252874 17.28420704 -23 15 C-24.20190901 11.39427296 -24.32670315 8.7897565 -24 5 C-18.52088709 -3.80571718 -8.93793116 -3.76333944 0 0 Z " fill="#2F4255" transform="translate(901,475)"/>
<path d="M0 0 C2.64 0 5.28 0 8 0 C8.33 1.65 8.66 3.3 9 5 C9.99 4.175 10.98 3.35 12 2.5 C16.13095589 -0.49895571 19.00280202 -0.4383507 24 0 C24 3.3 24 6.6 24 10 C22.7625 9.9175 21.525 9.835 20.25 9.75 C17.03351368 9.7443071 16.24414055 9.81845959 13.5625 11.8125 C10.94931864 15.4709539 10.83309586 18.60219276 10.68359375 22.98046875 C10.64169922 24.14384766 10.59980469 25.30722656 10.55664062 26.50585938 C10.51732422 27.72080078 10.47800781 28.93574219 10.4375 30.1875 C10.39431641 31.41404297 10.35113281 32.64058594 10.30664062 33.90429688 C10.2004691 36.93608381 10.09842048 39.96795315 10 43 C6.7 43 3.4 43 0 43 C0 28.81 0 14.62 0 0 Z " fill="#FBFBFB" transform="translate(1367,194)"/>
<path d="M0 0 C3.3 0 6.6 0 10 0 C10 18.15 10 36.3 10 55 C6.7 55 3.4 55 0 55 C0 36.85 0 18.7 0 0 Z " fill="#384245" transform="translate(248,700)"/>
<path d="M0 0 C2.97 0 5.94 0 9 0 C9.33 15.51 9.66 31.02 10 47 C11.65 47.33 13.3 47.66 15 48 C15 50.64 15 53.28 15 56 C7.06666667 56.62222222 7.06666667 56.62222222 3 54.25 C-0.08283681 50.78180859 -0.12543008 47.66343146 -0.11352539 43.13964844 C-0.11344986 42.17895447 -0.11337433 41.2182605 -0.11329651 40.22845459 C-0.10813522 39.19915833 -0.10297394 38.16986206 -0.09765625 37.109375 C-0.0962413 36.04962463 -0.09482635 34.98987427 -0.09336853 33.89801025 C-0.08777382 30.51531138 -0.07522225 27.13267885 -0.0625 23.75 C-0.05748432 21.45573012 -0.05292153 19.16145921 -0.04882812 16.8671875 C-0.03780611 11.24476613 -0.02054507 5.62239431 0 0 Z " fill="#324559" transform="translate(856,456)"/>
<path d="M0 0 C2.97 0 5.94 0 9 0 C9.33 15.51 9.66 31.02 10 47 C11.32 47.33 12.64 47.66 14 48 C14 50.64 14 53.28 14 56 C8.31845765 56.45452339 5.39963479 55.66636232 1 52 C0.02360569 49.07081707 -0.12136181 47.20974262 -0.11352539 44.16137695 C-0.11344986 43.1805867 -0.11337433 42.19979645 -0.11329651 41.18928528 C-0.10813522 40.13295395 -0.10297394 39.07662262 -0.09765625 37.98828125 C-0.0962413 36.90491989 -0.09482635 35.82155853 -0.09336853 34.70536804 C-0.08776559 31.24105075 -0.07521258 27.7767978 -0.0625 24.3125 C-0.05748538 21.96549572 -0.05292241 19.61849044 -0.04882812 17.27148438 C-0.0377952 11.51429808 -0.02052858 5.75715995 0 0 Z " fill="#314356" transform="translate(834,456)"/>
<path d="M0 0 C2.97 0 5.94 0 9 0 C9 17.16 9 34.32 9 52 C6.03 52 3.06 52 0 52 C0 34.84 0 17.68 0 0 Z " fill="#30404E" transform="translate(716,459)"/>
<path d="M0 0 C2.6796875 1.46484375 2.6796875 1.46484375 5 4 C5.7409113 7.01532792 5.69906823 9.90888606 5.625 13 C5.65400391 14.21042969 5.65400391 14.21042969 5.68359375 15.4453125 C5.64922756 19.61049493 5.57230845 21.37470003 2.6796875 24.53515625 C-0.8344274 26.45613742 -3.04501366 26.49437329 -7 26 C-10.42136986 24.60034869 -11.74271951 23.38148487 -13.8125 20.3125 C-15.71112506 15.01633535 -15.71112506 10.98366465 -13.8125 5.6875 C-10.20096131 0.33245987 -6.33622625 -0.79202828 0 0 Z " fill="#F9FAFA" transform="translate(1249,722)"/>
<path d="M0 0 C2.93423195 1.79646854 4.47205355 2.9441071 6 6 C6.51816286 10.79937735 6.71207367 14.73409126 4.3125 19 C0.97162429 21.88940602 -1.58165064 22.81893412 -5.9375 23.375 C-10.46356357 22.82078813 -13.55726319 20.83621049 -16.375 17.25 C-17.34165091 13.77005671 -17.68551123 10.536152 -17 7 C-12.86661501 -0.1450707 -7.71561228 -0.90985994 0 0 Z " fill="#F5F9FA" transform="translate(1206,575)"/>
<path d="M0 0 C3.125 2.4375 3.125 2.4375 5 5 C5.33 5.33 5.66 5.66 6 6 C6.67654612 9.9907657 6.85315603 13.57719825 4.73046875 17.1171875 C1.6064104 20.78092503 -0.30567005 22.83708366 -5.25 23.3125 C-9.68062166 22.94328153 -11.61779734 21.83161153 -15 19 C-17.55522561 14.80275656 -17.90164318 10.78946237 -17 6 C-13.57655671 -0.86085982 -6.95617857 -1.46111513 0 0 Z " fill="#F3F7F9" transform="translate(172,575)"/>
<path d="M0 0 C3.3 0 6.6 0 10 0 C10 13.86 10 27.72 10 42 C6.7 42 3.4 42 0 42 C0 28.14 0 14.28 0 0 Z " fill="#FDFDFD" transform="translate(203,196)"/>
<path d="M0 0 C2.64 0 5.28 0 8 0 C8 1.32 8 2.64 8 4 C9.32 3.01 10.64 2.02 12 1 C12.66 1.33 13.32 1.66 14 2 C13.01 3.32 12.02 4.64 11 6 C11.99 5.67 12.98 5.34 14 5 C15.39439664 4.93334624 16.79169875 4.91461801 18.1875 4.9375 C20.0746875 4.9684375 20.0746875 4.9684375 22 5 C22 5.33 22 5.66 22 6 C21.38511719 6.09796875 20.77023437 6.1959375 20.13671875 6.296875 C18.92435547 6.52117188 18.92435547 6.52117188 17.6875 6.75 C16.88699219 6.88921875 16.08648438 7.0284375 15.26171875 7.171875 C12.31063596 8.25240963 11.58773201 9.29505769 10 12 C9.49622716 15.18944188 9.49622716 15.18944188 9.48828125 18.734375 C9.45283203 20.02988281 9.41738281 21.32539062 9.38085938 22.66015625 C9.35776133 24.02343226 9.33497886 25.38671364 9.3125 26.75 C9.27931352 28.12893862 9.24482262 29.5078465 9.20898438 30.88671875 C9.12647709 34.25773059 9.05733229 37.62848128 9 41 C6.03 41 3.06 41 0 41 C0 27.47 0 13.94 0 0 Z " fill="#2D3F53" transform="translate(1180,716)"/>
<path d="M0 0 C2.64 0 5.28 0 8 0 C8 1.32 8 2.64 8 4 C9.32 3.01 10.64 2.02 12 1 C12.66 1.33 13.32 1.66 14 2 C12.25 8.75 12.25 8.75 10 11 C9.62677573 14.10756015 9.62677573 14.10756015 9.5859375 17.7578125 C9.56657135 18.42086395 9.5472052 19.08391541 9.5272522 19.76705933 C9.46744046 21.88624177 9.42106612 24.0054785 9.375 26.125 C9.33682155 27.56122169 9.29776989 28.99742045 9.2578125 30.43359375 C9.16173875 33.95551936 9.07771358 37.47761608 9 41 C6.03 41 3.06 41 0 41 C0 27.47 0 13.94 0 0 Z " fill="#2F4052" transform="translate(1298,716)"/>
<path d="M0 0 C2.97 0 5.94 0 9 0 C9 13.53 9 27.06 9 41 C6.03 41 3.06 41 0 41 C0 27.47 0 13.94 0 0 Z " fill="#2F3F52" transform="translate(1276,715)"/>
<path d="M0 0 C11.0438247 -0.60680356 11.0438247 -0.60680356 15.25 2.0625 C17.43736375 5.73414629 17.61233721 7.7901817 17 12 C15.23984869 15.1850357 14.50109084 15.83296972 11 17 C7.32893957 17.13281695 3.67480286 17.04323297 0 17 C0 11.39 0 5.78 0 0 Z " fill="#FAFAFA" transform="translate(680,467)"/>
<path d="M0 0 C13.53 0 27.06 0 41 0 C41 13.2 41 26.4 41 40 C28.46 40 15.92 40 3 40 C3 39.67 3 39.34 3 39 C15.21 39 27.42 39 40 39 C40 26.79 40 14.58 40 2 C27.46 2 14.92 2 2 2 C2 14.54 2 27.08 2 40 C1.34 40 0.68 40 0 40 C0 26.8 0 13.6 0 0 Z " fill="#3CA0D2" transform="translate(1260,364)"/>
<path d="M0 0 C0.66 0 1.32 0 2 0 C2 12.54 2 25.08 2 38 C14.54 38 27.08 38 40 38 C40 25.79 40 13.58 40 1 C40.33 1 40.66 1 41 1 C41 13.87 41 26.74 41 40 C27.47 40 13.94 40 0 40 C0 26.8 0 13.6 0 0 Z " fill="#43A4D5" transform="translate(125,413)"/>
<path d="M0 0 C2 1 2 1 2.77783203 2.71826172 C3.01872559 3.44803223 3.25961914 4.17780273 3.5078125 4.9296875 C3.77207031 5.72503906 4.03632812 6.52039063 4.30859375 7.33984375 C4.57800781 8.17644531 4.84742188 9.01304687 5.125 9.875 C5.40214844 10.70386719 5.67929687 11.53273438 5.96484375 12.38671875 C8 18.5924415 8 18.5924415 8 22 C3.05 22 -1.9 22 -7 22 C-4.75161726 14.63460827 -2.47226689 7.29318732 0 0 Z " fill="#F5F6F6" transform="translate(637,469)"/>
<path d="M0 0 C2.5 1.0625 2.5 1.0625 4 3 C4.33 5.31 4.66 7.62 5 10 C-1.27 10 -7.54 10 -14 10 C-13 4 -13 4 -11.5 1.625 C-7.75322461 -0.81040401 -4.34339228 -0.63873416 0 0 Z " fill="#F7F7F7" transform="translate(1366,722)"/>
<path d="M0 0 C1.9375 1.125 1.9375 1.125 3 3 C3.4375 6 3.4375 6 3 9 C0.74827097 11.59814888 -0.65017705 11.95716454 -4.0625 12.375 C-7 12 -7 12 -8.875 10.875 C-10.52854531 8.11909116 -10.39365568 6.14924548 -10 3 C-7.72054654 -1.02256493 -4.21158603 -0.45124136 0 0 Z " fill="#F4F5F5" transform="translate(211,177)"/>
<path d="M0 0 C1.09054687 0.02320313 2.18109375 0.04640625 3.3046875 0.0703125 C4.40039062 0.08835937 5.49609375 0.10640625 6.625 0.125 C7.46804688 0.14820313 8.31109375 0.17140625 9.1796875 0.1953125 C9.4453125 5.8984375 9.4453125 5.8984375 7.0546875 8.5703125 C3.71722746 10.45670296 1.95283194 10.76948665 -1.8203125 10.1953125 C-3.6953125 9.0078125 -3.6953125 9.0078125 -4.8203125 7.1953125 C-5.1328125 4.6328125 -5.1328125 4.6328125 -4.8203125 2.1953125 C-2.8203125 0.1953125 -2.8203125 0.1953125 0 0 Z " fill="#F4F5F5" transform="translate(804.8203125,494.8046875)"/>
<path d="M0 0 C2.1640625 0.42578125 2.1640625 0.42578125 4.7265625 2.73828125 C6.1640625 5.42578125 6.1640625 5.42578125 6.1640625 8.42578125 C0.5540625 8.42578125 -5.0559375 8.42578125 -10.8359375 8.42578125 C-9.3419765 0.95597625 -7.27259476 -0.22504772 0 0 Z " fill="#414646" transform="translate(1341.8359375,202.57421875)"/>
<path d="M0 0 C2.375 1.1875 2.375 1.1875 4 3 C4.33 4.65 4.66 6.3 5 8 C-0.61 8 -6.22 8 -12 8 C-11 3 -11 3 -9.375 1.1875 C-6.06001173 -0.46999413 -3.65899856 -0.39203556 0 0 Z " fill="#444A49" transform="translate(245,204)"/>
<path d="M0 0 C1.94140625 0.390625 1.94140625 0.390625 4.44140625 2.703125 C5.94140625 5.390625 5.94140625 5.390625 5.94140625 8.390625 C0.33140625 8.390625 -5.27859375 8.390625 -11.05859375 8.390625 C-8.6912991 1.28874105 -7.41624801 -0.16389498 0 0 Z " fill="#3F4544" transform="translate(1225.05859375,202.609375)"/>
<path d="M0 0 C3.5 0.25 3.5 0.25 5.5 2.25 C5.83015665 5.35347254 6.00531294 7.40781176 4.375 10.125 C1.65781176 11.75531294 -0.39652746 11.58015665 -3.5 11.25 C-5.5 9.25 -5.5 9.25 -5.75 5.75 C-5.40898007 0.975721 -4.774279 0.34101993 0 0 Z " fill="#2F4052" transform="translate(1280.5,696.75)"/>
<path d="M0 0 C2.64 0 5.28 0 8 0 C8 14.19 8 28.38 8 43 C7.01 43.495 7.01 43.495 6 44 C6 30.14 6 16.28 6 2 C4.35 2 2.7 2 1 2 C0.67 2.99 0.34 3.98 0 5 C0 3.35 0 1.7 0 0 Z " fill="#405061" transform="translate(1256,715)"/>
<path d="M0 0 C3.0625 0.3125 3.0625 0.3125 4.9375 1.5 C6.48479478 3.99286381 6.56655716 5.43217335 6.0625 8.3125 C4.375 10.1875 4.375 10.1875 2.0625 11.3125 C-1.30786311 11.07175978 -2.52548021 10.72451979 -4.9375 8.3125 C-5.1875 5.3125 -5.1875 5.3125 -4.9375 2.3125 C-2.9375 0.3125 -2.9375 0.3125 0 0 Z " fill="#2C425D" transform="translate(1201.9375,580.6875)"/>
<path d="M0 0 C3.0625 0.3125 3.0625 0.3125 5 1.4375 C6.60193488 4.26444391 5.85834319 6.26176777 5.0625 9.3125 C4.0625 10.3125 4.0625 10.3125 0.625 10.5 C-2.9375 10.3125 -2.9375 10.3125 -4.9375 8.3125 C-5.1875 5.3125 -5.1875 5.3125 -4.9375 2.3125 C-2.9375 0.3125 -2.9375 0.3125 0 0 Z " fill="#2C425C" transform="translate(167.9375,580.6875)"/>
<path d="M0 0 C0.99 0.33 1.98 0.66 3 1 C2.34 3.31 1.68 5.62 1 8 C2.65 8 4.3 8 6 8 C5.67 8.99 5.34 9.98 5 11 C0.25 10.25 0.25 10.25 -2 8 C-2.25 5 -2.25 5 -2 2 C-1.34 1.34 -0.68 0.68 0 0 Z " fill="#334861" transform="translate(1199,581)"/>
<path d="M0 0 C0.33 0.66 0.66 1.32 1 2 C-3.455 3.485 -3.455 3.485 -8 5 C-8 5.66 -8 6.32 -8 7 C-8.66 7 -9.32 7 -10 7 C-8.07091409 1.3611335 -6.01450566 -0.32510841 0 0 Z " fill="#4C5150" transform="translate(290,204)"/>
</svg>
