<?xml version="1.0" encoding="UTF-8"?>
<svg version="1.1" xmlns="http://www.w3.org/2000/svg" width="1536" height="587">
<path d="M0 0 C506.88 0 1013.76 0 1536 0 C1536 193.71 1536 387.42 1536 587 C1029.12 587 522.24 587 0 587 C0 393.29 0 199.58 0 0 Z " fill="#FEFEFE" transform="translate(0,0)"/>
<path d="M0 0 C1.75697205 -0.01418472 1.75697205 -0.01418472 3.54943848 -0.02865601 C5.44792542 -0.01954697 5.44792542 -0.01954697 7.38476562 -0.01025391 C8.68297241 -0.01312408 9.9811792 -0.01599426 11.31872559 -0.01895142 C14.06594553 -0.02337316 16.8128727 -0.016949 19.56005859 -0.00292969 C23.08098403 0.01416268 26.60122345 0.00432061 30.12212372 -0.01364708 C33.48055934 -0.02709598 36.83881051 -0.01767904 40.19726562 -0.01025391 C41.46292358 -0.0163266 42.72858154 -0.02239929 44.03259277 -0.02865601 C45.20390747 -0.01919952 46.37522217 -0.00974304 47.58203125 0 C49.13065857 0.00358017 49.13065857 0.00358017 50.71057129 0.00723267 C53.7432744 0.45495054 54.42136012 1.02990368 56.29101562 3.38818359 C56.57177478 6.38706848 56.66966003 9.17585257 56.6315918 12.17407227 C56.63202988 13.07183884 56.63246796 13.96960541 56.63291931 14.89457703 C56.63082742 17.8653225 56.60747738 20.83550532 56.58398438 23.80615234 C56.57838985 25.86452425 56.57411908 27.92290014 56.57112122 29.98127747 C56.55966118 35.40159107 56.53018392 40.82166391 56.49700928 46.24188232 C56.46633343 51.77173607 56.45262119 57.30162868 56.4375 62.83154297 C56.40531542 73.68386236 56.35410499 84.53600296 56.29101562 95.38818359 C56.91297821 95.38374237 57.5349408 95.37930115 58.17575073 95.37472534 C64.63162953 95.3305812 71.08746567 95.30035441 77.54345703 95.27832031 C79.95493307 95.26824405 82.36639684 95.25458278 84.77783203 95.23730469 C88.23798648 95.21312769 91.69797982 95.20171691 95.15820312 95.19287109 C96.24156952 95.18254852 97.32493591 95.17222595 98.44113159 95.16159058 C99.44201813 95.16143951 100.44290466 95.16128845 101.47412109 95.16113281 C102.3579245 95.15669159 103.24172791 95.15225037 104.15231323 95.14767456 C106.29101562 95.38818359 106.29101562 95.38818359 108.29101562 97.38818359 C108.53152466 99.45095825 108.53152466 99.45095825 108.51806641 102.02148438 C108.51791534 102.98232941 108.51776428 103.94317444 108.51760864 104.93313599 C108.50728607 105.97275482 108.4969635 107.01237366 108.48632812 108.08349609 C108.48208328 109.67736649 108.48208328 109.67736649 108.47775269 111.30343628 C108.46653202 114.70679858 108.44142399 118.10990045 108.41601562 121.51318359 C108.40598827 123.81656522 108.39686199 126.11995095 108.38867188 128.42333984 C108.36658655 134.07837705 108.33309051 139.73326172 108.29101562 145.38818359 C139.23730637 144.90920687 139.23730637 144.90920687 168.29101562 135.38818359 C167.43311515 133.10044899 166.55897264 130.87164646 165.37304688 128.73193359 C157.30719273 114.14540809 156.40995912 93.33598687 160.83154297 77.44238281 C161.83773758 74.3448222 163.00845763 71.38435212 164.29101562 68.38818359 C164.68675781 67.43943359 165.0825 66.49068359 165.49023438 65.51318359 C168.25355703 59.49079269 172.04818102 54.45023986 176.29101562 49.38818359 C181.1399256 50.7185442 184.71290288 52.85285283 188.60351562 55.95068359 C189.16965576 56.39758545 189.7357959 56.8444873 190.3190918 57.30493164 C203.65831192 67.99635534 212.85010054 81.06543833 218.29101562 97.38818359 C218.33055797 99.72118185 218.33503295 102.05526548 218.29101562 104.38818359 C219.01546875 104.18322266 219.73992187 103.97826172 220.48632812 103.76708984 C221.453125 103.49767578 222.41992188 103.22826172 223.41601562 102.95068359 C224.36734375 102.68384766 225.31867188 102.41701172 226.29882812 102.14208984 C245.41506741 97.32559613 262.76436719 102.67404673 279.29101562 112.38818359 C279.62101562 113.04818359 279.95101563 113.70818359 280.29101562 114.38818359 C273.61693593 132.036796 260.50321426 143.64767138 243.86132812 151.54052734 C231.51105586 156.90580956 218.5664248 157.9220978 205.29101562 158.38818359 C204.82953125 159.52771484 204.36804687 160.66724609 203.89257812 161.84130859 C192.31922995 190.08076087 177.75032083 215.28091712 157.81445312 238.45068359 C156.30439769 240.20851902 154.80551905 241.97619538 153.33007812 243.76318359 C152.02601367 245.34078352 150.66608897 246.87207708 149.29101562 248.38818359 C148.63101562 248.38818359 147.97101563 248.38818359 147.29101562 248.38818359 C146.96101563 249.37818359 146.63101562 250.36818359 146.29101562 251.38818359 C144.75976562 252.93115234 144.75976562 252.93115234 142.79101562 254.57568359 C139.82599673 257.06426741 136.92980793 259.61007174 134.06445312 262.21240234 C99.47782101 292.9596205 54.29857829 307.08129094 9.29101562 313.38818359 C8.48325684 313.50677734 7.67549805 313.62537109 6.84326172 313.74755859 C-6.00225581 315.56295035 -18.88726229 315.56673012 -31.83398438 315.57568359 C-32.67453369 315.57677124 -33.51508301 315.57785889 -34.38110352 315.57897949 C-46.5188409 315.57720272 -58.59471983 315.1315317 -70.70898438 314.38818359 C-70.14606689 314.84330322 -69.58314941 315.29842285 -69.00317383 315.76733398 C-61.17239676 322.17222852 -56.81590756 328.96802913 -55.08398438 339.01318359 C-54.61771426 344.4530016 -54.70898438 349.92841915 -54.70898438 355.38818359 C-73.84898438 355.38818359 -92.98898437 355.38818359 -112.70898438 355.38818359 C-109.26733576 364.79681616 -109.26733576 364.79681616 -101.99414062 371.02490234 C-95.38933517 373.7657788 -87.39418911 373.65894385 -80.65039062 371.33349609 C-78.24510547 370.12549256 -75.98624435 368.81960415 -73.70898438 367.38818359 C-72.38257036 366.7078542 -71.05128382 366.03660816 -69.70898438 365.38818359 C-69.04898437 365.94505859 -68.38898438 366.50193359 -67.70898438 367.07568359 C-64.19138379 369.78716738 -60.50437018 372.09023288 -56.70898438 374.38818359 C-59.99848929 381.9640131 -67.38990854 386.25143681 -74.70898438 389.38818359 C-75.55460937 389.78005859 -76.40023438 390.17193359 -77.27148438 390.57568359 C-88.55599827 394.33718822 -100.95787584 393.10335036 -111.70898438 388.38818359 C-121.59853108 382.5581567 -130.10385504 374.87444592 -133.29736328 363.49853516 C-134.1830406 358.95773163 -134.22802977 354.37673655 -134.27148438 349.76318359 C-134.293479 348.31492187 -134.293479 348.31492187 -134.31591797 346.83740234 C-134.16215409 335.97389172 -130.01413063 326.43737252 -122.70898438 318.38818359 C-116.39117998 313.32037424 -109.31679907 310.04514274 -101.70898438 307.38818359 C-102.83433594 306.97568359 -103.9596875 306.56318359 -105.11914062 306.13818359 C-134.09059309 295.32547626 -156.5642959 278.56480586 -173.70898438 252.38818359 C-174.55396484 251.10621094 -174.55396484 251.10621094 -175.41601562 249.79833984 C-182.91484578 237.72911659 -187.92412394 224.20050072 -191.58398438 210.51318359 C-191.77492676 209.80218506 -191.96586914 209.09118652 -192.16259766 208.35864258 C-195.4042359 195.41707048 -196.05731782 182.67767285 -196.0246582 169.40698242 C-196.02144441 166.66660638 -196.04523961 163.92725919 -196.0703125 161.18701172 C-196.07258097 159.43766411 -196.0732911 157.68831362 -196.07226562 155.93896484 C-196.08147537 155.12341629 -196.09068512 154.30786774 -196.10017395 153.46760559 C-196.05376156 147.83879943 -196.05376156 147.83879943 -194.39633179 145.6725769 C-191.63646716 143.57179337 -188.52089606 144.02235783 -185.19726562 144.09521484 C-184.46904099 144.09945969 -183.74081635 144.10370453 -182.99052429 144.108078 C-180.6671331 144.12485626 -178.34461288 144.16250505 -176.02148438 144.20068359 C-174.44532504 144.21573162 -172.86915209 144.22941982 -171.29296875 144.24169922 C-167.4313056 144.27475674 -163.5702926 144.32653166 -159.70898438 144.38818359 C-159.71564621 143.81855392 -159.72230804 143.24892426 -159.72917175 142.66203308 C-159.79546556 136.74129879 -159.84076005 130.82066966 -159.8737793 124.8996582 C-159.88887962 122.68900267 -159.90936147 120.47837716 -159.93530273 118.26782227 C-159.97163092 115.09302366 -159.98869821 111.91862062 -160.00195312 108.74365234 C-160.01743698 107.75294235 -160.03292084 106.76223236 -160.0488739 105.74150085 C-160.04910049 104.82077286 -160.04932709 103.90004486 -160.04956055 102.95141602 C-160.05622238 102.14089279 -160.06288422 101.33036957 -160.06974792 100.49528503 C-159.70898438 98.38818359 -159.70898438 98.38818359 -158.51306152 96.62426758 C-156.07119138 94.95119247 -154.45238381 95.02659167 -151.50317383 95.04760742 C-149.91186394 95.04794731 -149.91186394 95.04794731 -148.28840637 95.04829407 C-146.5726667 95.07151985 -146.5726667 95.07151985 -144.82226562 95.09521484 C-143.06404732 95.10158211 -143.06404732 95.10158211 -141.27030945 95.108078 C-137.52046904 95.12489287 -133.77116281 95.16255127 -130.02148438 95.20068359 C-127.48177859 95.21572675 -124.94206439 95.2294158 -122.40234375 95.24169922 C-116.17104119 95.27480563 -109.94005094 95.32503331 -103.70898438 95.38818359 C-103.72469482 94.10129639 -103.74040527 92.81440918 -103.7565918 91.48852539 C-103.81084213 86.71954595 -103.84531667 81.95059385 -103.8737793 77.18139648 C-103.88887709 75.11624568 -103.90935711 73.05112699 -103.93530273 70.98608398 C-103.97164232 68.01977621 -103.98870067 65.05389189 -104.00195312 62.08740234 C-104.01743698 61.16231369 -104.03292084 60.23722504 -104.0488739 59.28410339 C-104.04910049 58.42343765 -104.04932709 57.56277191 -104.04956055 56.67602539 C-104.0595533 55.54018257 -104.0595533 55.54018257 -104.06974792 54.38139343 C-103.60153465 51.79452645 -102.7297367 51.03223187 -100.70898438 49.38818359 C-97.71009948 49.10742444 -94.9213154 49.00953919 -91.9230957 49.04760742 C-91.02532913 49.04716934 -90.12756256 49.04673126 -89.20259094 49.04627991 C-86.23184546 49.0483718 -83.26166265 49.07172184 -80.29101562 49.09521484 C-78.23264372 49.10080937 -76.17426783 49.10508014 -74.1158905 49.108078 C-68.69557689 49.11953804 -63.27550406 49.1490153 -57.85528564 49.18218994 C-52.3254319 49.21286579 -46.79553929 49.22657803 -41.265625 49.24169922 C-30.41330561 49.2738838 -19.56116501 49.32509423 -8.70898438 49.38818359 C-8.71897713 48.53373909 -8.71897713 48.53373909 -8.72917175 47.66203308 C-8.79546556 41.74129879 -8.84076005 35.82066966 -8.8737793 29.8996582 C-8.88887962 27.68900267 -8.90936147 25.47837716 -8.93530273 23.26782227 C-8.97163092 20.09302366 -8.98869821 16.91862062 -9.00195312 13.74365234 C-9.01743698 12.75294235 -9.03292084 11.76223236 -9.0488739 10.74150085 C-9.04921379 9.36040886 -9.04921379 9.36040886 -9.04956055 7.95141602 C-9.0595533 6.73563118 -9.0595533 6.73563118 -9.06974792 5.49528503 C-8.18005686 0.29889166 -4.6370567 0.01072011 0 0 Z " fill="#4AA3E6" transform="translate(1189.708984375,101.61181640625)"/>
<path d="M0 0 C0.74894531 0.27714844 1.49789062 0.55429688 2.26953125 0.83984375 C12.42953966 5.18840751 20.19734226 14.27972728 25 24 C28.55041142 33.36312767 30.12113401 42.21573655 30.24609375 52.16796875 C30.27904698 53.96680147 30.31225837 55.76562948 30.34570312 57.56445312 C30.39290657 60.37048978 30.43734545 63.17650941 30.47680664 65.98266602 C30.65438875 84.87159888 30.65438875 84.87159888 36.0625 102.8125 C36.36559082 103.48627686 36.66868164 104.16005371 36.98095703 104.85424805 C41.8326168 115.29277876 48.2932391 124.43411963 55.68359375 133.23828125 C75.01694269 156.28832796 90.97637687 183.95121536 91.25 214.75 C91.25942627 215.55469727 91.26885254 216.35939453 91.27856445 217.18847656 C91.25126453 222.1642737 90.58962724 226.28158264 89 231 C88.34 231 87.68 231 87 231 C87 231.66 87 232.32 87 233 C87.53625 233.061875 88.0725 233.12375 88.625 233.1875 C92.16252163 234.39770477 94.65755092 236.13490772 97 239 C99.32034046 243.8139531 100.78436218 248.85751093 101.9375 254.0625 C103.79380375 261.87177783 107.5110858 268.16854084 113.44921875 273.52734375 C115.5095877 275.48391577 116.87031058 277.20829131 117.3359375 280.05078125 C117.43127122 285.57060369 116.86084818 288.7624837 113 293 C108.98655366 296.30462765 104.46795814 298.76441966 99.90234375 301.21484375 C88.3665527 307.41431651 78.44762233 314.35706313 68.59765625 322.96484375 C62.45563256 328.31632755 56.62815072 332.89770631 49 336 C48.20078125 336.36222656 47.4015625 336.72445313 46.578125 337.09765625 C40.28600506 339.29989823 33.15997752 338.84423667 27.0625 336.25 C19.04585186 332.0755652 14.85358401 326.56075203 12 318 C-10.06812523 315.31927329 -37.23201097 312.09392992 -58 322 C-60.08198268 323.89839321 -61.69588007 325.84382817 -63.37890625 328.09765625 C-67.22668366 332.61299987 -73.64112571 334.81107414 -79.4140625 335.2734375 C-92.23038934 335.71612444 -102.72016552 332.71201317 -114.63671875 328.28515625 C-116.25710227 327.68817285 -117.87821163 327.09315632 -119.5 326.5 C-120.72432739 326.0505603 -120.72432739 326.0505603 -121.97338867 325.59204102 C-129.89635237 322.80591888 -137.97154224 321.22262939 -146.24804688 319.86132812 C-154.288211 318.45782121 -162.51927837 316.26019258 -168.0625 309.875 C-170.87339351 305.70399672 -171.82352399 301.94990482 -171 297 C-170.21048905 295.06487002 -169.37207611 293.14935221 -168.5 291.25 C-165.2891066 284.030025 -165.01278643 277.59454487 -167 270 C-167.53142723 265.36899126 -167.72381693 262.30713455 -164.875 258.5 C-160.79718582 254.22660721 -155.49718302 251.64132873 -150.33984375 248.89453125 C-143.48263108 245.00476734 -139.54283539 240.07195434 -134.9296875 233.86914062 C-131.30499691 229.10166564 -131.30499691 229.10166564 -128 228 C-128.04640625 226.98164063 -128.0928125 225.96328125 -128.140625 224.9140625 C-129.17636905 192.22363516 -112.36879511 165.88443059 -94.76806641 139.67504883 C-89.80650492 132.26705496 -85.05418962 124.94616498 -81 117 C-80.53376221 116.10514893 -80.06752441 115.21029785 -79.5871582 114.28833008 C-74.17575574 101.85206656 -75.56541878 88.59249653 -75.875 75.3125 C-76.89194662 25.9322924 -76.89194662 25.9322924 -63.78515625 9.80859375 C-47.56509298 -6.6244244 -20.64789053 -8.26491573 0 0 Z " fill="#202020" transform="translate(301,109)"/>
<path d="M0 0 C1.75697205 -0.01418472 1.75697205 -0.01418472 3.54943848 -0.02865601 C5.44792542 -0.01954697 5.44792542 -0.01954697 7.38476562 -0.01025391 C8.68297241 -0.01312408 9.9811792 -0.01599426 11.31872559 -0.01895142 C14.06594553 -0.02337316 16.8128727 -0.016949 19.56005859 -0.00292969 C23.08098403 0.01416268 26.60122345 0.00432061 30.12212372 -0.01364708 C33.48055934 -0.02709598 36.83881051 -0.01767904 40.19726562 -0.01025391 C41.46292358 -0.0163266 42.72858154 -0.02239929 44.03259277 -0.02865601 C45.20390747 -0.01919952 46.37522217 -0.00974304 47.58203125 0 C49.13065857 0.00358017 49.13065857 0.00358017 50.71057129 0.00723267 C53.7432744 0.45495054 54.42136012 1.02990368 56.29101562 3.38818359 C56.57177478 6.38706848 56.66966003 9.17585257 56.6315918 12.17407227 C56.63202988 13.07183884 56.63246796 13.96960541 56.63291931 14.89457703 C56.63082742 17.8653225 56.60747738 20.83550532 56.58398438 23.80615234 C56.57838985 25.86452425 56.57411908 27.92290014 56.57112122 29.98127747 C56.55966118 35.40159107 56.53018392 40.82166391 56.49700928 46.24188232 C56.46633343 51.77173607 56.45262119 57.30162868 56.4375 62.83154297 C56.40531542 73.68386236 56.35410499 84.53600296 56.29101562 95.38818359 C56.91297821 95.38374237 57.5349408 95.37930115 58.17575073 95.37472534 C64.63162953 95.3305812 71.08746567 95.30035441 77.54345703 95.27832031 C79.95493307 95.26824405 82.36639684 95.25458278 84.77783203 95.23730469 C88.23798648 95.21312769 91.69797982 95.20171691 95.15820312 95.19287109 C96.24156952 95.18254852 97.32493591 95.17222595 98.44113159 95.16159058 C99.44201813 95.16143951 100.44290466 95.16128845 101.47412109 95.16113281 C102.3579245 95.15669159 103.24172791 95.15225037 104.15231323 95.14767456 C106.29101562 95.38818359 106.29101562 95.38818359 108.29101562 97.38818359 C108.53152466 99.45095825 108.53152466 99.45095825 108.51806641 102.02148438 C108.51791534 102.98232941 108.51776428 103.94317444 108.51760864 104.93313599 C108.50728607 105.97275482 108.4969635 107.01237366 108.48632812 108.08349609 C108.48208328 109.67736649 108.48208328 109.67736649 108.47775269 111.30343628 C108.46653202 114.70679858 108.44142399 118.10990045 108.41601562 121.51318359 C108.40598827 123.81656522 108.39686199 126.11995095 108.38867188 128.42333984 C108.36658655 134.07837705 108.33309051 139.73326172 108.29101562 145.38818359 C139.23730637 144.90920687 139.23730637 144.90920687 168.29101562 135.38818359 C167.43311515 133.10044899 166.55897264 130.87164646 165.37304688 128.73193359 C157.30719273 114.14540809 156.40995912 93.33598687 160.83154297 77.44238281 C161.83773758 74.3448222 163.00845763 71.38435212 164.29101562 68.38818359 C164.68675781 67.43943359 165.0825 66.49068359 165.49023438 65.51318359 C168.25355703 59.49079269 172.04818102 54.45023986 176.29101562 49.38818359 C181.1399256 50.7185442 184.71290288 52.85285283 188.60351562 55.95068359 C189.16965576 56.39758545 189.7357959 56.8444873 190.3190918 57.30493164 C203.65831192 67.99635534 212.85010054 81.06543833 218.29101562 97.38818359 C218.33055797 99.72118185 218.33503295 102.05526548 218.29101562 104.38818359 C219.01546875 104.18322266 219.73992187 103.97826172 220.48632812 103.76708984 C221.453125 103.49767578 222.41992188 103.22826172 223.41601562 102.95068359 C224.36734375 102.68384766 225.31867188 102.41701172 226.29882812 102.14208984 C245.41506741 97.32559613 262.76436719 102.67404673 279.29101562 112.38818359 C279.62101562 113.04818359 279.95101563 113.70818359 280.29101562 114.38818359 C273.61693593 132.036796 260.50321426 143.64767138 243.86132812 151.54052734 C231.51105586 156.90580956 218.5664248 157.9220978 205.29101562 158.38818359 C204.82953125 159.52771484 204.36804687 160.66724609 203.89257812 161.84130859 C192.31922995 190.08076087 177.75032083 215.28091712 157.81445312 238.45068359 C156.30439769 240.20851902 154.80551905 241.97619538 153.33007812 243.76318359 C152.02601367 245.34078352 150.66608897 246.87207708 149.29101562 248.38818359 C148.63101562 248.38818359 147.97101563 248.38818359 147.29101562 248.38818359 C146.96101563 249.37818359 146.63101562 250.36818359 146.29101562 251.38818359 C144.75976562 252.93115234 144.75976562 252.93115234 142.79101562 254.57568359 C139.82599673 257.06426741 136.92980793 259.61007174 134.06445312 262.21240234 C99.47782101 292.9596205 54.29857829 307.08129094 9.29101562 313.38818359 C8.48325684 313.50677734 7.67549805 313.62537109 6.84326172 313.74755859 C-6.00225581 315.56295035 -18.88726229 315.56673012 -31.83398438 315.57568359 C-32.67453369 315.57677124 -33.51508301 315.57785889 -34.38110352 315.57897949 C-46.5188409 315.57720272 -58.59471983 315.1315317 -70.70898438 314.38818359 C-70.14606689 314.84330322 -69.58314941 315.29842285 -69.00317383 315.76733398 C-61.17239676 322.17222852 -56.81590756 328.96802913 -55.08398438 339.01318359 C-54.61771426 344.4530016 -54.70898438 349.92841915 -54.70898438 355.38818359 C-73.84898438 355.38818359 -92.98898437 355.38818359 -112.70898438 355.38818359 C-109.26733576 364.79681616 -109.26733576 364.79681616 -101.99414062 371.02490234 C-95.38933517 373.7657788 -87.39418911 373.65894385 -80.65039062 371.33349609 C-78.24510547 370.12549256 -75.98624435 368.81960415 -73.70898438 367.38818359 C-72.38257036 366.7078542 -71.05128382 366.03660816 -69.70898438 365.38818359 C-69.04898437 365.94505859 -68.38898438 366.50193359 -67.70898438 367.07568359 C-64.19138379 369.78716738 -60.50437018 372.09023288 -56.70898438 374.38818359 C-59.99848929 381.9640131 -67.38990854 386.25143681 -74.70898438 389.38818359 C-75.55460937 389.78005859 -76.40023438 390.17193359 -77.27148438 390.57568359 C-88.55599827 394.33718822 -100.95787584 393.10335036 -111.70898438 388.38818359 C-121.59853108 382.5581567 -130.10385504 374.87444592 -133.29736328 363.49853516 C-134.1830406 358.95773163 -134.22802977 354.37673655 -134.27148438 349.76318359 C-134.293479 348.31492187 -134.293479 348.31492187 -134.31591797 346.83740234 C-134.16215409 335.97389172 -130.01413063 326.43737252 -122.70898438 318.38818359 C-116.39117998 313.32037424 -109.31679907 310.04514274 -101.70898438 307.38818359 C-102.83433594 306.97568359 -103.9596875 306.56318359 -105.11914062 306.13818359 C-134.09059309 295.32547626 -156.5642959 278.56480586 -173.70898438 252.38818359 C-174.55396484 251.10621094 -174.55396484 251.10621094 -175.41601562 249.79833984 C-182.91484578 237.72911659 -187.92412394 224.20050072 -191.58398438 210.51318359 C-191.77492676 209.80218506 -191.96586914 209.09118652 -192.16259766 208.35864258 C-195.4042359 195.41707048 -196.05731782 182.67767285 -196.0246582 169.40698242 C-196.02144441 166.66660638 -196.04523961 163.92725919 -196.0703125 161.18701172 C-196.07258097 159.43766411 -196.0732911 157.68831362 -196.07226562 155.93896484 C-196.08147537 155.12341629 -196.09068512 154.30786774 -196.10017395 153.46760559 C-196.05376156 147.83879943 -196.05376156 147.83879943 -194.39633179 145.6725769 C-191.63646716 143.57179337 -188.52089606 144.02235783 -185.19726562 144.09521484 C-184.46904099 144.09945969 -183.74081635 144.10370453 -182.99052429 144.108078 C-180.6671331 144.12485626 -178.34461288 144.16250505 -176.02148438 144.20068359 C-174.44532504 144.21573162 -172.86915209 144.22941982 -171.29296875 144.24169922 C-167.4313056 144.27475674 -163.5702926 144.32653166 -159.70898438 144.38818359 C-159.71564621 143.81855392 -159.72230804 143.24892426 -159.72917175 142.66203308 C-159.79546556 136.74129879 -159.84076005 130.82066966 -159.8737793 124.8996582 C-159.88887962 122.68900267 -159.90936147 120.47837716 -159.93530273 118.26782227 C-159.97163092 115.09302366 -159.98869821 111.91862062 -160.00195312 108.74365234 C-160.01743698 107.75294235 -160.03292084 106.76223236 -160.0488739 105.74150085 C-160.04910049 104.82077286 -160.04932709 103.90004486 -160.04956055 102.95141602 C-160.05622238 102.14089279 -160.06288422 101.33036957 -160.06974792 100.49528503 C-159.70898438 98.38818359 -159.70898438 98.38818359 -158.51306152 96.62426758 C-156.07119138 94.95119247 -154.45238381 95.02659167 -151.50317383 95.04760742 C-149.91186394 95.04794731 -149.91186394 95.04794731 -148.28840637 95.04829407 C-146.5726667 95.07151985 -146.5726667 95.07151985 -144.82226562 95.09521484 C-143.06404732 95.10158211 -143.06404732 95.10158211 -141.27030945 95.108078 C-137.52046904 95.12489287 -133.77116281 95.16255127 -130.02148438 95.20068359 C-127.48177859 95.21572675 -124.94206439 95.2294158 -122.40234375 95.24169922 C-116.17104119 95.27480563 -109.94005094 95.32503331 -103.70898438 95.38818359 C-103.72469482 94.10129639 -103.74040527 92.81440918 -103.7565918 91.48852539 C-103.81084213 86.71954595 -103.84531667 81.95059385 -103.8737793 77.18139648 C-103.88887709 75.11624568 -103.90935711 73.05112699 -103.93530273 70.98608398 C-103.97164232 68.01977621 -103.98870067 65.05389189 -104.00195312 62.08740234 C-104.01743698 61.16231369 -104.03292084 60.23722504 -104.0488739 59.28410339 C-104.04910049 58.42343765 -104.04932709 57.56277191 -104.04956055 56.67602539 C-104.0595533 55.54018257 -104.0595533 55.54018257 -104.06974792 54.38139343 C-103.60153465 51.79452645 -102.7297367 51.03223187 -100.70898438 49.38818359 C-97.71009948 49.10742444 -94.9213154 49.00953919 -91.9230957 49.04760742 C-91.02532913 49.04716934 -90.12756256 49.04673126 -89.20259094 49.04627991 C-86.23184546 49.0483718 -83.26166265 49.07172184 -80.29101562 49.09521484 C-78.23264372 49.10080937 -76.17426783 49.10508014 -74.1158905 49.108078 C-68.69557689 49.11953804 -63.27550406 49.1490153 -57.85528564 49.18218994 C-52.3254319 49.21286579 -46.79553929 49.22657803 -41.265625 49.24169922 C-30.41330561 49.2738838 -19.56116501 49.32509423 -8.70898438 49.38818359 C-8.71897713 48.53373909 -8.71897713 48.53373909 -8.72917175 47.66203308 C-8.79546556 41.74129879 -8.84076005 35.82066966 -8.8737793 29.8996582 C-8.88887962 27.68900267 -8.90936147 25.47837716 -8.93530273 23.26782227 C-8.97163092 20.09302366 -8.98869821 16.91862062 -9.00195312 13.74365234 C-9.01743698 12.75294235 -9.03292084 11.76223236 -9.0488739 10.74150085 C-9.04921379 9.36040886 -9.04921379 9.36040886 -9.04956055 7.95141602 C-9.0595533 6.73563118 -9.0595533 6.73563118 -9.06974792 5.49528503 C-8.18005686 0.29889166 -4.6370567 0.01072011 0 0 Z M178.29101562 59.38818359 C169.59462744 70.95348334 166.11418539 82.9138653 166.10351562 97.20068359 C166.09126953 98.05210937 166.07902344 98.90353516 166.06640625 99.78076172 C166.03653049 112.85638681 170.11550114 125.11039395 178.29101562 135.38818359 C176.79333622 139.7660157 174.06408184 140.90371147 170.04101562 142.88818359 C155.64135355 149.89403246 141.60837553 151.54540327 125.79454041 151.50843811 C124.43796298 151.5088748 123.08138564 151.50975149 121.72480875 151.51102728 C118.01681735 151.51325312 114.30885508 151.50927722 110.60086739 151.50424922 C106.59485321 151.49991737 102.58884057 151.50139308 98.58282471 151.50215149 C91.64867198 151.50267499 84.71452869 151.49954632 77.78037834 151.49391365 C67.7548494 151.48577514 57.729325 151.48318102 47.70379312 151.48192566 C31.43672212 151.47973884 15.16965616 151.47308877 -1.09741211 151.46362305 C-16.89623998 151.45443937 -32.69506648 151.44736321 -48.49389648 151.44311523 C-49.46827953 151.44285251 -50.44266257 151.44258979 -51.44657237 151.4423191 C-56.33492795 151.44101403 -61.22328354 151.43975033 -66.11163914 151.4385072 C-106.64409105 151.4281461 -147.17653742 151.41053783 -187.70898438 151.38818359 C-187.75926538 155.95563235 -187.79510967 160.52291221 -187.81884766 165.09057617 C-187.82876675 166.63715427 -187.84230624 168.18371436 -187.85986328 169.73022461 C-188.0152664 183.79420715 -187.06632887 197.25731322 -183.02148438 210.82568359 C-182.76093262 211.71328369 -182.50038086 212.60088379 -182.23193359 213.51538086 C-178.28963243 226.51656197 -172.49198839 243.60517958 -162.70898438 253.38818359 C-152.74280585 255.67800579 -142.39201481 255.86481914 -132.20898438 255.88818359 C-131.1016243 255.89270035 -131.1016243 255.89270035 -129.97189331 255.89730835 C-112.87533103 255.8929281 -96.86986393 252.58521417 -81.70898438 244.38818359 C-80.38898438 246.69818359 -79.06898437 249.00818359 -77.70898438 251.38818359 C-82.6496677 253.45109939 -87.7052691 255.16458864 -92.77148438 256.88818359 C-93.64998047 257.19626953 -94.52847656 257.50435547 -95.43359375 257.82177734 C-109.11304072 262.45786628 -122.17698958 262.64734625 -136.45898438 262.51318359 C-138.33137541 262.50313092 -140.20377168 262.49400913 -142.07617188 262.48583984 C-146.62057428 262.46401398 -151.16472012 262.42961097 -155.70898438 262.38818359 C-135.44599924 290.35512403 -102.46861555 301.08302171 -69.70898438 306.38818359 C-36.48821988 311.30502024 -0.41605044 309.92628078 32.29101562 302.38818359 C33.25491211 302.17145996 34.21880859 301.95473633 35.21191406 301.73144531 C61.04756383 295.85970673 87.56888149 286.99788664 109.29101562 271.38818359 C109.84096191 271.00227051 110.3909082 270.61635742 110.95751953 270.21875 C130.55040623 256.45489151 148.08249725 240.72466288 162.29101562 221.38818359 C162.7848877 220.7173877 163.27875977 220.0465918 163.78759766 219.35546875 C170.85435903 209.69165575 177.41418256 199.81989544 183.29101562 189.38818359 C183.65791504 188.73946289 184.02481445 188.09074219 184.40283203 187.42236328 C195.7245044 169.19946649 195.7245044 169.19946649 201.29101562 149.38818359 C201.95407715 149.41960449 202.61713867 149.45102539 203.30029297 149.48339844 C224.24866004 150.34101858 242.13927191 148.25936279 258.25976562 133.70849609 C266.43679213 126.59114942 266.43679213 126.59114942 270.38867188 117.17724609 C268.7172818 114.45305871 266.67274667 113.90550102 263.72851562 112.76318359 C262.21064453 112.15603516 262.21064453 112.15603516 260.66210938 111.53662109 C253.39875957 109.06220065 247.11698929 108.02750975 239.47851562 108.07568359 C238.59993896 108.07842285 237.7213623 108.08116211 236.81616211 108.08398438 C228.25078157 108.22168891 221.17953278 110.188256 213.29101562 113.38818359 C212.99710938 111.71755859 212.99710938 111.71755859 212.69726562 110.01318359 C209.40249083 92.66440429 203.08257248 79.62524845 190.29101562 67.38818359 C189.26041016 66.39818359 189.26041016 66.39818359 188.20898438 65.38818359 C185.08097584 62.55321289 182.2202106 60.83998784 178.29101562 59.38818359 Z " fill="#306B93" transform="translate(1189.708984375,101.61181640625)"/>
<path d="M0 0 C5.79271316 2.38782437 8.40270943 10.43400762 10.86328125 15.76806641 C12.42994675 19.67393856 13.85868224 23.62731023 15.30078125 27.58056641 C19.05829167 37.64772098 23.35973508 47.26837024 28.11328125 56.89306641 C43.15756583 87.43527217 43.15756583 87.43527217 42.86328125 103.76806641 C44.14203125 103.74744141 45.42078125 103.72681641 46.73828125 103.70556641 C50.61328125 103.64306641 50.61328125 103.64306641 52.86328125 104.76806641 C52.95163011 100.35152949 53.00412112 95.93522493 53.05078125 91.51806641 C53.07591797 90.28314453 53.10105469 89.04822266 53.12695312 87.77587891 C53.27229897 69.36540551 47.08511176 55.63289508 34.55078125 42.46337891 C33.99390625 41.90392578 33.43703125 41.34447266 32.86328125 40.76806641 C33.19328125 40.10806641 33.52328125 39.44806641 33.86328125 38.76806641 C45.64963606 48.2906537 55.91221069 60.7219945 57.71044922 76.2722168 C57.89806319 79.33607881 57.83003746 82.35951655 57.7578125 85.42822266 C57.74556641 86.63414062 57.73332031 87.84005859 57.72070312 89.08251953 C57.69069782 91.58600593 57.61758353 94.08933742 57.50195312 96.59033203 C57.50794953 100.32609401 57.65059391 103.2283533 58.86328125 106.76806641 C61.67878104 109.27373547 64.3528416 110.76618083 67.7734375 112.33007812 C72.54777612 114.55201669 76.45096047 117.76546264 79.86328125 121.76806641 C80.92578125 125.26806641 80.92578125 125.26806641 80.86328125 127.76806641 C79.54328125 127.76806641 78.22328125 127.76806641 76.86328125 127.76806641 C75.91827121 126.35055135 74.98081952 124.92718412 74.08984375 123.47509766 C68.79426764 116.10513982 57.04568677 110.16590923 48.2890625 108.18603516 C45.35157141 108.03943209 43.41135293 108.31786467 41.11328125 110.20556641 C39.86065871 112.66119682 39.86065871 112.66119682 39.0859375 114.89697266 C36.64684361 121.25117863 36.64684361 121.25117863 34.00390625 122.99462891 C32.61814629 123.59373566 31.2260645 124.17842575 29.828125 124.74853516 C24.91466901 127.29806202 22.63956248 132.77721077 20.86328125 137.76806641 C20.46677119 140.02872448 20.13975681 142.30211158 19.86328125 144.58056641 C19.74146484 145.55582275 19.74146484 145.55582275 19.6171875 146.55078125 C19.35952523 148.62248499 19.11096713 150.69514848 18.86328125 152.76806641 C18.69727975 154.1288248 18.53061839 155.48950287 18.36328125 156.85009766 C18.28102295 157.51895996 18.19876465 158.18782227 18.11401367 158.87695312 C17.86469902 160.8816663 17.6087335 162.88544122 17.3515625 164.88916016 C17.03296848 167.42007108 16.73759 169.95404425 16.46875 172.49072266 C15.44935415 180.94122842 15.44935415 180.94122842 12.6953125 184.82666016 C9.40070387 187.08517118 6.13548597 189.07064291 2.55078125 190.83056641 C1.85436523 191.17345703 1.15794922 191.51634766 0.44042969 191.86962891 C-17.11264148 200.16142543 -35.07201934 200.63675146 -53.47265625 194.68994141 C-62.31435198 190.91687845 -66.93769717 184.52058973 -72.13671875 176.76806641 C-70.13671875 174.76806641 -70.13671875 174.76806641 -67.63671875 173.39306641 C-64.88787375 171.60631716 -64.08315427 170.86549175 -63.13671875 167.76806641 C-62.24000424 160.14599304 -65.39642535 154.10411107 -69.51171875 147.89306641 C-75.18810146 140.70488328 -83.40435313 135.30173997 -90.9140625 130.15869141 C-98.79142079 124.75939273 -105.14429782 119.62280302 -109.57421875 110.95556641 C-113.50101989 88.7036933 -103.91508679 66.98527564 -92.13671875 48.76806641 C-91.13671875 50.76806641 -91.13671875 50.76806641 -91.70996094 52.56469727 C-92.03125977 53.28020752 -92.35255859 53.99571777 -92.68359375 54.73291016 C-93.03292969 55.52681152 -93.38226563 56.32071289 -93.7421875 57.13867188 C-94.11988281 57.98574707 -94.49757812 58.83282227 -94.88671875 59.70556641 C-101.4939786 75.14060553 -106.17430669 92.0148002 -100.13671875 108.58056641 C-99.48071779 109.98144394 -98.8160063 111.37833133 -98.13671875 112.76806641 C-97.91628906 110.80740234 -97.91628906 110.80740234 -97.69140625 108.80712891 C-95.11895253 87.61186917 -87.91475359 70.71283553 -78.53173828 51.63232422 C-70.97463282 36.11605517 -66.01877031 20.77653735 -63.13671875 3.76806641 C-58.52659023 6.8190844 -54.00385978 9.97188168 -49.50390625 13.18212891 C-43.93797656 16.91111811 -39.79773001 17.61111512 -33.13671875 16.76806641 C-24.03696568 14.36916243 -16.33007847 8.91848948 -8.63500977 3.69482422 C-7.85182373 3.17500977 -7.0686377 2.65519531 -6.26171875 2.11962891 C-5.21371094 1.40540771 -5.21371094 1.40540771 -4.14453125 0.67675781 C-2.13671875 -0.23193359 -2.13671875 -0.23193359 0 0 Z " fill="#FDFDFD" transform="translate(302.13671875,213.23193359375)"/>
<path d="M0 0 C68.02892946 0 68.02892946 0 85.5625 16.0625 C97.61752752 28.76233132 102.58013757 44.3961262 102.2734375 61.5078125 C101.70310466 74.77228628 95.8550633 88.36165706 86.0078125 97.4140625 C59.82602401 118.09461917 34.41977811 113 0 113 C0 75.71 0 38.42 0 0 Z " fill="#1F1F20" transform="translate(391,122)"/>
<path d="M0 0 C4.17993999 1.00628185 7.02763605 3.62570036 10.109375 6.5078125 C10.68429688 7.04148437 11.25921875 7.57515625 11.8515625 8.125 C16.94100215 13.40206876 20.1707029 19.7095532 23.6640625 26.08203125 C30.08580791 37.77524192 36.82862115 48.65757163 45.65625 58.6796875 C52.12004732 66.13158122 55.42805521 72.1488278 56.484375 82.0078125 C55.82306539 88.18003556 53.34598012 92.67181654 48.796875 96.8828125 C41.83803256 102.27408412 33.58376655 102.47848484 25.109375 101.5078125 C17.21834771 99.75074818 9.48355362 97.15177435 1.9230957 94.31030273 C-7.56288768 90.76842993 -16.99893734 88.54123016 -26.88696289 86.52563477 C-43.93308008 83.01989709 -43.93308008 83.01989709 -48.890625 77.1328125 C-50.46129205 73.00981149 -49.5867499 70.18637173 -47.921875 66.171875 C-44.22305067 57.16259573 -43.86437389 48.49960747 -45.703125 38.9453125 C-45.890625 35.5078125 -45.890625 35.5078125 -44.203125 32.9453125 C-41.45287177 30.64579522 -38.31825469 29.01208012 -35.203125 27.2578125 C-25.95554139 22.00427727 -19.09284309 15.27696095 -12.77734375 6.76953125 C-9.09590624 2.35637945 -6.00746431 -0.33876678 0 0 Z " fill="#FAC62F" transform="translate(184.890625,337.4921875)"/>
<path d="M0 0 C0.18175781 0.88042969 0.36351562 1.76085937 0.55078125 2.66796875 C0.80214844 3.82941406 1.05351562 4.99085938 1.3125 6.1875 C1.67794922 7.91033203 1.67794922 7.91033203 2.05078125 9.66796875 C2.97647921 12.91743524 4.04891147 15.2564385 6 18 C10.38984424 20.19492212 16.47060663 19.69068306 21.1171875 18.421875 C25.52768475 16.40878497 28.81624119 13.43931948 32.4375 10.25 C38.24894171 5.36420344 38.24894171 5.36420344 42.8125 5.1875 C47.02382801 5.6771893 49.8322219 7.13391505 53 10 C55.56869976 14.40809531 56.72587998 18.745318 57.75 23.6875 C59.81269215 32.68100327 63.56395283 39.99143653 70.4375 46.3125 C73 49 73 49 73.6875 52.0625 C72.54292333 56.95296397 69.08022169 59.32124001 64.94140625 61.921875 C63.82636719 62.52515625 62.71132813 63.1284375 61.5625 63.75 C48.65816342 70.90537155 37.14795441 78.89311408 26.00390625 88.61328125 C17.32649127 96.11187237 8.63117791 102.53605713 -3.23828125 102.328125 C-9.24536534 101.61441204 -14.12717597 99.35147683 -17.92578125 94.58203125 C-23.78147103 85.12069001 -24.80431444 74.40513976 -22.47119141 63.53662109 C-21.52939239 60.03351287 -20.48106556 56.56796678 -19.42016602 53.09936523 C-16.64638709 43.65130761 -15.49812014 34.10151071 -14.46972656 24.34106445 C-13.52666 15.9949254 -12.5011514 7.79454546 -5.9375 1.9375 C-3 0 -3 0 0 0 Z " fill="#FAC62F" transform="translate(340,340)"/>
<path d="M0 0 C9.61709409 6.24468071 16.43239701 15.9221507 18.875 27.2109375 C20.83088639 41.09531618 17.78022378 53.88943693 9.88671875 65.3515625 C4.06733481 72.89703489 -4.68658159 77.22463239 -13.80859375 79.45703125 C-17.13488598 79.84635977 -20.4000602 79.88794308 -23.74609375 79.83203125 C-24.62563721 79.82187988 -25.50518066 79.81172852 -26.41137695 79.80126953 C-39.09292566 79.49773121 -48.23298836 75.50832041 -57.05859375 66.26953125 C-66.53383391 55.09215214 -67.72801253 42.5275438 -66.80859375 28.45703125 C-65.27522357 18.52910907 -59.9324833 9.39048953 -52.16015625 3.05859375 C-36.4737171 -7.62486148 -16.88592653 -9.27669121 0 0 Z " fill="#1F2020" transform="translate(570.80859375,157.54296875)"/>
<path d="M0 0 C7.91325046 7.03400041 13.84336267 16.38935641 14.625 27.12890625 C15.13124968 41.04300802 12.2432259 53.65005544 2.65234375 64.15625 C-7.51682515 73.78716421 -19.58698808 76.44254223 -33.1015625 76.21484375 C-44.89025349 75.42726418 -54.98990595 69.70900588 -63.03125 61.1640625 C-71.17203584 50.974482 -72.78517819 38.65652832 -71.78515625 25.96875 C-69.7007165 14.56947011 -63.8028334 5.18559973 -54.78515625 -2.03125 C-37.88661678 -12.39192266 -16.00959694 -12.24721192 0 0 Z " fill="#1F1F20" transform="translate(852.78515625,299.03125)"/>
<path d="M0 0 C8.44912446 6.01269902 13.04327292 13.82903751 16.31640625 23.6484375 C17.52333097 37.19096523 16.95357736 49.79094714 8.62890625 61.0234375 C0.99301634 69.83082253 -10.18888684 76.02562846 -21.93359375 76.88671875 C-35.55033013 77.15621666 -46.800731 74.09570534 -56.875 64.578125 C-61.47659251 59.71382647 -64.46266969 54.94884839 -66.68359375 48.6484375 C-67.09609375 47.5553125 -67.50859375 46.4621875 -67.93359375 45.3359375 C-70.50906255 32.67321592 -68.23491889 20.66309234 -61.68359375 9.6484375 C-47.79877957 -10.5837203 -19.47623807 -12.49649078 0 0 Z " fill="#202021" transform="translate(944.68359375,417.3515625)"/>
<path d="M0 0 C25.41 0 50.82 0 77 0 C77 6.6 77 13.2 77 20 C59.18 20 41.36 20 23 20 C23 28.25 23 36.5 23 45 C38.18 45 53.36 45 69 45 C69 51.6 69 58.2 69 65 C53.82 65 38.64 65 23 65 C23 73.25 23 81.5 23 90 C40.82 90 58.64 90 77 90 C77 96.6 77 103.2 77 110 C51.59 110 26.18 110 0 110 C0 73.7 0 37.4 0 0 Z " fill="#212121" transform="translate(478,382)"/>
<path d="M0 0 C9.23140254 6.47239313 14.4977484 14.61764827 16.703125 25.64453125 C16.703125 31.25453125 16.703125 36.86453125 16.703125 42.64453125 C-2.766875 42.64453125 -22.236875 42.64453125 -42.296875 42.64453125 C-38.07670286 52.43228694 -38.07670286 52.43228694 -30.296875 58.45703125 C-22.13894922 61.54957828 -13.19771048 60.2366359 -5.41796875 56.8125 C-2.88974751 55.48471134 -2.88974751 55.48471134 0.703125 52.64453125 C5.323125 55.61453125 9.943125 58.58453125 14.703125 61.64453125 C10.85595656 69.33886814 3.64190714 74.54272469 -4.296875 77.64453125 C-5.14636719 77.99902344 -5.99585938 78.35351562 -6.87109375 78.71875 C-17.66029116 81.6344168 -31.84465391 81.3032409 -41.82421875 76.19140625 C-53.63176601 68.80469422 -60.87175722 60.15337495 -64.046875 46.39453125 C-64.92269467 33.25723613 -65.02483831 20.07563724 -56.0390625 9.48046875 C-55.46414063 8.87460938 -54.88921875 8.26875 -54.296875 7.64453125 C-53.66007813 6.95617187 -53.02328125 6.2678125 -52.3671875 5.55859375 C-38.68194575 -7.92613164 -16.42904758 -9.69537332 0 0 Z " fill="#212122" transform="translate(836.296875,157.35546875)"/>
<path d="M0 0 C6.93 0 13.86 0 21 0 C21.33 20.13 21.66 40.26 22 61 C26.0425 56.38 30.085 51.76 34.25 47 C48.20972683 32.08316815 48.20972683 32.08316815 58.09375 31.140625 C64.82737562 30.95127876 71.40967983 31.62260189 78 33 C73.85932982 37.99166681 69.52778689 42.49551592 64.75 46.875 C64.09829834 47.47779785 63.44659668 48.0805957 62.77514648 48.70166016 C57.55986978 53.51546526 52.30324319 58.28323311 47 63 C47.63233335 66.52451404 49.05025196 68.80942088 51.10546875 71.71875 C51.75306152 72.64196045 52.4006543 73.5651709 53.06787109 74.51635742 C53.76734863 75.50095947 54.46682617 76.48556152 55.1875 77.5 C56.25605225 79.02040894 56.25605225 79.02040894 57.34619141 80.5715332 C59.55866576 83.71824507 61.77878283 86.85945527 64 90 C66.01313367 92.85385507 68.02446172 95.70894307 70.0324707 98.56640625 C71.23761053 100.28078034 72.44566608 101.99310943 73.65698242 103.703125 C74.47259644 104.86134766 74.47259644 104.86134766 75.3046875 106.04296875 C75.77890137 106.71352295 76.25311523 107.38407715 76.74169922 108.07495117 C77.99456379 109.99168326 79.01922457 111.93276958 80 114 C58.21105955 116.51895265 58.21105955 116.51895265 51.75195312 112.65527344 C48.03058356 109.08542543 45.60979141 104.74736842 43.22363281 100.21582031 C41.26040418 96.66069999 38.80695669 93.49348247 36.375 90.25 C33.98214358 86.95703572 31.6820384 83.72580549 30 80 C25.54392956 82.46146401 25.54392956 82.46146401 22 86 C21.49281944 88.9988613 21.49281944 88.9988613 21.48828125 92.41796875 C21.45283203 93.67158203 21.41738281 94.92519531 21.38085938 96.21679688 C21.35830078 97.52712891 21.33574219 98.83746094 21.3125 100.1875 C21.27932334 101.52282013 21.24483334 102.85810832 21.20898438 104.19335938 C21.12638491 107.46193825 21.06151996 110.73095644 21 114 C14.07 114 7.14 114 0 114 C0 76.38 0 38.76 0 0 Z " fill="#1E1E1F" transform="translate(693,121)"/>
<path d="M0 0 C7.91185843 5.87524797 11.88120273 12.91313945 14.9609375 22.15234375 C14.9609375 28.42234375 14.9609375 34.69234375 14.9609375 41.15234375 C-3.8490625 41.15234375 -22.6590625 41.15234375 -42.0390625 41.15234375 C-39.00513251 51.32586452 -39.00513251 51.32586452 -31.8671875 57.19140625 C-24.7863492 59.59732645 -16.40624303 59.29709203 -9.3515625 56.83984375 C-6.09428188 55.33273526 -6.09428188 55.33273526 -3.8515625 53.33984375 C-3.2534375 52.94796875 -2.6553125 52.55609375 -2.0390625 52.15234375 C1.71067839 53.35303133 4.92901306 55.22609676 8.2734375 57.27734375 C9.59794922 58.08558594 9.59794922 58.08558594 10.94921875 58.91015625 C11.61308594 59.32007813 12.27695312 59.73 12.9609375 60.15234375 C9.76862699 67.54073252 2.95619147 72.01279846 -4.2265625 75.08984375 C-14.36781762 79.09475708 -26.66348929 79.88189391 -37.0390625 76.15234375 C-43.19617817 73.33352593 -48.59659165 70.35638103 -53.0390625 65.15234375 C-53.77382813 64.40210938 -53.77382813 64.40210938 -54.5234375 63.63671875 C-62.56309702 55.1194557 -64.31519566 44.83546856 -64.1875 33.49609375 C-63.70857158 22.70760095 -60.23245747 12.79593213 -52.828125 4.74609375 C-38.34592496 -8.15508008 -16.57895479 -10.07949308 0 0 Z " fill="#212122" transform="translate(711.0390625,415.84765625)"/>
<path d="M0 0 C8.26755055 4.85977882 13.60563186 11.25351647 17.25 20 C19.20196023 27.80784092 19 34.82286795 19 43 C-0.14 43 -19.28 43 -39 43 C-35.55835139 52.40863257 -35.55835139 52.40863257 -28.28515625 58.63671875 C-21.6803508 61.37759521 -13.68520473 61.27076025 -6.94140625 58.9453125 C-4.5361211 57.73730896 -2.27725997 56.43142055 0 55 C1.32641402 54.31967061 2.65770055 53.64842456 4 53 C4.99 53.8353125 4.99 53.8353125 6 54.6875 C9.51760058 57.39898378 13.2046142 59.70204929 17 62 C13.71049508 69.57582951 6.31907583 73.86325321 -1 77 C-2.2684375 77.5878125 -2.2684375 77.5878125 -3.5625 78.1875 C-14.84701389 81.94900463 -27.24889147 80.71516677 -38 76 C-47.88954671 70.1699731 -56.39487066 62.48626232 -59.58837891 51.11035156 C-60.47405623 46.56954804 -60.5190454 41.98855295 -60.5625 37.375 C-60.57716309 36.40949219 -60.59182617 35.44398438 -60.60693359 34.44921875 C-60.45348144 23.60773147 -56.31944579 14.01781493 -49 6 C-34.71806839 -5.08540172 -16.89655976 -5.67408383 0 0 Z " fill="#212123" transform="translate(1116,414)"/>
<path d="M0 0 C8.25 0 16.5 0 25 0 C26.10859375 3.07183594 27.2171875 6.14367187 28.359375 9.30859375 C29.44420085 12.30749566 30.53015241 15.30598768 31.61621094 18.30444336 C32.36608532 20.37660915 33.11480241 22.44919413 33.86230469 24.5222168 C34.94156287 27.51463999 36.02507683 30.50549366 37.109375 33.49609375 C37.43871033 34.41208847 37.76804565 35.32808319 38.10736084 36.27183533 C40.17608801 41.96181153 42.46280483 47.50276128 45 53 C45.54358154 51.4365686 45.54358154 51.4365686 46.09814453 49.84155273 C47.47014883 45.89843841 48.84675352 41.95694214 50.22460938 38.01586914 C50.81534351 36.32423596 51.40490191 34.63219166 51.99316406 32.93969727 C62.61677183 2.38322817 62.61677183 2.38322817 65 0 C66.70772358 -0.08713831 68.41898649 -0.10700007 70.12890625 -0.09765625 C71.68061523 -0.09282227 71.68061523 -0.09282227 73.26367188 -0.08789062 C74.35228516 -0.07951172 75.44089844 -0.07113281 76.5625 -0.0625 C78.2012207 -0.05573242 78.2012207 -0.05573242 79.87304688 -0.04882812 C82.58208495 -0.03699826 85.29101599 -0.02051543 88 0 C87.34096046 4.01414994 86.10201503 7.48577997 84.54296875 11.23828125 C84.28796097 11.85558105 84.03295319 12.47288086 83.7702179 13.10888672 C82.91378756 15.1786451 82.05074068 17.24557369 81.1875 19.3125 C80.57518143 20.78721264 79.96321185 22.26207022 79.3515625 23.73706055 C77.99670557 27.00162975 76.63869169 30.26486518 75.27880859 33.52734375 C73.23396001 38.43471131 71.19771174 43.34561243 69.16291809 48.25715637 C67.38467426 52.54827745 65.6037466 56.83828123 63.82217407 61.12802124 C62.94844171 63.2324205 62.07536255 65.33709109 61.20297241 67.44204712 C45.74466991 104.72191654 45.74466991 104.72191654 35 110 C30.6567751 111.69506416 27.0929659 112.2479606 22.4375 112.1875 C21.34308594 112.18105469 20.24867188 112.17460938 19.12109375 112.16796875 C16 112 16 112 11 111 C11 105.06 11 99.12 11 93 C13.536875 93.0928125 13.536875 93.0928125 16.125 93.1875 C22.26629704 93.17173287 25.84366115 92.09805942 30.3125 87.75 C32.36763877 84.40088497 33.28301664 81.89474762 33 78 C31.57889222 73.5270443 29.59122085 69.31609897 27.625 65.0625 C26.73939343 63.09613298 25.86018977 61.12697663 24.98110962 59.15768433 C24.34957212 57.74399176 23.71603409 56.33119145 23.08065796 54.91921997 C18.856781 45.51298134 14.88199019 36.00005438 10.875 26.5 C9.43744978 23.09266304 7.99707599 19.68654127 6.5546875 16.28125 C6.08195404 15.15800575 6.08195404 15.15800575 5.59967041 14.0120697 C4.24501895 10.81557198 2.85079332 7.70607087 1.27783203 4.60742188 C0 2 0 2 0 0 Z " fill="#202020" transform="translate(791,411)"/>
<path d="M0 0 C2.80936383 0.88738375 5.33882421 2.12089072 7.9375 3.5 C8.63045166 3.85803711 9.32340332 4.21607422 10.03735352 4.58496094 C23.66959205 11.88652245 23.66959205 11.88652245 25.72265625 18.234375 C25.81417969 18.81703125 25.90570313 19.3996875 26 20 C27.32 20 28.64 20 30 20 C30.33 19.34 30.66 18.68 31 18 C31.33 20.31 31.66 22.62 32 25 C30.0509375 25.2475 30.0509375 25.2475 28.0625 25.5 C22.78205636 26.64216493 20.01248983 29.37889567 16.17578125 33.0234375 C10.53240174 38.15009824 5.10254578 39.7811328 -2.51171875 39.43359375 C-5 39 -5 39 -8 37.125 C-11.59322506 31.51058584 -13.22603935 25.66221244 -13 19 C-17.57374638 20.97502685 -20.26860659 22.80536013 -23 27 C-24.57484928 31.131612 -25.37874281 34.98809152 -25.859375 39.375 C-26.0027832 40.59678955 -26.14619141 41.8185791 -26.29394531 43.07739258 C-26.51969238 45.01908325 -26.51969238 45.01908325 -26.75 47 C-27.89355305 56.50797893 -29.45203253 65.62509468 -32.25 74.8125 C-35.72126812 86.41457067 -37.71186846 98.68976215 -32.1953125 110.05078125 C-28.87445557 115.46616559 -25.02613122 118.12300831 -19 120 C-10.6292109 121.15556348 -3.51607187 119.13104493 3.39453125 114.33984375 C7.03466491 111.4759583 10.50430432 108.43292481 13.9921875 105.38671875 C24.78334962 96.02446226 36.13167238 88.06902029 48.98974609 81.7746582 C53.06781093 79.72661598 56.1746519 77.60898238 59 74 C59.77083394 70.99730259 59.77083394 70.99730259 59 68 C57.20661551 65.37796032 57.20661551 65.37796032 54.75 63.0625 C46 53.92667323 46 53.92667323 46 49 C47.375 47.375 47.375 47.375 49 46 C49.66 46 50.32 46 51 46 C51.27972656 46.64066406 51.55945313 47.28132813 51.84765625 47.94140625 C54.38191923 53.40922123 56.96584073 57.48136846 61.44921875 61.52734375 C63.5095877 63.48391577 64.87031058 65.20829131 65.3359375 68.05078125 C65.43127122 73.57060369 64.86084818 76.7624837 61 81 C56.98655366 84.30462765 52.46795814 86.76441966 47.90234375 89.21484375 C36.3665527 95.41431651 26.44762233 102.35706313 16.59765625 110.96484375 C10.45563256 116.31632755 4.62815072 120.89770631 -3 124 C-3.79921875 124.36222656 -4.5984375 124.72445312 -5.421875 125.09765625 C-11.71399494 127.29989823 -18.84002248 126.84423667 -24.9375 124.25 C-32.95414814 120.0755652 -37.14641599 114.56075203 -40 106 C-62.06812523 103.31927329 -89.23201097 100.09392992 -110 110 C-112.08198268 111.89839321 -113.69588007 113.84382817 -115.37890625 116.09765625 C-118.65579805 119.94306903 -123.32070945 121.44023648 -128 123 C-130.74134352 123.12343222 -133.44619362 123.1851429 -136.1875 123.1875 C-136.91775391 123.19974609 -137.64800781 123.21199219 -138.40039062 123.22460938 C-143.58254359 123.23837949 -148.01738301 122.42763545 -153 121 C-152.67 119.35 -152.34 117.7 -152 116 C-150.783125 116.165 -149.56625 116.33 -148.3125 116.5 C-134.23831541 118.07172757 -134.23831541 118.07172757 -121 114 C-116.21708808 109.82526007 -113.33687263 105.30135179 -112.6875 98.9375 C-113.12334518 93.44585071 -114.53824877 88.2988482 -116 83 C-113.44921899 82.04053191 -112.33840656 81.86511067 -109.765625 82.890625 C-108.93546875 83.33921875 -108.1053125 83.7878125 -107.25 84.25 C-90.73767581 92.16445178 -73.30857125 91.21479186 -56.26953125 85.8046875 C-49.19432481 83.29609451 -41.85398488 79.85870589 -37 74 C-36.11950632 70.84682871 -36.11950632 70.84682871 -35.8046875 67.28515625 C-35.72630646 66.6335704 -35.64792542 65.98198456 -35.56716919 65.31065369 C-35.32015649 63.22944529 -35.09686415 61.14652454 -34.875 59.0625 C-34.71909058 57.69707706 -34.56155236 56.33183906 -34.40234375 54.96679688 C-34.16638935 52.94254691 -33.93062052 50.91830175 -33.69869995 48.89358521 C-31.38139649 28.81550566 -31.38139649 28.81550566 -27 22 C-26.4225 21.0925 -25.845 20.185 -25.25 19.25 C-23.0302828 17.0302828 -21.82127648 16.44623518 -19 15.3125 C-16.20958453 14.0596604 -15.19228992 13.349933 -13.69921875 10.6328125 C-13.04385401 8.8868601 -12.43610102 7.12198624 -11.88671875 5.33984375 C-9.6560159 -0.54646024 -5.90553217 -0.87115563 0 0 Z " fill="#202020" transform="translate(353,321)"/>
<path d="M0 0 C5.77531143 4.49807909 9.18236105 10.89529728 11.1875 17.8125 C11.42800903 20.7359314 11.42800903 20.7359314 11.41455078 23.81787109 C11.41439972 24.97862152 11.41424866 26.13937195 11.41409302 27.33529663 C11.40377045 28.57300812 11.39344788 29.8107196 11.3828125 31.0859375 C11.3799826 32.36481842 11.37715271 33.64369934 11.37423706 34.96133423 C11.3649602 38.34470099 11.34702183 41.72779326 11.3248291 45.11108398 C11.30429041 48.57012574 11.29521826 52.02919596 11.28515625 55.48828125 C11.26313197 62.26310591 11.22862034 69.03776541 11.1875 75.8125 C4.2575 75.8125 -2.6725 75.8125 -9.8125 75.8125 C-9.81660889 74.24886719 -9.82071777 72.68523437 -9.82495117 71.07421875 C-9.8467853 65.25178434 -9.90112112 59.43002156 -9.96508789 53.60791016 C-9.98823028 51.0920253 -10.00265472 48.57604408 -10.00805664 46.06005859 C-10.01737304 42.43526414 -10.05842711 38.81197762 -10.10546875 35.1875 C-10.1015361 34.06947998 -10.09760345 32.95145996 -10.09355164 31.79956055 C-10.21769829 25.09710517 -11.00081619 19.79144656 -15.8125 14.8125 C-20.82195851 11.82646141 -26.1468268 12.21251584 -31.8125 12.8125 C-36.28189421 14.80776527 -38.61006141 17.31721121 -40.96984863 21.59500122 C-42.70919595 26.17222105 -42.4164786 31.03395509 -42.421875 35.87109375 C-42.43841125 37.01538345 -42.45494751 38.15967316 -42.47198486 39.33863831 C-42.52037886 42.97581395 -42.54181776 46.6125717 -42.5625 50.25 C-42.59066671 52.72332822 -42.62059511 55.19663704 -42.65234375 57.66992188 C-42.72613625 63.71741352 -42.77576398 69.76467432 -42.8125 75.8125 C-49.7425 75.8125 -56.6725 75.8125 -63.8125 75.8125 C-63.8125 49.0825 -63.8125 22.3525 -63.8125 -5.1875 C-57.5425 -5.1875 -51.2725 -5.1875 -44.8125 -5.1875 C-44.4825 -2.5475 -44.1525 0.0925 -43.8125 2.8125 C-43.33941406 2.41417969 -42.86632812 2.01585937 -42.37890625 1.60546875 C-29.45087691 -8.75207522 -14.01370993 -8.85076416 0 0 Z " fill="#202021" transform="translate(1032.8125,416.1875)"/>
<path d="M0 0 C0.37769531 0.85980469 0.75539063 1.71960938 1.14453125 2.60546875 C11.92300208 25.75267659 31.39602132 41.03292448 54.92871094 50.25244141 C60.49677819 52.26203852 66.23792932 53.66710721 72 55 C72 55.33 72 55.66 72 56 C26.84238443 60.47775273 -25.8677837 57.18910591 -62.828125 28.04296875 C-64.07929276 27.01552825 -65.32428766 25.98051723 -66.5625 24.9375 C-67.12235596 24.46731445 -67.68221191 23.99712891 -68.2590332 23.51269531 C-72.48944024 19.79682309 -75.7628235 15.59345814 -79 11 C-77.30025024 11.02356567 -77.30025024 11.02356567 -75.56616211 11.04760742 C-71.28889311 11.10265302 -67.01165411 11.13661624 -62.73413086 11.16479492 C-60.89651188 11.17971405 -59.05892743 11.20005668 -57.22143555 11.22631836 C-42.12073019 11.43645096 -28.61794136 9.97142928 -14.25 4.9375 C-13.10144531 4.55368164 -13.10144531 4.55368164 -11.9296875 4.16210938 C-7.81417247 2.75778012 -4.24764386 0 0 0 Z " fill="#C0EAF7" transform="translate(1113,353)"/>
<path d="M0 0 C33.98890625 0 33.98890625 0 43.33203125 8.25 C51.61968229 16.94524043 56.11068992 25.16824524 56.5 37.375 C56.11883136 48.75230642 53.62822164 57.69969799 45.48828125 65.90625 C32.3827721 76.93380558 16.66974307 75 0 75 C0 50.25 0 25.5 0 0 Z " fill="#FCFCFC" transform="translate(414,141)"/>
<path d="M0 0 C7.78181925 7.40880643 7.78181925 7.40880643 9 13 C6.39939496 14.34070318 3.79495084 15.67273354 1.1875 17 C0.44951172 17.3815625 -0.28847656 17.763125 -1.04882812 18.15625 C-1.76103516 18.5171875 -2.47324219 18.878125 -3.20703125 19.25 C-3.8616333 19.58515625 -4.51623535 19.9203125 -5.19067383 20.265625 C-7 21 -7 21 -10 21 C-11.36363208 19.02053408 -12.69418644 17.0180755 -14 15 C-19.15073978 10.33214208 -25.04266588 10.59260269 -31.73046875 10.66015625 C-36.48348638 11.15419751 -39.61308053 12.6464492 -43 16 C-44.67725565 18.28538344 -45.77839136 20.41018969 -47 23 C-47.33 23.66 -47.66 24.32 -48 25 C-49.10191985 37.71569917 -49.10191985 37.71569917 -44.59375 49.26171875 C-40.76846148 53.43390843 -37.57580088 55.63938788 -31.875 56.4375 C-25.24379759 56.68310009 -19.30149258 56.29850749 -14 52 C-12.33995373 50.06091462 -11.23272743 48.26000029 -10 46 C-5.49272353 46.60266785 -2.1412037 48.36599794 1.8125 50.5625 C2.40998047 50.89185547 3.00746094 51.22121094 3.62304688 51.56054688 C5.08533998 52.36773267 6.5431399 53.18304917 8 54 C8 59.13585862 6.47705209 60.34989173 3.11328125 63.9765625 C-0.29852814 67.24332269 -3.86370506 69.73040959 -8 72 C-8.7528125 72.41507812 -9.505625 72.83015625 -10.28125 73.2578125 C-20.81828977 78.02615645 -35.89418157 78.08902294 -46.6875 74.0625 C-57.19745792 68.74005341 -65.53725351 59.89020699 -69.63671875 48.83984375 C-71.2244122 43.87504617 -71.46209662 39.24549529 -71.375 34.0625 C-71.36412354 33.18223145 -71.35324707 32.30196289 -71.34204102 31.39501953 C-71.04322122 19.2324899 -67.4434455 11.00196826 -59.15234375 1.9921875 C-43.42721913 -12.92569253 -16.90517363 -13.13902942 0 0 Z " fill="#202020" transform="translate(673,161)"/>
<path d="M0 0 C7.59 0 15.18 0 23 0 C25.50534946 5.63703628 27.86065535 11.09979572 29.875 16.89453125 C30.12620605 17.60800217 30.37741211 18.32147308 30.63623047 19.05656433 C31.42761648 21.30734498 32.21378864 23.5599074 33 25.8125 C33.52572383 27.30805448 34.05176355 28.80349794 34.578125 30.29882812 C37.21322704 37.80104456 39.79689489 45.31342284 42.23828125 52.8815918 C42.81444715 54.95649397 42.81444715 54.95649397 44 56 C44.20631546 55.41641724 44.41263092 54.83283447 44.62519836 54.23156738 C46.78201933 48.13126997 48.93990219 42.03134892 51.09838867 35.93164062 C51.90269501 33.65829859 52.70673493 31.38486228 53.51049805 29.11132812 C54.66904987 25.83438403 55.82857461 22.55778556 56.98828125 19.28125 C57.34465164 18.27259888 57.70102203 17.26394775 58.06819153 16.22473145 C58.40831772 15.2643396 58.74844391 14.30394775 59.09887695 13.31445312 C59.39421829 12.47950317 59.68955963 11.64455322 59.99385071 10.78430176 C61.29712535 7.17776951 62.65351601 3.59062397 64 0 C71.92 0 79.84 0 88 0 C86.06007994 5.81976017 84.09457472 11.41557263 81.69921875 17.03125 C81.38592621 17.77341263 81.07263367 18.51557526 80.74984741 19.28022766 C79.73237598 21.68823506 78.71007665 24.09415667 77.6875 26.5 C76.97752132 28.17656556 76.26780796 29.85324349 75.55834961 31.5300293 C74.10094105 34.97310545 72.64150138 38.41531089 71.18066406 41.85693359 C69.40550883 46.0406917 67.6372505 50.22731267 65.87242126 54.41543579 C64.57790076 57.48723732 63.28131306 60.55816344 61.98428345 63.62890625 C61.37077767 65.08222741 60.75796192 66.53584005 60.14584351 67.98974609 C59.29878262 70.00067089 58.44864483 72.01026608 57.59765625 74.01953125 C57.11820557 75.15495361 56.63875488 76.29037598 56.14477539 77.46020508 C55 80 55 80 54 81 C52.43827255 81.08685603 50.87270656 81.10702219 49.30859375 81.09765625 C48.36435547 81.09443359 47.42011719 81.09121094 46.44726562 81.08789062 C45.45404297 81.07951172 44.46082031 81.07113281 43.4375 81.0625 C42.44041016 81.05798828 41.44332031 81.05347656 40.41601562 81.04882812 C37.94395151 81.03700007 35.47200482 81.02051849 33 81 C28.1052684 70.74955247 23.58883649 60.39703447 19.3125 49.875 C18.40604034 47.65445577 17.49850756 45.43435237 16.59082031 43.21430969 C15.97613911 41.71081044 15.36188048 40.20713835 14.74804688 38.70329285 C12.66596103 33.60783465 10.55461293 28.5253063 8.42578125 23.44921875 C7.8634597 22.10500795 7.30120238 20.76077027 6.73901367 19.41650391 C5.93839566 17.50240131 5.13621852 15.58904464 4.32852173 13.67791748 C3.59193054 11.93438691 2.86219308 10.18796555 2.1328125 8.44140625 C1.71918457 7.45857666 1.30555664 6.47574707 0.87939453 5.46313477 C0 3 0 3 0 0 Z " fill="#202021" transform="translate(559,411)"/>
<path d="M0 0 C-0.14151828 2.0836309 -0.28837936 4.16689938 -0.4375 6.25 C-0.51871094 7.41015625 -0.59992187 8.5703125 -0.68359375 9.765625 C-0.93247787 12.30977376 -1.28114942 14.55953248 -2 17 C-3.66289063 16.93039062 -3.66289063 16.93039062 -5.359375 16.859375 C-6.82288968 16.82184898 -8.28643356 16.78544971 -9.75 16.75 C-10.84441406 16.69972656 -10.84441406 16.69972656 -11.9609375 16.6484375 C-15.43129938 16.58534001 -17.56884989 16.7052898 -20.46875 18.6875 C-22.24344551 21.36765241 -22.58206552 23.05924494 -22.75 26.25 C-22.8325 27.8175 -22.915 29.385 -23 31 C-16.4 31 -9.8 31 -3 31 C-3 36.94 -3 42.88 -3 49 C-9.6 49 -16.2 49 -23 49 C-23 69.79 -23 90.58 -23 112 C-29.93 112 -36.86 112 -44 112 C-44 91.21 -44 70.42 -44 49 C-47.96 49 -51.92 49 -56 49 C-56 43.06 -56 37.12 -56 31 C-52.04 31 -48.08 31 -44 31 C-44.05220703 29.7315625 -44.05220703 29.7315625 -44.10546875 28.4375 C-44.33563763 18.79232771 -43.32652819 11.69442617 -37 4 C-26.21637184 -4.54377392 -12.73702306 -2.80816257 0 0 Z " fill="#1F1F20" transform="translate(780,261)"/>
<path d="M0 0 C0 6.6 0 13.2 0 20 C-3.48307292 19.93489583 -6.96614583 19.86979167 -10.44921875 19.8046875 C-14.91115726 20.05011866 -17.62512001 20.75186246 -20.94921875 23.76953125 C-21.52285156 24.44371094 -22.09648438 25.11789062 -22.6875 25.8125 C-23.26886719 26.47894531 -23.85023438 27.14539063 -24.44921875 27.83203125 C-27.19112696 31.66517749 -28.243094 35.1979788 -28.31884766 39.88208008 C-28.33871735 40.82267776 -28.35858704 41.76327545 -28.37905884 42.7323761 C-28.39638565 44.2357679 -28.39638565 44.2357679 -28.4140625 45.76953125 C-28.43342865 46.80567062 -28.4527948 47.84181 -28.4727478 48.90934753 C-28.53240357 52.21031529 -28.57887331 55.51131819 -28.625 58.8125 C-28.66319263 61.05405145 -28.70224511 63.29558842 -28.7421875 65.53710938 C-28.83970789 71.02466317 -28.9193887 76.51206759 -29 82 C-36.26 82 -43.52 82 -51 82 C-51 54.94 -51 27.88 -51 0 C-43.74 0 -36.48 0 -29 0 C-28.67 2.97 -28.34 5.94 -28 9 C-27.49210938 8.52949219 -26.98421875 8.05898438 -26.4609375 7.57421875 C-19.30122569 1.09829964 -9.94085529 -4.97042764 0 0 Z " fill="#232324" transform="translate(932,291)"/>
<path d="M0 0 C0.9215538 0.00222061 1.8431076 0.00444122 2.79258728 0.00672913 C3.83359085 0.00680466 4.87459442 0.00688019 5.94714355 0.00695801 C7.07941879 0.01211929 8.21169403 0.01728058 9.37828064 0.02259827 C10.53106003 0.02401321 11.68383942 0.02542816 12.87155151 0.02688599 C16.57043503 0.03250446 20.26925903 0.0450601 23.96812439 0.05775452 C26.46877456 0.06276714 28.96942567 0.06733045 31.47007751 0.07142639 C37.61530144 0.08163101 43.76039594 0.10120283 49.90562439 0.12025452 C49.90562439 14.97025452 49.90562439 29.82025452 49.90562439 45.12025452 C32.41562439 45.12025452 14.92562439 45.12025452 -3.09437561 45.12025452 C-3.11500061 37.88087952 -3.13562561 30.64150452 -3.15687561 23.18275452 C-3.16597961 20.89474915 -3.17508362 18.60674377 -3.1844635 16.24940491 C-3.18738256 14.44724079 -3.18993114 12.64507602 -3.19203186 10.84291077 C-3.19714783 9.89798767 -3.20226379 8.95306458 -3.20753479 7.97950745 C-3.20765564 7.08630798 -3.20777649 6.19310852 -3.207901 5.27284241 C-3.21012161 4.49340775 -3.21234222 3.71397308 -3.21463013 2.91091919 C-3.03766844 0.27584936 -2.62811308 0.15090057 0 0 Z " fill="#48A0E1" transform="translate(1190.0943756103516,201.87974548339844)"/>
<path d="M0 0 C0 6.93 0 13.86 0 21 C-7.125 20.75 -7.125 20.75 -9.33251953 20.63964844 C-14.40629296 20.55432868 -17.10013864 21.86165003 -21 25 C-27.69869967 32.09274083 -29.59694078 39.08122648 -29.609375 48.625 C-29.62591125 49.61250244 -29.64244751 50.60000488 -29.65948486 51.61743164 C-29.70773787 54.74501913 -29.72928557 57.87212119 -29.75 61 C-29.77817862 63.13153454 -29.80810868 65.26304669 -29.83984375 67.39453125 C-29.91676109 72.5965726 -29.95749273 77.79711073 -30 83 C-36.93 83 -43.86 83 -51 83 C-51 56.27 -51 29.54 -51 2 C-44.07 2 -37.14 2 -30 2 C-29.67 5.3 -29.34 8.6 -29 12 C-28.38125 11.13375 -27.7625 10.2675 -27.125 9.375 C-19.34960048 0.27843232 -11.57108467 -0.68065204 0 0 Z " fill="#1E1E1F" transform="translate(917,152)"/>
<path d="M0 0 C16.83 0 33.66 0 51 0 C51 14.52 51 29.04 51 44 C34.17 44 17.34 44 0 44 C0 29.48 0 14.96 0 0 Z " fill="#4AA2E4" transform="translate(1037,202)"/>
<path d="M0 0 C16.83 0 33.66 0 51 0 C51 14.52 51 29.04 51 44 C34.17 44 17.34 44 0 44 C0 29.48 0 14.96 0 0 Z " fill="#48A1E2" transform="translate(1188,108)"/>
<path d="M0 0 C0.9796875 -0.00257813 1.959375 -0.00515625 2.96875 -0.0078125 C5.5 0.125 5.5 0.125 7.5 1.125 C7.5 7.725 7.5 14.325 7.5 21.125 C-0.125 20.875 -0.125 20.875 -2.49072266 20.76464844 C-7.63944425 20.68360738 -10.53563234 21.58422231 -14.5 25.125 C-20.12312949 31.66480084 -21.38158079 37.01894939 -21.3046875 45.50390625 C-21.31839386 46.55658188 -21.33210022 47.60925751 -21.34622192 48.6938324 C-21.38333586 52.02549709 -21.37981933 55.35565896 -21.375 58.6875 C-21.39313967 60.95900748 -21.41394632 63.23049533 -21.4375 65.50195312 C-21.49415305 71.04383505 -21.49574748 76.58184534 -21.5 82.125 C-28.43 82.125 -35.36 82.125 -42.5 82.125 C-42.5 55.725 -42.5 29.325 -42.5 2.125 C-35.9 2.125 -29.3 2.125 -22.5 2.125 C-22.17 5.425 -21.84 8.725 -21.5 12.125 C-20.860625 11.238125 -20.22125 10.35125 -19.5625 9.4375 C-16.26643567 5.44054842 -12.08304213 3.38500702 -7.5 1.125 C-4.89080172 -0.17959914 -2.91057385 -0.0076594 0 0 Z " fill="#202021" transform="translate(782.5,409.875)"/>
<path d="M0 0 C17.16 0 34.32 0 52 0 C52 13.86 52 27.72 52 42 C34.84 42 17.68 42 0 42 C0 28.14 0 14.28 0 0 Z " fill="#49A1E3" transform="translate(1187,157)"/>
<path d="M0 0 C16.17 0 32.34 0 49 0 C49 14.52 49 29.04 49 44 C32.83 44 16.66 44 0 44 C0 29.48 0 14.96 0 0 Z " fill="#49A1E2" transform="translate(1243,203)"/>
<path d="M0 0 C9.94406421 5.17896707 9.94406421 5.17896707 13.28515625 9.18359375 C13.84765625 12.62109375 13.84765625 12.62109375 13.28515625 16.18359375 C10.00938594 19.95191649 6.49096404 22.50924511 2.22265625 25.05859375 C1.66118896 25.3952002 1.09972168 25.73180664 0.52124023 26.07861328 C-0.64298519 26.77457332 -1.80926062 27.46711525 -2.97753906 28.15625 C-4.66492909 29.15407705 -6.3424116 30.16859935 -8.01953125 31.18359375 C-21.02860115 38.96957075 -21.02860115 38.96957075 -28.71484375 38.18359375 C-37.86473605 34.05274869 -50.29867652 24.83848261 -55.71484375 16.18359375 C-56.21484375 13.30859375 -56.21484375 13.30859375 -55.71484375 10.18359375 C-52.22978802 5.307141 -48.56303552 2.45475122 -43.40234375 -0.50390625 C-42.77650391 -0.88095703 -42.15066406 -1.25800781 -41.50585938 -1.64648438 C-26.00300883 -10.75739039 -15.26397662 -7.57708192 0 0 Z " fill="#F8C530" transform="translate(289.71484375,188.81640625)"/>
<path d="M0 0 C14.85 0 29.7 0 45 0 C45 14.52 45 29.04 45 44 C30.15 44 15.3 44 0 44 C0 29.48 0 14.96 0 0 Z " fill="#49A2E3" transform="translate(1092,202)"/>
<path d="M0 0 C14.19 0 28.38 0 43 0 C43 14.19 43 28.38 43 43 C28.81 43 14.62 43 0 43 C0 28.81 0 14.62 0 0 Z " fill="#49A2E4" transform="translate(1140,203)"/>
<path d="M0 0 C14.19 0 28.38 0 43 0 C43 13.86 43 27.72 43 42 C28.81 42 14.62 42 0 42 C0 28.14 0 14.28 0 0 Z " fill="#489FE0" transform="translate(1141,156)"/>
<path d="M0 0 C14.52 0 29.04 0 44 0 C44 13.53 44 27.06 44 41 C29.48 41 14.96 41 0 41 C0 27.47 0 13.94 0 0 Z " fill="#49A1E2" transform="translate(1093,156)"/>
<path d="M0 0 C5.61416811 2.93737066 8.38709053 6.12294184 10.30859375 12.00390625 C10.48777344 12.65230469 10.66695312 13.30070313 10.8515625 13.96875 C11.04363281 14.58105469 11.23570312 15.19335938 11.43359375 15.82421875 C12.69886677 22.31613357 12.01138913 29.85800249 8.5390625 35.53125 C7.67627874 36.70217082 6.78349791 37.85208184 5.8515625 38.96875 C5.2121875 39.7525 4.5728125 40.53625 3.9140625 41.34375 C-1.28193491 45.43756614 -7.59627142 45.52876024 -13.953125 45.3984375 C-19.01671103 44.71751517 -21.86689624 42.8152736 -25.1484375 38.96875 C-30.88552332 31.41773263 -31.36531949 23.16956506 -30.1484375 13.96875 C-28.02806151 6.7762852 -24.58798485 2.66552718 -18.1484375 -1.03125 C-12.01678762 -3.07513329 -5.90914318 -2.54257954 0 0 Z " fill="#FBFBFB" transform="translate(556.1484375,173.03125)"/>
<path d="M0 0 C5.57525998 2.61868272 8.73414893 6.34978464 11.1875 11.96875 C13.86062169 19.85519742 12.82454733 27.1608261 9.76953125 34.79296875 C7.14841992 39.68929695 3.52853229 42.25896755 -1.375 44.65625 C-7.96392553 45.94819618 -14.18611497 46.4794284 -19.96484375 42.61328125 C-25.79773468 37.75016191 -29.06694783 32.87375089 -29.8984375 25.16796875 C-29.99607134 17.17175689 -29.5191005 10.44933917 -23.80859375 4.43359375 C-16.92307646 -1.64693613 -8.97250023 -2.51667689 0 0 Z " fill="#FBFBFB" transform="translate(832.5625,310.71875)"/>
<path d="M0 0 C5.67077564 3.41316496 9.43633577 7.72957122 11.5078125 14.05859375 C12.35036256 23.92846585 12.02020587 31.12225712 6.1953125 39.30859375 C1.50509065 44.10789053 -2.18351673 45.27423381 -8.8046875 45.62109375 C-15.45876598 45.45398219 -19.75233358 43.73702408 -24.4921875 39.05859375 C-30.06731183 31.83733244 -30.21473274 23.8530015 -29.4921875 15.05859375 C-27.84767905 8.3616798 -24.24977406 3.79902121 -18.4921875 0.05859375 C-12.74533052 -1.85702524 -5.7125507 -2.15787574 0 0 Z " fill="#FBFBFB" transform="translate(927.4921875,429.94140625)"/>
<path d="M0 0 C0.99 0.66 1.98 1.32 3 2 C3 2.66 3 3.32 3 4 C4.32 4 5.64 4 7 4 C7.1959375 4.53109375 7.391875 5.0621875 7.59375 5.609375 C9.62761964 10.41351535 11.58169728 13.3443293 16.48046875 15.37109375 C26.86416693 17.96299361 36.67445769 15.94381489 46 11 C48.49444666 9.13135312 50.69622171 7.10771205 53 5 C54.32 5 55.64 5 57 5 C57.495 7.97 57.495 7.97 58 11 C58.33 9.02 58.66 7.04 59 5 C58.01 4.67 57.02 4.34 56 4 C56 2.68 56 1.36 56 0 C59.18873549 -0.35430394 60.61589191 -0.25953249 63.3125 1.5625 C65.66853286 4.96565857 65.64073066 6.94203913 65 11 C61.72422969 14.76832274 58.20580779 17.32565136 53.9375 19.875 C53.37603271 20.21160645 52.81456543 20.54821289 52.23608398 20.89501953 C51.07185856 21.59097957 49.90558313 22.2835215 48.73730469 22.97265625 C47.04991466 23.9704833 45.37243215 24.9850056 43.6953125 26 C30.6862426 33.785977 30.6862426 33.785977 23 33 C13.87133486 28.87873824 1.38494158 19.6524146 -4 11 C-4.59909679 6.97749297 -4.34662495 5.49827337 -2 2.125 C-1.34 1.42375 -0.68 0.7225 0 0 Z " fill="#F2C331" transform="translate(238,194)"/>
<path d="M0 0 C4.43041256 2.13609177 7.16159481 4.40398702 9 9 C9.71091959 13.66047288 9.51221747 17.65440388 7.3125 21.875 C3.79604881 26.62696107 3.79604881 26.62696107 0 28 C-5.32152223 28.65095073 -9.59455356 28.6525287 -14.5 26.375 C-18.5676451 22.51073716 -20.1479244 19.05798327 -20.4375 13.5 C-20.27137833 9.01471493 -19.0067292 6.41304396 -16 3 C-11.49597957 -1.09456403 -5.75025959 -0.7599462 0 0 Z " fill="#F5F9FB" transform="translate(1143,311)"/>
<path d="M0 0 C5.40967482 2.70483741 9.4361108 6.81734829 12.11328125 12.265625 C14.08114724 18.33393422 14.20980413 25.67906356 12.01953125 31.69140625 C9.83926417 35.44146562 9.83926417 35.44146562 8 37 C3.72290301 37 2.44069624 36.29379749 -1 34 C-0.505 33.401875 -0.01 32.80375 0.5 32.1875 C2.70863959 27.49414087 2.69074228 23.10207365 2 18 C0.66177841 15.15925538 0.66177841 15.15925538 -2 14 C-5.58461856 13.41630557 -5.58461856 13.41630557 -9 14 C-11.18994248 17.28491373 -11.35277339 18.83095639 -11.625 22.6875 C-11.73714844 24.17830078 -11.73714844 24.17830078 -11.8515625 25.69921875 C-11.90054687 26.45847656 -11.94953125 27.21773437 -12 28 C-14.31 27.34 -16.62 26.68 -19 26 C-19.56327309 17.20042262 -19.81282347 10.05267779 -14 3 C-9.95662378 -0.7064282 -5.24278292 -0.8258543 0 0 Z " fill="#EEEFEE" transform="translate(293,152)"/>
<path d="M0 0 C4.87478169 2.72908671 6.84591714 7.5429396 8.6875 12.625 C8.6875 13.285 8.6875 13.945 8.6875 14.625 C-3.8525 14.625 -16.3925 14.625 -29.3125 14.625 C-28.07578502 7.20471014 -28.07578502 7.20471014 -24.3125 3.625 C-16.5751961 -1.52377261 -8.86390493 -3.47571507 0 0 Z " fill="#F1F1F1" transform="translate(824.3125,170.375)"/>
<path d="M0 0 C3.93067696 2.33064303 6.80243602 4.71702754 8.5390625 9.05859375 C8.5390625 10.70859375 8.5390625 12.35859375 8.5390625 14.05859375 C-3.3409375 14.05859375 -15.2209375 14.05859375 -27.4609375 14.05859375 C-26.29673513 7.07337953 -24.53407812 5.58941544 -19.3359375 1.30859375 C-13.99917616 -2.24924714 -5.8676077 -2.24459279 0 0 Z " fill="#FAFAFA" transform="translate(697.4609375,427.94140625)"/>
<path d="M0 0 C4.29826886 4.07204418 4.08815494 5.61708461 5 12 C-6.88 12 -18.76 12 -31 12 C-29.78218582 4.69311492 -27.70121338 3.13938673 -22 -1 C-15.30873582 -5.04997569 -6.49010065 -3.76425838 0 0 Z " fill="#FBFBFB" transform="translate(1109,430)"/>
<path d="M0 0 C4.55340385 2.8518187 7.43989286 5.78954509 9 11 C9.1953125 14.11328125 9.1953125 14.11328125 9.125 17.3125 C9.10695313 18.38113281 9.08890625 19.44976562 9.0703125 20.55078125 C9.04710937 21.35902344 9.02390625 22.16726562 9 23 C7.02 23.66 5.04 24.32 3 25 C2.87882812 24.30132812 2.75765625 23.60265625 2.6328125 22.8828125 C2.46523437 21.97273438 2.29765625 21.06265625 2.125 20.125 C1.96257812 19.22007812 1.80015625 18.31515625 1.6328125 17.3828125 C1.16955297 14.83494012 1.16955297 14.83494012 -1 13 C-3.78237655 13.40528901 -3.78237655 13.40528901 -6 15 C-6.58285311 20.42501744 -6.44991232 24.54386325 -3 29 C-7.75 33 -7.75 33 -10 33 C-13.89616025 25.13810521 -15.948831 17.19449854 -13.234375 8.56640625 C-10.42045816 2.48075276 -7.1576655 -1.26311744 0 0 Z " fill="#F5F5F5" transform="translate(249,155)"/>
<path d="M0 0 C1.875 0.0625 1.875 0.0625 4 1 C4.4125 1.928125 4.825 2.85625 5.25 3.8125 C7.26986308 7.49153632 8.66850076 8.66139594 12.4453125 10.30078125 C22.74252104 13.11913038 32.74212375 10.90794261 42 6 C44.49444666 4.13135312 46.69622171 2.10771205 49 0 C50.32 0 51.64 0 53 0 C53.28515625 2.76953125 53.28515625 2.76953125 53 6 C45.0079354 14.28151564 34.22753642 16.99158807 23.10083008 17.29223633 C14.18976593 17.38082398 8.7157527 16.39951842 2.0625 10.3125 C1.381875 9.549375 0.70125 8.78625 0 8 C-0.33 7.67 -0.66 7.34 -1 7 C-1.125 4 -1.125 4 -1 1 C-0.67 0.67 -0.34 0.34 0 0 Z " fill="#24221D" transform="translate(242,199)"/>
<path d="M0 0 C0.33 2.64 0.66 5.28 1 8 C3.31 8.33 5.62 8.66 8 9 C7.40745672 15.28095872 7.40745672 15.28095872 5.9375 17.875 C2.74952219 19.72608389 -0.3771791 20.32126902 -4 20 C-7.32174005 18.12774652 -9.3160257 16.70295643 -10.765625 13.09375 C-11.39887832 10.04475251 -11.52935005 7.95944696 -10 5.1875 C-6.75094674 1.16486263 -5.1513639 0 0 0 Z " fill="#377EB3" transform="translate(1139,314)"/>
<path d="M0 0 C0.27972656 0.64066406 0.55945313 1.28132813 0.84765625 1.94140625 C3.38191923 7.40922123 5.96584073 11.48136846 10.44921875 15.52734375 C12.62230241 17.59095216 13.93354286 19.23042631 14.1953125 22.26171875 C14.17210937 23.06222656 14.14890625 23.86273438 14.125 24.6875 C14.10695313 25.49574219 14.08890625 26.30398438 14.0703125 27.13671875 C14.04710937 27.75160156 14.02390625 28.36648438 14 29 C12 27 12 27 11.875 24.375 C11.91625 23.59125 11.9575 22.8075 12 22 C10.88818359 21.88011719 10.88818359 21.88011719 9.75390625 21.7578125 C3.70939552 20.09450033 -0.41725635 13.27354354 -3.5 8.0625 C-5 5 -5 5 -5 3 C-2.46153846 0 -2.46153846 0 0 0 Z " fill="#272724" transform="translate(404,367)"/>
<path d="M0 0 C1.64819 2.11910143 3.04568538 4.09137076 4.25 6.5 C6.01855374 9.02650534 6.9294254 9.67236745 9.5625 11.0625 C13 13 13 13 13.80078125 15.07421875 C14.19652344 15.70972656 14.59226562 16.34523438 15 17 C18.10930941 17.70672206 18.10930941 17.70672206 21.625 17.75 C22.81351562 17.80671875 24.00203125 17.8634375 25.2265625 17.921875 C26.59941406 17.96054687 26.59941406 17.96054687 28 18 C27.67 18.66 27.34 19.32 27 20 C17.44806504 20.58184375 11.34005585 19.27685245 3.25 14.3125 C0.01558677 10.98824195 -1.93005557 7.1222723 -4 3 C-2.68 2.01 -1.36 1.02 0 0 Z " fill="#282724" transform="translate(318,427)"/>
<path d="M0 0 C11.60232097 6.54489901 20.37541221 19.33995653 24 32 C24.125 35.375 24.125 35.375 24 38 C22.68 38 21.36 38 20 38 C19.87625 37.29617188 19.7525 36.59234375 19.625 35.8671875 C16.95440319 23.08170527 10.74795943 13.13474239 1.6875 3.890625 C0 2 0 2 0 0 Z " fill="#EAEAEA" transform="translate(335,252)"/>
<path d="M0 0 C1.32 0 2.64 0 4 0 C4 8.25 4 16.5 4 25 C2.68 25.33 1.36 25.66 0 26 C-1.71567792 24.28432208 -1.13015825 22.02627265 -1.1328125 19.6875 C-1.13410156 18.61242187 -1.13539062 17.53734375 -1.13671875 16.4296875 C-1.13091797 14.73199219 -1.13091797 14.73199219 -1.125 13 C-1.12886719 11.86820313 -1.13273437 10.73640625 -1.13671875 9.5703125 C-1.13542969 8.49523437 -1.13414063 7.42015625 -1.1328125 6.3125 C-1.13168457 5.31863281 -1.13055664 4.32476562 -1.12939453 3.30078125 C-1 1 -1 1 0 0 Z " fill="#2C6993" transform="translate(1261,210)"/>
<path d="M0 0 C1.32 0 2.64 0 4 0 C4 8.25 4 16.5 4 25 C2.68 25.33 1.36 25.66 0 26 C-1.71567792 24.28432208 -1.13015825 22.02627265 -1.1328125 19.6875 C-1.13410156 18.61242187 -1.13539062 17.53734375 -1.13671875 16.4296875 C-1.13091797 14.73199219 -1.13091797 14.73199219 -1.125 13 C-1.12886719 11.86820313 -1.13273437 10.73640625 -1.13671875 9.5703125 C-1.13542969 8.49523437 -1.13414063 7.42015625 -1.1328125 6.3125 C-1.13168457 5.31863281 -1.13055664 4.32476562 -1.12939453 3.30078125 C-1 1 -1 1 0 0 Z " fill="#2D6A94" transform="translate(1251,210)"/>
<path d="M0 0 C1.98 0.495 1.98 0.495 4 1 C4 8.92 4 16.84 4 25 C2.68 25.33 1.36 25.66 0 26 C-1.71567792 24.28432208 -1.13015825 22.02627265 -1.1328125 19.6875 C-1.13410156 18.61242187 -1.13539062 17.53734375 -1.13671875 16.4296875 C-1.13091797 14.73199219 -1.13091797 14.73199219 -1.125 13 C-1.12886719 11.86820313 -1.13273437 10.73640625 -1.13671875 9.5703125 C-1.13542969 8.49523437 -1.13414063 7.42015625 -1.1328125 6.3125 C-1.13168457 5.31863281 -1.13055664 4.32476562 -1.12939453 3.30078125 C-1 1 -1 1 0 0 Z " fill="#2E6B95" transform="translate(1207,210)"/>
<path d="M0 0 C1.98 0.495 1.98 0.495 4 1 C4 8.92 4 16.84 4 25 C2.68 25.33 1.36 25.66 0 26 C-1.71567792 24.28432208 -1.13015825 22.02627265 -1.1328125 19.6875 C-1.13410156 18.61242187 -1.13539062 17.53734375 -1.13671875 16.4296875 C-1.13091797 14.73199219 -1.13091797 14.73199219 -1.125 13 C-1.12886719 11.86820313 -1.13273437 10.73640625 -1.13671875 9.5703125 C-1.13542969 8.49523437 -1.13414063 7.42015625 -1.1328125 6.3125 C-1.13168457 5.31863281 -1.13055664 4.32476562 -1.12939453 3.30078125 C-1 1 -1 1 0 0 Z " fill="#2C6892" transform="translate(1197,210)"/>
<path d="M0 0 C1.65 0 3.3 0 5 0 C5 8.25 5 16.5 5 25 C3.35 25 1.7 25 0 25 C0 16.75 0 8.5 0 0 Z " fill="#2D6B94" transform="translate(1055,210)"/>
<path d="M0 0 C2.475 0.495 2.475 0.495 5 1 C5 8.59 5 16.18 5 24 C3.02 24.99 3.02 24.99 1 26 C0 25 0 25 -0.11352539 22.59155273 C-0.10828857 21.54942627 -0.10305176 20.5072998 -0.09765625 19.43359375 C-0.09443359 18.30888672 -0.09121094 17.18417969 -0.08789062 16.02539062 C-0.07951172 14.84138672 -0.07113281 13.65738281 -0.0625 12.4375 C-0.05798828 11.24962891 -0.05347656 10.06175781 -0.04882812 8.83789062 C-0.03699675 5.89187774 -0.02051287 2.94596319 0 0 Z " fill="#2E6B94" transform="translate(1281,210)"/>
<path d="M0 0 C1.98 0.495 1.98 0.495 4 1 C4 8.92 4 16.84 4 25 C2.68 25 1.36 25 0 25 C-1.68516954 23.31483046 -1.13008019 21.21232212 -1.1328125 18.90625 C-1.13474609 17.36130859 -1.13474609 17.36130859 -1.13671875 15.78515625 C-1.13285156 14.70105469 -1.12898438 13.61695313 -1.125 12.5 C-1.12886719 11.41589844 -1.13273437 10.33179688 -1.13671875 9.21484375 C-1.13542969 8.18488281 -1.13414063 7.15492188 -1.1328125 6.09375 C-1.13168457 5.14177734 -1.13055664 4.18980469 -1.12939453 3.20898438 C-1 1 -1 1 0 0 Z " fill="#2E6C96" transform="translate(1217,210)"/>
<path d="M0 0 C1.65 0 3.3 0 5 0 C5 8.25 5 16.5 5 25 C3.35 24.67 1.7 24.34 0 24 C0 16.08 0 8.16 0 0 Z " fill="#2D6B95" transform="translate(1065,210)"/>
<path d="M0 0 C1.65 0 3.3 0 5 0 C5 8.25 5 16.5 5 25 C3.35 24.67 1.7 24.34 0 24 C0 16.08 0 8.16 0 0 Z " fill="#2D6A94" transform="translate(1045,210)"/>
<path d="M0 0 C1.65 0 3.3 0 5 0 C5 8.25 5 16.5 5 25 C3.35 24.67 1.7 24.34 0 24 C0 16.08 0 8.16 0 0 Z " fill="#2D6A94" transform="translate(1075,210)"/>
<path d="M0 0 C1.98 0.495 1.98 0.495 4 1 C4 8.92 4 16.84 4 25 C2.35 25 0.7 25 -1 25 C-1.02886984 21.02084841 -1.04675406 17.04172347 -1.0625 13.0625 C-1.07087891 11.92619141 -1.07925781 10.78988281 -1.08789062 9.61914062 C-1.09111328 8.53955078 -1.09433594 7.45996094 -1.09765625 6.34765625 C-1.10289307 5.34742432 -1.10812988 4.34719238 -1.11352539 3.31665039 C-1 1 -1 1 0 0 Z " fill="#2C6891" transform="translate(1206,116)"/>
<path d="M0 0 C1.65 0 3.3 0 5 0 C5 7.92 5 15.84 5 24 C3.68 24.33 2.36 24.66 1 25 C0 24 0 24 -0.11352539 21.68334961 C-0.10828857 20.68311768 -0.10305176 19.68288574 -0.09765625 18.65234375 C-0.09443359 17.57275391 -0.09121094 16.49316406 -0.08789062 15.38085938 C-0.07951172 14.24455078 -0.07113281 13.10824219 -0.0625 11.9375 C-0.05798828 10.79732422 -0.05347656 9.65714844 -0.04882812 8.48242188 C-0.03699747 5.65489649 -0.0205141 2.8274736 0 0 Z " fill="#2E6C97" transform="translate(1195,117)"/>
<path d="M0 0 C1.98 0.495 1.98 0.495 4 1 C4 8.92 4 16.84 4 25 C2.35 24.67 0.7 24.34 -1 24 C-1.02887236 20.18751574 -1.04675492 16.3750593 -1.0625 12.5625 C-1.07087891 11.47388672 -1.07925781 10.38527344 -1.08789062 9.26367188 C-1.09111328 8.22919922 -1.09433594 7.19472656 -1.09765625 6.12890625 C-1.10289307 5.17056885 -1.10812988 4.21223145 -1.11352539 3.22485352 C-1 1 -1 1 0 0 Z " fill="#2D6C97" transform="translate(1118,209)"/>
<path d="M0 0 C1.98 0.495 1.98 0.495 4 1 C4 8.92 4 16.84 4 25 C2.35 24.67 0.7 24.34 -1 24 C-1.02887236 20.18751574 -1.04675492 16.3750593 -1.0625 12.5625 C-1.07087891 11.47388672 -1.07925781 10.38527344 -1.08789062 9.26367188 C-1.09111328 8.22919922 -1.09433594 7.19472656 -1.09765625 6.12890625 C-1.10289307 5.17056885 -1.10812988 4.21223145 -1.11352539 3.22485352 C-1 1 -1 1 0 0 Z " fill="#2D6993" transform="translate(1099,209)"/>
<path d="M0 0 C2.475 0.495 2.475 0.495 5 1 C5 8.26 5 15.52 5 23 C3.68 23.33 2.36 23.66 1 24 C0 23 0 23 -0.11352539 20.77514648 C-0.10828857 19.81680908 -0.10305176 18.85847168 -0.09765625 17.87109375 C-0.09443359 16.83662109 -0.09121094 15.80214844 -0.08789062 14.73632812 C-0.07951172 13.64771484 -0.07113281 12.55910156 -0.0625 11.4375 C-0.05798828 10.34501953 -0.05347656 9.25253906 -0.04882812 8.12695312 C-0.03699826 5.41791505 -0.02051543 2.70898401 0 0 Z " fill="#2D6D98" transform="translate(1164,210)"/>
<path d="M0 0 C2.475 0.495 2.475 0.495 5 1 C5 8.26 5 15.52 5 23 C3.68 23.33 2.36 23.66 1 24 C0 23 0 23 -0.11352539 20.77514648 C-0.10828857 19.81680908 -0.10305176 18.85847168 -0.09765625 17.87109375 C-0.09443359 16.83662109 -0.09121094 15.80214844 -0.08789062 14.73632812 C-0.07951172 13.64771484 -0.07113281 12.55910156 -0.0625 11.4375 C-0.05798828 10.34501953 -0.05347656 9.25253906 -0.04882812 8.12695312 C-0.03699826 5.41791505 -0.02051543 2.70898401 0 0 Z " fill="#2E6C97" transform="translate(1226,164)"/>
<path d="M0 0 C2.475 0.495 2.475 0.495 5 1 C5 8.26 5 15.52 5 23 C3.68 23.33 2.36 23.66 1 24 C0 23 0 23 -0.11352539 20.77514648 C-0.10828857 19.81680908 -0.10305176 18.85847168 -0.09765625 17.87109375 C-0.09443359 16.83662109 -0.09121094 15.80214844 -0.08789062 14.73632812 C-0.07951172 13.64771484 -0.07113281 12.55910156 -0.0625 11.4375 C-0.05798828 10.34501953 -0.05347656 9.25253906 -0.04882812 8.12695312 C-0.03699826 5.41791505 -0.02051543 2.70898401 0 0 Z " fill="#2E6C96" transform="translate(1216,164)"/>
<path d="M0 0 C1.32 0 2.64 0 4 0 C4 7.59 4 15.18 4 23 C2.68 23.33 1.36 23.66 0 24 C-1.65394117 22.34605883 -1.12999683 20.39684587 -1.1328125 18.125 C-1.13410156 17.14015625 -1.13539062 16.1553125 -1.13671875 15.140625 C-1.13285156 14.10421875 -1.12898438 13.0678125 -1.125 12 C-1.13080078 10.44539062 -1.13080078 10.44539062 -1.13671875 8.859375 C-1.13542969 7.87453125 -1.13414063 6.8896875 -1.1328125 5.875 C-1.13168457 4.96492187 -1.13055664 4.05484375 -1.12939453 3.1171875 C-1 1 -1 1 0 0 Z " fill="#2E6D98" transform="translate(1196,164)"/>
<path d="M0 0 C1.32 0 2.64 0 4 0 C4 8.25 4 16.5 4 25 C2.68 25.33 1.36 25.66 0 26 C0 17.42 0 8.84 0 0 Z " fill="#2B6790" transform="translate(1271,210)"/>
<path d="M0 0 C1.32 0 2.64 0 4 0 C4 8.25 4 16.5 4 25 C2.68 25.33 1.36 25.66 0 26 C0 17.42 0 8.84 0 0 Z " fill="#2C678F" transform="translate(1227,210)"/>
<path d="M0 0 C1.32 0 2.64 0 4 0 C4 8.25 4 16.5 4 25 C2.68 25 1.36 25 0 25 C0 16.75 0 8.5 0 0 Z " fill="#2B6790" transform="translate(1108,209)"/>
<path d="M0 0 C1.32 0.33 2.64 0.66 4 1 C4 8.92 4 16.84 4 25 C2.68 25 1.36 25 0 25 C0 16.75 0 8.5 0 0 Z " fill="#2B6790" transform="translate(1127,209)"/>
<path d="M0 0 C0.99 0 1.98 0 3 0 C3 8.25 3 16.5 3 25 C1.68 25 0.36 25 -1 25 C-1.02886984 21.02084841 -1.04675406 17.04172347 -1.0625 13.0625 C-1.07087891 11.92619141 -1.07925781 10.78988281 -1.08789062 9.61914062 C-1.09111328 8.53955078 -1.09433594 7.45996094 -1.09765625 6.34765625 C-1.10289307 5.34742432 -1.10812988 4.34719238 -1.11352539 3.31665039 C-1 1 -1 1 0 0 Z " fill="#2B6790" transform="translate(1227,116)"/>
<path d="M0 0 C0.99 0.33 1.98 0.66 3 1 C3 8.92 3 16.84 3 25 C1.68 25 0.36 25 -1 25 C-1.02886984 21.02084841 -1.04675406 17.04172347 -1.0625 13.0625 C-1.07087891 11.92619141 -1.07925781 10.78988281 -1.08789062 9.61914062 C-1.09111328 8.53955078 -1.09433594 7.45996094 -1.09765625 6.34765625 C-1.10289307 5.34742432 -1.10812988 4.34719238 -1.11352539 3.31665039 C-1 1 -1 1 0 0 Z " fill="#29638B" transform="translate(1217,116)"/>
<path d="M0 0 C1.32 0 2.64 0 4 0 C4 7.92 4 15.84 4 24 C2.68 24 1.36 24 0 24 C0 16.08 0 8.16 0 0 Z " fill="#2B668F" transform="translate(1174,210)"/>
<path d="M0 0 C1.32 0 2.64 0 4 0 C4 7.92 4 15.84 4 24 C2.68 24 1.36 24 0 24 C0 16.08 0 8.16 0 0 Z " fill="#2C6891" transform="translate(1155,210)"/>
<path d="M0 0 C1.32 0 2.64 0 4 0 C4 7.92 4 15.84 4 24 C2.68 24 1.36 24 0 24 C0 16.08 0 8.16 0 0 Z " fill="#2C6893" transform="translate(1148,163)"/>
<path d="M0 0 C1.32 0 2.64 0 4 0 C4 7.92 4 15.84 4 24 C2.68 24 1.36 24 0 24 C0 16.08 0 8.16 0 0 Z " fill="#2B6891" transform="translate(1206,164)"/>
<path d="M0 0 C1.32 0 2.64 0 4 0 C4 7.92 4 15.84 4 24 C2.68 23.67 1.36 23.34 0 23 C0 15.41 0 7.82 0 0 Z " fill="#2C6891" transform="translate(1146,210)"/>
<path d="M0 0 C0.99 0 1.98 0 3 0 C3 7.92 3 15.84 3 24 C1.68 24 0.36 24 -1 24 C-1.02887236 20.18751574 -1.04675492 16.3750593 -1.0625 12.5625 C-1.07087891 11.47388672 -1.07925781 10.38527344 -1.08789062 9.26367188 C-1.09111328 8.22919922 -1.09433594 7.19472656 -1.09765625 6.12890625 C-1.10289307 5.17056885 -1.10812988 4.21223145 -1.11352539 3.22485352 C-1 1 -1 1 0 0 Z " fill="#2D6B95" transform="translate(1175,163)"/>
<path d="M0 0 C0.99 0 1.98 0 3 0 C3 7.92 3 15.84 3 24 C1.68 24 0.36 24 -1 24 C-1.02887236 20.18751574 -1.04675492 16.3750593 -1.0625 12.5625 C-1.07087891 11.47388672 -1.07925781 10.38527344 -1.08789062 9.26367188 C-1.09111328 8.22919922 -1.09433594 7.19472656 -1.09765625 6.12890625 C-1.10289307 5.17056885 -1.10812988 4.21223145 -1.11352539 3.22485352 C-1 1 -1 1 0 0 Z " fill="#2C6993" transform="translate(1110,163)"/>
<path d="M0 0 C0.99 0 1.98 0 3 0 C3 7.92 3 15.84 3 24 C1.68 24 0.36 24 -1 24 C-1.02887236 20.18751574 -1.04675492 16.3750593 -1.0625 12.5625 C-1.07087891 11.47388672 -1.07925781 10.38527344 -1.08789062 9.26367188 C-1.09111328 8.22919922 -1.09433594 7.19472656 -1.09765625 6.12890625 C-1.10289307 5.17056885 -1.10812988 4.21223145 -1.11352539 3.22485352 C-1 1 -1 1 0 0 Z " fill="#2C6A94" transform="translate(1101,163)"/>
<path d="M0 0 C0.99 0 1.98 0 3 0 C3 7.92 3 15.84 3 24 C1.68 24 0.36 24 -1 24 C-1.02887236 20.18751574 -1.04675492 16.3750593 -1.0625 12.5625 C-1.07087891 11.47388672 -1.07925781 10.38527344 -1.08789062 9.26367188 C-1.09111328 8.22919922 -1.09433594 7.19472656 -1.09765625 6.12890625 C-1.10289307 5.17056885 -1.10812988 4.21223145 -1.11352539 3.22485352 C-1 1 -1 1 0 0 Z " fill="#2E6C97" transform="translate(1128,163)"/>
<path d="M0 0 C1.32 0.33 2.64 0.66 4 1 C4 8.59 4 16.18 4 24 C2.68 24 1.36 24 0 24 C0 16.08 0 8.16 0 0 Z " fill="#2D6B96" transform="translate(1157,163)"/>
<path d="M0 0 C0.99 0.33 1.98 0.66 3 1 C3 8.59 3 16.18 3 24 C1.68 24 0.36 24 -1 24 C-1.02887236 20.18751574 -1.04675492 16.3750593 -1.0625 12.5625 C-1.07087891 11.47388672 -1.07925781 10.38527344 -1.08789062 9.26367188 C-1.09111328 8.22919922 -1.09433594 7.19472656 -1.09765625 6.12890625 C-1.10289307 5.17056885 -1.10812988 4.21223145 -1.11352539 3.22485352 C-1 1 -1 1 0 0 Z " fill="#2C6992" transform="translate(1119,163)"/>
<path d="M0 0 C0.99 0.33 1.98 0.66 3 1 C3.07401964 6.80238024 3.12853989 12.60448722 3.16479492 18.40722656 C3.17990462 20.38221013 3.20039328 22.35716004 3.22631836 24.33203125 C3.26260619 27.16675106 3.27970416 30.00102826 3.29296875 32.8359375 C3.30845261 33.72243988 3.32393646 34.60894226 3.33988953 35.52230835 C3.34011612 36.34300812 3.34034271 37.16370789 3.34057617 38.00927734 C3.34723801 38.73319672 3.35389984 39.45711609 3.36076355 40.20297241 C3 42 3 42 0 44 C0 29.48 0 14.96 0 0 Z " fill="#29648A" transform="translate(1240,203)"/>
<path d="M0 0 C0.99 0 1.98 0 3 0 C3 7.59 3 15.18 3 23 C2.34 22.01 1.68 21.02 1 20 C0.34 20.99 -0.32 21.98 -1 23 C-1.02887512 19.35418313 -1.04675585 15.70839537 -1.0625 12.0625 C-1.07087891 11.02158203 -1.07925781 9.98066406 -1.08789062 8.90820312 C-1.09272461 7.42416992 -1.09272461 7.42416992 -1.09765625 5.91015625 C-1.10289307 4.99371338 -1.10812988 4.07727051 -1.11352539 3.13305664 C-1 1 -1 1 0 0 Z " fill="#4BA4E7" transform="translate(1153,164)"/>
<path d="M0 0 C0.99 0.33 1.98 0.66 3 1 C3.33 5.62 3.66 10.24 4 15 C3.34 14.34 2.68 13.68 2 13 C2.02320313 13.60328125 2.04640625 14.2065625 2.0703125 14.828125 C2.08835938 15.62734375 2.10640625 16.4265625 2.125 17.25 C2.14820313 18.03890625 2.17140625 18.8278125 2.1953125 19.640625 C1.9828378 22.20731941 1.28654105 23.7916067 0 26 C-0.33970765 23.50072231 -0.67188032 21.00080405 -1 18.5 C-1.09539062 17.80390625 -1.19078125 17.1078125 -1.2890625 16.390625 C-1.91628589 11.55204453 -2.25460328 6.87989614 -2 2 C-1.34 1.34 -0.68 0.68 0 0 Z " fill="#201F20" transform="translate(136,369)"/>
<path d="M0 0 C0.99 0 1.98 0 3 0 C3 7.59 3 15.18 3 23 C2.01 23 1.02 23 0 23 C0 15.41 0 7.82 0 0 Z " fill="#2A658D" transform="translate(1166,164)"/>
<path d="M0 0 C1.98 0.495 1.98 0.495 4 1 C4 8.92 4 16.84 4 25 C3.67 25 3.34 25 3 25 C3 17.41 3 9.82 3 2 C2.34 2 1.68 2 1 2 C0.67 9.59 0.34 17.18 0 25 C-0.33 25 -0.66 25 -1 25 C-1.02886984 21.02084841 -1.04675406 17.04172347 -1.0625 13.0625 C-1.07087891 11.92619141 -1.07925781 10.78988281 -1.08789062 9.61914062 C-1.09111328 8.53955078 -1.09433594 7.45996094 -1.09765625 6.34765625 C-1.10289307 5.34742432 -1.10812988 4.34719238 -1.11352539 3.31665039 C-1 1 -1 1 0 0 Z " fill="#2F709D" transform="translate(1206,116)"/>
<path d="M0 0 C0.66 0.33 1.32 0.66 2 1 C2 1.66 2 2.32 2 3 C2.66 3 3.32 3 4 3 C4.18451025 13.55808656 4.18451025 13.55808656 3 18 C2.67 18 2.34 18 2 18 C1.67 15.69 1.34 13.38 1 11 C0.34 11.99 -0.32 12.98 -1 14 C-1.02705729 12.22925083 -1.04642195 10.45838289 -1.0625 8.6875 C-1.07410156 7.70136719 -1.08570313 6.71523438 -1.09765625 5.69921875 C-1 3 -1 3 0 0 Z " fill="#19191B" transform="translate(322,354)"/>
<path d="M0 0 C0.33 0.66 0.66 1.32 1 2 C1.66 2 2.32 2 3 2 C3.625 4.375 3.625 4.375 4 7 C2 9 2 9 -1 10 C-1.33 12.64 -1.66 15.28 -2 18 C-4 16 -4 16 -4.375 12.9375 C-3.9081285 8.03534922 -2.20948112 4.34991596 0 0 Z " fill="#292928" transform="translate(134,397)"/>
<path d="M0 0 C1.98 0.495 1.98 0.495 4 1 C4 8.92 4 16.84 4 25 C3.67 25 3.34 25 3 25 C2.67 19.72 2.34 14.44 2 9 C1.01 9 0.02 9 -1 9 C-1.09765625 2.84765625 -1.09765625 2.84765625 -1 1 C-0.67 0.67 -0.34 0.34 0 0 Z " fill="#2F709D" transform="translate(1197,210)"/>
<path d="M0 0 C0.66 1.32 1.32 2.64 2 4 C0.35 5.98 -1.3 7.96 -3 10 C-4.98 9.34 -6.96 8.68 -9 8 C-8.26418258 6.8450079 -7.51069961 5.70125815 -6.75 4.5625 C-6.33234375 3.92441406 -5.9146875 3.28632813 -5.484375 2.62890625 C-3.72751123 0.70097943 -2.53910197 0.38520564 0 0 Z " fill="#2A2824" transform="translate(169,343)"/>
<path d="M0 0 C0.99 0.33 1.98 0.66 3 1 C2.67 8.59 2.34 16.18 2 24 C1.34 24 0.68 24 0 24 C0 16.08 0 8.16 0 0 Z " fill="#2E6B96" transform="translate(1217,116)"/>
<path d="M0 0 C0.53560547 0.96679688 0.53560547 0.96679688 1.08203125 1.953125 C3.78906891 4.84210206 5.80046879 4.59605817 9.6875 4.75 C10.86699219 4.80671875 12.04648437 4.8634375 13.26171875 4.921875 C14.16535156 4.94765625 15.06898438 4.9734375 16 5 C15.67 5.66 15.34 6.32 15 7 C2.33029613 7.3690205 2.33029613 7.3690205 -3 5 C-2.625 3.0625 -2.625 3.0625 -2 1 C-1.34 0.67 -0.68 0.34 0 0 Z " fill="#393939" transform="translate(330,440)"/>
<path d="M0 0 C6.75 -0.125 6.75 -0.125 9 1 C9 1.99 9 2.98 9 4 C3.43842552 4.91457003 -0.675665 5.32086397 -6 3 C-6 2.67 -6 2.34 -6 2 C-4.02 2 -2.04 2 0 2 C0 1.34 0 0.68 0 0 Z " fill="#212020" transform="translate(155,424)"/>
<path d="M0 0 C0.99 0 1.98 0 3 0 C3 7.92 3 15.84 3 24 C2.01 23.67 1.02 23.34 0 23 C0.66 23 1.32 23 2 23 C1.67 19.04 1.34 15.08 1 11 C0.67 11 0.34 11 0 11 C0 7.37 0 3.74 0 0 Z " fill="#2A658F" transform="translate(1128,163)"/>
<path d="M0 0 C2.31 0.33 4.62 0.66 7 1 C7 2.32 7 3.64 7 5 C1.78020872 5.1799928 -2.07262981 4.97094808 -7 3 C-7 2.67 -7 2.34 -7 2 C-5.02 2 -3.04 2 -1 2 C-0.67 1.34 -0.34 0.68 0 0 Z " fill="#1E1F1F" transform="translate(175,428)"/>
<path d="M0 0 C-0.33 0.99 -0.66 1.98 -1 3 C-0.34 3.33 0.32 3.66 1 4 C-2.14930893 5.04976964 -4.38814456 5.10131595 -7.6875 5.0625 C-8.68136719 5.05347656 -9.67523438 5.04445312 -10.69921875 5.03515625 C-11.83810547 5.01775391 -11.83810547 5.01775391 -13 5 C-13 4.67 -13 4.34 -13 4 C-11.02 3.67 -9.04 3.34 -7 3 C-8.65 2.67 -10.3 2.34 -12 2 C-12 1.67 -12 1.34 -12 1 C-7.93631321 0.22596442 -4.13574827 -0.0984702 0 0 Z " fill="#1A191B" transform="translate(273,211)"/>
<path d="M0 0 C2.64 1.65 5.28 3.3 8 5 C7.34 5.66 6.68 6.32 6 7 C6.33 7.66 6.66 8.32 7 9 C4.32142828 8.63803085 2.39019086 8.26012724 0.125 6.75 C-1 5 -1 5 -0.6875 2.3125 C-0.460625 1.549375 -0.23375 0.78625 0 0 Z " fill="#1D1E1E" transform="translate(322,435)"/>
<path d="M0 0 C0.66 0.99 1.32 1.98 2 3 C0.25 6 0.25 6 -2 9 C-6.27709699 9 -7.55930376 8.29379749 -11 6 C-9.68 4.35 -8.36 2.7 -7 1 C-7 2.98 -7 4.96 -7 7 C-5.02 6.67 -3.04 6.34 -1 6 C-1.020625 5.195625 -1.04125 4.39125 -1.0625 3.5625 C-1 1 -1 1 0 0 Z " fill="#C8C9C7" transform="translate(303,180)"/>
<path d="M0 0 C1.32 2.97 2.64 5.94 4 9 C3.01 8.67 2.02 8.34 1 8 C1 7.34 1 6.68 1 6 C0.34 6 -0.32 6 -1 6 C-1.33 6.99 -1.66 7.98 -2 9 C-5 5.25 -5 5.25 -5 3 C-2.46153846 0 -2.46153846 0 0 0 Z " fill="#2B2B27" transform="translate(404,367)"/>
<path d="M0 0 C0.33 0.66 0.66 1.32 1 2 C0.18961915 4.43114256 -0.68292458 6.71380735 -1.6875 9.0625 C-1.94466797 9.71283203 -2.20183594 10.36316406 -2.46679688 11.03320312 C-4.47654241 15.77857281 -4.47654241 15.77857281 -7.20703125 16.93359375 C-7.79871094 16.95550781 -8.39039063 16.97742188 -9 17 C-7.68925635 12.53817564 -5.92933989 9.00381243 -3.375 5.125 C-2.74335938 4.15820312 -2.11171875 3.19140625 -1.4609375 2.1953125 C-0.73777344 1.10863281 -0.73777344 1.10863281 0 0 Z " fill="#D7D6D7" transform="translate(210,262)"/>
<path d="M0 0 C1.65 0.33 3.3 0.66 5 1 C4.34 2.65 3.68 4.3 3 6 C-1.455 5.01 -1.455 5.01 -6 4 C-6 3.34 -6 2.68 -6 2 C-4.35 2 -2.7 2 -1 2 C-0.67 1.34 -0.34 0.68 0 0 Z " fill="#2C2C2B" transform="translate(183,430)"/>
<path d="M0 0 C3.96 0 7.92 0 12 0 C9.08235 1.9451 7.37462715 2.45276317 4 3 C4.99 3.66 5.98 4.32 7 5 C4.69 5 2.38 5 0 5 C0 3.35 0 1.7 0 0 Z " fill="#1B1A1D" transform="translate(214,439)"/>
<path d="M0 0 C1.32 0.33 2.64 0.66 4 1 C4 2.98 4 4.96 4 7 C3.34 6.01 2.68 5.02 2 4 C1.67 9.28 1.34 14.56 1 20 C0.67 20 0.34 20 0 20 C0 13.4 0 6.8 0 0 Z " fill="#2B668F" transform="translate(1227,164)"/>
<path d="M0 0 C1.32 0 2.64 0 4 0 C3.67 0.66 3.34 1.32 3 2 C2.01 1.34 1.02 0.68 0 0 Z M4 3 C4.33 3.66 4.66 4.32 5 5 C-1.4 6.23076923 -1.4 6.23076923 -4.4375 5.0625 C-4.953125 4.711875 -5.46875 4.36125 -6 4 C0.55319149 1.46808511 0.55319149 1.46808511 4 3 Z " fill="#2B2925" transform="translate(223,438)"/>
<path d="M0 0 C0.33 0.66 0.66 1.32 1 2 C1.86625 1.62875 2.7325 1.2575 3.625 0.875 C7.55697326 -0.14440048 9.32937509 0.42687504 13 2 C13 2.33 13 2.66 13 3 C11.06325815 3.19517554 9.12555991 3.38087873 7.1875 3.5625 C6.10855469 3.66691406 5.02960938 3.77132812 3.91796875 3.87890625 C1 4 1 4 -2 3 C-2 2.34 -2 1.68 -2 1 C-1.34 0.67 -0.68 0.34 0 0 Z " fill="#2C281E" transform="translate(254,212)"/>
<path d="M0 0 C0.66 0.99 1.32 1.98 2 3 C1.1875 4.9375 1.1875 4.9375 0 7 C-0.99 7.33 -1.98 7.66 -3 8 C-2.67 7.01 -2.34 6.02 -2 5 C-3.32 4.34 -4.64 3.68 -6 3 C-4.02 2.01 -2.04 1.02 0 0 Z " fill="#292722" transform="translate(396,406)"/>
<path d="M0 0 C0.99 0.33 1.98 0.66 3 1 C3.33 3.64 3.66 6.28 4 9 C2.35 9 0.7 9 -1 9 C-0.67 6.03 -0.34 3.06 0 0 Z " fill="#1E1D1C" transform="translate(413,388)"/>
<path d="M0 0 C2.0625 0.4375 2.0625 0.4375 4 1 C3.30058404 4.14737182 2.23921302 7.02588876 1 10 C-0.85064319 6.87703962 -1.29356154 4.62059232 -1 1 C-0.67 0.67 -0.34 0.34 0 0 Z " fill="#1F1D1D" transform="translate(328,341)"/>
<path d="M0 0 C0.99 0.99 1.98 1.98 3 3 C0.40517871 5.59482129 -1.39883625 5.69990302 -5 6 C-5.66 5.34 -6.32 4.68 -7 4 C-4.69 2.68 -2.38 1.36 0 0 Z " fill="#282623" transform="translate(297,210)"/>
<path d="M0 0 C0.66 0.33 1.32 0.66 2 1 C2 1.99 2 2.98 2 4 C2.66 4 3.32 4 4 4 C4 4.66 4 5.32 4 6 C4.99 6.33 5.98 6.66 7 7 C6.67 7.66 6.34 8.32 6 9 C3.69 8.67 1.38 8.34 -1 8 C-0.34 7.34 0.32 6.68 1 6 C0.67801034 2.90073181 0.67801034 2.90073181 0 0 Z " fill="#18191C" transform="translate(383,337)"/>
<path d="M0 0 C1.32 0 2.64 0 4 0 C5.1577506 3.47325181 5.06866652 6.36067448 5 10 C4.67 8.68 4.34 7.36 4 6 C3.34 6 2.68 6 2 6 C0 3 0 3 0 0 Z " fill="#343129" transform="translate(322,351)"/>
<path d="M0 0 C1.25541557 3.76624671 0.37061958 5.37188934 -1 9 C-1.99 9 -2.98 9 -4 9 C-4.33 8.34 -4.66 7.68 -5 7 C-1.125 1.125 -1.125 1.125 0 0 Z " fill="#ECEBEB" transform="translate(203,277)"/>
<path d="M0 0 C0.66 0.33 1.32 0.66 2 1 C2.25 7.625 2.25 7.625 0 11 C-0.33 10.67 -0.66 10.34 -1 10 C-0.91036938 8.30858344 -0.75422324 6.62040398 -0.5625 4.9375 C-0.46066406 4.01839844 -0.35882813 3.09929687 -0.25390625 2.15234375 C-0.17011719 1.44207031 -0.08632812 0.73179687 0 0 Z " fill="#2E2D2F" transform="translate(238,373)"/>
<path d="M0 0 C0.99 0.33 1.98 0.66 3 1 C3 3.31 3 5.62 3 8 C2.34 8 1.68 8 1 8 C-1 6 -1 6 -1.1875 3.4375 C-1 1 -1 1 0 0 Z " fill="#181A1C" transform="translate(136,369)"/>
<path d="M0 0 C0.598125 0.309375 1.19625 0.61875 1.8125 0.9375 C4.08956772 2.10209704 4.08956772 2.10209704 7 3 C4.525 4.485 4.525 4.485 2 6 C2 5.34 2 4.68 2 4 C0.68 3.34 -0.64 2.68 -2 2 C-1.34 1.34 -0.68 0.68 0 0 Z " fill="#2F2B27" transform="translate(330,338)"/>
<path d="M0 0 C1.39864092 3.17872935 0.89282517 4.30111022 -0.3125 7.6875 C-2 11 -2 11 -4 12 C-3.45660208 7.43545749 -2.20536179 4.0271824 0 0 Z " fill="#2D2C2D" transform="translate(187,279)"/>
<path d="M0 0 C-1.2824977 2.86095641 -2.45343989 5.11365918 -5 7 C-7.6875 7.1875 -7.6875 7.1875 -10 7 C-9.236875 6.401875 -8.47375 5.80375 -7.6875 5.1875 C-5.08664741 3.15995888 -5.08664741 3.15995888 -3.3125 1.25 C-2 0 -2 0 0 0 Z " fill="#282829" transform="translate(565,210)"/>
<path d="M0 0 C3 3.75 3 3.75 3 6 C0.03 5.505 0.03 5.505 -3 5 C-2.625 3.0625 -2.625 3.0625 -2 1 C-1.34 0.67 -0.68 0.34 0 0 Z " fill="#2D2E2E" transform="translate(330,440)"/>
<path d="M0 0 C0.33 0 0.66 0 1 0 C0.88637738 1.4800841 0.75877092 2.95910074 0.625 4.4375 C0.55539063 5.26121094 0.48578125 6.08492188 0.4140625 6.93359375 C0.27742187 7.61550781 0.14078125 8.29742187 0 9 C-0.99 9.495 -0.99 9.495 -2 10 C-2 9.01 -2 8.02 -2 7 C-2.66 7 -3.32 7 -4 7 C-3.67 6.01 -3.34 5.02 -3 4 C-2.34 4 -1.68 4 -1 4 C-0.67 2.68 -0.34 1.36 0 0 Z " fill="#19191C" transform="translate(139,392)"/>
<path d="M0 0 C0.99 0.99 1.98 1.98 3 3 C2.34 4.65 1.68 6.3 1 8 C0.34 8 -0.32 8 -1 8 C-0.67 5.36 -0.34 2.72 0 0 Z " fill="#212324" transform="translate(322,354)"/>
<path d="M0 0 C2.69082872 0.17635452 5.32851446 0.61835921 8 1 C5.94766315 3.2477975 4.99332739 4.0022242 2 5 C1.01 3.68 0.02 2.36 -1 1 C-0.67 0.67 -0.34 0.34 0 0 Z " fill="#1C1B1A" transform="translate(146,361)"/>
<path d="M0 0 C1.65 1.32 3.3 2.64 5 4 C2.21176345 5.0326802 1.1322726 5.04509293 -1.75 4.0625 C-2.4925 3.711875 -3.235 3.36125 -4 3 C-2.68 2.01 -1.36 1.02 0 0 Z " fill="#2A2926" transform="translate(151,358)"/>
<path d="M0 0 C2.64 0.66 5.28 1.32 8 2 C5.06279492 3.52299523 2.0831351 4.80100302 -1 6 C-0.67 4.02 -0.34 2.04 0 0 Z " fill="#342E20" transform="translate(254,179)"/>
<path d="M0 0 C1.32 0.33 2.64 0.66 4 1 C3.25 5.75 3.25 5.75 1 8 C-0.35439668 5.29120665 -0.06501451 2.99066732 0 0 Z " fill="#E2B62F" transform="translate(234,199)"/>
<path d="M0 0 C0.99 0.33 1.98 0.66 3 1 C3.33 1.99 3.66 2.98 4 4 C2.02 4.99 2.02 4.99 0 6 C0 4.68 0 3.36 0 2 C-0.66 1.67 -1.32 1.34 -2 1 C-1.34 0.67 -0.68 0.34 0 0 Z " fill="#2B2A26" transform="translate(285,217)"/>
<path d="M0 0 C0.33 0 0.66 0 1 0 C1.125 2.875 1.125 2.875 1 6 C0.34 6.66 -0.32 7.32 -1 8 C-1 7.34 -1 6.68 -1 6 C-1.66 6 -2.32 6 -3 6 C-3.33 6.99 -3.66 7.98 -4 9 C-4 7.68 -4 6.36 -4 5 C-2.68 4.67 -1.36 4.34 0 4 C0 2.68 0 1.36 0 0 Z " fill="#17171A" transform="translate(322,382)"/>
<path d="M0 0 C0.33 1.32 0.66 2.64 1 4 C0.01 4.66 -0.98 5.32 -2 6 C-2.99 4.68 -3.98 3.36 -5 2 C-4.01 1.67 -3.02 1.34 -2 1 C-1.34 1.33 -0.68 1.66 0 2 C0 1.34 0 0.68 0 0 Z " fill="#1D1D1B" transform="translate(164,350)"/>
<path d="M0 0 C0.99 0.33 1.98 0.66 3 1 C0.03 3.475 0.03 3.475 -3 6 C-3.66 5.34 -4.32 4.68 -5 4 C-2.6875 1.9375 -2.6875 1.9375 0 0 Z " fill="#2F2F2F" transform="translate(459,206)"/>
</svg>
