<?xml version="1.0" encoding="UTF-8"?>
<!-- Generator: visioncortex VTracer 0.6.4 -->
<svg version="1.1" xmlns="http://www.w3.org/2000/svg" width="2000" height="735">
<path d="M0 0 C660 0 1320 0 2000 0 C2000 242.55 2000 485.1 2000 735 C1340 735 680 735 0 735 C0 492.45 0 249.9 0 0 Z " fill="#FEFEFE" transform="translate(0,0)"/>
<path d="M0 0 C1.62240246 -0.002743 3.24480313 -0.00679715 4.86719942 -0.01204365 C9.31037849 -0.02260412 13.75335561 -0.01451863 18.19652581 -0.00329316 C22.99413936 0.00556371 27.79172691 -0.00289896 32.58934021 -0.00915527 C41.98192263 -0.01863663 51.37442814 -0.0120492 60.76700485 0.00010767 C71.70711026 0.0137392 82.64719743 0.01208878 93.58730918 0.00997434 C113.10847418 0.00678541 132.62960267 0.0184466 152.15075684 0.03804016 C171.08924471 0.05704388 190.0276898 0.06412758 208.96618652 0.05854797 C229.59338343 0.05248882 250.22056152 0.05266977 270.84775686 0.06403381 C273.04766941 0.06524108 275.24758196 0.06644707 277.44749451 0.06765175 C278.52986854 0.06825529 279.61224258 0.06885883 280.72741583 0.06948065 C288.35160967 0.0733584 295.9757965 0.07296673 303.59999084 0.0710659 C312.89244523 0.06894278 322.18486217 0.07417697 331.47730601 0.08867946 C336.2176239 0.0959181 340.95788727 0.10000496 345.69820976 0.0954361 C350.03945692 0.09135368 354.38059161 0.09654228 358.72182173 0.10906217 C360.29034048 0.11198505 361.85886987 0.11156454 363.42738587 0.1074191 C385.10541281 0.05533794 385.10541281 0.05533794 394.05847168 8.3742218 C395.72940902 10.17047944 397.30680381 12.02199302 398.87878418 13.9054718 C401.7961075 17.2096803 404.92273557 20.27852506 408.05847168 23.3742218 C415.40565683 30.64347794 415.40565683 30.64347794 418.49597168 34.3117218 C421.94885764 38.40043331 425.75924366 42.11156878 429.55847168 45.8742218 C433.92378288 50.19750835 438.16461129 54.52099011 442.12487793 59.22187805 C445.55975992 63.04535275 449.26879105 66.60330585 452.92126465 70.21748352 C456.68585211 73.95773753 460.30999675 77.75796272 463.72644043 81.82344055 C465.09966702 83.42218236 466.55102626 84.90235031 468.05847168 86.3742218 C467.49597168 88.1867218 467.49597168 88.1867218 466.05847168 90.3742218 C460.48726968 93.30643338 455.34433984 94.04586847 449.12097168 94.5617218 C448.24634277 94.64357727 447.37171387 94.72543274 446.47058105 94.80976868 C444.33414445 95.00823547 442.19641284 95.19267835 440.05847168 95.3742218 C440.62694824 95.9310968 441.1954248 96.4879718 441.78112793 97.0617218 C446.11745552 101.34737444 450.26669797 105.69691606 454.23034668 110.3273468 C457.02730448 113.45898332 460.03299806 116.37043975 463.04284668 119.2960968 C464.94094232 121.25304812 466.63806203 123.04474997 468.05847168 125.3742218 C467.05847168 128.3742218 467.05847168 128.3742218 464.30847168 129.9992218 C458.86483075 132.30230066 453.57713884 132.61884763 447.74597168 132.9367218 C447.00540527 132.9799054 446.26483887 133.02308899 445.50183105 133.06758118 C443.68755704 133.17292612 441.87303618 133.27400496 440.05847168 133.3742218 C440.4762085 133.7867218 440.89394531 134.1992218 441.32434082 134.6242218 C455.80604629 148.94806129 455.80604629 148.94806129 460.69128418 154.80781555 C462.05326447 156.36825583 463.5083128 157.69171653 465.05847168 159.0617218 C467.05847168 161.3742218 467.05847168 161.3742218 467.37097168 163.9367218 C465.77369344 166.90309568 463.98154636 168.20340834 460.93347168 169.5929718 C454.50292433 171.34040315 447.68657868 171.22358301 441.05847168 171.3742218 C441.91569824 172.2198468 442.7729248 173.0654718 443.65612793 173.9367218 C449.68337252 179.90667319 455.5826144 185.88785719 461.05847168 192.3742218 C462.36858236 193.8763091 463.68106745 195.37632891 464.99597168 196.8742218 C466.01680501 198.04088847 467.03763835 199.20755514 468.05847168 200.3742218 C464.60689961 204.35680496 461.35010198 206.08017133 456.03827231 206.55469182 C453.62782357 206.63103382 451.22543235 206.6390635 448.81379604 206.62590408 C447.88722733 206.62881096 446.96065861 206.63171785 446.00601205 206.63471282 C442.89000499 206.64203253 439.77419362 206.63506014 436.65818787 206.62818909 C434.40600771 206.63049275 432.15382831 206.63366864 429.90165049 206.63764358 C423.70362335 206.64601354 417.50565758 206.64185625 411.30763018 206.63567114 C405.31234805 206.63161996 399.31707625 206.63693635 393.32179648 206.64196587 C380.29913903 206.65250379 367.27650119 206.65158174 354.25384187 206.64580804 C342.85317623 206.64077832 331.45251779 206.63946286 320.05185127 206.64185333 C319.29581864 206.6420061 318.53978601 206.64215887 317.76084331 206.64231627 C314.69183712 206.64293895 311.62283094 206.64357575 308.55382477 206.6442358 C279.75214921 206.65035631 250.95048613 206.64480368 222.1488125 206.63404201 C196.57027097 206.62455727 170.99174936 206.62539411 145.41320801 206.63496399 C116.67501109 206.64568007 87.93682522 206.64991552 59.19862658 206.64373946 C56.13301854 206.64309804 53.06741049 206.64247236 50.00180244 206.64185333 C48.86956073 206.6416161 48.86956073 206.6416161 47.71444544 206.64137408 C36.32687414 206.63910128 24.93931084 206.64175583 13.55174065 206.64681244 C0.59516347 206.65253708 -12.36139103 206.65108857 -25.3179654 206.64025095 C-31.92807213 206.6349039 -38.53814739 206.6329298 -45.1482563 206.63954926 C-51.20269236 206.64552043 -57.25705071 206.64221418 -63.31147974 206.63159415 C-65.49859585 206.62936502 -67.68571856 206.63048545 -69.8728304 206.63534573 C-99.23995382 206.69558572 -99.23995382 206.69558572 -103.77243 202.80099511 C-104.15823245 202.33015992 -104.54403489 201.85932473 -104.94152832 201.3742218 C-103.62669259 198.45587963 -102.22519556 196.42501251 -99.92980957 194.2023468 C-99.33990234 193.62404114 -98.74999512 193.04573547 -98.14221191 192.4499054 C-97.20756104 191.54619202 -97.20756104 191.54619202 -96.25402832 190.6242218 C-91.77773892 186.22991989 -87.4016657 181.83741294 -83.37121582 177.0226593 C-81.65314258 175.04171147 -79.81109271 173.21169067 -77.94152832 171.3742218 C-78.5159668 171.33458313 -79.09040527 171.29494446 -79.68225098 171.25410461 C-82.31202758 171.06228935 -84.93890448 170.843495 -87.56652832 170.6242218 C-88.47016113 170.5623468 -89.37379395 170.5004718 -90.30480957 170.4367218 C-96.01156521 169.93685999 -99.4815143 169.0192831 -103.94152832 165.3742218 C-103.42504149 161.49974152 -102.63479256 159.57862269 -99.80871582 156.88594055 C-99.17038818 156.26565979 -98.53206055 155.64537903 -97.87438965 155.00630188 C-97.19529541 154.36459045 -96.51620117 153.72287903 -95.81652832 153.0617218 C-94.44102636 151.72764185 -93.06730445 150.39172394 -91.69543457 149.0539093 C-90.71341064 148.10016418 -90.71341064 148.10016418 -89.71154785 147.12715149 C-87.09905467 144.53988238 -84.69035947 141.80877153 -82.33605957 138.98750305 C-80.63207691 137.016229 -78.79922226 135.20009229 -76.94152832 133.3742218 C-78.66049316 133.30074524 -78.66049316 133.30074524 -80.41418457 133.2257843 C-81.94415367 133.15069379 -83.4741005 133.07514874 -85.00402832 132.9992218 C-85.75619629 132.9682843 -86.50836426 132.9373468 -87.2833252 132.9054718 C-93.82528276 132.56562985 -99.83630158 131.86682133 -104.94152832 127.3742218 C-103.55398025 122.8331554 -101.6315709 121.24425492 -97.94152832 118.3742218 C-96.85614959 117.18639661 -95.79589969 115.97538645 -94.75402832 114.7492218 C-91.14893692 110.51956412 -87.25150622 106.64646797 -83.27355957 102.76875305 C-80.98304463 100.41685077 -78.94755938 97.97053326 -76.94152832 95.3742218 C-77.51072998 95.33458313 -78.07993164 95.29494446 -78.66638184 95.25410461 C-81.28058113 95.06189579 -83.891946 94.84326434 -86.50402832 94.6242218 C-87.39928223 94.5623468 -88.29453613 94.5004718 -89.21691895 94.4367218 C-95.1470351 93.91539291 -98.99593738 92.71198688 -103.94152832 89.3742218 C-103.64001353 83.95700615 -100.5494579 81.55587563 -96.81652832 78.0617218 C-95.61676516 76.90347518 -94.41883202 75.74332981 -93.22277832 74.58125305 C-92.64914551 74.02647278 -92.0755127 73.4716925 -91.48449707 72.90010071 C-89.6603141 71.09612229 -87.9717841 69.20875254 -86.31652832 67.2492218 C-82.72060306 63.00925023 -78.7591409 59.16083173 -74.78527832 55.2804718 C-72.61433343 53.1156769 -70.59844896 50.85324588 -68.59777832 48.5304718 C-64.28613897 43.55116311 -59.60182001 38.98355005 -54.90246582 34.3742218 C-51.00638271 30.52326707 -47.31956378 26.57434024 -43.74133301 22.42744446 C-40.4665697 18.69158453 -37.03290183 15.11915041 -33.56652832 11.5617218 C-32.51078613 10.43733704 -32.51078613 10.43733704 -31.43371582 9.29023743 C-30.72730957 8.56900696 -30.02090332 7.84777649 -29.29309082 7.10469055 C-28.67256836 6.45911194 -28.0520459 5.81353333 -27.41271973 5.14839172 C-19.21467236 -0.73732357 -9.61565282 -0.04904836 0 0 Z " fill="#101011" transform="translate(364.9415283203125,303.6257781982422)"/>
<path d="M0 0 C0.6638707 -0.00551417 1.3277414 -0.01102833 2.01172939 -0.0167096 C4.24636039 -0.03035415 6.47988847 -0.01538232 8.71449947 -0.00063419 C10.32861555 -0.00452531 11.94272821 -0.01016422 13.55683273 -0.01740509 C18.00014015 -0.03220497 22.44309481 -0.02195178 26.88639104 -0.00766838 C31.67512526 0.00341179 36.46380879 -0.00849132 41.25253963 -0.01751041 C50.6364606 -0.03146477 60.02024728 -0.02387067 69.40416188 -0.00883483 C80.32410994 0.00799836 91.24402429 0.00481845 102.16398131 0.00107109 C121.6426755 -0.00481144 141.12130509 0.00937987 160.59998226 0.03401852 C179.51667355 0.05794373 198.43327856 0.06502199 217.34998226 0.05452633 C237.93277735 0.04312677 258.5155325 0.04117488 279.0983271 0.05562443 C281.29146953 0.05715032 283.48461196 0.05867068 285.6777544 0.06018543 C286.75691943 0.06094325 287.83608446 0.06170106 288.94795145 0.06248184 C296.56639424 0.06723186 304.18481924 0.06536818 311.80326176 0.06112003 C321.08211924 0.05620231 330.36089501 0.0621378 339.63973374 0.08201433 C344.37727087 0.09191149 349.11468335 0.09696542 353.85222721 0.08912182 C358.18415978 0.08209629 362.51584016 0.08879574 366.84773933 0.10672545 C368.41966332 0.11079034 369.99161006 0.10973617 371.56352574 0.10320658 C373.6911351 0.0951212 375.81788123 0.10528778 377.94543457 0.12025452 C379.12989231 0.12128365 380.31435005 0.12231278 381.53470045 0.12337309 C384.40979671 0.50057125 384.40979671 0.50057125 386.28987497 1.80187035 C388.2420333 4.76291038 387.82745855 8.18589821 387.80420589 11.61701107 C387.810297 12.45388032 387.8163881 13.29074956 387.82266378 14.15297848 C387.83936157 16.96746557 387.83450837 19.78150359 387.82971859 22.59603024 C387.83705498 24.60966623 387.84563994 26.62329801 387.85538387 28.63692379 C387.87765356 34.11414982 387.88052784 39.59122565 387.87863636 45.06849074 C387.87851691 49.63631124 387.88707043 54.20409961 387.89541388 58.7719112 C387.91466748 69.54549989 387.91752459 80.31901109 387.91077328 91.09261227 C387.90413015 102.21773732 387.92700346 113.34253101 387.96408701 124.46758884 C387.99474404 134.00990289 388.0061484 143.55211013 388.00225019 153.09447247 C388.00017862 158.79781061 388.00572497 164.50089097 388.03014278 170.20418262 C388.05234141 175.56654271 388.05058946 180.9283626 388.03021526 186.29072475 C388.02679303 188.26120895 388.03194617 190.23172903 388.04619884 192.20216465 C388.06428752 194.88779592 388.05172072 197.57157422 388.03125668 200.25714779 C388.04377452 201.04109446 388.05629237 201.82504114 388.06918955 202.63274378 C388.01001962 206.242533 387.8372543 208.05797226 385.28614521 210.69944674 C381.81529415 212.87283947 379.83888422 213.00167632 375.76460171 213.00393581 C375.10692985 213.00974958 374.449258 213.01556334 373.77165669 213.02155328 C371.56411665 213.03617122 369.35768541 213.02226098 367.15015316 213.00850582 C365.55309782 213.01311406 363.95604671 213.01946646 362.3590045 213.0274148 C357.96743012 213.04414195 353.57620259 213.03584646 349.18462682 213.02346992 C344.4497177 213.01443557 339.71486906 213.02838113 334.97997189 213.03938961 C325.70313952 213.0571967 316.42643644 213.0533251 307.14959896 213.04173905 C299.61161065 213.03271361 292.07365863 213.03147687 284.53566647 213.03583431 C283.46372273 213.03644724 282.39177899 213.03706018 281.28735211 213.03769168 C279.10986943 213.03897056 276.93238676 213.04026741 274.75490409 213.04158205 C254.32603705 213.05299426 233.89724175 213.03986408 213.46838647 213.01838058 C195.93107973 213.00050903 178.39387889 213.00361296 160.85657406 213.02205563 C140.50191201 213.04345101 120.14731288 213.05189557 99.79264116 213.03960657 C97.62306977 213.03833234 95.45349837 213.03707486 93.28392696 213.03583431 C92.21639479 213.03521721 91.14886262 213.03460011 90.04898098 213.03396431 C82.5181196 213.03050741 74.98729805 213.03634707 67.45644283 213.04575253 C58.28158714 213.05695909 49.10686837 213.05396076 39.93202841 213.03262955 C35.24888135 213.02210104 30.56596276 213.0180279 25.88281727 213.03122616 C21.59824895 213.0431187 17.31412155 213.03663967 13.02959341 213.01531595 C11.47717871 213.01083652 9.924727 213.01314614 8.37233597 213.0228191 C6.26602097 213.03493989 4.16122665 213.02255475 2.05499172 213.00393581 C0.88398654 213.0032864 -0.28701863 213.002637 -1.49350882 213.00196791 C-5.24031658 212.39530913 -6.89903426 211.12451593 -9.59020329 208.50057125 C-11.15267941 205.375619 -10.73818791 202.04905789 -10.73737431 198.61827755 C-10.74105099 197.79451339 -10.74472768 196.97074922 -10.74851578 196.12202251 C-10.75957897 193.34601823 -10.76340089 190.57005134 -10.76720524 187.79402828 C-10.7734678 185.81009965 -10.78011441 183.82617221 -10.78711796 181.84224606 C-10.8045447 176.44144579 -10.81508385 171.0406544 -10.82332349 165.63983297 C-10.82846911 162.2684889 -10.83454498 158.89714759 -10.84083462 155.52580547 C-10.85988964 144.98591021 -10.87412124 134.44602197 -10.88244659 123.90611279 C-10.8922272 111.72380169 -10.91856699 99.54167189 -10.95894748 87.35942471 C-10.98906134 77.9530287 -11.00391088 68.5466848 -11.0072276 59.1402415 C-11.00958311 53.51739174 -11.01860877 47.8947356 -11.04368877 42.27193737 C-11.06689241 36.98436566 -11.07123387 31.69711613 -11.06092739 26.4095068 C-11.06043007 24.46643028 -11.06680797 22.52333832 -11.08048344 20.58030987 C-11.09808272 17.93209328 -11.09115583 15.28504802 -11.07795048 12.63683224 C-11.08891972 11.86387629 -11.09988897 11.09092034 -11.11119062 10.29454148 C-11.07185584 7.03817793 -10.93076801 4.96255922 -8.97115445 2.30427486 C-5.82364146 -0.08014218 -3.92942678 0.00035604 0 0 Z " fill="#19191E" transform="translate(1299.5902032852173,37.49942874908447)"/>
<path d="M0 0 C0.9920223 -0.00872064 0.9920223 -0.00872064 2.00408545 -0.01761746 C4.22411947 -0.03223622 6.44305108 -0.01832476 8.66307735 -0.00457001 C10.26909496 -0.00917821 11.87510835 -0.01553058 13.4811129 -0.02347898 C17.89742039 -0.04020652 22.31338298 -0.03191049 26.72969186 -0.01953411 C31.49116684 -0.01049999 36.25258166 -0.02444515 41.01404476 -0.0354538 C50.34267884 -0.05326073 59.67118435 -0.04938948 68.99982352 -0.03780323 C76.57929634 -0.02877827 84.15873307 -0.02754085 91.73820972 -0.0318985 C92.81599291 -0.03251143 93.89377609 -0.03312436 95.00421936 -0.03375587 C97.19354178 -0.03503474 99.38286419 -0.03633159 101.57218658 -0.03764623 C122.11166235 -0.04905826 142.65106676 -0.03592827 163.19053083 -0.01444477 C180.82537191 0.00342931 198.46010768 0.00032074 216.09494686 -0.01811981 C236.56130058 -0.03951115 257.02759174 -0.04796225 277.49395508 -0.03567076 C279.67502335 -0.03439652 281.85609163 -0.03313904 284.03715992 -0.0318985 C285.64696158 -0.03097285 285.64696158 -0.03097285 287.28928449 -0.03002849 C294.86269458 -0.02657057 302.43606507 -0.0324134 310.00946903 -0.04181671 C319.23449204 -0.05301868 328.45937886 -0.05003457 337.6843862 -0.02869374 C342.39373743 -0.01815939 347.10286134 -0.01410198 351.81221104 -0.02729034 C356.11954823 -0.03917075 360.42644643 -0.03272414 364.73374354 -0.01138014 C366.29556166 -0.00689554 367.85741654 -0.00922174 369.41921122 -0.01888329 C371.53580625 -0.03097703 373.65088057 -0.01864678 375.76739502 0 C376.94485544 0.00064941 378.12231587 0.00129882 379.33545691 0.00196791 C382.96798058 0.61206505 384.15319587 1.56649386 386.32077694 4.50336456 C386.7157116 7.36454746 386.86568731 9.84150496 386.83544064 12.70209503 C386.84238616 13.53573515 386.84933169 14.36937527 386.85648769 15.22827721 C386.87480666 18.02597308 386.86447995 20.82282566 386.85422421 23.62055206 C386.86128016 25.62448513 386.87002381 27.62841287 386.88033199 29.63233185 C386.90287076 35.07855788 386.89987592 40.52449393 386.89101052 45.9707489 C386.88590793 50.51377278 386.89318719 55.05674182 386.90048259 59.59976006 C386.91749554 70.31442159 386.91390127 81.02894074 386.89719296 91.74359894 C386.88026446 102.80684174 386.89611319 113.8696902 386.92841583 124.93288994 C386.95508176 134.42427941 386.96239601 143.91554589 386.95390075 153.40696907 C386.9489635 159.07898077 386.95123053 164.75075506 386.97168827 170.42273712 C386.9899986 175.75476233 386.98414352 181.08621855 386.95948887 186.41821289 C386.95446646 188.37740289 386.9580076 190.3366359 386.97063732 192.29579163 C386.9864923 194.96606632 386.97168965 197.6344499 386.94896603 200.30463409 C386.96080175 201.0840077 386.97263748 201.86338131 386.98483187 202.6663723 C386.92239313 206.26586338 386.74135251 208.06791911 384.19810152 210.70108938 C380.72182291 212.87853252 378.73841991 213.00447267 374.65717125 213.00672913 C373.99751142 213.01254289 373.3378516 213.01835665 372.65820208 213.02434659 C370.44391048 213.03896496 368.23072422 213.02505409 366.01644039 213.01129913 C364.41454757 213.01590735 362.81265898 213.02225973 361.21077925 213.03020811 C356.80587303 213.04693543 352.40131261 213.03863972 347.99640501 213.02626324 C343.24720003 213.01722903 338.49805534 213.03117432 333.74886227 213.04218292 C324.44429155 213.05998976 315.13984973 213.05611865 305.83527391 213.04453236 C298.27534721 213.03550736 290.7154567 213.03426999 283.15552616 213.03862762 C282.08051834 213.03924056 281.00551052 213.03985349 279.89792671 213.04048499 C277.71424129 213.04176386 275.53055588 213.04306072 273.34687049 213.04437536 C252.86032977 213.05578736 232.3738606 213.04265744 211.88733161 213.02117389 C194.29797222 213.00329981 176.70871841 213.00640839 159.11936092 213.02484894 C138.70574487 213.04624031 118.29219154 213.05469135 97.87856585 213.04239988 C95.70311456 213.04112565 93.52766326 213.03986817 91.35221195 213.03862762 C90.28177496 213.03801052 89.21133796 213.03739342 88.10846348 213.03675762 C80.55459001 213.03329971 73.00075624 213.0391425 65.44688892 213.04854584 C56.24565436 213.05974785 47.04455633 213.05676361 37.84333747 213.03542286 C33.14613764 213.02488857 28.44916572 213.020831 23.75196743 213.03401947 C19.45573236 213.0459 15.15993742 213.03945306 10.86374254 213.01810926 C9.30596209 213.01362472 7.74814478 213.01595076 6.19038784 213.02561241 C4.07923728 213.03770645 1.96961127 213.02537565 -0.14145851 213.00672913 C-1.9030925 213.00575501 -1.9030925 213.00575501 -3.70031506 213.00476122 C-7.303063 212.39836258 -8.44567476 211.33065227 -10.67922306 208.50336456 C-12.24155174 205.3787072 -11.83092664 202.05175315 -11.83312321 198.62107086 C-11.83750546 197.7973067 -11.84188771 196.97354254 -11.84640276 196.12481582 C-11.85981809 193.34881549 -11.8659757 190.57284693 -11.87209415 187.79682159 C-11.87999284 185.81289271 -11.88826164 183.82896528 -11.89687443 181.84503937 C-11.92311703 175.31709927 -11.93840222 168.78915268 -11.95266056 162.26117706 C-11.95801893 160.01698426 -11.96339643 157.7727915 -11.96879292 155.52859879 C-11.99042306 146.19699218 -12.00916182 136.86538732 -12.02041531 127.53376198 C-12.03666816 114.14311441 -12.06987694 100.75275641 -12.12681615 87.36221802 C-12.16545618 77.95582351 -12.18504083 68.54950664 -12.19033587 59.14303482 C-12.19399688 53.52013534 -12.20609796 47.89754453 -12.23843861 42.27473068 C-12.26841549 36.98711037 -12.27486822 31.69998716 -12.26305485 26.41230011 C-12.26283326 24.46921566 -12.27120871 22.52610883 -12.28870869 20.58310318 C-12.31126821 17.93467196 -12.30316788 15.28806368 -12.28722477 12.63962555 C-12.30110686 11.8666696 -12.31498894 11.09371365 -12.3292917 10.29733479 C-12.27588903 6.70896727 -12.09289501 4.93165254 -9.55804747 2.30724275 C-6.07670617 0.12582605 -4.08778841 0.00225424 0 0 Z " fill="#19181D" transform="translate(1300.679223060608,298.4966354370117)"/>
<path d="M0 0 C1.94383239 -0.01799877 1.94383239 -0.01799877 3.92693412 -0.03636116 C5.37876458 -0.03963775 6.83059553 -0.04270268 8.28242683 -0.04557896 C9.81415682 -0.05575152 11.34588142 -0.0667653 12.87759984 -0.07855231 C17.10268521 -0.10837772 21.32774164 -0.12542918 25.5529027 -0.14029014 C29.1731871 -0.15464508 32.79341138 -0.1764095 36.41365711 -0.1982656 C49.38547716 -0.27648978 62.3573598 -0.32538735 75.32933235 -0.36993504 C77.39649348 -0.37723906 79.46365456 -0.3845554 81.5308156 -0.39188409 C100.82189175 -0.45957074 120.11298534 -0.51758127 139.40414429 -0.55541229 C143.87497549 -0.56433128 148.34580641 -0.57337856 152.81663704 -0.58258152 C153.92785762 -0.58486055 155.0390782 -0.58713959 156.18397214 -0.58948768 C174.17563284 -0.62783528 192.16665534 -0.71791362 210.1579995 -0.82884865 C228.62703905 -0.94179113 247.09575011 -1.00554907 265.56513131 -1.02208239 C275.93603465 -1.03265233 286.30587483 -1.06511882 296.67643547 -1.15321255 C305.51143353 -1.22818211 314.34518672 -1.25890601 323.18048684 -1.23213559 C327.68719574 -1.21985371 332.19126345 -1.22844088 336.69756699 -1.29417896 C340.82972062 -1.35396932 344.95737761 -1.35290022 349.08964325 -1.30485148 C350.57841575 -1.29800687 352.06749244 -1.31285281 353.55575453 -1.35243022 C359.90079401 -1.51086955 365.49612526 -1.35525843 370.42645669 3.08196628 C373.55418796 6.27094846 376.26802012 9.72764305 378.96214485 13.28240871 C379.80342842 14.31943253 380.65004566 15.35216007 381.50280845 16.37976509 C382.95480913 18.13159411 384.39277341 19.89513725 385.8176136 21.66912746 C387.96089441 24.28088495 390.18594815 26.78606173 392.46214485 29.28240871 C396.38105737 33.58232662 400.05385354 38.04160418 403.71214485 42.56365871 C405.89716054 45.20388601 408.15385876 47.74970592 410.46214485 50.28240871 C413.57673153 53.69980244 416.55401105 57.18763221 419.46214485 60.78240871 C424.2606061 66.70892927 429.16168492 72.70153092 434.71995735 77.93865871 C435.96214485 79.28240871 435.96214485 79.28240871 435.96214485 81.28240871 C385.78153792 82.05132576 335.61271521 82.436756 285.42640081 82.41770817 C279.07237906 82.41536688 272.71835998 82.41516254 266.36433792 82.41622448 C265.43639723 82.41637771 264.50845654 82.41653095 263.55239644 82.41668882 C261.66328426 82.41700877 259.77417208 82.41733299 257.8850599 82.41766141 C240.43977601 82.42046866 222.99449749 82.41730638 205.54921449 82.41186105 C190.81421529 82.40740276 176.07922399 82.40817039 161.34422493 82.41277981 C143.94342072 82.41822115 126.54262114 82.42018905 109.1418162 82.41716754 C107.26009818 82.41684923 105.37838016 82.41653485 103.49666214 82.41622448 C102.1103971 82.41599307 102.1103971 82.41599307 100.69612671 82.41575698 C94.40678142 82.4149195 88.11743929 82.4163106 81.82809448 82.41870403 C29.86632094 82.43681993 -22.08108131 82.00142011 -74.03785515 81.28240871 C-69.94049073 72.72578184 -62.62500466 65.76623132 -56.2839489 58.80975246 C-53.97597917 56.21278479 -51.78229652 53.54836859 -49.60035515 50.84490871 C-45.74076912 46.07244668 -41.66585524 41.55131763 -37.5105114 37.03631496 C-34.29075996 33.45033588 -31.27880339 29.71539379 -28.2526989 25.96600246 C-25.38301268 22.48897525 -22.35221197 19.17548192 -19.3151989 15.84490871 C-16.05057533 12.17150724 -12.96763531 8.35924335 -9.8855114 4.53240871 C-6.50721761 0.41846109 -5.31968917 0.02970948 0 0 Z " fill="#FEFEFE" transform="translate(366.03785514831543,307.71759128570557)"/>
<path d="M0 0 C0.77797171 -0.00851013 1.55594342 -0.01702026 2.35749003 -0.02578828 C4.98021166 -0.04952306 7.60210726 -0.04465469 10.22492123 -0.03999233 C12.11795247 -0.05104008 14.01097436 -0.06380461 15.90398353 -0.07814401 C21.11847058 -0.11241503 26.33274651 -0.12146246 31.54733288 -0.12632573 C37.16654089 -0.13577265 42.78562629 -0.16799039 48.40476131 -0.19694424 C61.98128381 -0.26174752 75.55778471 -0.28830836 89.13443056 -0.31185856 C95.5261123 -0.32396984 101.91778135 -0.34070798 108.30945301 -0.35720539 C129.55388628 -0.41080159 150.79829942 -0.45632285 172.04279327 -0.47357941 C173.41672611 -0.47471906 174.79065895 -0.4758603 176.16459179 -0.47700312 C176.84593571 -0.47756696 177.52727964 -0.4781308 178.22927035 -0.47871172 C181.6812661 -0.48156962 185.13326183 -0.48445274 188.58525753 -0.48736477 C189.27031527 -0.48793309 189.95537302 -0.48850141 190.66119009 -0.48908696 C212.86868159 -0.50786779 235.07557505 -0.5790448 257.28282778 -0.6814918 C280.76430858 -0.78961898 304.24532144 -0.8504299 327.72709316 -0.8573274 C340.52629223 -0.86224429 353.32468035 -0.88827541 366.12365055 -0.96824741 C377.02345171 -1.03613847 387.92220832 -1.05958152 398.82218624 -1.02506632 C404.38372978 -1.00879308 409.94315408 -1.01351898 415.50442791 -1.07499981 C420.59905465 -1.13081542 425.6899834 -1.12630752 430.78461789 -1.07433038 C432.62455862 -1.06607582 434.46475864 -1.07968501 436.30432529 -1.11769212 C450.74032946 -1.39712932 450.74032946 -1.39712932 455.82561767 3.38148129 C458.69955253 6.53901888 461.01274035 9.96512451 463.35454464 13.52850437 C464.53824509 14.94767965 465.74081088 16.35204695 466.98345089 17.71991062 C467.72885128 18.57745945 467.72885128 18.57745945 468.48931026 19.4523325 C469.4737194 20.58218102 470.46086791 21.70964664 471.45024776 22.835145 C473.8610941 25.61738333 475.7977886 28.20028278 477.35454464 31.52850437 C422.78150223 31.55154332 368.20846032 31.5690893 313.63541397 31.5795697 C307.14888721 31.58081996 300.66236045 31.58211433 294.1758337 31.58343601 C292.88483078 31.58369832 291.59382786 31.58396063 290.26370364 31.58423089 C269.53539333 31.58854698 248.80708588 31.59641143 228.07877725 31.60565717 C206.70763522 31.61510801 185.33649466 31.62058376 163.96535063 31.62259287 C152.0045387 31.62382542 140.04373272 31.62673899 128.08292294 31.63423443 C74.49785651 31.66687275 20.93174065 31.50765536 -32.64545536 30.52850437 C-30.93422972 26.8944886 -28.84611649 24.40213334 -26.08295536 21.46600437 C-21.73484369 16.77180567 -17.64681226 11.94164337 -13.65326786 6.93866062 C-12.99068974 6.14330906 -12.32811161 5.3479575 -11.64545536 4.52850437 C-11.10173174 3.8296953 -10.55800813 3.13088623 -9.99780804 2.41090113 C-6.77877069 -0.16503297 -3.95123953 -0.0370499 0 0 Z " fill="#EAEBEB" transform="translate(324.6454553604126,396.47149562835693)"/>
<path d="M0 0 C2.90790789 -0.01361304 5.81581831 -0.02654678 8.72373104 -0.03907967 C9.80949712 -0.04376827 9.80949712 -0.04376827 10.91719786 -0.0485516 C19.22746722 -0.08225804 27.53771143 -0.08364655 35.84803772 -0.08175659 C36.61853326 -0.08158709 37.3890288 -0.0814176 38.18287269 -0.08124296 C41.33924619 -0.08043331 44.49561952 -0.07942228 47.65199285 -0.07811905 C53.42523855 -0.07575937 59.19848133 -0.07556216 64.97172737 -0.07662582 C65.81348404 -0.07677906 66.65524071 -0.07693229 67.52250515 -0.07709017 C69.23607047 -0.07741011 70.94963579 -0.07773432 72.6632011 -0.07806276 C88.51551423 -0.08087482 104.36782145 -0.07770073 120.22013361 -0.07226239 C133.60087053 -0.06781251 146.98159845 -0.06868805 160.36233521 -0.07318115 C166.54814304 -0.07510414 172.7339509 -0.07693116 178.91975877 -0.07873827 C180.6744229 -0.07926475 182.42908702 -0.07981589 184.18375114 -0.08039182 C203.79994416 -0.08678365 223.41596569 -0.08140432 243.03210449 -0.03149414 C244.67007154 -0.02742976 246.30803861 -0.02337287 247.9460057 -0.01932359 C260.78055743 0.01266728 260.78055743 0.01266728 267.05430102 0.03022528 C284.34870805 0.07758422 301.63694187 0.05405674 318.93049908 -0.16350746 C325.89022105 -0.25066232 332.84989443 -0.29336161 339.81009847 -0.31839597 C344.08340541 -0.33687319 348.35248678 -0.38042384 352.62438774 -0.49481583 C377.61985519 -1.15097063 377.61985519 -1.15097063 384.17333984 4.25415039 C387.10166445 7.2616085 389.31728168 10.48348241 391.38558769 14.12311935 C393.34437492 17.34801579 395.86414065 20.0668129 398.37283325 22.86968994 C402.56033325 27.80281792 402.56033325 27.80281792 402.56033325 30.05718994 C349.88211524 30.83847142 297.21525098 31.21126846 244.53143873 31.19248939 C237.78161541 31.19015277 231.03179459 31.18994195 224.28197098 31.19100571 C222.80620704 31.19123556 222.80620704 31.19123556 221.30062968 31.19147005 C219.29833002 31.19178996 217.29603035 31.19211418 215.29373069 31.19244264 C196.81138111 31.19524916 178.32903661 31.19208674 159.84668787 31.18664227 C144.16724944 31.18216587 128.48781842 31.1829666 112.80838013 31.18756104 C94.33579883 31.19297185 75.86322188 31.19498801 57.3906399 31.19194877 C55.40376385 31.19163041 53.4168878 31.19131603 51.43001175 31.19100571 C50.45387037 31.19085143 49.47772899 31.19069716 48.47200757 31.19053821 C41.76202141 31.18969328 35.05203817 31.19110874 28.34205246 31.19348526 C-16.59564302 31.20807466 -61.51017905 30.9662263 -106.43966675 30.05718994 C-105.0948353 27.28688577 -103.75033666 25.05567312 -101.7170105 22.73687744 C-101.17753784 22.11812744 -100.63806519 21.49937744 -100.08224487 20.86187744 C-99.51956909 20.22508057 -98.95689331 19.58828369 -98.37716675 18.93218994 C-97.84156128 18.31859619 -97.30595581 17.70500244 -96.75411987 17.07281494 C-95.65035104 15.812106 -94.53511827 14.5613383 -93.40843719 13.32106316 C-91.39042709 11.06072525 -91.39042709 11.06072525 -89.55557162 8.5094794 C-84.17103127 1.62008726 -84.17103127 1.62008726 -79.62319934 0.14150643 C-76.33948269 -0.19435946 -73.18614147 -0.22033866 -69.88630676 -0.13345337 C-68.6550411 -0.14118247 -67.42377544 -0.14891158 -66.15519869 -0.1568749 C-62.77778427 -0.16873784 -59.4061564 -0.13651923 -56.02947302 -0.08526507 C-52.40377324 -0.04140513 -48.7782702 -0.05575959 -45.15238094 -0.06406975 C-39.01200542 -0.07146012 -32.87253097 -0.04637462 -26.73234177 0.00052643 C-17.82099865 0.06666572 -8.9113839 0.04502383 0 0 Z " fill="#EBECEC" transform="translate(398.4396667480469,434.94281005859375)"/>
<path d="M0 0 C1.90419832 -0.01511143 3.8083663 -0.03456089 5.71248078 -0.05796283 C10.93510075 -0.109366 16.15600484 -0.09845663 21.37876558 -0.07705986 C27.01508869 -0.06472297 32.65099867 -0.10979483 38.28717041 -0.14724731 C49.32555621 -0.21099452 60.36333397 -0.21994948 71.40187284 -0.208246 C80.37520508 -0.19932993 89.34835274 -0.20807855 98.3216629 -0.22936821 C100.23752903 -0.23383213 100.23752903 -0.23383213 102.19209953 -0.23838622 C104.78686524 -0.24444501 107.38163093 -0.25051568 109.97639659 -0.25659811 C127.39878434 -0.29553401 144.82104943 -0.31513026 162.24346542 -0.29501438 C163.26505461 -0.29384156 163.26505461 -0.29384156 164.30728196 -0.29264505 C167.75898697 -0.28861627 171.21069172 -0.28438741 174.6623964 -0.28007854 C175.69063365 -0.27879538 175.69063365 -0.27879538 176.73964338 -0.2774863 C178.12587359 -0.27575302 179.51210379 -0.27401037 180.89833399 -0.27225837 C202.46324638 -0.24547836 224.02713626 -0.28510906 245.59185791 -0.37742615 C269.83326723 -0.48108098 294.07385491 -0.53447396 318.31553864 -0.51454872 C331.14604596 -0.50498821 343.97562189 -0.51742687 356.80596161 -0.58812141 C367.72994419 -0.64770314 378.65242241 -0.65470634 389.57642576 -0.59417058 C395.14855998 -0.56472838 400.71794342 -0.5592037 406.2898941 -0.61918259 C411.39667497 -0.67351431 416.49841249 -0.65795577 421.60495761 -0.58787417 C423.44676265 -0.57464496 425.28896371 -0.58646252 427.13037989 -0.62655348 C441.54036679 -0.91838179 441.54036679 -0.91838179 447.3065114 4.50833905 C450.16000377 7.59547355 452.64211404 10.8857613 455.04375318 14.33134294 C457.41622095 17.62136742 460.10640128 20.63117279 462.77838135 23.67848206 C467.46588135 29.13131731 467.46588135 29.13131731 467.46588135 30.30348206 C418.74765217 31.25182946 370.04263664 31.45481166 321.31622472 31.43878151 C314.05678976 31.43646084 306.79735713 31.4362278 299.53792191 31.43729782 C297.96032789 31.43752767 297.96032789 31.43752767 296.35086329 31.43776216 C294.21132949 31.43808203 292.07179569 31.43840625 289.9322619 31.43873475 C270.09915296 31.44155326 250.26604872 31.43835979 230.43294056 31.43293439 C213.56745364 31.42846307 196.70197361 31.42925214 179.83648682 31.43385315 C160.03611725 31.43925264 140.23575174 31.44128573 120.43538153 31.43824089 C118.3088154 31.43792248 116.18224927 31.43760811 114.05568314 31.43729782 C113.01055742 31.43714355 111.9654317 31.43698927 110.88863551 31.43683032 C103.66758107 31.43598162 96.44652933 31.43740956 89.22547531 31.43977737 C45.2942814 31.45298292 1.38686632 31.35569461 -42.53411865 30.30348206 C-41.1892872 27.53317788 -39.84478857 25.30196523 -37.8114624 22.98316956 C-37.27198975 22.36441956 -36.73251709 21.74566956 -36.17669678 21.10816956 C-35.614021 20.47137268 -35.05134521 19.83457581 -34.47161865 19.17848206 C-33.93601318 18.56488831 -33.40040771 17.95129456 -32.84857178 17.31910706 C-31.74131013 16.05440867 -30.61813922 14.80346294 -29.47952676 13.5669145 C-27.4767471 11.33413827 -27.4767471 11.33413827 -25.86028457 8.7597385 C-18.96284299 -0.8153245 -10.75717018 -0.12070876 0 0 Z " fill="#EBECED" transform="translate(334.53411865234375,471.69651794433594)"/>
<path d="M0 0 C6.6 0 13.2 0 20 0 C20 53.79 20 107.58 20 163 C13.07 163 6.14 163 -1 163 C-1.02311703 141.89509595 -1.04097821 120.79019494 -1.05181217 99.6852808 C-1.05697554 89.88661837 -1.06401902 80.08796394 -1.07543945 70.28930664 C-1.08538503 61.75201345 -1.09185313 53.21472605 -1.09408849 44.67742723 C-1.09539582 40.15410072 -1.09848302 35.63079078 -1.10573006 31.10746956 C-1.11248829 26.85502068 -1.11461737 22.60259527 -1.11310768 18.35014153 C-1.1133841 16.78476713 -1.11539039 15.21939199 -1.11920547 13.65402222 C-1.12413967 11.52611907 -1.12299933 9.39830599 -1.12025452 7.270401 C-1.12117631 6.07667909 -1.1220981 4.88295717 -1.12304783 3.65306187 C-1 1 -1 1 0 0 Z " fill="#F7F6F7" transform="translate(1643,324)"/>
<path d="M0 0 C6.6 0 13.2 0 20 0 C21 1 21 1 21.12304783 3.65306187 C21.12166514 5.44364474 21.12166514 5.44364474 21.12025452 7.270401 C21.12110894 7.93279091 21.12196337 8.59518082 21.12284368 9.27764314 C21.12450033 11.5133287 21.11897414 13.74894042 21.11352539 15.98461914 C21.11324353 17.58080544 21.11340123 19.17699187 21.1139679 20.7731781 C21.11425592 25.12009895 21.10835835 29.46699244 21.10139394 33.81390691 C21.09516128 38.35163947 21.09455667 42.88937259 21.09336853 47.42710876 C21.09025495 56.0260784 21.08204122 64.62503539 21.07201904 73.22399944 C21.06085872 83.01101728 21.05534766 92.79803571 21.05032361 102.58505833 C21.03985862 122.72337948 21.02205828 142.8616885 21 163 C14.07 163 7.14 163 0 163 C0 109.21 0 55.42 0 0 Z " fill="#F7F6F7" transform="translate(1436,62)"/>
<path d="M0 0 C1.27423828 -0.00193359 1.27423828 -0.00193359 2.57421875 -0.00390625 C3.91419922 0.00189453 3.91419922 0.00189453 5.28125 0.0078125 C6.17457031 0.00394531 7.06789063 0.00007813 7.98828125 -0.00390625 C8.83777344 -0.00261719 9.68726563 -0.00132812 10.5625 0 C11.34689453 0.00112793 12.13128906 0.00225586 12.93945312 0.00341797 C14.78125 0.1328125 14.78125 0.1328125 15.78125 1.1328125 C15.87810318 3.22108571 15.90311882 5.31269612 15.90150452 7.4032135 C15.90235894 8.06560341 15.90321337 8.72799332 15.90409368 9.41045564 C15.90575033 11.6461412 15.90022414 13.88175292 15.89477539 16.11743164 C15.89449353 17.71361794 15.89465123 19.30980437 15.8952179 20.9059906 C15.89550592 25.25291145 15.88960835 29.59980494 15.88264394 33.94671941 C15.87641128 38.48445197 15.87580667 43.02218509 15.87461853 47.55992126 C15.87150495 56.1588909 15.86329122 64.75784789 15.85326904 73.35681194 C15.84210872 83.14382978 15.83659766 92.93084821 15.83157361 102.71787083 C15.82110862 122.85619198 15.80330828 142.994501 15.78125 163.1328125 C8.85125 163.1328125 1.92125 163.1328125 -5.21875 163.1328125 C-5.24186703 142.02790845 -5.25972821 120.92300744 -5.27056217 99.8180933 C-5.27572554 90.01943087 -5.28276902 80.22077644 -5.29418945 70.42211914 C-5.30413503 61.88482595 -5.31060313 53.34753855 -5.31283849 44.81023973 C-5.31414582 40.28691322 -5.31723302 35.76360328 -5.32448006 31.24028206 C-5.33123829 26.98783318 -5.33336737 22.73540777 -5.33185768 18.48295403 C-5.3321341 16.91757963 -5.33414039 15.35220449 -5.33795547 13.78683472 C-5.34288967 11.65893157 -5.34174933 9.53111849 -5.33900452 7.4032135 C-5.33992631 6.20949159 -5.3408481 5.01576967 -5.34179783 3.78587437 C-5.14475849 -0.46253506 -3.83729641 0.00551789 0 0 Z " fill="#F6F5F6" transform="translate(1606.21875,323.8671875)"/>
<path d="M0 0 C6.93 0 13.86 0 21 0 C21.02311703 21.10490405 21.04097821 42.20980506 21.05181217 63.3147192 C21.05697554 73.11338163 21.06401902 82.91203606 21.07543945 92.71069336 C21.08538503 101.24798655 21.09185313 109.78527395 21.09408849 118.32257277 C21.09539582 122.84589928 21.09848302 127.36920922 21.10573006 131.89253044 C21.11248829 136.14497932 21.11461737 140.39740473 21.11310768 144.64985847 C21.1133841 146.21523287 21.11539039 147.78060801 21.11920547 149.34597778 C21.12413967 151.47388093 21.12299933 153.60169401 21.12025452 155.729599 C21.12117631 156.92332091 21.1220981 158.11704283 21.12304783 159.34693813 C21 162 21 162 20 163 C18.59651265 163.09860131 17.18819523 163.13078937 15.78125 163.1328125 C14.50701172 163.13474609 14.50701172 163.13474609 13.20703125 163.13671875 C12.31371094 163.13285156 11.42039062 163.12898437 10.5 163.125 C9.16001953 163.13080078 9.16001953 163.13080078 7.79296875 163.13671875 C6.94347656 163.13542969 6.09398437 163.13414062 5.21875 163.1328125 C4.43435547 163.13168457 3.64996094 163.13055664 2.84179688 163.12939453 C1 163 1 163 0 162 C-0.09685318 159.91172679 -0.12186882 157.82011638 -0.12025452 155.729599 C-0.12110894 155.06720909 -0.12196337 154.40481918 -0.12284368 153.72235686 C-0.12450033 151.4866713 -0.11897414 149.25105958 -0.11352539 147.01538086 C-0.11324353 145.41919456 -0.11340123 143.82300813 -0.1139679 142.2268219 C-0.11425592 137.87990105 -0.10835835 133.53300756 -0.10139394 129.18609309 C-0.09516128 124.64836053 -0.09455667 120.11062741 -0.09336853 115.57289124 C-0.09025495 106.9739216 -0.08204122 98.37496461 -0.07201904 89.77600056 C-0.06085872 79.98898272 -0.05534766 70.20196429 -0.05032361 60.41494167 C-0.03985862 40.27662052 -0.02205828 20.1383115 0 0 Z " fill="#F6F6F6" transform="translate(1601,63)"/>
<path d="M0 0 C6.93 0 13.86 0 21 0 C21 53.46 21 106.92 21 162 C14.07 162 7.14 162 0 162 C0 108.54 0 55.08 0 0 Z " fill="#F7F7F7" transform="translate(1436,324)"/>
<path d="M0 0 C6.93 0 13.86 0 21 0 C21 53.46 21 106.92 21 162 C14.07 162 7.14 162 0 162 C0 108.54 0 55.08 0 0 Z " fill="#F6F6F6" transform="translate(1312,324)"/>
<path d="M0 0 C6.6 0 13.2 0 20 0 C20 53.79 20 107.58 20 163 C13.4 163 6.8 163 0 163 C0 109.21 0 55.42 0 0 Z " fill="#FCFCFC" transform="translate(1560,324)"/>
<path d="M0 0 C6.6 0 13.2 0 20 0 C20 53.79 20 107.58 20 163 C13.4 163 6.8 163 0 163 C0 109.21 0 55.42 0 0 Z " fill="#FDFDFD" transform="translate(1519,324)"/>
<path d="M0 0 C6.6 0 13.2 0 20 0 C20 53.79 20 107.58 20 163 C13.4 163 6.8 163 0 163 C0 109.21 0 55.42 0 0 Z " fill="#FCFCFC" transform="translate(1478,324)"/>
<path d="M0 0 C6.6 0 13.2 0 20 0 C20 53.79 20 107.58 20 163 C13.4 163 6.8 163 0 163 C0 109.21 0 55.42 0 0 Z " fill="#FCFCFC" transform="translate(1560,63)"/>
<path d="M0 0 C6.6 0 13.2 0 20 0 C20 53.79 20 107.58 20 163 C13.4 163 6.8 163 0 163 C0 109.21 0 55.42 0 0 Z " fill="#FDFDFD" transform="translate(1643,63)"/>
<path d="M0 0 C6.6 0 13.2 0 20 0 C20 53.79 20 107.58 20 163 C13.4 163 6.8 163 0 163 C0 109.21 0 55.42 0 0 Z " fill="#FDFDFD" transform="translate(1519,63)"/>
<path d="M0 0 C6.6 0 13.2 0 20 0 C20 53.79 20 107.58 20 163 C13.4 163 6.8 163 0 163 C0 109.21 0 55.42 0 0 Z " fill="#FCFCFC" transform="translate(1478,63)"/>
<path d="M0 0 C6.6 0 13.2 0 20 0 C20 53.46 20 106.92 20 162 C13.4 162 6.8 162 0 162 C0 108.54 0 55.08 0 0 Z " fill="#FDFDFD" transform="translate(1395,324)"/>
<path d="M0 0 C6.6 0 13.2 0 20 0 C20 53.46 20 106.92 20 162 C13.4 162 6.8 162 0 162 C0 108.54 0 55.08 0 0 Z " fill="#FEFEFE" transform="translate(1354,324)"/>
<path d="M0 0 C6.6 0 13.2 0 20 0 C20 53.46 20 106.92 20 162 C13.4 162 6.8 162 0 162 C0 108.54 0 55.08 0 0 Z " fill="#FEFEFE" transform="translate(1395,63)"/>
<path d="M0 0 C6.6 0 13.2 0 20 0 C20 53.46 20 106.92 20 162 C13.4 162 6.8 162 0 162 C0 108.54 0 55.08 0 0 Z " fill="#FEFEFE" transform="translate(1354,63)"/>
<path d="M0 0 C6.6 0 13.2 0 20 0 C20 53.46 20 106.92 20 162 C13.4 162 6.8 162 0 162 C0 108.54 0 55.08 0 0 Z " fill="#FCFCFC" transform="translate(1313,63)"/>
<path d="M0 0 C11.55 0 23.1 0 35 0 C27.81875 14.3625 27.81875 14.3625 23.8125 21.25 C23.17538086 22.38501953 23.17538086 22.38501953 22.52539062 23.54296875 C21.90374023 24.61224609 21.90374023 24.61224609 21.26953125 25.703125 C20.90448486 26.33895508 20.53943848 26.97478516 20.16333008 27.62988281 C19.77943115 28.08202148 19.39553223 28.53416016 19 29 C18.01 29 17.02 29 16 29 C14.35 26.03 12.7 23.06 11 20 C5.46633194 22.12061342 0.38637259 24.92292125 -4.8125 27.75 C-5.8742041 28.32637207 -6.9359082 28.90274414 -8.02978516 29.49658203 C-18.44772707 35.18733862 -28.68444256 41.17049737 -38.9140625 47.19091797 C-44.21851858 50.30057141 -49.54689744 53.36859589 -54.875 56.4375 C-55.95507324 57.05995605 -57.03514648 57.68241211 -58.14794922 58.32373047 C-60.33778563 59.58563144 -62.52772724 60.84734986 -64.71777344 62.10888672 C-70.14659942 65.23680148 -75.57319281 68.36858448 -81 71.5 C-83.16665583 72.75001879 -85.3333225 74.00001878 -87.5 75.25 C-88.5725 75.86875 -89.645 76.4875 -90.75 77.125 C-100.5 82.75 -100.5 82.75 -103.75048828 84.62524414 C-105.91557071 85.87435518 -108.08060982 87.12354129 -110.24560547 88.37280273 C-115.68615706 91.51202309 -121.12747216 94.64990563 -126.5703125 97.78515625 C-137.02206199 103.80747329 -147.46299548 109.84669337 -157.875 115.9375 C-167.14499777 121.35921178 -176.45831752 126.70204915 -185.78845215 132.01922607 C-194.91140571 137.21964031 -203.99884528 142.47804777 -213.0625 147.78125 C-220.35900169 152.04883255 -227.6750282 156.28148956 -235 160.5 C-243.34802509 165.30844758 -251.68243232 170.13905711 -260 175 C-273.73046817 183.02281678 -287.51078086 190.95858328 -301.29101562 198.89550781 C-304.56931061 200.78398493 -307.84727613 202.67303182 -311.125 204.5625 C-312.19524414 205.17939697 -313.26548828 205.79629395 -314.36816406 206.43188477 C-321.80197863 210.72101347 -329.21646773 215.04238405 -336.625 219.375 C-343.52485497 223.40442069 -350.42811104 227.42706748 -357.375 231.375 C-358.02936035 231.75060059 -358.6837207 232.12620117 -359.35791016 232.51318359 C-363.76542865 235 -363.76542865 235 -366 235 C-366.33 234.01 -366.66 233.02 -367 232 C-359.76618308 226.67744218 -352.26297165 222.21579947 -344.375 217.9375 C-341.96523468 216.61729004 -339.5584686 215.29167505 -337.15234375 213.96484375 C-336.24697624 213.46614273 -336.24697624 213.46614273 -335.32331848 212.95736694 C-329.47564417 209.72767136 -323.69883508 206.38115104 -317.9375 203 C-316.96393555 202.42878418 -315.99037109 201.85756836 -314.98730469 201.26904297 C-313.00399933 200.1050992 -311.02076398 198.94103612 -309.03759766 197.77685547 C-303.74689429 194.68203638 -298.43590977 191.62247281 -293.125 188.5625 C-292.04468506 187.93988281 -290.96437012 187.31726563 -289.85131836 186.67578125 C-287.66171652 185.41405964 -285.47201904 184.15250399 -283.28222656 182.89111328 C-277.85340058 179.76319852 -272.42680719 176.63141552 -267 173.5 C-264.83334417 172.24998121 -262.6666775 170.99998122 -260.5 169.75 C-258.89125 168.821875 -258.89125 168.821875 -257.25 167.875 C-65.5 57.25 -65.5 57.25 -62.24975586 55.375 C-60.08374038 54.1252818 -57.9178874 52.87528191 -55.75219727 51.625 C-50.32686691 48.49335497 -44.89877582 45.3666989 -39.46484375 42.25 C-25.24206441 34.0835773 -11.13770552 25.7477784 2.890625 17.25244141 C5 16 5 16 7 15 C5.56939669 10.83824491 3.43486544 7.41455094 1.0234375 3.76953125 C0 2 0 2 0 0 Z " fill="#0E0E0F" transform="translate(1236,184)"/>
<path d="M0 0 C4.02463255 1.60985302 7.28322784 3.25344044 10.95703125 5.4765625 C12.06884766 6.146875 13.18066406 6.8171875 14.32617188 7.5078125 C15.4883301 8.21346122 16.65043887 8.9191914 17.8125 9.625 C18.99393526 10.33888165 20.17557392 11.05242679 21.35742188 11.765625 C24.24029871 13.50711795 27.12105724 15.25201382 30 17 C27.08087706 20.15296341 24.13769654 22.29508956 20.4296875 24.453125 C18.83833984 25.38125 18.83833984 25.38125 17.21484375 26.328125 C16.11269531 26.96234375 15.01054688 27.5965625 13.875 28.25 C12.76511719 28.8996875 11.65523437 29.549375 10.51171875 30.21875 C2.26506696 35 2.26506696 35 0 35 C0 30.05 0 25.1 0 20 C-122.1 20 -244.2 20 -370 20 C-370 18.68 -370 17.36 -370 16 C-247.9 16 -125.8 16 0 16 C0 10.72 0 5.44 0 0 Z " fill="#010002" transform="translate(1240,428)"/>
<path d="M0 0 C3.0625 2.125 3.0625 2.125 5.0625 4.125 C5.328125 6.3671875 5.328125 6.3671875 5.3125 9 C5.31765625 9.86367188 5.3228125 10.72734375 5.328125 11.6171875 C5.05140649 14.22973577 4.3810995 15.8750088 3.0625 18.125 C4.0525 18.7746875 4.0525 18.7746875 5.0625 19.4375 C7.80860481 23.12757834 7.6840072 25.98195006 7.515625 30.4921875 C7.0625 33.125 7.0625 33.125 4.875 36.1875 C0.51862917 39.18855546 -2.94979058 40.38216619 -8.23828125 40.3203125 C-9.55953003 40.31281982 -9.55953003 40.31281982 -10.9074707 40.30517578 C-12.56202271 40.27786377 -12.56202271 40.27786377 -14.25 40.25 C-17.776875 40.20875 -21.30375 40.1675 -24.9375 40.125 C-24.9375 26.595 -24.9375 13.065 -24.9375 -0.875 C-17.84158626 -3.24030458 -6.81633809 -3.3955462 0 0 Z " fill="#2A272B" transform="translate(502.9375,629.875)"/>
<path d="M0 0 C152.46 0 304.92 0 462 0 C462.33 0.66 462.66 1.32 463 2 C391.34528267 2.86896144 319.6972951 3.16157597 248.03789054 3.12946078 C237.88617762 3.12500211 227.73447638 3.12581124 217.58276367 3.13037109 C144.71613181 3.16224686 71.86218539 2.83308981 -1 2 C-0.67 1.34 -0.34 0.68 0 0 Z " fill="#AFB2B5" transform="translate(316,473)"/>
<path d="M0 0 C3.20117022 2.36886596 4.77045221 3.58749357 6.125 7.3125 C6.70162199 11.36532883 6.51561635 14.41408239 4.875 18.1875 C3.04889062 20.40491854 1.68882137 21.13653235 -0.875 22.3125 C-0.42060547 23.0238208 -0.42060547 23.0238208 0.04296875 23.74951172 C1.40831246 25.89257621 2.76672139 28.03995138 4.125 30.1875 C4.60195312 30.93386719 5.07890625 31.68023438 5.5703125 32.44921875 C6.02148438 33.16464844 6.47265625 33.88007812 6.9375 34.6171875 C7.35644531 35.27702637 7.77539062 35.93686523 8.20703125 36.61669922 C9.125 38.3125 9.125 38.3125 9.125 40.3125 C5.1725358 41.24336073 2.03796234 41.50910913 -1.875 40.3125 C-4.41710321 37.70475783 -6.11499666 34.58969849 -7.79272461 31.38037109 C-8.90251524 29.21747746 -8.90251524 29.21747746 -10.875 26.3125 C-12.525 25.9825 -14.175 25.6525 -15.875 25.3125 C-15.875 30.2625 -15.875 35.2125 -15.875 40.3125 C-18.845 40.3125 -21.815 40.3125 -24.875 40.3125 C-24.875 26.7825 -24.875 13.2525 -24.875 -0.6875 C-17.85237961 -3.02837346 -6.8330357 -3.17934869 0 0 Z " fill="#27272A" transform="translate(1463.875,629.6875)"/>
<path d="M0 0 C1.11246094 -0.00515625 2.22492187 -0.0103125 3.37109375 -0.015625 C6.53302457 0.24754672 8.67342158 1.01502092 11.5625 2.25 C11.63701364 6.5549777 11.69127223 10.85960734 11.72729492 15.16503906 C11.74232196 16.62767075 11.76274955 18.09025782 11.78881836 19.55273438 C11.82547267 21.6628728 11.84228676 23.77241226 11.85546875 25.8828125 C11.8711792 27.15012207 11.88688965 28.41743164 11.90307617 29.72314453 C11.46290639 34.28134712 9.97366321 37.54484445 7.0625 41.0625 C3.37249972 43.98375022 -1.04997523 43.39860756 -5.5 43.375 C-6.23283203 43.37886719 -6.96566406 43.38273438 -7.72070312 43.38671875 C-13.18413018 43.37668491 -13.18413018 43.37668491 -15.4375 42.25 C-15.1075 39.94 -14.7775 37.63 -14.4375 35.25 C-13.53386719 35.28480469 -12.63023437 35.31960938 -11.69921875 35.35546875 C-9.92998047 35.39607422 -9.92998047 35.39607422 -8.125 35.4375 C-6.95324219 35.47230469 -5.78148437 35.50710938 -4.57421875 35.54296875 C-1.47368482 35.52842585 -1.47368482 35.52842585 0.41796875 33.86328125 C1.63070477 32.24091308 1.63070477 32.24091308 2.5625 30.25 C1.83804688 30.29640625 1.11359375 30.3428125 0.3671875 30.390625 C-5.75717705 30.61926794 -9.70672173 30.61687225 -14.4375 26.25 C-17.69502427 21.17643433 -17.25211665 15.02254211 -16.4375 9.25 C-12.84485337 2.27466661 -7.60666087 -0.03517531 0 0 Z " fill="#292729" transform="translate(582.4375,552.75)"/>
<path d="M0 0 C2.64 0 5.28 0 8 0 C8 14.85 8 29.7 8 45 C2.07110543 47.96444728 -4.8528929 48.2584325 -11.265625 46.3125 C-15.50489353 44.10070772 -17.71177462 41.08990178 -20 37 C-20.95762285 31.23560793 -21.44752828 24.82003224 -18.71875 19.50390625 C-16.67305067 17.09218719 -14.82934298 15.41467149 -12 14 C-10.12620395 13.92966231 -8.24998898 13.9156978 -6.375 13.9375 C-4.87066406 13.95103516 -4.87066406 13.95103516 -3.3359375 13.96484375 C-2.56507813 13.97644531 -1.79421875 13.98804688 -1 14 C-1.01160156 13.07316406 -1.02320313 12.14632812 -1.03515625 11.19140625 C-1.04417969 9.99386719 -1.05320312 8.79632812 -1.0625 7.5625 C-1.07410156 6.36753906 -1.08570313 5.17257812 -1.09765625 3.94140625 C-1 1 -1 1 0 0 Z " fill="#302E31" transform="translate(608,624)"/>
<path d="M0 0 C0.81855469 -0.00515625 1.63710938 -0.0103125 2.48046875 -0.015625 C5.00009674 0.2713678 6.5894867 1.07924459 8.8125 2.25 C11.12047001 1.91059264 12.72760461 1.29244769 14.8125 0.25 C20.38784937 -0.12168996 24.02997009 0.02457285 28.8125 3.25 C31.50414452 6.92875346 32.17808003 9.462178 32.10546875 13.98828125 C32.0909668 15.58833008 32.0909668 15.58833008 32.07617188 17.22070312 C32.05103516 18.32349609 32.02589844 19.42628906 32 20.5625 C31.97969727 22.24569336 31.97969727 22.24569336 31.95898438 23.96289062 C31.9237138 26.72575229 31.87442235 29.48762829 31.8125 32.25 C28.8425 32.25 25.8725 32.25 22.8125 32.25 C22.78744385 31.5887915 22.7623877 30.92758301 22.73657227 30.24633789 C22.62096898 27.26817695 22.49808246 24.2903608 22.375 21.3125 C22.33568359 20.27158203 22.29636719 19.23066406 22.25585938 18.15820312 C22.21396484 17.16884766 22.17207031 16.17949219 22.12890625 15.16015625 C22.07391968 13.78549194 22.07391968 13.78549194 22.01782227 12.38305664 C22.04246136 10.2679272 22.04246136 10.2679272 20.8125 9.25 C18.5025 8.92 16.1925 8.59 13.8125 8.25 C13.8125 16.17 13.8125 24.09 13.8125 32.25 C10.8425 32.25 7.8725 32.25 4.8125 32.25 C4.8125 24.66 4.8125 17.07 4.8125 9.25 C2.1725 8.92 -0.4675 8.59 -3.1875 8.25 C-3.1875 16.17 -3.1875 24.09 -3.1875 32.25 C-6.1575 32.25 -9.1275 32.25 -12.1875 32.25 C-12.1875 22.35 -12.1875 12.45 -12.1875 2.25 C-4.2186042 -0.02682737 -4.2186042 -0.02682737 0 0 Z " fill="#2B292D" transform="translate(494.1875,552.75)"/>
<path d="M0 0 C4.42484878 2.21242439 7.19476657 4.94799616 10 9 C11.59228648 13.77685943 11.99433654 18.45842229 10.12890625 23.2265625 C7.26649855 28.23812221 4.34037921 30.82764235 -1 33 C-5.26151971 33.79284088 -8.35134509 33.33680159 -12.25 31.3125 C-16.15555476 28.02828349 -19.67388162 24.68325252 -20.30859375 19.4609375 C-20.5894018 12.73856305 -20.06167108 8.74048508 -15.703125 3.5234375 C-11.01951049 -0.66603419 -6.03437105 -0.77339249 0 0 Z " fill="#2B2A2D" transform="translate(1374,562)"/>
<path d="M0 0 C49.52224638 -0.0686005 99.04448797 -0.12149538 148.56677248 -0.15319599 C154.4074708 -0.15694831 160.24816901 -0.16083125 166.08886719 -0.16479492 C167.25169171 -0.16558185 168.41451624 -0.16636878 169.61257787 -0.16717956 C188.46439914 -0.18024921 207.31619308 -0.20391159 226.16799812 -0.23145839 C245.49799819 -0.25946929 264.82798391 -0.2761671 284.15800345 -0.28226548 C296.09480048 -0.2863909 308.03152029 -0.29944116 319.96829356 -0.3237494 C328.14321971 -0.33955338 336.31810569 -0.34441253 344.49304603 -0.34050413 C349.21626832 -0.33857423 353.93935529 -0.34162364 358.66255379 -0.35761642 C362.98038427 -0.37213065 367.29798741 -0.37300811 371.61582799 -0.36269668 C373.18382545 -0.3614208 374.75183665 -0.365298 376.31980674 -0.37464955 C378.43973762 -0.38656517 380.55883114 -0.38027734 382.67874718 -0.36914349 C384.45014252 -0.37085223 384.45014252 -0.37085223 386.25732362 -0.37259549 C387.16240683 -0.24963898 388.06749003 -0.12668247 389 0 C389.66 0.99 390.32 1.98 391 3 C261.97 2.67 132.94 2.34 0 2 C0 1.34 0 0.68 0 0 Z " fill="#282529" transform="translate(1294,299)"/>
<path d="M0 0 C7.02755308 5.85629424 7.02755308 5.85629424 7.5625 10.7109375 C7.5625 13.43428456 7.4157499 16.1567016 7.25 18.875 C0.98 19.205 -5.29 19.535 -11.75 19.875 C-9.05747669 23.21044611 -9.05747669 23.21044611 -5.39453125 23.16796875 C-4.12996094 23.13316406 -2.86539063 23.09835937 -1.5625 23.0625 C-0.29019531 23.03542969 0.98210938 23.00835938 2.29296875 22.98046875 C3.26878906 22.94566406 4.24460937 22.91085937 5.25 22.875 C5.25 25.185 5.25 27.495 5.25 29.875 C-0.38280628 32.45885609 -5.64631621 32.5292619 -11.75 31.875 C-16.14281723 29.91392088 -18.84389795 27.33146016 -21.05078125 22.9921875 C-22.74264375 17.86934127 -22.810198 12.52114993 -20.796875 7.49609375 C-16.085691 -0.59939014 -8.92267429 -3.65018493 0 0 Z " fill="#2D2C2F" transform="translate(622.75,554.125)"/>
<path d="M0 0 C1.19367188 -0.01675781 2.38734375 -0.03351562 3.6171875 -0.05078125 C7.41079715 0.34209815 9.8475402 1.41317696 13.125 3.3125 C12.465 5.6225 11.805 7.9325 11.125 10.3125 C10.320625 10.1475 9.51625 9.9825 8.6875 9.8125 C2.41355027 8.90917319 2.41355027 8.90917319 -3.875 9.3125 C-7.15675318 11.84218474 -8.56743777 13.38981331 -9.875 17.3125 C-10.24711494 22.98725291 -9.94879619 26.34713692 -6.875 31.3125 C-5.00225901 33.61779658 -5.00225901 33.61779658 -1.9765625 33.54296875 C-0.25566406 33.52169922 -0.25566406 33.52169922 1.5 33.5 C2.64210938 33.49355469 3.78421875 33.48710938 4.9609375 33.48046875 C7.54074329 33.3435161 9.67237531 33.06761844 12.125 32.3125 C12.62 36.2725 12.62 36.2725 13.125 40.3125 C6.16910876 43.46233754 -0.67964641 44.87110608 -8.1796875 42.62109375 C-13.93706211 40.02484369 -17.35504565 36.3524087 -20.1875 30.6875 C-21.70825871 23.22195724 -22.099752 15.73574721 -18.1484375 8.99609375 C-13.31566418 2.60675234 -7.89752036 0.02547587 0 0 Z " fill="#2A292D" transform="translate(1336.875,551.6875)"/>
<path d="M0 0 C2.95740115 2.80174846 4.24001613 4.72482746 4.60205078 8.81542969 C4.59157715 9.75805664 4.58110352 10.70068359 4.5703125 11.671875 C4.56386719 12.69667969 4.55742188 13.72148438 4.55078125 14.77734375 C4.53402344 15.84082031 4.51726563 16.90429688 4.5 18 C4.49097656 19.07894531 4.48195313 20.15789063 4.47265625 21.26953125 C4.44911305 23.92991278 4.41622799 26.58984336 4.375 29.25 C0.45199401 31.41069084 -2.56365075 31.54912384 -7.0625 31.5625 C-8.36058594 31.57925781 -9.65867187 31.59601562 -10.99609375 31.61328125 C-15.60172739 31.15222212 -18.10358085 29.66649369 -21.4375 26.5625 C-23.20542171 23.1197051 -23.48627017 19.96744817 -22.625 16.25 C-19.80558252 12.4907767 -19.80558252 12.4907767 -16.625 11.25 C-12.58765231 10.85448375 -8.6666142 10.9557077 -4.625 11.25 C-5.13691212 9.17934145 -5.13691212 9.17934145 -6.625 7.25 C-9.73430941 6.54327794 -9.73430941 6.54327794 -13.25 6.5 C-14.43851563 6.44328125 -15.62703125 6.3865625 -16.8515625 6.328125 C-17.76679687 6.30234375 -18.68203125 6.2765625 -19.625 6.25 C-19.625 3.94 -19.625 1.63 -19.625 -0.75 C-13.64258858 -2.51037465 -5.4776788 -3.45744578 0 0 Z " fill="#302E31" transform="translate(554.625,554.75)"/>
<path d="M0 0 C4.40608743 2.16298837 7.1987497 4.39680479 9 9 C9 12.3 9 15.6 9 19 C2.4 19 -4.2 19 -11 19 C-7.69357416 24.3044601 -7.69357416 24.3044601 -3.546875 24.48828125 C-2.29390625 24.43027344 -1.0409375 24.37226562 0.25 24.3125 C1.51328125 24.26738281 2.7765625 24.22226562 4.078125 24.17578125 C5.04234375 24.11777344 6.0065625 24.05976562 7 24 C7 26.31 7 28.62 7 31 C1.17133565 33.6302637 -4.92641215 34.18096675 -11.12890625 32.3828125 C-15.33320821 30.33060463 -17.54733487 27.44434491 -19.33984375 23.27734375 C-20.93592258 17.771344 -21.0115515 12.29840148 -18.375 7.125 C-13.27493609 0.41438959 -8.18060062 -1.31687717 0 0 Z " fill="#28282A" transform="translate(1556,562)"/>
<path d="M0 0 C1.83498047 -0.03867187 1.83498047 -0.03867187 3.70703125 -0.078125 C8.25489226 0.35062957 10.728359 1.67003281 13.80908203 5.00585938 C15.54442474 7.8310932 15.53310216 9.59226448 15.48046875 12.890625 C15.47080078 13.96054687 15.46113281 15.03046875 15.45117188 16.1328125 C15.42603516 17.24398437 15.40089844 18.35515625 15.375 19.5 C15.35469727 21.18996094 15.35469727 21.18996094 15.33398438 22.9140625 C15.29865645 25.69319264 15.2493252 28.47135363 15.1875 31.25 C7.50584468 33.30611759 0.02689722 35.20337753 -7.375 31.4375 C-10.72960368 28.42695823 -11.73838707 26.90642885 -12.25 22.375 C-12.16105052 18.92503079 -11.8191503 18.2589304 -9.625 15.3125 C-4.60373081 11.63023593 0.18179595 12.14820841 6.1875 12.25 C5.8575 11.26 5.5275 10.27 5.1875 9.25 C2.42297967 7.86773984 0.1413637 8.15474613 -2.9375 8.1875 C-4.03320312 8.19652344 -5.12890625 8.20554687 -6.2578125 8.21484375 C-7.52238281 8.23224609 -7.52238281 8.23224609 -8.8125 8.25 C-8.8125 5.94 -8.8125 3.63 -8.8125 1.25 C-5.88789571 -0.21230215 -3.25597176 0.04091273 0 0 Z " fill="#2E2E31" transform="translate(1461.8125,561.75)"/>
<path d="M0 0 C11.55 0 23.1 0 35 0 C27.81875 14.3625 27.81875 14.3625 23.8125 21.25 C23.38775391 22.00667969 22.96300781 22.76335937 22.52539062 23.54296875 C22.11095703 24.25582031 21.69652344 24.96867187 21.26953125 25.703125 C20.90448486 26.33895508 20.53943848 26.97478516 20.16333008 27.62988281 C19.77943115 28.08202148 19.39553223 28.53416016 19 29 C18.01 29 17.02 29 16 29 C14.35 26.03 12.7 23.06 11 20 C7.55688942 21.31293711 4.35788604 22.8143342 1.13671875 24.6015625 C0.25048828 25.09140625 -0.63574219 25.58125 -1.54882812 26.0859375 C-2.46083984 26.59382813 -3.37285156 27.10171875 -4.3125 27.625 C-5.70952148 28.3984375 -5.70952148 28.3984375 -7.13476562 29.1875 C-9.42463469 30.45573517 -11.71297715 31.72664162 -14 33 C-15 30 -15 30 -14 27 C-11.81029084 25.57052499 -9.6692714 24.29914526 -7.375 23.0625 C-6.77042969 22.72798828 -6.16585938 22.39347656 -5.54296875 22.04882812 C-4.3218119 21.37315605 -3.09882174 20.7007868 -1.87402344 20.03173828 C1.10531808 18.39147027 4.05110482 16.69428811 7 15 C5.56939669 10.83824491 3.43486544 7.41455094 1.0234375 3.76953125 C0 2 0 2 0 0 Z " fill="#1D1C20" transform="translate(1236,184)"/>
<path d="M0 0 C1.2890625 -0.02835938 2.578125 -0.05671875 3.90625 -0.0859375 C8.17309443 0.46133168 9.63988586 1.18254866 12.5 4.375 C15.88916841 10.26763873 15.87544963 16.24375161 15.6875 22.875 C15.66719727 24.25171875 15.66719727 24.25171875 15.64648438 25.65625 C15.61148684 27.89609215 15.55769376 30.13562752 15.5 32.375 C12.2 32.375 8.9 32.375 5.5 32.375 C5.5 24.785 5.5 17.195 5.5 9.375 C2.53 9.045 -0.44 8.715 -3.5 8.375 C-3.5 16.295 -3.5 24.215 -3.5 32.375 C-6.47 32.375 -9.44 32.375 -12.5 32.375 C-12.5 22.475 -12.5 12.575 -12.5 2.375 C-7.72727214 0.46590886 -5.02885584 0.05028856 0 0 Z " fill="#262428" transform="translate(1514.5,561.625)"/>
<path d="M0 0 C2.97 0 5.94 0 9 0 C9.01981934 0.65597168 9.03963867 1.31194336 9.06005859 1.98779297 C9.15512507 4.95061069 9.26487752 7.91270532 9.375 10.875 C9.4059375 11.90753906 9.436875 12.94007813 9.46875 14.00390625 C9.50742188 14.99003906 9.54609375 15.97617187 9.5859375 16.9921875 C9.6173584 17.90339355 9.6487793 18.81459961 9.68115234 19.75341797 C9.79882511 22.19931186 9.79882511 22.19931186 12 24 C13.98 24.33 15.96 24.66 18 25 C18 16.75 18 8.5 18 0 C20.97 0 23.94 0 27 0 C27 10.23 27 20.46 27 31 C12.4591195 34.63522013 12.4591195 34.63522013 5.5625 31.375 C2.02841411 28.09950576 0.20341954 25.26249355 -0.23754883 20.35791016 C-0.29497933 17.27487883 -0.26152857 14.20762545 -0.1875 11.125 C-0.17396484 10.05507813 -0.16042969 8.98515625 -0.14648438 7.8828125 C-0.11128624 5.25468489 -0.06204693 2.62760806 0 0 Z " fill="#2C292D" transform="translate(1477,638)"/>
<path d="M0 0 C1.29808594 -0.02578125 2.59617187 -0.0515625 3.93359375 -0.078125 C7.83108605 0.2742855 9.58333149 0.74896965 12.5625 3.25 C16.57647149 8.70064241 15.90528434 14.65880097 15.75 21.125 C15.72969727 22.72988281 15.72969727 22.72988281 15.70898438 24.3671875 C15.67378624 26.99531511 15.62454693 29.62239194 15.5625 32.25 C12.5925 32.25 9.6225 32.25 6.5625 32.25 C6.53744385 31.5887915 6.5123877 30.92758301 6.48657227 30.24633789 C6.37096898 27.26817695 6.24808246 24.2903608 6.125 21.3125 C6.08568359 20.27158203 6.04636719 19.23066406 6.00585938 18.15820312 C5.96396484 17.16884766 5.92207031 16.17949219 5.87890625 15.16015625 C5.84224854 14.24371338 5.80559082 13.32727051 5.76782227 12.38305664 C5.79246136 10.2679272 5.79246136 10.2679272 4.5625 9.25 C2.2525 8.92 -0.0575 8.59 -2.4375 8.25 C-2.4375 16.17 -2.4375 24.09 -2.4375 32.25 C-5.4075 32.25 -8.3775 32.25 -11.4375 32.25 C-11.4375 22.02 -11.4375 11.79 -11.4375 1.25 C-7.44315578 0.25141395 -4.10609295 0.04883361 0 0 Z " fill="#2D282C" transform="translate(1524.4375,637.75)"/>
<path d="M0 0 C2.97 0 5.94 0 9 0 C9 10.23 9 20.46 9 31 C1.61775087 33.46074971 -5.25501409 34.64253768 -12.5625 31.4375 C-16.95015547 27.04984453 -18.17161168 22.77702539 -18.29296875 16.72265625 C-18.27324461 14.83571307 -18.23778617 12.94887613 -18.1875 11.0625 C-18.17396484 10.09248047 -18.16042969 9.12246094 -18.14648438 8.12304688 C-18.11139189 5.74845519 -18.057594 3.3741525 -18 1 C-15.03 1 -12.06 1 -9 1 C-8.93941406 2.31355469 -8.87882813 3.62710938 -8.81640625 4.98046875 C-8.73196744 6.71615541 -8.64732112 8.45183198 -8.5625 10.1875 C-8.52318359 11.05181641 -8.48386719 11.91613281 -8.44335938 12.80664062 C-8.23652984 16.95914122 -7.99896469 20.94537862 -7 25 C-4.69 25 -2.38 25 0 25 C0 16.75 0 8.5 0 0 Z " fill="#302D32" transform="translate(535,638)"/>
<path d="M0 0 C1.20527344 -0.02578125 2.41054687 -0.0515625 3.65234375 -0.078125 C8.70593706 0.4081314 10.93052461 2.04486974 14.359375 5.6953125 C16.82870937 10.84919845 16.49282186 15.49340964 16.3125 21.125 C16.29445313 22.19492187 16.27640625 23.26484375 16.2578125 24.3671875 C16.21087439 26.99572178 16.14522933 29.62238913 16.0625 32.25 C13.0925 32.25 10.1225 32.25 7.0625 32.25 C7.03744385 31.5887915 7.0123877 30.92758301 6.98657227 30.24633789 C6.87096898 27.26817695 6.74808246 24.2903608 6.625 21.3125 C6.58568359 20.27158203 6.54636719 19.23066406 6.50585938 18.15820312 C6.46396484 17.16884766 6.42207031 16.17949219 6.37890625 15.16015625 C6.34224854 14.24371338 6.30559082 13.32727051 6.26782227 12.38305664 C6.29246136 10.2679272 6.29246136 10.2679272 5.0625 9.25 C2.7525 8.92 0.4425 8.59 -1.9375 8.25 C-1.9375 16.17 -1.9375 24.09 -1.9375 32.25 C-4.9075 32.25 -7.8775 32.25 -10.9375 32.25 C-10.9375 22.02 -10.9375 11.79 -10.9375 1.25 C-7.09480181 0.28932545 -3.9437242 0.05050661 0 0 Z " fill="#29282B" transform="translate(1402.9375,561.75)"/>
<path d="M0 0 C4.02463255 1.60985302 7.28322784 3.25344044 10.95703125 5.4765625 C12.06884766 6.146875 13.18066406 6.8171875 14.32617188 7.5078125 C15.4883301 8.21346122 16.65043887 8.9191914 17.8125 9.625 C18.99393526 10.33888165 20.17557392 11.05242679 21.35742188 11.765625 C24.24029871 13.50711795 27.12105724 15.25201382 30 17 C27.08087706 20.15296341 24.13769654 22.29508956 20.4296875 24.453125 C19.36878906 25.071875 18.30789063 25.690625 17.21484375 26.328125 C15.56162109 27.27945312 15.56162109 27.27945312 13.875 28.25 C12.76511719 28.8996875 11.65523437 29.549375 10.51171875 30.21875 C2.26506696 35 2.26506696 35 0 35 C0 30.05 0 25.1 0 20 C-2.31 19.67 -4.62 19.34 -7 19 C-5.75 17.5 -5.75 17.5 -4 16 C-2.68 16 -1.36 16 0 16 C0 10.72 0 5.44 0 0 Z " fill="#1B1B1F" transform="translate(1240,428)"/>
<path d="M0 0 C0.66 0.33 1.32 0.66 2 1 C2 2.98 2 4.96 2 7 C-1.01490557 8.00496852 -3.04181692 8.10335303 -6.1875 8.0625 C-7.08855469 8.05347656 -7.98960938 8.04445313 -8.91796875 8.03515625 C-9.60503906 8.02355469 -10.29210938 8.01195312 -11 8 C-8.03438181 11.45988788 -4.98378148 13.14736836 -0.90234375 14.97265625 C1.18190967 16.09823869 2.5138013 17.15584491 4 19 C4.53014007 23.08965199 4.44984397 25.25026004 2.3125 28.8125 C-1.58587564 32.50015264 -5.28468651 33.27936197 -10.5625 33.25 C-11.49191406 33.25515625 -12.42132812 33.2603125 -13.37890625 33.265625 C-16.0554462 32.99438101 -17.70438282 32.36116595 -20 31 C-19.67 28.69 -19.34 26.38 -19 24 C-12.07 24.495 -12.07 24.495 -5 25 C-5.67477348 21.86459452 -5.67477348 21.86459452 -8.1796875 20.75390625 C-9.97124254 19.96198699 -11.76290857 19.17031881 -13.5546875 18.37890625 C-16.24139954 16.86387534 -17.45553304 15.65191432 -19 13 C-19.72054088 7.95621384 -19.83134652 6.14013238 -16.8125 2 C-12.02375996 -1.43866152 -5.58860035 -0.54033429 0 0 Z " fill="#302F32" transform="translate(1636,562)"/>
<path d="M0 0 C2.05078125 0.03255208 4.1015625 0.06510417 6.15234375 0.09765625 C6.15234375 3.06765625 6.15234375 6.03765625 6.15234375 9.09765625 C9.78234375 9.09765625 13.41234375 9.09765625 17.15234375 9.09765625 C17.15234375 11.40765625 17.15234375 13.71765625 17.15234375 16.09765625 C13.52234375 16.09765625 9.89234375 16.09765625 6.15234375 16.09765625 C6.26644057 18.20244229 6.39399736 20.30650202 6.52734375 22.41015625 C6.59695313 23.58191406 6.6665625 24.75367188 6.73828125 25.9609375 C6.93848122 29.25465512 6.93848122 29.25465512 9.15234375 32.09765625 C11.12981497 32.46063561 11.12981497 32.46063561 13.27734375 32.28515625 C14.55609375 32.22328125 15.83484375 32.16140625 17.15234375 32.09765625 C17.48234375 34.73765625 17.81234375 37.37765625 18.15234375 40.09765625 C13.28454432 41.65535207 8.78335696 41.67330797 3.96484375 39.97265625 C0.54805629 37.69479794 -0.85878207 35.68791388 -2.84765625 32.09765625 C-3.31762695 28.58666992 -3.31762695 28.58666992 -3.2734375 24.765625 C-3.27014938 24.08840897 -3.26686127 23.41119293 -3.26347351 22.7134552 C-3.25311431 21.29397852 -3.2332698 19.87454203 -3.2043457 18.45532227 C-3.15992942 16.27401671 -3.14285348 14.09381301 -3.13085938 11.91210938 C-3.01682195 0.15945148 -3.01682195 0.15945148 0 0 Z " fill="#2A282C" transform="translate(1428.84765625,553.90234375)"/>
<path d="M0 0 C2 1 4 2 6 3 C5.47446778 7.2042578 3.8917069 10.43993622 1.9375 14.1328125 C-0.2377269 18.4651394 -0.1834555 22.51793815 -0.1875 27.25 C-0.19974609 27.98863281 -0.21199219 28.72726562 -0.22460938 29.48828125 C-0.24465713 37.06633257 1.95043391 43.21039489 5.1953125 49.984375 C6 52 6 52 6 55 C3.35261084 56.4606285 2.10551666 57 -1 57 C-2.5 55.12890625 -2.5 55.12890625 -4 52.5625 C-4.495 51.73878906 -4.99 50.91507813 -5.5 50.06640625 C-8.95481149 43.00383589 -10.5622602 36.55007336 -10.5 28.6875 C-10.49359497 27.4485498 -10.49359497 27.4485498 -10.48706055 26.18457031 C-10.20342511 15.91756876 -6.32510444 7.95155986 0 0 Z " fill="#2B292D" transform="translate(1427,623)"/>
<path d="M0 0 C3.27799806 1.1929262 4.00315021 2.52888188 5.69921875 5.5390625 C6.18777344 6.37695312 6.67632813 7.21484375 7.1796875 8.078125 C11.70859807 17.7203217 12.53562165 30.53324966 9.53125 40.83203125 C7.49086936 46.28769517 5.07386619 51.29646396 1.51171875 55.9140625 C-0.86328125 55.6640625 -0.86328125 55.6640625 -3.48828125 54.9140625 C-4.76171875 53.10546875 -4.76171875 53.10546875 -5.48828125 50.9140625 C-4.87890625 49.01953125 -4.87890625 49.01953125 -3.73828125 47.1015625 C-0.035565 40.77826185 0.92532699 34.42337713 0.94921875 27.2265625 C0.95236084 26.44071777 0.95550293 25.65487305 0.95874023 24.84521484 C0.83358934 18.6933252 -0.52747027 13.83568446 -3.296875 8.296875 C-4.37371572 6.14319356 -5.01312057 4.26255782 -5.48828125 1.9140625 C-2.48828125 -0.0859375 -2.48828125 -0.0859375 0 0 Z " fill="#312C31" transform="translate(1548.48828125,624.0859375)"/>
<path d="M0 0 C1.98 1.32 3.96 2.64 6 4 C5.66226562 4.72445312 5.32453125 5.44890625 4.9765625 6.1953125 C4.53054688 7.16210938 4.08453125 8.12890625 3.625 9.125 C3.18414062 10.07632813 2.74328125 11.02765625 2.2890625 12.0078125 C-3.47972828 25.39839959 -0.92753172 36.87484734 4 50 C4.63659194 51.34795138 5.28710318 52.69080164 6 54 C4.25 55.5625 4.25 55.5625 2 57 C0.05078125 56.859375 0.05078125 56.859375 -2 56 C-9.02160028 47.8109943 -11.69923319 36.44863471 -11.34765625 25.85546875 C-10.20008274 16.42989308 -6.84241108 6.84241108 0 0 Z " fill="#29272A" transform="translate(467,623)"/>
<path d="M0 0 C4.20786149 1.80336921 5.63410114 5.14320228 7.625 9.125 C8.11033203 10.06472656 8.11033203 10.06472656 8.60546875 11.0234375 C12.946367 21.33561831 11.87021315 35.28482795 7.9140625 45.48828125 C5.87714592 49.65470154 3.4224716 53.43233749 0.625 57.125 C-1.355 55.805 -3.335 54.485 -5.375 53.125 C-4.24614558 50.25944648 -3.06845961 47.43834952 -1.8125 44.625 C1.89435119 35.59962319 2.27321479 23.77177198 -0.45703125 14.41796875 C-1.31048714 12.4232923 -2.21332357 10.44835286 -3.18359375 8.5078125 C-4.26043447 6.35413106 -4.89983932 4.47349532 -5.375 2.125 C-2.375 0.125 -2.375 0.125 0 0 Z " fill="#2E292E" transform="translate(625.375,623.875)"/>
<path d="M0 0 C4.51827375 1.72041962 6.24164259 7.14822612 8.23828125 11.2578125 C12.78987031 22.13015952 12.28248403 33.86082101 8.03125 44.7734375 C6.10515734 48.81944346 4.21496543 52.58972207 1.03125 55.7734375 C-2.31999691 55.44912328 -3.71943011 54.15092377 -5.96875 51.7734375 C-5.0715625 50.071875 -5.0715625 50.071875 -4.15625 48.3359375 C1.22509798 37.3817345 2.77976662 26.88205458 -0.25390625 14.8359375 C-1.2697446 11.90499407 -2.68124962 9.26155652 -4.26171875 6.59765625 C-5.16970078 4.25496228 -4.89753474 3.07819963 -3.96875 0.7734375 C-1.96875 -0.2265625 -1.96875 -0.2265625 0 0 Z " fill="#2E2A2F" transform="translate(1647.96875,548.2265625)"/>
<path d="M0 0 C4.75 0.875 4.75 0.875 7 2 C6.54709906 4.29573924 5.9870881 6.02231008 4.80859375 8.05859375 C-0.79743551 17.78529409 -0.81484552 30.64776537 1.83984375 41.40234375 C2.76254826 43.71780978 3.79677453 45.82189842 5 48 C5.68370397 49.65975032 6.35444383 51.32504345 7 53 C5.25 54.5625 5.25 54.5625 3 56 C0.35620602 55.76487998 -0.6855835 55.37174105 -2.4140625 53.328125 C-9.37221458 41.38703821 -11.32559913 27.41463959 -8.28125 13.78125 C-6.31118748 8.63366729 -3.38439997 4.32451107 0 0 Z " fill="#2A272C" transform="translate(1607,548)"/>
<path d="M0 0 C1.18851563 0.10183594 2.37703125 0.20367188 3.6015625 0.30859375 C4.51679687 0.39238281 5.43203125 0.47617187 6.375 0.5625 C6.045 1.2225 5.715 1.8825 5.375 2.5625 C4.13286297 6.28891108 4.23221284 9.69296798 4.375 13.5625 C4.55016722 18.30953174 4.54919444 22.21411112 2.375 26.5625 C-1.31400369 27.21502079 -4.87407462 27.69966464 -8.625 27.5625 C-11.575233 25.37932758 -13.00529451 23.80191098 -14.625 20.5625 C-15.81498809 9.79235461 -15.81498809 9.79235461 -13.35546875 5.18359375 C-9.03984281 0.15394697 -6.64524592 -0.58634523 0 0 Z " fill="#2C2A2E" transform="translate(580.625,554.4375)"/>
<path d="M0 0 C2.97 0 5.94 0 9 0 C9.01458252 1.11036621 9.02916504 2.22073242 9.04418945 3.36474609 C9.10207125 7.47624254 9.17930364 11.58718543 9.26245117 15.69824219 C9.2957484 17.47907542 9.32376531 19.26001541 9.34643555 21.04101562 C9.37989432 23.59811999 9.43220301 26.15424176 9.48828125 28.7109375 C9.49467117 29.50994476 9.5010611 30.30895203 9.50764465 31.13217163 C9.53954217 33.6129077 9.53954217 33.6129077 10 37 C10.99 37.66 11.98 38.32 13 39 C13.1875 42.625 13.1875 42.625 13 46 C5.81879051 46.60857708 5.81879051 46.60857708 2.390625 44.06054688 C-0.91087871 39.83386688 -0.64267893 36.75419931 -0.48828125 31.54296875 C-0.48120651 30.64000565 -0.47413177 29.73704254 -0.46684265 28.80671692 C-0.43893319 25.93278912 -0.37620232 23.06083528 -0.3125 20.1875 C-0.28741262 18.23505425 -0.26460022 16.28257785 -0.24414062 14.33007812 C-0.18911789 9.55262898 -0.10286998 4.77664874 0 0 Z " fill="#2B292E" transform="translate(570,624)"/>
<path d="M0 0 C0.99 0.495 0.99 0.495 2 1 C2.02694851 2.95825873 2.04637218 4.91662226 2.0625 6.875 C2.07410156 7.96554687 2.08570313 9.05609375 2.09765625 10.1796875 C2 13 2 13 1 15 C1.99 14.67 2.98 14.34 4 14 C4 44.03 4 74.06 4 105 C3.34 104.67 2.68 104.34 2 104 C2 113.24 2 122.48 2 132 C1.34 132.33 0.68 132.66 0 133 C0 89.11 0 45.22 0 0 Z " fill="#0E0D16" transform="translate(1622,336)"/>
<path d="M0 0 C3.3 0 6.6 0 10 0 C10 13.53 10 27.06 10 41 C6.7 41 3.4 41 0 41 C0 27.47 0 13.94 0 0 Z " fill="#272528" transform="translate(464,544)"/>
<path d="M0 0 C1.25296875 0.00966797 1.25296875 0.00966797 2.53125 0.01953125 C4.5 0.1875 4.5 0.1875 5.5 1.1875 C5.54092937 3.52047433 5.54241723 5.85455225 5.5 8.1875 C1.87 8.1875 -1.76 8.1875 -5.5 8.1875 C-5.5 16.1075 -5.5 24.0275 -5.5 32.1875 C-8.47 32.1875 -11.44 32.1875 -14.5 32.1875 C-14.5 22.2875 -14.5 12.3875 -14.5 2.1875 C-4.31804842 -0.07515591 -4.31804842 -0.07515591 0 0 Z " fill="#28272B" transform="translate(1586.5,561.8125)"/>
<path d="M0 0 C2.97 0 5.94 0 9 0 C9 10.56 9 21.12 9 32 C6.03 32 3.06 32 0 32 C0 21.44 0 10.88 0 0 Z " fill="#252028" transform="translate(553,638)"/>
<path d="M0 0 C2.97 0 5.94 0 9 0 C9 10.23 9 20.46 9 31 C6.03 31 3.06 31 0 31 C0 20.77 0 10.54 0 0 Z " fill="#262427" transform="translate(1485,563)"/>
<path d="M0 0 C0.33 0 0.66 0 1 0 C1.79365563 19.6049826 2.10879899 39.19160541 2.125 58.8125 C2.12749756 59.885 2.12999512 60.9575 2.13256836 62.0625 C2.13844505 65.1315435 2.13697935 68.2004867 2.1328125 71.26953125 C2.13578842 72.65655998 2.13578842 72.65655998 2.13882446 74.0716095 C2.13571259 74.92687729 2.13260071 75.78214508 2.12939453 76.66333008 C2.12859894 77.40762772 2.12780334 78.15192535 2.12698364 78.91877747 C1.99660917 81.05557457 1.58473176 82.94480517 1 85 C1.66 85 2.32 85 3 85 C2.83628906 85.70503662 2.67257812 86.41007324 2.50390625 87.13647461 C1.98161027 90.1045025 1.90241432 92.80512881 1.9375 95.81640625 C1.94523437 96.91017578 1.95296875 98.00394531 1.9609375 99.13085938 C1.97382812 100.26330078 1.98671875 101.39574219 2 102.5625 C2.0255389 104.81375362 2.0465613 107.06506419 2.0625 109.31640625 C2.07410156 110.31099854 2.08570313 111.30559082 2.09765625 112.33032227 C2.0099271 114.72861802 1.69006588 116.71211916 1 119 C1.66 119 2.32 119 3 119 C3.495 118.01 3.495 118.01 4 117 C4.05447047 118.41623216 4.09300508 119.83308191 4.125 121.25 C4.14820313 122.03890625 4.17140625 122.8278125 4.1953125 123.640625 C3.98100039 126.22951527 3.20203604 127.72688904 2 130 C1.71258858 134.1507429 1.71258858 134.1507429 3 138 C2.76444542 140.11999123 2.52394525 142.23959359 2.25390625 144.35546875 C1.8988886 148.05311416 1.97571032 151.71161614 2.0625 155.421875 C1.99856844 158.05905197 1.59079224 160.43374619 1 163 C0.67 163 0.34 163 0 163 C0 109.21 0 55.42 0 0 Z " fill="#020103" transform="translate(1416,62)"/>
<path d="M0 0 C0.33 0 0.66 0 1 0 C2.19041636 6.53710261 2.12673521 12.9746492 2.09765625 19.60473633 C2.09546585 21.48876663 2.09546585 21.48876663 2.0932312 23.41085815 C2.08943336 26.1303544 2.08383544 28.84977577 2.07516479 31.56925392 C2.06159786 35.86759325 2.05573949 40.16592228 2.05102539 44.46427917 C2.03995039 53.58036672 2.02039068 62.69642926 2 71.8125 C1.97797657 81.67208481 1.95741873 91.5316597 1.94658184 101.39126414 C1.94159291 105.6666795 1.93172476 109.94204772 1.91815186 114.21744406 C1.90896693 117.49236922 1.90617798 120.76730119 1.90234375 124.04223633 C1.89717743 125.23029373 1.89201111 126.41835114 1.88668823 127.64241028 C1.88661774 128.72046936 1.88654724 129.79852844 1.88647461 130.90925598 C1.884254 131.84961102 1.88203339 132.78996607 1.87974548 133.75881672 C1.85267972 136.0375662 1.85267972 136.0375662 3 138 C2.91036938 139.69141656 2.75422324 141.37959602 2.5625 143.0625 C2.1036241 147.43329298 1.95513083 151.63979969 2.16015625 156.02734375 C2 158 2 158 0 162 C0 108.54 0 55.08 0 0 Z " fill="#020204" transform="translate(1416,324)"/>
<path d="M0 0 C0.33 0 0.66 0 1 0 C2.02093863 8.05355461 2.15275249 16.01433371 2.125 24.125 C2.12411377 24.81478943 2.12322754 25.50457886 2.12231445 26.215271 C2.08641974 50.81212371 1.49208038 75.40903481 1 100 C0.01 100.495 0.01 100.495 -1 101 C-2.19388403 57.99159787 -2.19388403 57.99159787 -2 38 C-1.34 38 -0.68 38 0 38 C0 32.39 0 26.78 0 21 C-0.33 21 -0.66 21 -1 21 C-1.10808032 13.90272572 -0.93854006 7.03905044 0 0 Z " fill="#0B0911" transform="translate(1434,328)"/>
<path d="M0 0 C0.33 0 0.66 0 1 0 C1 53.13 1 106.26 1 161 C0.67 161 0.34 161 0 161 C-0.90616012 137.15063686 -1.09268785 113.33067663 -0.96289062 89.46484375 C-0.90845329 76.59029988 -1.08618448 63.76799009 -1.73217773 50.90708923 C-2.00060984 45.08178323 -1.84184923 39.76371832 -1 34 C-0.8209703 31.26188022 -0.74885582 28.52418381 -0.68359375 25.78125 C-0.66281265 25.03790405 -0.64203156 24.29455811 -0.62062073 23.52868652 C-0.55594872 21.18587252 -0.49662908 18.84295976 -0.4375 16.5 C-0.39423616 14.89842784 -0.35061956 13.29686518 -0.30664062 11.6953125 C-0.20035364 7.79697267 -0.09886206 3.8985349 0 0 Z " fill="#020205" transform="translate(1393,64)"/>
<path d="M0 0 C0.33 0 0.66 0 1 0 C1.66315076 18.375961 2.09390692 36.73228784 2.02734375 55.12109375 C2.02466114 55.95522419 2.02197853 56.78935463 2.01921463 57.64876175 C1.99319033 65.340213 1.95309063 73.03156343 1.90405273 80.72290039 C1.87732613 85.0037024 1.86027121 89.28445515 1.84918404 93.56532478 C1.84300845 95.17249522 1.83304654 96.77965604 1.81910515 98.38677788 C1.79994319 100.60223862 1.79300557 102.81742673 1.78881836 105.03295898 C1.78136093 106.2864061 1.7739035 107.53985321 1.76622009 108.83128357 C1.99199039 111.89143557 2.58772745 113.36596789 4 116 C3.3798154 118.01489839 2.70659771 120.01375628 2 122 C1.72304514 125.52356796 1.72304514 125.52356796 1.8125 129.125 C1.81894531 130.32382813 1.82539062 131.52265625 1.83203125 132.7578125 C1.88571885 135.86106831 1.88571885 135.86106831 2.57421875 138.2421875 C3 140 3 140 2 143 C1.95571559 144.35344237 1.96069412 145.7089039 2 147.0625 C2.06619459 152.09328881 1.58362674 157.007907 1 162 C0.67 162 0.34 162 0 162 C0 108.54 0 55.08 0 0 Z " fill="#020105" transform="translate(1375,63)"/>
<path d="M0 0 C0.33 0 0.66 0 1 0 C1.97284094 17.35330904 2.08612964 34.68720316 2.0625 52.0625 C2.06105988 53.18512238 2.05961975 54.30774475 2.05813599 55.46438599 C2.0458328 63.6429449 2.02374354 71.82146752 2 80 C1.97631897 88.2639845 1.9560462 96.5279513 1.94406128 104.79196167 C1.93759339 108.07756087 1.92510609 111.3631017 1.91235352 114.64868164 C1.90872481 116.64339142 1.90537261 118.63810172 1.90234375 120.6328125 C1.89717743 121.54273453 1.89201111 122.45265656 1.88668823 123.39015198 C1.88661774 124.22191452 1.88654724 125.05367706 1.88647461 125.91064453 C1.884254 126.63236847 1.88203339 127.35409241 1.87974548 128.09768677 C1.93278996 130.22461384 1.93278996 130.22461384 3 133 C2.505 133.99 2.505 133.99 2 135 C1.95314179 137.86127924 1.95651972 140.70252769 2 143.5625 C2.05436172 149.79803612 1.91584956 155.81801544 1 162 C0.67 162 0.34 162 0 162 C0 108.54 0 55.08 0 0 Z " fill="#030206" transform="translate(1375,324)"/>
<path d="M0 0 C0.33 0 0.66 0 1 0 C1.02505615 1.29736084 1.0501123 2.59472168 1.07592773 3.93139648 C1.16981752 8.72658856 1.27008249 13.5216295 1.37231445 18.31665039 C1.41573334 20.39539057 1.45740312 22.47416803 1.49731445 24.55297852 C1.55484921 27.53413145 1.61859119 30.51509549 1.68359375 33.49609375 C1.70030624 34.43150497 1.71701874 35.3669162 1.73423767 36.33067322 C1.75418289 37.19149002 1.77412811 38.05230682 1.79467773 38.93920898 C1.81022202 39.70087875 1.8257663 40.46254852 1.84178162 41.24729919 C1.81379329 43.02735006 1.81379329 43.02735006 3 44 C3.09823996 45.47648876 3.12973519 46.95775417 3.125 48.4375 C3.12886719 49.64212891 3.12886719 49.64212891 3.1328125 50.87109375 C3 53 3 53 2 55 C1.9118329 57.85561852 1.88479043 60.68649816 1.90234375 63.54199219 C1.90380402 64.4268782 1.90526428 65.31176422 1.9067688 66.22346497 C1.91058202 68.15123804 1.91670612 70.07900757 1.92483521 72.00676727 C1.93759146 75.06882932 1.94411415 78.13084802 1.94897461 81.19293213 C1.96235672 88.80997941 1.9863827 96.42698635 2.01037598 104.04400635 C2.03022494 110.4615583 2.04582639 116.8790941 2.05593872 123.29666901 C2.06235799 126.29308457 2.07487384 129.28943347 2.08764648 132.28582764 C2.11391135 142.24416718 1.93361477 152.07679073 1 162 C0.67 162 0.34 162 0 162 C0 108.54 0 55.08 0 0 Z " fill="#040208" transform="translate(1664,63)"/>
<path d="M0 0 C4.19138553 -0.15206841 7.64061922 0.05680645 11.15625 2.49609375 C14.8932047 6.30196769 16.42217386 9.11286265 16.4375 14.5 C16.293125 15.985 16.14875 17.47 16 19 C9.73 19 3.46 19 -3 19 C-3 18.67 -3 18.34 -3 18 C-1.02 18 0.96 18 3 18 C3 17.34 3 16.68 3 16 C1.68 15.34 0.36 14.68 -1 14 C1.97 14 4.94 14 8 14 C7.67 13.071875 7.34 12.14375 7 11.1875 C6 8 6 8 6 5 C5.34 5 4.68 5 4 5 C3.67 4.01 3.34 3.02 3 2 C2.01 1.34 1.02 0.68 0 0 Z " fill="#202022" transform="translate(614,553)"/>
<path d="M0 0 C3.33885607 0.48691651 4.02555209 0.81257799 6 3.4375 C6.84416568 7.99295263 6.83972762 12.13125704 4.3125 16.0625 C1.51413724 17.72639137 0.18895466 18.17341261 -3 17.4375 C-5.56807522 14.60376183 -6.21502349 12.09619271 -6.375 8.375 C-6 4.4375 -6 4.4375 -4.875 1.9375 C-3 0.4375 -3 0.4375 0 0 Z " fill="#F8F8F8" transform="translate(1369,569.5625)"/>
<path d="M0 0 C2.64 0 5.28 0 8 0 C8 5.61 8 11.22 8 17 C2 17 2 17 -0.375 15.6875 C-2.93821471 11.44833721 -2.6603146 6.83718835 -2 2 C-1.34 1.34 -0.68 0.68 0 0 Z " fill="#F8F8F9" transform="translate(599,646)"/>
<path d="M0 0 C0 4.95 0 9.9 0 15 C-7 16 -7 16 -8.91015625 14.83984375 C-10.9409131 11.41157681 -10.61701669 7.84075555 -10 4 C-7.04443366 -0.66070077 -5.87869317 0 0 0 Z " fill="#F3F3F3" transform="translate(585,560)"/>
<path d="M0 0 C1.77007714 -0.08114106 3.54122098 -0.13925505 5.3125 -0.1875 C6.29863281 -0.22230469 7.28476562 -0.25710938 8.30078125 -0.29296875 C11 0 11 0 12.828125 1.35546875 C14 3 14 3 14.4375 5.5 C14 8 14 8 12.5625 9.8125 C8.79527629 11.5582866 5.09424198 11.43184702 1 11 C0 10 0 10 -0.09765625 7.71484375 C-0.08605469 6.79832031 -0.07445312 5.88179687 -0.0625 4.9375 C-0.05347656 4.01839844 -0.04445313 3.09929688 -0.03515625 2.15234375 C-0.02355469 1.44207031 -0.01195312 0.73179687 0 0 Z " fill="#F2F2F2" transform="translate(487,652)"/>
<path d="M0 0 C0.33 0 0.66 0 1 0 C1 30.36 1 60.72 1 92 C-1 90 -1 90 -1.24050903 86.95016479 C-1.23606781 85.64000397 -1.23162659 84.32984314 -1.22705078 82.97998047 C-1.22734283 82.25792419 -1.22763489 81.53586792 -1.22793579 80.79193115 C-1.22654008 78.40022858 -1.21096783 76.00883579 -1.1953125 73.6171875 C-1.19158322 71.9609494 -1.18873585 70.30470911 -1.18673706 68.64846802 C-1.17909389 64.2852776 -1.1594396 59.92221993 -1.1373291 55.55908203 C-1.11688535 51.10841671 -1.1077385 46.65772997 -1.09765625 42.20703125 C-1.07619429 33.47129319 -1.04205018 24.7356631 -1 16 C-1.33 16 -1.66 16 -2 16 C-1.85890014 13.89551062 -1.71195825 11.7914123 -1.5625 9.6875 C-1.48128906 8.51574219 -1.40007812 7.34398438 -1.31640625 6.13671875 C-1 3 -1 3 0 0 Z " fill="#07060E" transform="translate(1434,74)"/>
<path d="M0 0 C7.2 -0.36 7.2 -0.36 10.5 1.125 C12.60705132 3.75881415 12.29101222 5.72611257 12 9 C8.09971775 11.60018816 4.52565431 11.15085514 0 11 C0 7.37 0 3.74 0 0 Z " fill="#F1F1F1" transform="translate(1448,636)"/>
<path d="M0 0 C2.97 0 5.94 0 9 0 C9 10.56 9 21.12 9 32 C6.03 32 3.06 32 0 32 C0 31.34 0 30.68 0 30 C2.31 30 4.62 30 7 30 C7 20.76 7 11.52 7 2 C5.02 2 3.04 2 1 2 C1 10.91 1 19.82 1 29 C0.67 29 0.34 29 0 29 C0 19.43 0 9.86 0 0 Z " fill="#423F43" transform="translate(553,638)"/>
<path d="M0 0 C2.97 0 5.94 0 9 0 C9 1.65 9 3.3 9 5 C8.01 4.34 7.02 3.68 6 3 C4.68 2.67 3.36 2.34 2 2 C2 14.21 2 26.42 2 39 C4.31 39 6.62 39 9 39 C9 39.66 9 40.32 9 41 C6.03 41 3.06 41 0 41 C0 27.47 0 13.94 0 0 Z " fill="#302E30" transform="translate(464,544)"/>
<path d="M0 0 C0.99 0.495 0.99 0.495 2 1 C1.98839844 1.85722656 1.97679687 2.71445313 1.96484375 3.59765625 C1.91804718 9.5274504 2.00548171 15.15720507 3 21 C3 24.4306873 2.7905259 27.7113207 2.5 31.125 C1.85387057 39.75219296 1.9117714 48.35359672 2 57 C1.01 57.495 1.01 57.495 0 58 C0 38.86 0 19.72 0 0 Z " fill="#050308" transform="translate(1457,164)"/>
<path d="M0 0 C2.15697793 4.31395585 2.20246279 7.28479756 2.0625 11.9375 C1.87385963 17.2520139 1.87385963 17.2520139 2.55859375 22.50390625 C3.06794341 25.38421094 2.68294123 27.86014584 2.26220703 30.734375 C1.77121909 34.97680339 1.89720761 39.23520541 1.9375 43.5 C1.94201172 44.4178125 1.94652344 45.335625 1.95117188 46.28125 C1.96283674 48.52090391 1.97920386 50.76041545 2 53 C1.01 53.495 1.01 53.495 0 54 C0 36.18 0 18.36 0 0 Z " fill="#050308" transform="translate(1457,429)"/>
<path d="M0 0 C1.62463842 -0.05395478 3.24978541 -0.09277195 4.875 -0.125 C5.77992188 -0.14820313 6.68484375 -0.17140625 7.6171875 -0.1953125 C10 0 10 0 12 2 C12.125 4.625 12.125 4.625 12 7 C8.36736489 9.32488647 5.23314767 9.23961213 1 9 C0 8 0 8 -0.09765625 6.15234375 C-0.06510417 4.1015625 -0.03255208 2.05078125 0 0 Z " fill="#F2F2F2" transform="translate(487,636)"/>
<path d="M0 0 C4.79964864 3.13446442 8.35176118 6.34625251 12.0234375 10.73046875 C15.77986615 15.0436803 19.92078063 18.99464979 24 23 C23.34 23.99 22.68 24.98 22 26 C21.505 25.319375 21.01 24.63875 20.5 23.9375 C17.94214498 20.93202035 15.2253643 18.52756172 12.23046875 15.9765625 C8.95857001 13.07712158 5.93018215 9.95262625 2.8828125 6.8203125 C1.12246661 4.93616102 1.12246661 4.93616102 -1 4 C-0.67 2.68 -0.34 1.36 0 0 Z " fill="#1A1A1E" transform="translate(752,307)"/>
<path d="M0 0 C2.5625 0.375 2.5625 0.375 4.4375 2.0625 C5.5625 4.375 5.5625 4.375 5.4375 7 C4.5625 9.375 4.5625 9.375 1.5625 11.375 C-1 11.1875 -1 11.1875 -3.4375 10.375 C-5.4375 7.375 -5.4375 7.375 -5.1875 4.8125 C-4.1927353 1.57951474 -3.3898104 0.52150929 0 0 Z " fill="#2A2928" transform="translate(1489.4375,547.625)"/>
<path d="M0 0 C0.33 0 0.66 0 1 0 C1.17048162 5.91814782 1.3306607 11.83646318 1.48217773 17.75512695 C1.53483413 19.75943098 1.59008037 21.76366902 1.64819336 23.76782227 C2.02703986 36.90885453 1.91917843 49.88325678 1 63 C-2.95898807 64.72271373 -4.80461892 65.08578775 -9 64 C-10.93502491 63.78847906 -12.87283455 63.60108624 -14.8125 63.4375 C-15.78832031 63.35371094 -16.76414062 63.26992188 -17.76953125 63.18359375 C-18.87361328 63.09271484 -18.87361328 63.09271484 -20 63 C-20 62.67 -20 62.34 -20 62 C-13.73 61.67 -7.46 61.34 -1 61 C-0.67 40.87 -0.34 20.74 0 0 Z " fill="#060408" transform="translate(1581,426)"/>
<path d="M0 0 C3 0.25 3 0.25 5 2.25 C5.25 5.25 5.25 5.25 5 8.25 C3 10.25 3 10.25 0 10.5 C-3 10.25 -3 10.25 -5 8.25 C-5.25 5.25 -5.25 5.25 -5 2.25 C-3 0.25 -3 0.25 0 0 Z " fill="#302D2E" transform="translate(557,623.75)"/>
<path d="M0 0 C0.33 0 0.66 0 1 0 C1 17.16 1 34.32 1 52 C0.67 52 0.34 52 0 52 C-0.33 44.08 -0.66 36.16 -1 28 C-1.33 28 -1.66 28 -2 28 C-2.19144603 8.28105906 -2.19144603 8.28105906 -1 1 C-0.67 0.67 -0.34 0.34 0 0 Z " fill="#09060F" transform="translate(1434,431)"/>
<path d="M0 0 C1.65 0 3.3 0 5 0 C4.01 0.33 3.02 0.66 2 1 C2 9.91 2 18.82 2 28 C4.31 28 6.62 28 9 28 C9 28.66 9 29.32 9 30 C6.03 30 3.06 30 0 30 C0 20.1 0 10.2 0 0 Z " fill="#434042" transform="translate(1572,564)"/>
<path d="M0 0 C2.97 0 5.94 0 9 0 C8.67 4.95 8.34 9.9 8 15 C7.67 15 7.34 15 7 15 C7 10.71 7 6.42 7 2 C5.35 2 3.7 2 2 2 C2 8.93 2 15.86 2 23 C1.34 23 0.68 23 0 23 C0 15.41 0 7.82 0 0 Z " fill="#373437" transform="translate(1477,638)"/>
<path d="M0 0 C0.33 0 0.66 0 1 0 C1 6.6 1 13.2 1 20 C4.465 19.505 4.465 19.505 8 19 C8 13.06 8 7.12 8 1 C8.66 1 9.32 1 10 1 C10 7.6 10 14.2 10 21 C6.7 21 3.4 21 0 21 C0 14.07 0 7.14 0 0 Z " fill="#575557" transform="translate(1520,573)"/>
<path d="M0 0 C0.33 2.64 0.66 5.28 1 8 C-2.67410785 9.17571451 -6.16929183 9.07366746 -10 9 C-10.33 8.34 -10.66 7.68 -11 7 C-9.35 6.67 -7.7 6.34 -6 6 C-6 5.34 -6 4.68 -6 4 C-6.66 3.67 -7.32 3.34 -8 3 C-8 2.34 -8 1.68 -8 1 C-2.25 0 -2.25 0 0 0 Z " fill="#363436" transform="translate(1446,586)"/>
<path d="M0 0 C0 2.31 0 4.62 0 7 C-3.375 7.125 -3.375 7.125 -7 7 C-7.66 6.34 -8.32 5.68 -9 5 C-9 3.68 -9 2.36 -9 1 C-6.04335481 -0.4783226 -3.25770263 -0.06032783 0 0 Z " fill="#F1F1F1" transform="translate(550,572)"/>
<path d="M0 0 C2.05078125 0.03255208 4.1015625 0.06510417 6.15234375 0.09765625 C6.19488731 2.09720371 6.19315158 4.09807261 6.15234375 6.09765625 C5.82234375 6.42765625 5.49234375 6.75765625 5.15234375 7.09765625 C2.81289639 6.8103557 0.47842945 6.47828846 -1.84765625 6.09765625 C-2.22984392 4.44150968 -2.56160727 2.77308601 -2.84765625 1.09765625 C-1.84765625 0.09765625 -1.84765625 0.09765625 0 0 Z " fill="#F5F5F5" transform="translate(1461.84765625,580.90234375)"/>
<path d="M0 0 C2.87687481 0.22129806 4.53951144 0.63478494 6.8125 2.4375 C8 4 8 4 8 6 C4.04 6 0.08 6 -4 6 C-2 2 -2 2 0 0 Z " fill="#EDEDED" transform="translate(1549,569)"/>
<path d="M0 0 C3.29714793 0.32971479 4.6226839 0.6226839 7 3 C7 3.99 7 4.98 7 6 C3.37 6 -0.26 6 -4 6 C-2 2 -2 2 0 0 Z " fill="#EFEFEF" transform="translate(614,560)"/>
<path d="M0 0 C0 4.21226525 -2.37561148 5.97603335 -5.125 8.875 C-5.8365625 9.65037109 -5.8365625 9.65037109 -6.5625 10.44140625 C-9.82296629 13.93979846 -13.27388379 17.00362762 -17 20 C-16.52275087 15.70475785 -14.00984086 13.90951283 -11 11 C-10.0331922 10.03712431 -9.06837019 9.0722509 -8.10546875 8.10546875 C-5.40364583 5.40364583 -2.70182292 2.70182292 0 0 Z " fill="#1B191B" transform="translate(279,409)"/>
<path d="M0 0 C6.6 0 13.2 0 20 0 C16 4 16 4 13.421875 4.171875 C12.09929687 3.96304688 12.09929687 3.96304688 10.75 3.75 C9.85796875 3.62109375 8.9659375 3.4921875 8.046875 3.359375 C7.03367187 3.18148437 7.03367187 3.18148437 6 3 C6 2.34 6 1.68 6 1 C4.02 1 2.04 1 0 1 C0 0.67 0 0.34 0 0 Z " fill="#0A080A" transform="translate(1436,226)"/>
<path d="M0 0 C2 2 2 2 2.23046875 4.20703125 C2.08669596 12.92489013 2.08669596 12.92489013 1 17 C1.66 17 2.32 17 3 17 C2.88637738 18.4800841 2.75877092 19.95910074 2.625 21.4375 C2.52058594 22.67306641 2.52058594 22.67306641 2.4140625 23.93359375 C2.27742188 24.61550781 2.14078125 25.29742187 2 26 C1.34 26.33 0.68 26.66 0 27 C0 18.09 0 9.18 0 0 Z " fill="#08050D" transform="translate(1334,156)"/>
<path d="M0 0 C-0.33 0.66 -0.66 1.32 -1 2 C-3.94140625 2.4140625 -3.94140625 2.4140625 -7.5625 2.625 C-8.76003906 2.69976562 -9.95757813 2.77453125 -11.19140625 2.8515625 C-12.11824219 2.90054687 -13.04507813 2.94953125 -14 3 C-11.525 6.465 -11.525 6.465 -9 10 C-12.21043882 8.61811547 -14.04936365 7.07578097 -16.25 4.375 C-16.77078125 3.74335938 -17.2915625 3.11171875 -17.828125 2.4609375 C-18.21484375 1.97882813 -18.6015625 1.49671875 -19 1 C-16.77100213 0.83109082 -14.54179338 0.66496313 -12.3125 0.5 C-10.45044922 0.36078125 -10.45044922 0.36078125 -8.55078125 0.21875 C-5.68500671 0.04220063 -2.86900043 -0.04388528 0 0 Z " fill="#EAE9E7" transform="translate(823,397)"/>
<path d="M0 0 C0.33 0.99 0.66 1.98 1 3 C-0.40580276 4.65512248 -1.82506266 6.29882206 -3.25 7.9375 C-4.03890625 8.85402344 -4.8278125 9.77054687 -5.640625 10.71484375 C-7.91251033 12.91526249 -8.92319022 13.66832555 -12 14 C-8.34161026 8.88863277 -4.55388068 4.33702922 0 0 Z " fill="#1D1B1F" transform="translate(283,366)"/>
<path d="M0 0 C0.66 1.32 1.32 2.64 2 4 C-0.36292656 6.52588702 -1.66462511 7.88820837 -5 9 C-5.33 8.34 -5.66 7.68 -6 7 C-7.32 6.67 -8.64 6.34 -10 6 C-6.7 4.02 -3.4 2.04 0 0 Z " fill="#2C2C2C" transform="translate(1244,198)"/>
<path d="M0 0 C4.88049925 3.9419417 9.0580583 8.11950075 13 13 C10 13 10 13 7.30078125 10.59375 C6.29697757 9.5700032 5.30114351 8.5383946 4.3125 7.5 C3.80138672 6.97535156 3.29027344 6.45070313 2.76367188 5.91015625 C1.50227292 4.61339096 0.25022788 3.30753883 -1 2 C-0.67 1.34 -0.34 0.68 0 0 Z " fill="#2F2E32" transform="translate(789,345)"/>
<path d="M0 0 C1.45792884 -0.05399736 2.91642712 -0.09279177 4.375 -0.125 C5.18710937 -0.14820313 5.99921875 -0.17140625 6.8359375 -0.1953125 C9 0 9 0 11 2 C9 4 9 4 6.8359375 4.1953125 C5.61777344 4.16050781 5.61777344 4.16050781 4.375 4.125 C3.55773437 4.10695313 2.74046875 4.08890625 1.8984375 4.0703125 C1.27195312 4.04710937 0.64546875 4.02390625 0 4 C0 2.68 0 1.36 0 0 Z " fill="#0A060A" transform="translate(870,444)"/>
<path d="M0 0 C1.98 0.66 3.96 1.32 6 2 C6 2.99 6 3.98 6 5 C6.66 5.66 7.32 6.32 8 7 C6.25 7.75 6.25 7.75 4 8 C1.75 6.3125 1.75 6.3125 0 4 C0 2.68 0 1.36 0 0 Z " fill="#363331" transform="translate(1484,551)"/>
<path d="M0 0 C-0.33 0.99 -0.66 1.98 -1 3 C-3.62527189 3.05382106 -6.24944713 3.09358313 -8.875 3.125 C-9.62136719 3.14175781 -10.36773438 3.15851563 -11.13671875 3.17578125 C-13.09194461 3.1933959 -15.04742021 3.10320189 -17 3 C-17.66 2.34 -18.32 1.68 -19 1 C-16.20837429 0.83262201 -13.41670379 0.66606598 -10.625 0.5 C-9.8309375 0.45230469 -9.036875 0.40460938 -8.21875 0.35546875 C-2.2265625 0 -2.2265625 0 0 0 Z " fill="#0A080A" transform="translate(1623,487)"/>
<path d="M0 0 C4.29 0 8.58 0 13 0 C12.01 1.485 12.01 1.485 11 3 C9.741875 2.87625 8.48375 2.7525 7.1875 2.625 C6.12595703 2.52058594 6.12595703 2.52058594 5.04296875 2.4140625 C3 2 3 2 0 0 Z " fill="#0C090B" transform="translate(1646,488)"/>
<path d="M0 0 C3 3.75 3 3.75 3 6 C0.36 6 -2.28 6 -5 6 C-4.67 5.01 -4.34 4.02 -4 3 C-3.01 2.67 -2.02 2.34 -1 2 C-0.67 1.34 -0.34 0.68 0 0 Z " fill="#241F22" transform="translate(488,579)"/>
<path d="M0 0 C2.31 1.98 4.62 3.96 7 6 C6.01 7.485 6.01 7.485 5 9 C2.5 6.75 2.5 6.75 0 4 C0 2.68 0 1.36 0 0 Z " fill="#141417" transform="translate(807,364)"/>
<path d="M0 0 C0.91222891 3.07877257 1.32903218 5.79193623 1 9 C0.01 9.99 -0.98 10.98 -2 12 C-2 8.7 -2 5.4 -2 2 C-1.34 2 -0.68 2 0 2 C0 1.34 0 0.68 0 0 Z " fill="#0A080E" transform="translate(1419,179)"/>
<path d="M0 0 C0.99 0.33 1.98 0.66 3 1 C2.84660156 1.51046875 2.69320313 2.0209375 2.53515625 2.546875 C1.83094597 5.7749338 1.65111796 8.95418001 1.4375 12.25 C1.35371094 13.51328125 1.26992187 14.7765625 1.18359375 16.078125 C1.12300781 17.04234375 1.06242187 18.0065625 1 19 C0.67 19 0.34 19 0 19 C0 12.73 0 6.46 0 0 Z " fill="#08050D" transform="translate(1334,133)"/>
<path d="M0 0 C0.99 0 1.98 0 3 0 C2.34 5.28 1.68 10.56 1 16 C0.67 16 0.34 16 0 16 C0 10.72 0 5.44 0 0 Z " fill="#08070E" transform="translate(1334,465)"/>
<path d="M0 0 C2.84383123 1.2748209 5.13754018 2.45137078 7 5 C6.6875 7.1875 6.6875 7.1875 6 9 C6 8.34 6 7.68 6 7 C5.38125 6.773125 4.7625 6.54625 4.125 6.3125 C1.38589791 4.62070165 0.94975528 3.00755839 0 0 Z " fill="#141415" transform="translate(622,555)"/>
<path d="M0 0 C2.475 0.99 2.475 0.99 5 2 C3.68 2.33 2.36 2.66 1 3 C1 6.96 1 10.92 1 15 C0.67 15 0.34 15 0 15 C0 10.05 0 5.1 0 0 Z " fill="#262426" transform="translate(1240,428)"/>
<path d="M0 0 C-0.8125 1.9375 -0.8125 1.9375 -2 4 C-2.99 4.33 -3.98 4.66 -5 5 C-5 7.31 -5 9.62 -5 12 C-5.33 12 -5.66 12 -6 12 C-6.48979592 4.65306122 -6.48979592 4.65306122 -4.125 1.5 C-2 0 -2 0 0 0 Z " fill="#423F42" transform="translate(538,567)"/>
<path d="M0 0 C1.98 0 3.96 0 6 0 C4.7260411 2.03833424 3.38938077 4.03852126 2 6 C1.34 6 0.68 6 0 6 C0 4.02 0 2.04 0 0 Z " fill="#1A1819" transform="translate(736,304)"/>
<path d="M0 0 C1.32 0.33 2.64 0.66 4 1 C4 2.32 4 3.64 4 5 C4.99 5.33 5.98 5.66 7 6 C5.68 6.33 4.36 6.66 3 7 C0 2.25 0 2.25 0 0 Z " fill="#1F1C1E" transform="translate(1423,673)"/>
<path d="M0 0 C0.33 0 0.66 0 1 0 C1.66 3.96 2.32 7.92 3 12 C1.68 11.34 0.36 10.68 -1 10 C-0.67 6.7 -0.34 3.4 0 0 Z " fill="#373B41" transform="translate(1325,570)"/>
<path d="M0 0 C2.31 1.98 4.62 3.96 7 6 C6.34 6.66 5.68 7.32 5 8 C3.02 5.69 1.04 3.38 -1 1 C-0.67 0.67 -0.34 0.34 0 0 Z " fill="#27272B" transform="translate(815,372)"/>
<path d="M0 0 C0.33 0.99 0.66 1.98 1 3 C-2 5 -2 5 -5 5 C-4.67 3.68 -4.34 2.36 -4 1 C-2.68 0.67 -1.36 0.34 0 0 Z " fill="#141211" transform="translate(1238,204)"/>
<path d="M0 0 C1.9375 0.8125 1.9375 0.8125 4 2 C4.33 2.99 4.66 3.98 5 5 C4.34 5.66 3.68 6.32 3 7 C1.68 5.02 0.36 3.04 -1 1 C-0.67 0.67 -0.34 0.34 0 0 Z " fill="#1E1B1D" transform="translate(1377,565)"/>
<path d="M0 0 C1.65 0 3.3 0 5 0 C4.34 0.66 3.68 1.32 3 2 C2.83312552 4.58354218 2.83312552 4.58354218 3 7 C2.01 7 1.02 7 0 7 C0 4.69 0 2.38 0 0 Z " fill="#383638" transform="translate(535,554)"/>
<path d="M0 0 C1.125 1.625 1.125 1.625 2 4 C1.125 7.25 1.125 7.25 0 10 C-0.33 10 -0.66 10 -1 10 C-1.02689216 8.52093108 -1.04634621 7.04172517 -1.0625 5.5625 C-1.07410156 4.73878906 -1.08570313 3.91507813 -1.09765625 3.06640625 C-1 1 -1 1 0 0 Z " fill="#09080E" transform="translate(1377,175)"/>
<path d="M0 0 C2.1875 0.3125 2.1875 0.3125 4 1 C3.34 1 2.68 1 2 1 C2 1.66 2 2.32 2 3 C2.99 3.33 3.98 3.66 5 4 C2.36 3.67 -0.28 3.34 -3 3 C-1.75 1.4375 -1.75 1.4375 0 0 Z " fill="#130F11" transform="translate(1236,444)"/>
<path d="M0 0 C1.98 0.495 1.98 0.495 4 1 C3.01 1.33 2.02 1.66 1 2 C1.33 3.32 1.66 4.64 2 6 C1.01 6.33 0.02 6.66 -1 7 C-0.67 4.69 -0.34 2.38 0 0 Z " fill="#3E3D40" transform="translate(1617,586)"/>
<path d="M0 0 C0.99 0.33 1.98 0.66 3 1 C1.35 2.65 -0.3 4.3 -2 6 C-2 2 -2 2 0 0 Z " fill="#2B272A" transform="translate(263,500)"/>
<path d="M0 0 C0.99 0.33 1.98 0.66 3 1 C0.03 3.475 0.03 3.475 -3 6 C-3.66 5.67 -4.32 5.34 -5 5 C-3.35 3.35 -1.7 1.7 0 0 Z " fill="#E4E4E4" transform="translate(315,437)"/>
<path d="M0 0 C1.98 1.65 3.96 3.3 6 5 C5.34 5.66 4.68 6.32 4 7 C2.35 5.02 0.7 3.04 -1 1 C-0.67 0.67 -0.34 0.34 0 0 Z " fill="#212123" transform="translate(789,345)"/>
<path d="M0 0 C0.66 0.33 1.32 0.66 2 1 C1.67 1.99 1.34 2.98 1 4 C1.66 4.33 2.32 4.66 3 5 C2.01 5.33 1.02 5.66 0 6 C-0.99 5.01 -1.98 4.02 -3 3 C-2.01 2.01 -1.02 1.02 0 0 Z " fill="#2E2D2C" transform="translate(1232,205)"/>
</svg>
