<?xml version="1.0" standalone="no"?>
<!DOCTYPE svg PUBLIC "-//W3C//DTD SVG 20010904//EN"
 "http://www.w3.org/TR/2001/REC-SVG-20010904/DTD/svg10.dtd">
<svg version="1.0" xmlns="http://www.w3.org/2000/svg"
 width="1500.000000pt" height="630.000000pt" viewBox="0 0 1500.000000 630.000000"
 preserveAspectRatio="xMidYMid meet">
<metadata>
Created by potrace 1.16, written by Peter Selinger 2001-2019
</metadata>
<g transform="translate(0.000000,630.000000) scale(0.100000,-0.100000)"
fill="#000000" stroke="none">
<path d="M6543 5646 c-28 -24 -28 -27 -33 -158 -5 -133 -5 -133 -605 -138
-330 -3 -608 -9 -617 -13 -9 -5 -20 -16 -25 -25 -4 -9 -10 -181 -13 -382 -5
-365 -5 -365 -267 -370 -328 -6 -306 6 -311 -175 -3 -119 -5 -125 -24 -125
-22 0 -91 36 -146 77 -40 30 -55 23 -46 -24 5 -27 3 -39 -8 -47 -10 -8 -111
-9 -329 -6 -314 5 -314 5 -319 128 -8 195 199 172 -1540 172 -1479 0 -1479 0
-1507 -24 -28 -24 -28 -24 -31 -295 -3 -272 -3 -272 27 -301 29 -30 29 -30
1511 -30 1482 0 1482 0 1511 29 29 29 29 31 29 143 0 75 4 118 12 126 9 9 94
12 319 12 345 0 337 2 325 -70 -5 -35 -4 -40 13 -40 11 0 23 4 26 10 9 15 142
90 159 90 14 0 16 -16 16 -109 0 -60 4 -121 10 -135 17 -47 38 -51 310 -56
l255 -5 5 -1307 c5 -1307 5 -1307 28 -1330 23 -23 23 -23 1385 -28 1362 -5
1362 -5 1362 -45 0 -34 -3 -40 -22 -43 -30 -4 -29 -12 8 -77 23 -41 28 -56 17
-60 -7 -3 -179 -6 -381 -7 -314 -3 -369 -5 -377 -18 -6 -9 -10 -176 -10 -402
0 -338 2 -389 16 -402 14 -14 97 -16 768 -16 689 0 755 1 767 17 20 23 21 785
1 805 -10 10 -96 14 -382 16 -291 2 -370 5 -370 15 0 7 14 34 30 60 36 58 37
67 5 67 -23 0 -25 4 -25 45 0 45 0 45 1355 45 1474 0 1397 -3 1423 55 9 19 12
242 12 894 0 687 3 870 13 872 6 2 122 2 257 -1 245 -5 245 -5 250 -225 3
-121 9 -226 14 -234 26 -41 27 -41 1103 -41 959 0 1030 1 1063 18 19 9 40 28
47 42 10 19 13 137 13 483 0 487 -2 511 -48 536 -15 8 -341 11 -1082 11 -1061
0 -1061 0 -1085 -25 -25 -24 -25 -24 -25 -263 0 -180 -3 -242 -12 -250 -8 -6
-105 -9 -258 -8 -245 1 -245 1 -250 1091 -5 1171 -3 1125 -56 1145 -15 6 -263
10 -608 10 -439 0 -585 3 -594 12 -8 8 -12 51 -12 125 0 118 -12 164 -45 177
-9 3 -682 6 -1495 6 -1479 0 -1479 0 -1507 -24z m952 -220 c0 -44 4 -81 10
-83 6 -1 20 13 33 32 17 27 29 35 52 35 17 0 30 -3 30 -6 0 -4 -16 -24 -36
-46 -36 -40 -36 -40 -11 -67 29 -31 57 -72 57 -83 0 -5 -14 -8 -30 -8 -25 0
-35 8 -58 45 -15 25 -31 43 -37 42 -5 -2 -10 -21 -10 -43 0 -35 -3 -39 -27
-42 -28 -3 -28 -3 -28 146 0 82 3 152 7 156 4 4 16 6 28 4 18 -3 20 -10 20
-82z m1483 67 c13 -26 4 -43 -24 -43 -26 0 -40 20 -30 45 8 21 43 19 54 -2z
m-2112 -34 c40 -24 54 -57 54 -125 0 -48 -4 -59 -33 -90 -36 -40 -96 -56 -169
-46 -38 5 -38 5 -38 143 0 138 0 138 33 141 54 7 120 -4 153 -23z m1508 12
c16 -25 -7 -40 -67 -43 -59 -3 -62 -4 -62 -28 0 -23 4 -25 58 -28 54 -3 58 -5
55 -25 -3 -19 -11 -23 -58 -27 -57 -5 -60 -9 -51 -62 0 -5 27 -8 60 -8 39 0
63 -5 71 -15 22 -27 0 -35 -95 -35 -75 0 -94 3 -99 16 -3 9 -6 64 -6 124 0 60
3 115 6 124 5 13 23 16 94 16 49 0 91 -4 94 -9z m-1254 -66 c16 -9 36 -29 45
-45 58 -113 -80 -225 -166 -134 -19 21 -24 36 -24 81 0 49 3 58 33 84 36 32
69 36 112 14z m244 9 c9 -3 16 -15 16 -25 0 -14 -7 -19 -28 -19 -43 0 -72 -26
-72 -65 0 -39 28 -65 72 -65 35 0 46 -19 22 -37 -31 -23 -94 -10 -126 27 -74
82 15 223 116 184z m449 -14 c27 -21 53 -83 42 -100 -3 -5 -35 -10 -70 -10
-67 0 -80 -6 -65 -30 6 -10 27 -15 62 -16 45 0 53 -3 53 -19 0 -43 -108 -43
-151 0 -19 19 -24 34 -24 77 1 97 85 151 153 98z m211 14 c9 -3 16 -14 16 -24
0 -14 -9 -20 -37 -22 -38 -3 -38 -3 -41 -85 -3 -81 -3 -83 -28 -83 -25 0 -25
0 -22 102 3 99 4 102 28 109 33 9 65 10 84 3z m563 -18 c27 -23 28 -29 28
-108 0 -82 0 -83 -25 -83 -24 0 -25 3 -30 74 -5 77 -20 101 -54 88 -13 -5 -16
-22 -16 -87 0 -81 0 -81 -27 -78 -28 3 -28 4 -31 83 -5 126 -1 131 85 134 31
1 49 -5 70 -23z m247 14 c26 -9 26 -11 26 -121 0 -109 0 -111 -29 -140 -25
-24 -38 -29 -79 -29 -32 0 -54 5 -62 15 -20 24 3 39 53 36 29 -1 48 3 56 13
19 23 6 33 -41 33 -33 0 -47 6 -65 27 -25 30 -30 79 -12 120 21 45 96 68 153
46z m367 -20 c29 -28 30 -32 27 -107 -3 -76 -4 -78 -28 -78 -24 0 -25 3 -30
74 -5 77 -20 101 -54 88 -13 -5 -16 -22 -16 -87 0 -78 -1 -80 -24 -80 -31 0
-36 15 -36 108 0 102 6 110 88 111 35 1 49 -5 73 -29z m223 20 c29 -10 56 -57
56 -95 0 -24 -2 -25 -70 -25 -55 0 -70 -3 -70 -15 0 -21 36 -37 78 -33 31 3
37 0 40 -19 2 -16 -3 -23 -27 -28 -84 -18 -151 32 -151 112 0 38 5 50 34 79
35 35 64 42 110 24z m-444 -106 c0 -105 0 -105 -27 -102 -28 3 -28 3 -31 92
-3 106 -1 116 33 116 25 0 25 0 25 -106z m-2486 -10 c13 -5 16 -24 16 -101 0
-105 13 -142 55 -161 20 -9 375 -12 1486 -12 1574 0 1501 -2 1529 49 5 11 10
62 10 113 0 60 4 98 12 106 19 19 1171 17 1187 -2 8 -10 10 -539 9 -1997 l-3
-1984 -1363 -3 c-1363 -2 -1363 -2 -1360 148 3 151 3 151 731 153 729 2 729 2
758 35 29 32 29 32 29 288 0 283 -4 303 -61 323 -21 7 -146 11 -360 11 -181 0
-329 3 -329 7 0 3 14 30 30 60 36 64 37 73 5 73 -25 0 -25 0 -25 110 0 110 0
110 25 110 14 0 25 4 25 8 0 15 -61 122 -70 122 -9 0 -70 -107 -70 -122 0 -4
11 -8 25 -8 25 0 25 0 25 -110 0 -110 0 -110 -25 -110 -32 0 -31 -14 5 -75 16
-27 30 -53 30 -57 0 -5 -349 -8 -775 -8 -426 0 -775 3 -775 7 0 3 14 30 30 60
36 64 37 73 5 73 -25 0 -25 0 -25 110 0 110 0 110 25 110 14 0 25 4 25 8 0 15
-61 122 -70 122 -9 0 -70 -104 -70 -120 0 -5 11 -10 25 -10 25 0 25 0 25 -110
0 -110 0 -110 -25 -110 -32 0 -31 -12 5 -77 17 -29 30 -55 30 -58 0 -3 -149
-5 -330 -5 -353 0 -375 -3 -400 -50 -15 -29 -15 -532 0 -561 27 -49 29 -50
787 -49 395 1 710 -3 715 -8 5 -5 7 -71 6 -148 -3 -139 -3 -139 -1360 -142
-1358 -2 -1358 -2 -1363 20 -3 13 -4 599 -3 1303 3 1280 3 1280 235 1285 296
6 281 -3 285 179 3 126 3 126 227 129 252 3 257 2 247 -59 -7 -43 7 -58 32
-36 26 22 157 97 170 97 9 0 12 -33 12 -115 0 -63 5 -125 11 -138 23 -51 30
-52 388 -54 183 -1 336 -4 338 -7 3 -3 -9 -28 -26 -56 -37 -60 -38 -68 -8 -72
21 -3 22 -7 25 -115 3 -115 2 -119 -35 -114 -20 3 -16 -15 17 -72 17 -30 30
-57 30 -60 0 -4 -153 -7 -341 -7 -441 0 -399 33 -399 -320 0 -262 0 -262 29
-291 29 -29 29 -29 1509 -29 1480 0 1480 0 1511 26 31 26 31 26 31 294 0 268
0 268 -31 294 -31 26 -31 26 -375 26 -189 0 -344 3 -344 8 0 4 14 31 30 61 33
60 36 73 18 70 -38 -5 -39 -1 -36 114 3 108 4 112 26 115 29 4 28 11 -10 71
-17 28 -28 54 -25 57 3 3 152 5 331 5 346 -2 381 2 405 47 7 14 11 115 11 287
0 266 0 266 -25 290 -24 25 -24 25 -1514 25 -1737 0 -1541 24 -1541 -186 0
-73 -4 -124 -10 -124 -5 0 -50 25 -101 55 -50 30 -96 55 -101 55 -5 0 -6 -19
-3 -44 4 -27 3 -46 -3 -50 -14 -8 -448 -9 -462 -1 -6 4 -10 54 -10 124 0 119
-1 123 -43 163 -1 1 -108 5 -237 8 -235 5 -235 5 -238 360 -2 325 -1 356 15
368 13 9 147 12 589 12 315 0 579 -3 588 -6z m-733 -784 c18 -10 19 -24 19
-275 0 -251 -1 -265 -19 -275 -13 -6 -193 -10 -515 -10 -483 0 -497 1 -516 20
-19 19 -20 33 -20 263 0 203 3 246 16 265 15 22 15 22 515 22 326 0 507 -4
520 -10z m3777 -2 c18 -18 17 -521 -1 -537 -10 -7 -433 -11 -1487 -13 -1429
-2 -1473 -1 -1486 17 -11 15 -14 73 -14 266 0 212 2 250 16 263 14 14 163 16
1488 16 1131 0 1475 -3 1484 -12z m-8328 -128 c6 -12 23 -25 36 -31 17 -6 24
-15 22 -27 -3 -13 -14 -17 -48 -17 -87 0 -92 -24 -13 -63 63 -31 81 -59 69
-106 -4 -15 -18 -32 -31 -38 -14 -6 -28 -20 -31 -32 -4 -12 -12 -24 -18 -28
-13 -8 -36 9 -36 27 0 8 -16 19 -36 25 -24 8 -34 17 -32 28 3 14 14 16 59 14
41 -2 59 1 69 13 16 19 13 22 -58 60 -54 28 -57 32 -60 72 -3 36 1 44 23 59
15 10 31 28 36 41 11 28 35 30 49 3z m410 -140 c0 -92 -4 -151 -10 -155 -6 -4
-35 -7 -66 -7 -62 -1 -88 16 -111 70 -30 71 25 156 97 150 32 -3 35 -1 33 22
-3 41 6 68 25 73 9 2 20 2 25 0 4 -2 7 -71 7 -153z m586 58 c-4 -45 -3 -78 3
-78 5 0 20 15 35 34 29 38 62 54 79 37 8 -8 1 -22 -27 -50 -39 -39 -39 -39 4
-90 43 -51 45 -71 6 -71 -15 0 -32 14 -54 45 -38 54 -57 59 -50 13 7 -45 1
-58 -28 -58 -24 0 -24 0 -24 154 0 139 2 155 18 158 37 9 45 -12 38 -94z m895
55 c20 -20 -2 -45 -40 -42 -20 1 -44 1 -53 0 -59 -4 -80 -109 -32 -158 22 -22
32 -25 69 -21 50 6 68 -2 63 -28 -4 -24 -78 -38 -129 -24 -68 18 -110 96 -95
172 15 78 74 121 154 115 29 -2 57 -8 63 -14z m119 -3 c1 -5 2 -56 3 -112 2
-103 2 -103 65 -106 59 -3 62 -4 62 -28 0 -25 0 -25 -92 -22 -93 3 -93 3 -96
127 -1 69 0 131 2 138 6 15 56 18 56 3z m235 -130 c0 -135 0 -135 -25 -135
-25 0 -25 0 -28 138 -3 138 -3 138 25 135 28 -3 28 -3 28 -138z m-1612 60 c30
-24 49 -79 40 -121 -16 -82 -119 -110 -175 -49 -47 51 -34 144 23 176 35 20
83 17 112 -6z m245 -7 c3 -20 -1 -23 -27 -23 -57 0 -90 -60 -57 -105 8 -12 27
-19 52 -19 31 -2 39 -6 39 -21 0 -41 -102 -37 -141 6 -14 15 -19 36 -19 76 0
49 3 58 33 84 28 25 41 30 75 27 35 -2 43 -7 45 -25z m443 -2 c21 -22 29 -39
29 -65 0 -36 0 -36 -64 -36 -36 0 -68 -5 -72 -11 -11 -19 15 -33 61 -34 88 -2
85 -47 -3 -48 -63 -1 -98 21 -113 72 -15 50 -6 86 31 122 40 40 91 40 131 0z
m208 20 c23 -15 5 -39 -31 -43 -33 -3 -33 -3 -36 -85 -3 -81 -4 -83 -27 -83
-31 0 -37 21 -33 120 3 68 5 76 28 87 29 15 79 17 99 4z m6079 -386 c3 -2 -9
-28 -26 -56 -38 -60 -39 -67 -9 -71 21 -3 22 -7 25 -115 3 -115 2 -119 -35
-114 -19 3 -16 -10 17 -70 16 -30 30 -57 30 -61 0 -5 -349 -8 -775 -8 -426 0
-775 2 -775 5 0 3 12 29 27 58 31 58 34 71 16 73 -7 1 -18 2 -23 3 -7 1 -10
42 -8 114 3 108 4 112 26 115 12 2 22 5 22 8 0 2 -14 29 -32 60 -19 36 -27 58
-20 62 12 8 1532 5 1540 -3z m3262 -537 c0 -98 3 -125 16 -139 21 -24 11 -49
-20 -49 -46 0 -56 31 -56 171 0 69 3 129 7 132 3 4 17 7 30 7 23 0 23 -1 23
-122z m618 105 c13 -26 4 -43 -24 -43 -26 0 -40 20 -30 45 8 21 43 19 54 -2z
m-807 -13 c44 0 79 -39 79 -88 0 -59 -26 -85 -91 -92 -54 -5 -54 -5 -59 -50
-4 -40 -8 -45 -30 -45 -25 0 -25 0 -25 135 0 135 0 135 35 141 19 4 41 5 48 3
8 -2 27 -4 43 -4z m663 -70 c26 -9 26 -11 26 -121 0 -109 0 -111 -29 -140 -25
-24 -38 -29 -79 -29 -32 0 -54 5 -62 15 -20 24 3 39 53 36 30 -1 48 3 57 14
18 21 6 30 -42 31 -71 1 -110 75 -77 148 21 45 96 68 153 46z m363 -14 c27
-23 28 -29 28 -108 0 -82 0 -83 -25 -83 -24 0 -25 3 -30 74 -5 77 -20 101 -54
88 -13 -5 -16 -22 -16 -87 0 -81 0 -81 -27 -78 -28 3 -28 4 -31 83 -5 126 -1
131 85 134 31 1 49 -5 70 -23z m223 9 c18 -22 3 -35 -41 -35 -53 0 -52 -25 1
-46 86 -34 78 -116 -11 -130 -41 -7 -89 10 -89 31 0 16 6 18 63 15 49 -2 51
24 3 44 -97 40 -76 133 30 135 17 1 37 -6 44 -14z m-930 -72 c5 -76 16 -97 46
-91 16 3 19 15 22 86 3 83 3 83 30 80 27 -3 27 -3 30 -93 1 -49 -2 -96 -6
-103 -6 -8 -32 -14 -70 -15 -85 -3 -105 17 -110 113 -5 85 1 102 30 98 21 -3
23 -10 28 -75z m488 -25 c-3 -102 -3 -103 -28 -103 -25 0 -25 1 -28 89 -3 106
-1 116 33 116 26 0 26 0 23 -102z m-3164 66 c14 -13 16 -51 16 -264 0 -213 -2
-251 -16 -264 -14 -14 -162 -16 -1481 -16 -1351 0 -1468 1 -1485 17 -16 15
-18 36 -18 261 0 214 2 248 17 264 15 17 75 18 1484 18 1321 0 1469 -2 1483
-16z m3088 -300 c3 -46 3 -46 48 -49 66 -5 80 -28 80 -127 0 -79 0 -79 -27
-76 -27 3 -28 5 -33 77 -5 77 -20 101 -54 88 -13 -5 -16 -22 -16 -87 0 -78 -1
-80 -24 -80 -13 0 -27 7 -30 16 -3 9 -6 69 -6 134 0 65 3 125 6 134 3 9 17 16
30 16 20 0 23 -5 26 -46z m-740 4 c27 -22 28 -46 4 -81 -17 -24 -21 -39 -14
-51 12 -21 34 -21 46 1 6 10 16 14 27 9 14 -5 16 -13 11 -41 -5 -24 -2 -42 9
-57 8 -13 15 -26 15 -30 0 -12 -44 -10 -57 3 -8 8 -23 6 -54 -4 -57 -19 -104
-11 -129 21 -27 33 -25 64 5 100 21 26 24 34 15 57 -20 52 8 83 76 84 16 1 37
-5 46 -11z m556 -30 c3 -22 9 -27 34 -30 41 -4 48 -25 11 -33 -15 -4 -33 -8
-38 -10 -7 -2 -9 -23 -5 -56 5 -52 6 -54 39 -59 19 -3 36 -10 38 -17 7 -19
-36 -35 -73 -29 -53 11 -64 36 -64 152 0 55 3 104 7 108 17 16 48 0 51 -26z
m-178 -24 c62 -13 89 -98 50 -162 -56 -92 -190 -48 -190 62 0 49 27 92 63 99
37 7 43 7 77 1z m679 0 c35 -7 61 -45 61 -89 0 -27 -11 -29 -102 -25 -28 1
-38 -2 -38 -14 0 -22 36 -38 78 -34 32 3 37 0 40 -19 3 -18 -3 -23 -32 -28
-48 -9 -89 2 -117 31 -19 20 -24 37 -24 79 0 71 22 95 91 104 6 0 26 -2 43 -5z
m225 0 c24 -9 19 -34 -6 -34 -40 0 -47 -13 -50 -90 -3 -73 -4 -75 -28 -75 -25
0 -25 0 -25 95 0 95 0 95 35 101 52 9 57 10 74 3z m-3634 -804 c19 -19 20 -33
20 -268 0 -183 -3 -253 -13 -265 -11 -16 -104 -18 -1486 -18 -1095 0 -1477 3
-1487 12 -11 9 -14 62 -14 270 0 255 0 258 22 273 20 14 177 16 1480 16 1445
0 1458 0 1478 -20z m-2116 -1316 c3 -9 6 -143 6 -299 0 -156 -3 -290 -6 -299
-3 -9 -15 -16 -25 -16 -18 0 -19 15 -21 303 -2 166 -1 308 1 315 5 17 38 15
45 -4z m161 -299 c0 -310 0 -310 -22 -313 -23 -3 -23 -3 -23 313 0 316 0 316
23 313 22 -3 22 -3 22 -313z m160 0 c0 -303 0 -310 -20 -310 -19 0 -20 8 -23
300 -1 165 0 306 3 313 3 7 13 12 22 10 17 -3 18 -26 18 -313z m165 0 c0 -302
-1 -315 -19 -315 -10 0 -22 7 -25 16 -8 21 -8 599 1 607 3 4 15 7 25 7 17 0
18 -16 18 -315z m160 0 c0 -308 0 -315 -20 -315 -20 0 -20 7 -20 315 0 308 0
315 20 315 20 0 20 -7 20 -315z m168 6 c2 -307 -1 -337 -34 -324 -12 4 -14 56
-14 312 0 169 3 311 7 315 4 4 14 5 23 4 13 -3 15 -42 18 -307z m160 -5 c2
-315 1 -332 -35 -319 -10 4 -13 65 -13 312 0 169 3 311 7 315 4 4 14 5 23 4
13 -3 15 -43 18 -312z m162 0 c0 -257 -2 -315 -14 -319 -33 -13 -36 14 -36
318 0 166 3 305 7 308 3 4 15 7 25 7 17 0 18 -16 18 -314z m164 298 c3 -9 6
-143 6 -299 0 -156 -3 -290 -6 -299 -8 -21 -40 -21 -48 0 -3 9 -6 143 -6 299
0 156 3 290 6 299 3 9 14 16 24 16 10 0 21 -7 24 -16z"/>
<path d="M6747 5434 c-10 -10 -9 -182 1 -188 5 -3 26 0 46 6 66 20 89 106 41
153 -13 14 -31 25 -39 25 -8 0 -21 2 -28 5 -8 3 -17 2 -21 -1z"/>
<path d="M7046 5354 c-22 -21 -20 -77 2 -97 25 -23 38 -21 56 5 21 30 20 71
-2 91 -23 21 -36 21 -56 1z"/>
<path d="M7720 5355 c-17 -21 -3 -35 36 -35 23 0 37 6 41 16 12 31 -53 47 -77
19z"/>
<path d="M8746 5354 c-19 -18 -21 -65 -4 -82 7 -7 22 -12 35 -12 21 0 23 4 23
55 0 48 -3 55 -19 55 -11 0 -27 -7 -35 -16z"/>
<path d="M9352 5358 c-24 -24 -13 -38 29 -38 36 0 40 2 37 23 -3 25 -45 36
-66 15z"/>
<path d="M4855 4419 c-42 -12 -55 -35 -55 -96 0 -41 -5 -57 -20 -70 -11 -10
-20 -25 -20 -34 0 -9 9 -24 20 -34 15 -14 20 -31 20 -70 0 -60 13 -82 57 -94
25 -7 35 -6 45 6 10 13 8 19 -14 37 -20 16 -27 33 -32 76 -13 119 -3 196 30
228 13 13 24 27 24 31 0 19 -26 28 -55 20z"/>
<path d="M5600 4404 c0 -9 11 -26 23 -38 18 -17 25 -37 30 -87 9 -98 -5 -190
-31 -207 -24 -16 -30 -51 -9 -53 62 -6 89 22 95 100 2 34 10 65 18 72 8 6 14
19 14 29 0 10 -6 23 -14 29 -8 6 -16 37 -18 71 -5 72 -26 100 -75 100 -24 0
-33 -4 -33 -16z"/>
<path d="M5029 4379 c-23 -12 -125 -262 -114 -279 14 -23 53 -10 74 25 18 31
25 35 60 35 40 0 71 -20 71 -45 0 -22 62 -36 74 -16 5 8 -94 264 -107 277 -9
10 -44 12 -58 3z m41 -115 c16 -41 12 -54 -14 -54 -33 0 -40 15 -26 51 15 36
27 37 40 3z"/>
<path d="M5260 4382 c-25 -8 -25 -8 -25 -147 0 -140 0 -140 32 -143 31 -3 32
-3 35 45 3 48 3 48 48 55 25 4 56 16 70 26 49 37 48 113 -2 146 -27 18 -122
28 -158 18z m114 -74 c16 -26 -4 -53 -40 -53 -23 0 -30 5 -32 23 -2 13 -1 30
2 38 8 20 56 14 70 -8z"/>
<path d="M5505 4378 c-3 -8 -4 -75 -3 -149 3 -134 3 -134 33 -134 30 0 30 0
30 145 0 145 0 145 -28 148 -16 2 -29 -2 -32 -10z"/>
<path d="M7144 4475 c-4 -8 -4 -27 -2 -40 5 -24 3 -25 -41 -26 -139 -4 -126 1
-127 -43 0 -39 0 -39 -45 -40 -43 -1 -44 -2 -47 -38 -2 -29 -8 -37 -25 -40
-47 -7 -29 -124 29 -188 56 -62 90 -73 208 -68 74 4 114 10 149 26 57 26 142
103 168 153 14 28 28 40 61 50 50 16 84 62 58 79 -8 5 -26 10 -40 10 -16 0
-37 14 -61 43 -35 39 -39 41 -54 25 -11 -10 -19 -35 -20 -65 -2 -26 -4 -51 -4
-55 -1 -5 -10 -8 -20 -8 -16 0 -20 8 -23 38 -3 37 -3 37 -45 36 -43 -1 -43 -1
-44 45 -2 119 -1 116 -37 119 -22 2 -34 -2 -38 -13z"/>
<path d="M7872 4408 c-7 -7 -12 -29 -12 -50 0 -37 -1 -38 -36 -38 -75 0 -123
-94 -87 -168 22 -45 53 -62 115 -62 81 0 78 -8 78 171 0 159 0 159 -23 159
-13 0 -28 -5 -35 -12z m-14 -205 c-2 -32 -8 -58 -15 -60 -19 -7 -53 35 -53 65
0 34 16 52 47 52 23 0 24 -3 21 -57z"/>
<path d="M7994 4305 c-11 -28 4 -48 32 -41 33 9 64 -1 64 -20 0 -9 -11 -14
-35 -14 -25 0 -44 -8 -60 -25 -50 -49 -19 -105 63 -113 28 -2 63 -1 77 2 27 7
27 7 23 97 -3 81 -6 93 -27 110 -30 24 -128 27 -137 4z m96 -130 c15 -18 5
-35 -21 -35 -24 0 -37 29 -18 41 19 12 25 11 39 -6z"/>
<path d="M8254 4301 c-42 -25 -59 -76 -45 -129 14 -51 40 -73 95 -79 66 -8 98
3 94 30 -3 19 -9 22 -42 20 -39 -3 -76 11 -76 27 0 6 27 10 59 10 33 0 63 5
66 11 13 20 -6 81 -32 105 -32 29 -76 31 -119 5z m84 -58 c2 -9 -7 -13 -27
-13 -30 0 -39 9 -24 24 11 10 46 3 51 -11z"/>
<path d="M8478 4313 c-14 -3 -17 -21 -20 -105 -2 -55 0 -104 3 -110 4 -5 17
-8 30 -6 23 3 24 7 27 81 2 60 6 79 19 84 26 10 44 -26 43 -87 -2 -83 -3 -82
28 -78 27 3 27 4 30 81 2 60 6 79 19 84 26 10 44 -26 43 -87 -2 -83 -3 -82 28
-78 26 3 27 5 30 77 5 122 -29 166 -111 144 -26 -7 -48 -8 -59 -2 -17 9 -79
10 -110 2z"/>
<path d="M8863 4308 c-13 -6 -32 -31 -44 -55 -21 -43 -21 -45 -4 -89 30 -80
112 -99 171 -40 29 29 34 41 34 81 0 40 -5 52 -34 81 -36 36 -78 44 -123 22z
m86 -75 c18 -40 -3 -85 -38 -81 -17 2 -29 12 -35 30 -22 63 46 111 73 51z"/>
<path d="M9081 4311 c-11 -7 -14 -34 -14 -113 0 -103 0 -103 29 -103 29 0 29
0 34 80 5 77 6 80 30 80 24 0 25 -3 30 -80 5 -80 5 -80 35 -80 29 0 30 1 33
55 7 123 -23 170 -110 170 -29 0 -59 -4 -67 -9z"/>
<path d="M1501 4236 c-31 -37 -3 -116 41 -116 20 0 19 -1 19 65 0 25 0 50 0
55 -1 15 -47 12 -60 -4z"/>
<path d="M1752 4238 c-19 -19 -15 -82 7 -102 15 -14 24 -15 40 -6 16 8 21 20
21 53 0 45 -13 67 -40 67 -9 0 -21 -5 -28 -12z"/>
<path d="M2430 4235 c-18 -21 -4 -34 35 -31 44 4 52 11 35 31 -16 19 -54 19
-70 0z"/>
<path d="M11824 3406 c-3 -8 -4 -29 -2 -48 3 -30 6 -33 33 -30 36 4 55 19 55
42 0 22 -16 35 -53 44 -19 5 -29 2 -33 -8z"/>
<path d="M12460 3331 c-24 -46 -6 -91 37 -91 21 0 23 4 23 55 0 52 -1 55 -25
55 -14 0 -29 -8 -35 -19z"/>
<path d="M8693 3333 c-10 -3 -13 -59 -13 -229 0 -207 1 -224 18 -224 42 -1
288 -1 300 -1 9 1 12 53 12 225 0 195 -2 225 -16 230 -19 7 -283 7 -301 -1z
m245 -141 c9 -7 12 -39 10 -128 -3 -119 -3 -119 -97 -122 -69 -2 -97 1 -103
10 -10 16 -10 139 0 155 4 7 36 13 72 15 61 3 65 5 68 28 4 25 19 50 31 50 3
0 12 -4 19 -8z"/>
<path d="M8804 3066 c-3 -8 -4 -29 -2 -48 3 -31 5 -33 43 -33 40 0 40 0 43 48
3 47 3 47 -38 47 -26 0 -43 -5 -46 -14z"/>
<path d="M7725 3189 c-4 -5 -4 -21 -1 -33 4 -15 0 -28 -9 -36 -19 -16 -19 -34
1 -51 12 -10 15 -27 12 -73 -3 -61 -3 -61 38 -64 51 -4 66 19 29 44 -19 13
-25 25 -25 54 0 32 4 39 26 44 31 8 29 40 -4 44 -18 3 -22 10 -22 43 0 32 -3
39 -19 39 -11 0 -23 -5 -26 -11z"/>
<path d="M8047 3194 c-4 -4 -7 -16 -7 -26 0 -15 6 -19 28 -16 19 2 27 9 27 23
0 20 -33 33 -48 19z"/>
<path d="M7089 3118 c0 -2 -1 -43 -2 -93 -1 -90 -1 -90 94 -90 87 0 94 1 94
20 0 18 -8 21 -70 25 -70 5 -70 5 -73 48 -2 29 1 42 10 43 7 1 40 2 73 3 53 1
60 3 60 21 0 18 -8 20 -92 23 -51 1 -93 1 -94 0z"/>
<path d="M7304 3107 c-3 -8 -4 -49 -2 -93 3 -79 3 -79 93 -79 90 0 90 0 90 90
0 90 0 90 -88 93 -67 2 -89 0 -93 -11z m139 -36 c4 -1 7 -21 7 -47 0 -45 0
-45 -52 -42 -52 3 -53 4 -56 36 -5 55 13 65 101 53z"/>
<path d="M7520 3025 c0 -88 1 -95 20 -95 18 0 20 7 20 69 0 75 7 86 46 77 23
-6 24 -11 24 -76 0 -63 2 -70 19 -70 30 0 34 15 26 106 -7 84 -7 84 -81 84
-74 0 -74 0 -74 -95z"/>
<path d="M7873 3105 c-8 -23 3 -29 55 -30 35 0 47 -4 47 -15 0 -11 -17 -16
-70 -20 -70 -5 -70 -5 -67 -50 2 -25 7 -49 11 -53 5 -4 43 -7 87 -5 79 3 79 3
82 96 3 92 3 92 -68 92 -54 0 -72 -4 -77 -15z m107 -115 c0 -5 -22 -10 -50
-10 -27 0 -50 5 -50 10 0 6 23 10 50 10 28 0 50 -4 50 -10z"/>
<path d="M8048 3042 c-4 -98 -1 -114 20 -110 14 3 17 17 17 93 0 76 -3 90 -17
93 -14 3 -17 -8 -20 -76z"/>
<path d="M8115 3098 c-3 -13 -5 -55 -3 -93 3 -62 5 -70 23 -70 18 0 20 7 20
64 0 50 4 66 18 75 12 8 22 8 35 0 13 -9 17 -25 17 -75 0 -57 2 -64 20 -64 19
0 20 7 20 90 0 90 0 90 -72 93 -68 3 -73 2 -78 -20z"/>
<path d="M8296 3104 c-3 -9 -6 -44 -6 -79 0 -95 0 -95 85 -95 41 0 77 5 80 10
13 22 -17 40 -66 40 -27 0 -49 5 -49 10 0 6 26 10 58 10 64 0 82 11 82 50 0
67 -5 70 -95 70 -66 0 -84 -3 -89 -16z m123 -33 c22 -14 3 -31 -34 -31 -35 0
-51 12 -40 30 8 12 55 13 74 1z"/>
<path d="M8498 3045 c-1 -41 -2 -83 -2 -92 -1 -11 8 -19 22 -21 21 -3 22 0 22
67 0 50 4 71 13 72 6 1 30 2 52 3 33 1 41 5 43 24 3 21 0 22 -72 22 -76 0 -76
0 -78 -75z"/>
<path d="M11812 3031 c-20 -12 -10 -46 12 -46 27 0 46 33 26 45 -18 12 -21 12
-38 1z"/>
<path d="M11783 2903 c-3 -10 -8 -21 -10 -25 -7 -13 29 -38 57 -38 41 0 46 17
14 51 -32 33 -52 37 -61 12z"/>
<path d="M12197 2952 c-22 -25 -21 -75 1 -95 25 -23 38 -21 56 5 22 31 20 64
-4 88 -25 25 -32 25 -53 2z"/>
<path d="M12872 2958 c-24 -24 -13 -38 27 -38 44 0 59 13 41 35 -15 18 -52 19
-68 3z"/>
<path d="M7575 2080 c-6 -18 -15 -20 -80 -20 -65 0 -74 -2 -80 -20 -11 -36 9
-46 92 -48 83 -3 104 -12 83 -37 -9 -10 -31 -15 -72 -15 -59 0 -59 0 -56 -27
3 -26 7 -28 53 -33 42 -4 50 -8 50 -25 0 -18 -8 -20 -62 -23 -63 -3 -79 -15
-67 -47 5 -11 22 -15 65 -15 47 0 61 -4 72 -20 14 -20 23 -20 208 -18 194 3
194 3 194 183 0 180 0 180 -197 183 -190 2 -197 2 -203 -18z m339 -66 c9 -23
7 -197 -2 -212 -7 -9 -42 -12 -143 -10 -134 3 -134 3 -137 107 -1 58 0 111 2
118 4 10 38 13 140 13 113 0 135 -2 140 -16z"/>
<path d="M7806 1997 c-14 -10 -16 -26 -14 -92 3 -80 3 -80 51 -83 42 -3 48 -1
45 15 -2 10 -10 19 -18 19 -8 1 -21 2 -27 3 -9 1 -13 19 -13 56 0 54 0 55 30
55 19 0 30 5 30 14 0 26 -54 35 -84 13z"/>
<path d="M7667 1993 c-11 -10 -8 -161 3 -168 6 -3 10 5 10 19 0 37 17 41 35 6
8 -16 20 -30 25 -30 19 0 19 19 -1 44 -21 27 -18 46 7 46 10 0 14 12 14 45 0
45 0 45 -43 45 -24 0 -47 -3 -50 -7z m62 -22 c19 -12 6 -41 -19 -41 -25 0 -38
29 -19 41 8 5 16 9 19 9 3 0 11 -4 19 -9z"/>
<path d="M8034 2002 c-7 -4 -11 -42 -10 -97 1 -73 4 -90 16 -90 10 0 17 13 20
40 3 26 11 41 21 43 21 4 49 -24 49 -47 0 -27 28 -47 43 -32 9 9 7 19 -7 45
-14 26 -16 38 -7 54 17 32 13 59 -11 76 -23 16 -94 21 -114 8z m102 -44 c9
-15 -25 -40 -51 -36 -12 2 -21 12 -23 26 -3 19 1 22 32 22 19 0 38 -5 42 -12z"/>
<path d="M8198 2000 c-6 -19 7 -145 18 -163 17 -29 81 -27 106 3 15 19 18 36
16 94 -2 55 -6 71 -18 71 -12 0 -15 -14 -15 -65 0 -72 -7 -90 -34 -90 -30 0
-43 26 -41 82 1 29 1 59 1 66 -1 14 -28 16 -33 2z"/>
<path d="M8376 2002 c-8 -13 -9 -169 -2 -181 6 -8 11 -9 20 -1 9 7 11 27 8 60
-2 28 -1 50 4 50 5 0 23 -24 39 -53 48 -82 63 -76 67 28 3 94 -1 111 -26 102
-12 -5 -14 -16 -9 -57 8 -65 -7 -65 -44 0 -27 48 -48 67 -57 52z"/>
<path d="M8566 1989 c-22 -17 -26 -28 -26 -74 0 -68 23 -99 73 -99 40 0 77 27
77 56 0 24 -22 23 -45 -2 -22 -24 -38 -25 -59 -4 -19 18 -21 75 -4 92 19 19
54 14 70 -10 16 -24 38 -17 38 11 0 23 -41 51 -73 51 -14 0 -36 -9 -51 -21z"/>
<path d="M9875 697 c-20 -16 -15 -44 11 -54 23 -9 51 23 38 44 -14 23 -27 26
-49 10z"/>
<path d="M11385 696 c-20 -15 -15 -43 10 -52 18 -7 45 12 45 32 0 22 -35 35
-55 20z"/>
<path d="M12082 698 c-52 -66 -64 -199 -24 -275 26 -49 38 -59 57 -43 11 9 10
19 -8 58 -28 64 -28 143 0 201 17 33 20 48 11 58 -13 16 -23 16 -36 1z"/>
<path d="M12300 695 c-10 -12 -10 -19 2 -37 8 -13 20 -44 27 -70 12 -52 2
-122 -26 -167 -13 -21 -13 -25 1 -39 21 -21 40 -4 63 56 26 68 23 157 -8 218
-27 53 -40 62 -59 39z"/>
<path d="M9034 667 c-2 -7 -3 -62 -2 -123 3 -109 3 -109 28 -109 22 0 25 5 28
43 4 54 24 55 54 2 23 -41 61 -61 79 -43 7 7 2 23 -15 48 -29 42 -31 51 -15
60 19 12 29 54 19 80 -5 13 -23 31 -39 40 -37 19 -130 20 -137 2z m116 -52
c17 -20 -3 -45 -36 -45 -18 0 -24 5 -24 23 0 13 3 27 7 30 11 12 40 8 53 -8z"/>
<path d="M11058 673 c-16 -4 -18 -18 -18 -102 0 -118 8 -134 71 -135 38 -1 44
2 44 19 0 12 -8 21 -20 23 -26 5 -45 30 -45 58 0 26 13 36 44 38 14 1 22 9 24
24 3 19 -1 22 -26 22 -24 0 -32 6 -41 30 -5 17 -11 29 -13 29 -2 -1 -11 -3
-20 -6z"/>
<path d="M9267 623 c-4 -3 -7 -39 -7 -79 0 -66 2 -74 26 -93 29 -23 68 -27
108 -11 25 9 26 13 26 94 0 71 -3 84 -17 88 -36 9 -43 -2 -43 -67 0 -66 -11
-85 -35 -65 -10 8 -15 32 -15 70 0 44 -4 59 -16 64 -19 7 -19 7 -27 -1z"/>
<path d="M9464 607 c-3 -8 -4 -49 -2 -93 3 -77 4 -79 28 -79 24 0 25 3 28 65
3 71 9 84 32 70 11 -7 15 -27 15 -70 0 -48 3 -61 17 -66 31 -9 38 5 38 77 0
90 -16 109 -95 109 -37 0 -57 -4 -61 -13z"/>
<path d="M9664 607 c-3 -8 -4 -49 -2 -93 3 -77 4 -79 28 -79 24 0 25 3 28 65
3 71 13 90 36 71 10 -8 16 -35 18 -74 3 -56 5 -62 26 -65 25 -4 24 -5 22 88
-2 86 -15 100 -92 100 -40 0 -60 -4 -64 -13z"/>
<path d="M9874 607 c-3 -8 -4 -49 -2 -93 3 -73 5 -79 26 -82 21 -3 22 -1 22
92 0 90 -1 96 -20 96 -11 0 -23 -6 -26 -13z"/>
<path d="M9972 528 c3 -88 4 -93 26 -96 21 -3 22 0 22 66 0 51 4 71 14 75 23
9 35 -15 38 -78 3 -56 4 -60 28 -60 24 0 25 2 24 72 0 96 -15 113 -96 113 -59
0 -59 0 -56 -92z"/>
<path d="M10191 594 c-46 -58 -16 -144 50 -144 47 0 30 -24 -22 -30 -36 -4
-44 -9 -44 -25 0 -18 7 -20 59 -20 85 1 96 18 96 146 0 99 0 99 -59 99 -52 0
-62 -3 -80 -26z m87 -48 c5 -37 -14 -59 -39 -45 -23 12 -25 42 -3 64 22 22 38
14 42 -19z"/>
<path d="M10481 596 c-17 -18 -23 -36 -23 -71 0 -64 24 -88 89 -89 42 -1 48 2
51 22 3 19 -1 22 -30 22 -39 0 -58 15 -58 45 0 30 16 49 42 50 31 2 48 13 48
31 0 10 -13 14 -48 14 -38 0 -53 -5 -71 -24z"/>
<path d="M10645 594 c-48 -52 -22 -144 43 -159 90 -19 145 92 80 162 -31 33
-91 32 -123 -3z m95 -62 c0 -52 -42 -70 -62 -27 -9 19 -8 29 6 50 14 21 20 24
36 15 13 -7 20 -21 20 -38z"/>
<path d="M10838 534 c-3 -95 0 -108 28 -102 16 3 19 14 22 70 2 45 7 68 17 72
22 8 34 -16 37 -79 3 -56 4 -60 28 -60 24 0 25 2 25 65 0 46 -5 74 -18 93 -16
24 -23 27 -76 27 -60 0 -60 0 -63 -86z"/>
<path d="M11190 601 c0 -16 8 -20 37 -23 38 -3 60 -28 24 -28 -11 0 -32 -5
-46 -12 -19 -9 -25 -19 -25 -44 0 -41 30 -64 81 -64 66 0 69 4 69 85 0 89 -13
105 -88 105 -45 0 -52 -3 -52 -19z m90 -106 c0 -16 -35 -21 -44 -6 -8 12 4 21
26 21 10 0 18 -7 18 -15z"/>
<path d="M11382 528 c3 -85 5 -93 23 -93 18 0 20 8 23 93 3 92 3 92 -23 92
-26 0 -26 0 -23 -92z"/>
<path d="M11480 525 c0 -87 2 -95 19 -95 28 0 35 16 32 75 -2 35 2 55 12 63
23 19 35 -5 39 -73 3 -56 4 -60 28 -60 24 0 25 2 25 71 0 96 -15 114 -97 114
-58 0 -58 0 -58 -95z"/>
<path d="M11700 595 c-16 -17 -23 -36 -23 -63 0 -70 34 -102 106 -102 73 1 77
47 5 52 -58 4 -55 22 5 26 46 3 47 4 47 38 0 46 -29 74 -78 74 -28 0 -45 -7
-62 -25z m78 -33 c2 -7 -6 -12 -17 -12 -21 0 -27 11 -14 24 9 9 26 2 31 -12z"/>
<path d="M11891 606 c-8 -9 -11 -43 -9 -93 3 -76 4 -78 28 -78 24 0 25 3 30
70 5 67 6 70 30 70 18 0 26 6 28 23 3 20 -1 22 -46 22 -30 0 -54 -5 -61 -14z"/>
<path d="M12157 602 c-28 -30 -21 -60 18 -83 45 -27 44 -39 -1 -39 -31 0 -35
-3 -32 -22 3 -21 8 -23 57 -23 41 1 57 5 68 20 21 30 12 57 -29 84 -42 27 -41
41 3 41 22 0 29 5 29 20 0 17 -7 20 -48 20 -35 0 -54 -5 -65 -18z"/>
</g>
</svg>
