<?xml version="1.0" standalone="no"?>
<!DOCTYPE svg PUBLIC "-//W3C//DTD SVG 20010904//EN"
 "http://www.w3.org/TR/2001/REC-SVG-20010904/DTD/svg10.dtd">
<svg version="1.0" xmlns="http://www.w3.org/2000/svg"
 width="1656.000000pt" height="950.000000pt" viewBox="0 0 1656.000000 950.000000"
 preserveAspectRatio="xMidYMid meet">
<metadata>
Created by potrace 1.16, written by Peter Selinger 2001-2019
</metadata>
<g transform="translate(0.000000,950.000000) scale(0.100000,-0.100000)"
fill="#000000" stroke="none">
<path d="M5184 9176 c-34 -34 -34 -34 -34 -364 0 -331 0 -331 23 -358 16 -19
38 -29 73 -35 27 -4 435 -8 907 -8 471 -1 857 -4 857 -8 0 -5 -16 -37 -35 -73
-43 -79 -44 -90 -5 -90 30 0 30 0 28 -322 -3 -323 -3 -323 -30 -320 -16 1 -28
-2 -28 -7 0 -5 18 -43 40 -84 22 -40 37 -77 33 -80 -3 -4 -409 -7 -902 -7
-834 0 -897 -2 -917 -18 -42 -34 -44 -49 -44 -372 0 -330 3 -355 49 -380 13
-7 317 -10 906 -10 769 0 886 -2 891 -15 3 -8 -8 -40 -25 -71 -17 -32 -31 -61
-31 -66 0 -4 14 -8 30 -8 30 0 30 0 30 -155 0 -155 0 -155 -30 -155 -16 0 -30
-4 -30 -8 0 -4 16 -37 35 -72 19 -36 35 -71 35 -77 0 -10 -183 -13 -880 -13
-948 0 -927 1 -964 -51 -14 -21 -16 -64 -16 -345 0 -313 1 -322 21 -348 12
-15 33 -32 46 -37 14 -5 391 -9 909 -9 696 0 884 -3 884 -13 0 -6 -16 -41 -35
-77 -19 -35 -35 -67 -35 -71 0 -4 12 -9 28 -11 27 -3 27 -3 27 -388 0 -385 0
-385 -24 -385 -36 -1 -35 -15 4 -84 19 -35 35 -69 35 -77 0 -12 -48 -14 -294
-14 -163 0 -306 -4 -320 -10 -14 -5 -33 -21 -43 -37 -16 -25 -18 -56 -18 -350
0 -425 -37 -386 372 -393 306 -5 306 -5 307 -65 1 -46 4 -60 16 -60 12 0 15
13 15 60 0 60 0 60 291 65 274 5 293 6 314 25 47 41 50 66 50 367 0 168 -4
298 -11 321 -7 26 -21 44 -42 57 -30 19 -52 20 -314 20 -170 0 -284 4 -288 10
-6 10 25 77 56 122 25 35 24 36 -13 40 -33 3 -33 3 -33 388 0 385 0 385 33
388 37 4 38 5 13 40 -31 45 -62 112 -56 122 4 6 324 10 866 10 954 0 906 -3
935 65 22 53 20 613 -2 660 -32 68 12 65 -943 65 -506 0 -861 4 -861 9 0 5 16
38 36 72 19 35 36 68 37 73 1 6 -11 12 -28 16 -30 5 -30 5 -30 155 0 150 0
150 33 153 17 2 32 6 32 9 0 3 -16 32 -36 65 -20 32 -33 65 -30 73 5 13 120
15 868 15 958 0 895 -5 924 66 21 50 20 613 -1 654 -33 64 26 60 -927 60 -581
0 -869 3 -873 10 -4 6 12 44 34 85 38 70 40 91 9 80 -37 -13 -38 2 -36 326 3
314 3 314 36 317 17 2 32 7 32 11 0 4 -16 36 -35 71 -19 36 -35 70 -35 77 0
10 198 13 888 15 840 3 889 4 916 21 55 36 58 60 54 396 -2 225 -6 312 -16
328 -32 56 84 53 -1873 53 -1801 0 -1801 0 -1835 -34z m564 -189 c7 -15 21
-27 31 -27 28 0 42 -20 30 -42 -9 -17 -18 -19 -57 -13 -52 7 -87 -9 -77 -36 3
-9 30 -26 60 -38 65 -27 95 -61 95 -108 0 -36 -36 -83 -63 -83 -8 0 -17 -13
-20 -30 -5 -24 -12 -30 -32 -30 -20 0 -27 6 -31 29 -5 24 -12 30 -37 33 -36 4
-56 30 -39 51 10 11 21 12 56 4 106 -24 132 28 36 75 -63 30 -100 69 -100 103
0 27 45 85 66 85 8 0 14 8 14 18 0 23 20 43 40 40 8 -2 21 -16 28 -31z m502
-157 c0 -132 -3 -180 -13 -188 -24 -20 -110 -25 -150 -9 -69 29 -97 120 -62
203 18 43 69 68 121 58 34 -6 34 -6 34 50 0 50 3 58 23 65 45 17 47 10 47
-179z m708 76 c-4 -116 4 -124 51 -58 26 36 36 42 66 42 46 0 45 -16 -5 -65
-22 -21 -40 -43 -40 -47 0 -5 20 -33 45 -64 55 -67 57 -84 11 -84 -29 0 -37 6
-70 56 -20 30 -42 54 -49 51 -7 -2 -12 -24 -12 -53 0 -48 -1 -49 -32 -52 -33
-3 -33 -3 -33 183 0 183 0 186 23 194 44 17 49 6 45 -103z m1086 61 c13 -10
16 -20 11 -36 -6 -20 -11 -21 -64 -15 -52 6 -60 4 -89 -21 -37 -31 -50 -80
-33 -135 16 -54 49 -73 125 -68 60 3 61 2 64 -24 3 -24 -1 -28 -40 -38 -51
-14 -120 -7 -161 18 -96 56 -93 248 5 311 39 25 152 30 182 8z m156 -132 c5
-140 5 -140 80 -145 72 -5 75 -6 75 -30 0 -25 0 -25 -110 -25 -110 0 -110 0
-113 160 -1 87 0 165 3 173 3 8 16 12 32 10 28 -3 28 -3 33 -143z m279 131 c8
-9 11 -64 9 -172 -3 -159 -3 -159 -32 -162 -16 -2 -32 2 -37 10 -12 19 -11
296 1 319 12 22 43 25 59 5z m-1980 -84 c19 -10 43 -34 53 -53 36 -68 12 -156
-53 -191 -43 -23 -76 -23 -116 2 -46 28 -67 65 -67 120 0 55 21 92 67 120 40
25 73 25 116 2z m302 8 c18 -10 27 -49 12 -51 -5 0 -25 -1 -45 -3 -54 -4 -68
-20 -68 -76 0 -57 16 -74 73 -75 44 -1 71 -25 50 -46 -19 -19 -86 -22 -125 -6
-46 19 -67 51 -74 113 -5 41 -2 55 18 84 38 57 112 85 159 60z m549 -18 c25
-19 52 -94 42 -119 -3 -9 -30 -13 -88 -13 -46 0 -84 -3 -84 -7 1 -33 52 -56
105 -49 45 7 61 -6 49 -39 -9 -21 -86 -29 -135 -14 -53 18 -78 51 -85 114 -13
119 104 195 196 127z m248 22 c24 -7 32 -53 10 -55 -7 0 -26 -2 -43 -2 -30 -2
-30 -2 -35 -102 -5 -100 -5 -100 -35 -100 -30 0 -30 0 -33 114 -3 125 2 138
51 144 56 7 62 7 85 1z m1192 -1534 c19 -19 20 -33 20 -329 0 -310 0 -310 -26
-330 -27 -21 -27 -21 -1784 -21 -1716 0 -1758 0 -1781 19 -24 19 -24 19 -24
331 0 312 0 312 24 331 23 19 65 19 1787 19 1751 0 1764 0 1784 -20z m0 -1430
c19 -19 20 -33 20 -323 0 -258 -2 -306 -16 -325 -15 -22 -15 -22 -1788 -22
-1515 0 -1775 2 -1792 14 -18 14 -19 29 -19 324 0 291 1 311 19 331 19 21 19
21 1788 21 1755 0 1768 0 1788 -20z m-1159 -1909 c18 -22 19 -43 19 -327 0
-291 -1 -305 -20 -324 -20 -20 -33 -20 -615 -20 -582 0 -595 0 -615 20 -19 19
-20 33 -20 323 0 326 2 340 53 350 12 3 282 4 600 3 579 -1 579 -1 598 -25z"/>
<path d="M6100 8820 c-44 -44 -5 -146 53 -138 20 3 22 9 25 72 3 72 -4 86 -40
86 -10 0 -27 -9 -38 -20z"/>
<path d="M6410 8820 c-39 -39 -15 -140 33 -140 26 0 52 40 52 80 0 40 -26 80
-52 80 -7 0 -22 -9 -33 -20z"/>
<path d="M7236 8821 c-26 -28 -12 -40 41 -38 50 2 63 16 38 41 -22 22 -58 20
-79 -3z"/>
<path d="M5922 7288 c3 -52 3 -52 -105 -50 -109 2 -109 2 -105 -50 3 -53 3
-53 -55 -50 -59 4 -59 4 -56 -45 3 -48 3 -48 -29 -51 -43 -4 -50 -34 -27 -118
23 -87 61 -136 130 -169 112 -55 291 -41 411 31 78 47 104 73 148 148 33 56
42 64 73 69 40 7 93 51 93 79 0 21 -29 38 -66 38 -21 0 -39 12 -69 47 -29 32
-46 45 -58 40 -21 -8 -38 -72 -31 -119 6 -34 4 -38 -20 -44 -36 -9 -40 -2 -37
52 3 46 3 46 -56 42 -53 -3 -58 -1 -55 17 2 11 3 27 3 35 -1 8 -1 45 -1 83 0
67 0 67 -46 67 -46 0 -46 0 -42 -52z m-102 -136 c0 -13 -12 -22 -22 -16 -10 6
-1 24 13 24 5 0 9 -4 9 -8z m102 -7 c0 -5 -5 -11 -11 -13 -6 -2 -11 4 -11 13
0 9 5 15 11 13 6 -2 11 -8 11 -13z"/>
<path d="M6822 7247 c-6 -7 -12 -37 -14 -67 -3 -55 -3 -55 -45 -52 -80 6 -133
-50 -133 -141 0 -92 70 -146 174 -133 55 7 55 7 58 197 2 104 2 194 0 199 -5
14 -28 12 -40 -3z m-24 -176 c9 -5 12 -30 10 -87 -3 -74 -4 -79 -27 -82 -40
-6 -70 7 -86 38 -34 65 -3 140 58 140 18 0 38 -4 45 -9z"/>
<path d="M6957 7123 c-4 -3 -7 -15 -7 -25 0 -15 7 -18 51 -16 41 2 54 -2 65
-17 21 -29 12 -39 -38 -45 -89 -11 -127 -61 -91 -122 23 -39 75 -54 147 -44
46 7 46 7 46 112 0 103 -1 106 -29 135 -25 25 -37 29 -84 29 -29 0 -57 -3 -60
-7z m118 -183 c0 -35 0 -35 -45 -35 -40 0 -45 3 -48 24 -5 32 23 53 63 49 27
-3 30 -6 30 -38z"/>
<path d="M7261 7117 c-45 -23 -66 -63 -65 -125 1 -96 49 -142 147 -142 47 0
74 19 64 44 -5 11 -18 13 -60 9 -47 -5 -57 -3 -76 16 -41 41 -25 56 61 57 42
1 80 4 86 8 9 6 2 63 -13 99 -17 40 -96 59 -144 34z m99 -57 c6 -11 8 -25 5
-30 -9 -15 -115 -13 -115 2 0 44 89 67 110 28z"/>
<path d="M7513 7123 c-21 -4 -22 -10 -25 -130 -3 -128 3 -152 37 -140 11 5 15
30 17 114 3 108 3 108 37 111 18 2 39 -2 45 -8 6 -6 13 -57 16 -113 5 -100 5
-102 30 -102 24 0 24 0 25 110 0 110 0 110 36 113 53 4 63 -14 69 -127 5 -88
7 -96 25 -96 19 0 20 7 20 113 0 113 0 114 -29 139 -26 22 -35 24 -80 18 -55
-7 -63 -7 -146 -1 -30 2 -65 2 -77 -1z"/>
<path d="M7974 7111 c-40 -25 -69 -95 -60 -146 10 -49 59 -103 103 -111 74
-14 143 50 143 134 0 111 -99 176 -186 123z m112 -52 c13 -15 19 -36 19 -69 0
-56 -24 -90 -64 -90 -47 0 -71 34 -71 99 0 72 72 109 116 60z"/>
<path d="M8250 7121 c-25 -7 -25 -7 -25 -136 0 -130 0 -130 25 -130 25 0 25 0
28 113 3 112 3 112 41 112 56 0 65 -17 71 -129 5 -90 6 -96 28 -99 22 -3 22
-1 22 97 0 111 -11 146 -51 167 -29 15 -96 17 -139 5z"/>
<path d="M7827 5883 c-4 -3 -7 -132 -7 -285 0 -278 0 -278 200 -278 200 0 200
0 200 285 0 285 0 285 -193 285 -107 0 -197 -3 -200 -7z m318 -328 c0 -160 0
-160 -120 -160 -120 0 -120 0 -120 115 0 115 0 115 85 120 85 5 85 5 88 35 5
49 10 57 39 53 28 -3 28 -3 28 -163z"/>
<path d="M7983 5573 c-8 -3 -13 -26 -13 -63 0 -61 7 -70 55 -70 48 0 55 9 55
70 0 51 -2 58 -22 64 -27 7 -58 7 -75 -1z"/>
<path d="M6655 5710 c-3 -5 -3 -19 0 -30 9 -27 -3 -60 -21 -60 -21 0 -17 -33
7 -53 18 -16 20 -27 18 -100 -4 -82 -4 -82 46 -82 44 0 50 3 53 22 3 17 -3 26
-23 33 -24 9 -26 13 -23 67 3 52 5 58 28 63 16 4 25 13 25 25 0 12 -9 21 -25
25 -21 5 -26 13 -30 50 -4 37 -9 46 -27 48 -11 2 -24 -2 -28 -8z"/>
<path d="M7044 5705 c-10 -25 4 -45 31 -45 21 0 25 5 25 30 0 25 -4 30 -25 30
-14 0 -28 -7 -31 -15z"/>
<path d="M5876 5503 c1 -118 1 -118 115 -118 114 0 114 0 114 25 0 24 -2 25
-85 30 -85 5 -85 5 -85 65 0 60 0 60 85 65 79 5 85 7 88 28 3 22 2 22 -115 22
-118 0 -118 0 -117 -117z"/>
<path d="M6140 5500 c0 -121 0 -121 113 -118 112 3 112 3 115 121 3 117 3 117
-113 117 -115 0 -115 0 -115 -120z m175 5 c0 -60 0 -60 -60 -60 -60 0 -60 0
-63 49 -5 73 -1 77 65 74 58 -3 58 -3 58 -63z"/>
<path d="M6400 5499 c0 -119 0 -120 23 -117 20 3 22 9 27 93 5 90 5 90 45 90
40 0 40 0 43 -92 3 -91 3 -93 27 -93 25 0 25 0 25 120 0 120 0 120 -95 120
-95 0 -95 0 -95 -121z"/>
<path d="M6833 5604 c-9 -24 7 -33 72 -36 45 -2 60 -7 60 -18 0 -12 -19 -16
-90 -20 -90 -5 -90 -5 -87 -70 2 -36 7 -69 11 -73 4 -4 55 -6 112 -5 104 3
104 3 107 121 3 117 3 117 -88 117 -73 0 -92 -3 -97 -16z m132 -144 c0 -11
-14 -16 -54 -18 -55 -3 -79 7 -66 28 11 18 120 9 120 -10z"/>
<path d="M7050 5500 c0 -120 0 -121 23 -118 21 3 22 6 22 118 0 112 -1 115
-22 118 -23 3 -23 2 -23 -118z"/>
<path d="M7130 5500 c0 -120 0 -120 25 -120 24 0 24 2 27 93 3 92 3 92 40 95
45 4 51 -11 46 -112 -3 -70 -3 -71 22 -71 25 0 25 0 28 118 3 117 3 117 -93
117 -95 0 -95 0 -95 -120z"/>
<path d="M7350 5500 c0 -120 0 -120 94 -120 87 0 95 2 101 21 10 31 -3 38 -75
41 -50 2 -65 7 -65 18 0 12 18 16 80 20 80 5 80 5 80 70 0 65 0 65 -107 68
-108 3 -108 3 -108 -118z m158 53 c-2 -13 -15 -19 -47 -21 -24 -2 -48 1 -53 6
-19 19 3 32 53 32 43 0 50 -3 47 -17z"/>
<path d="M7594 5607 c-2 -7 -3 -60 -2 -118 3 -104 3 -104 28 -104 25 0 25 1
22 80 -1 44 1 85 5 92 5 7 38 13 73 15 59 3 65 5 68 26 3 21 1 22 -93 22 -70
0 -97 -4 -101 -13z"/>
<path d="M6747 3893 c-11 -10 -8 -391 2 -397 5 -4 16 -3 25 0 13 5 16 24 16
110 0 93 2 104 20 114 25 14 68 3 80 -20 6 -10 10 -59 10 -109 0 -92 5 -103
43 -93 14 4 17 16 17 76 -1 146 -31 196 -121 196 -49 0 -49 0 -49 65 0 56 -2
65 -18 65 -10 0 -22 -3 -25 -7z"/>
<path d="M7032 3871 c-18 -11 -12 -41 10 -55 14 -8 22 -7 35 7 29 29 -10 71
-45 48z"/>
<path d="M6527 3750 c-26 -21 -34 -51 -21 -85 4 -9 28 -27 53 -40 62 -31 78
-50 60 -71 -9 -12 -27 -15 -68 -12 -50 3 -56 1 -56 -17 0 -37 125 -40 164 -4
42 40 22 101 -44 130 -23 10 -48 26 -56 35 -20 24 15 46 66 42 34 -3 40 0 40
17 0 17 -8 20 -56 23 -44 2 -61 -1 -82 -18z"/>
<path d="M7030 3637 c0 -104 3 -136 13 -140 33 -12 38 8 35 139 -3 125 -4 129
-25 132 -23 3 -23 3 -23 -131z"/>
<path d="M7173 3764 c-15 -7 -19 -259 -4 -268 5 -4 16 -3 25 0 13 5 16 25 16
114 0 89 3 109 16 114 27 10 43 7 64 -14 17 -17 20 -33 20 -109 0 -68 4 -92
15 -101 29 -24 38 4 39 112 1 100 1 102 26 108 64 16 80 -12 80 -135 0 -68 3
-84 17 -89 29 -12 35 10 31 119 -3 104 -4 107 -32 132 -26 22 -35 24 -80 19
-58 -8 -56 -8 -151 -1 -38 2 -76 2 -82 -1z"/>
<path d="M13131 9000 c-8 -5 -14 -28 -15 -56 -1 -49 -1 -49 -41 -49 -55 0 -92
-26 -105 -74 -28 -104 45 -177 155 -157 35 7 35 7 35 171 0 90 -4 166 -8 169
-4 2 -14 1 -21 -4z m-19 -164 c12 -18 9 -111 -4 -124 -32 -32 -98 13 -98 68 0
42 41 84 73 74 12 -4 25 -12 29 -18z"/>
<path d="M13582 9002 c-6 -4 -24 -34 -39 -67 -39 -85 -39 -195 -1 -278 28 -59
51 -78 70 -59 9 9 7 16 -5 30 -31 34 -48 93 -49 169 0 60 5 84 26 127 14 29
26 58 26 64 0 15 -14 22 -28 14z"/>
<path d="M14205 8990 c-3 -5 6 -30 20 -54 47 -80 46 -212 -1 -282 -14 -20 -23
-43 -20 -50 11 -28 36 -13 63 39 25 47 28 62 28 152 0 90 -3 105 -28 153 -26
49 -48 64 -62 42z"/>
<path d="M11354 8960 c-35 -14 -72 -68 -79 -113 -19 -125 66 -206 190 -183 30
6 36 11 33 29 -3 22 -9 23 -61 11 -86 -20 -148 87 -102 177 20 38 57 52 117
44 43 -6 48 -5 48 13 0 11 -7 23 -16 26 -22 9 -105 6 -130 -4z"/>
<path d="M13698 8953 c-14 -9 -36 -34 -48 -56 -19 -32 -22 -50 -17 -97 8 -97
53 -140 145 -140 56 0 89 19 79 45 -5 12 -12 15 -25 9 -9 -5 -37 -8 -61 -8
-62 0 -91 35 -91 110 0 48 4 59 30 86 29 28 34 30 84 24 38 -5 56 -4 62 5 22
36 -106 54 -158 22z"/>
<path d="M13902 8820 c3 -152 3 -152 91 -155 86 -3 87 -3 87 20 0 23 -4 24
-67 27 -68 3 -68 3 -69 128 0 121 -1 125 -22 128 -23 3 -23 3 -20 -148z"/>
<path d="M14120 8820 c0 -127 2 -152 15 -157 9 -3 18 -3 21 0 5 4 7 212 4 300
0 4 -9 7 -20 7 -19 0 -20 -7 -20 -150z"/>
<path d="M11583 8884 c-22 -11 -37 -30 -49 -60 -16 -41 -16 -47 1 -89 29 -77
100 -97 157 -46 30 27 33 34 33 90 0 51 -4 64 -25 86 -33 32 -77 40 -117 19z
m78 -43 c45 -36 21 -141 -32 -141 -25 0 -59 47 -59 82 0 28 38 78 58 78 6 0
20 -9 33 -19z"/>
<path d="M11820 8892 c-35 -7 -35 -7 -35 -117 0 -103 1 -110 20 -110 18 0 20
8 23 90 3 85 10 105 37 105 31 0 40 -22 45 -107 5 -80 7 -88 25 -88 18 0 20 8
23 93 1 50 7 92 12 92 4 0 14 2 22 5 31 12 43 -13 48 -102 5 -80 7 -88 25 -88
19 0 20 6 19 94 -1 90 -2 95 -29 118 -22 20 -35 23 -59 18 -38 -8 -82 -9 -116
-2 -14 3 -41 2 -60 -1z"/>
<path d="M12185 8891 c-30 -6 -30 -6 -35 -106 -6 -115 -5 -125 21 -125 21 0
21 -2 19 98 -2 98 24 128 70 82 17 -17 20 -33 20 -100 0 -73 2 -80 20 -80 19
0 20 7 20 90 0 78 2 91 19 100 48 25 71 -12 71 -114 0 -69 2 -76 20 -76 23 0
23 0 20 99 -2 94 -10 115 -50 131 -25 10 -38 10 -68 1 -27 -9 -45 -10 -65 -2
-30 12 -36 12 -82 2z"/>
<path d="M12521 8887 c-20 -25 -4 -39 39 -32 37 6 70 -11 70 -36 0 -10 1 -10
-54 -15 -50 -4 -76 -28 -76 -70 0 -47 38 -74 105 -74 30 0 56 5 62 13 15 21 1
184 -19 203 -23 24 -110 31 -127 11z m104 -152 c0 -25 -4 -30 -28 -33 -27 -3
-57 12 -57 29 0 18 34 40 59 37 22 -2 26 -8 26 -33z"/>
<path d="M12770 8891 c-35 -6 -35 -6 -35 -116 0 -103 1 -110 20 -110 18 0 20
8 23 90 3 104 19 126 68 91 15 -12 20 -30 24 -98 5 -75 7 -83 25 -83 19 0 20
6 17 85 -3 95 -13 123 -49 139 -25 12 -37 12 -93 2z"/>
<path d="M13253 8890 c-29 -12 -46 -46 -38 -77 4 -17 20 -31 51 -44 77 -35 68
-75 -14 -64 -41 6 -43 5 -40 -17 3 -20 9 -23 51 -26 65 -4 97 16 97 62 0 36
-19 58 -63 75 -57 22 -42 66 19 55 36 -7 52 9 34 31 -14 16 -63 19 -97 5z"/>
<path d="M9511 8823 c-26 -20 5 -34 69 -31 42 2 56 7 58 20 3 13 -7 17 -54 20
-35 2 -63 -2 -73 -9z"/>
<path d="M9938 8829 c-6 -4 -8 -14 -5 -22 8 -21 132 -19 132 3 0 11 -15 16
-58 20 -32 3 -63 2 -69 -1z"/>
<path d="M10358 8829 c-6 -4 -8 -14 -5 -23 9 -23 132 -19 132 4 0 11 -15 16
-58 20 -32 3 -63 2 -69 -1z"/>
<path d="M10993 8824 c-25 -18 6 -32 67 -30 42 1 55 5 58 18 3 13 -7 17 -54
20 -31 1 -64 -2 -71 -8z"/>
<path d="M9082 8813 c3 -15 14 -18 68 -18 54 0 65 3 68 18 3 15 -5 17 -68 17
-63 0 -71 -2 -68 -17z"/>
<path d="M9295 8820 c-13 -21 9 -30 68 -28 50 2 62 6 65 21 3 15 -5 17 -62 17
-36 0 -68 -4 -71 -10z"/>
<path d="M9714 8819 c-11 -18 17 -28 76 -26 43 2 55 6 58 20 3 15 -5 17 -62
17 -37 0 -68 -5 -72 -11z"/>
<path d="M10142 8813 c2 -14 15 -19 58 -21 30 -1 61 2 69 7 27 18 -1 31 -65
31 -57 0 -65 -2 -62 -17z"/>
<path d="M10562 8813 c3 -15 14 -18 68 -18 54 0 65 3 68 18 3 15 -5 17 -68 17
-63 0 -71 -2 -68 -17z"/>
<path d="M10774 8819 c-12 -20 13 -30 72 -27 47 2 59 7 62 21 3 15 -5 17 -62
17 -36 0 -68 -5 -72 -11z"/>
<path d="M1352 7544 c-56 -39 -52 147 -52 -2641 0 -2472 1 -2569 18 -2598 22
-35 64 -60 86 -52 25 10 19 27 -14 39 -65 22 -60 -182 -60 2606 0 1869 3 2548
11 2572 8 22 22 37 45 46 19 8 34 21 34 29 0 20 -39 19 -68 -1z"/>
<path d="M11277 7174 c-4 -4 -7 -72 -7 -150 0 -143 0 -143 88 -146 57 -2 92 1
101 8 25 22 1 34 -70 34 -69 0 -69 0 -69 45 0 45 0 45 59 45 33 0 63 5 67 11
12 20 -17 34 -69 34 -52 0 -52 0 -52 40 0 40 0 40 65 40 58 0 65 2 65 20 0 18
-8 20 -85 23 -47 1 -89 0 -93 -4z"/>
<path d="M12817 7123 c-14 -32 -35 -83 -47 -113 -12 -30 -29 -70 -37 -88 -12
-25 -13 -36 -4 -45 16 -16 45 3 49 31 5 34 26 43 89 40 56 -3 58 -4 68 -35 9
-33 40 -52 56 -36 7 7 -57 181 -101 276 -21 44 -44 34 -73 -30z m67 -66 c23
-62 21 -67 -24 -67 -32 0 -40 4 -40 19 0 25 28 91 39 91 4 0 16 -19 25 -43z"/>
<path d="M13041 7166 c-8 -9 -11 -59 -9 -152 3 -131 4 -139 23 -139 17 0 20 8
23 50 4 56 12 65 64 65 105 0 138 136 43 176 -44 18 -129 18 -144 0z m127 -42
c27 -19 30 -69 5 -83 -17 -9 -54 -14 -80 -12 -14 1 -19 92 -6 104 12 12 58 7
81 -9z"/>
<path d="M13292 7028 c3 -143 4 -153 22 -153 18 0 20 9 20 150 0 147 -1 150
-22 153 -23 3 -23 3 -20 -150z"/>
<path d="M11495 7100 c-3 -5 10 -30 30 -55 19 -26 32 -52 28 -58 -3 -7 -20
-31 -36 -54 -16 -23 -26 -46 -23 -52 14 -21 35 -10 57 29 13 22 30 40 39 40 9
0 26 -18 39 -40 22 -39 43 -50 57 -29 3 6 -10 34 -29 62 -33 47 -35 53 -22 77
8 15 21 32 29 39 23 19 20 51 -3 51 -11 0 -28 -15 -40 -35 -25 -42 -35 -44
-58 -7 -27 41 -54 55 -68 32z"/>
<path d="M11760 7101 c-25 -7 -25 -7 -25 -156 0 -143 1 -150 20 -150 16 0 21
8 23 42 3 41 3 41 47 40 52 -2 81 20 95 74 29 107 -50 181 -160 150z m103 -59
c17 -15 23 -65 11 -97 -9 -24 -51 -37 -75 -25 -16 9 -19 22 -19 75 0 41 4 65
13 68 17 7 49 -2 70 -21z"/>
<path d="M12035 7101 c-43 -18 -60 -50 -60 -111 0 -48 4 -63 24 -84 31 -33 70
-41 114 -23 27 12 39 25 52 61 17 44 17 48 0 91 -23 63 -75 88 -130 66z m70
-56 c16 -15 25 -36 25 -55 0 -19 -9 -40 -25 -55 -29 -30 -36 -31 -65 -7 -17
14 -23 29 -23 62 0 33 6 48 23 62 29 24 36 23 65 -7z"/>
<path d="M12250 7097 c-18 -9 -26 -22 -28 -45 -4 -39 10 -58 55 -77 68 -28 51
-70 -24 -59 -39 6 -43 4 -43 -15 0 -25 35 -36 87 -28 93 16 100 88 12 133 -27
13 -49 28 -49 33 0 20 30 32 65 25 34 -6 37 -5 33 17 -2 20 -9 24 -43 27 -22
1 -51 -4 -65 -11z"/>
<path d="M12448 7081 c-30 -27 -33 -34 -33 -90 0 -52 4 -64 26 -86 43 -43 149
-47 149 -5 0 17 -6 19 -50 17 -54 -2 -88 19 -76 48 5 13 18 16 64 14 77 -3 82
1 70 51 -20 79 -92 103 -150 51z m87 -25 c28 -20 12 -46 -29 -46 -43 0 -54 15
-30 41 20 23 34 24 59 5z"/>
<path d="M9085 7040 c-13 -21 8 -30 71 -30 57 0 65 2 62 18 -3 14 -15 18 -65
20 -35 2 -64 -2 -68 -8z"/>
<path d="M9295 7040 c-13 -21 8 -30 71 -30 57 0 65 2 62 18 -3 14 -15 18 -65
20 -35 2 -64 -2 -68 -8z"/>
<path d="M9505 7040 c-13 -22 12 -31 76 -28 49 2 64 7 64 18 0 12 -15 16 -67
18 -41 2 -69 -1 -73 -8z"/>
<path d="M9715 7040 c-13 -21 8 -30 71 -30 57 0 64 2 64 20 0 18 -7 20 -64 20
-36 0 -68 -4 -71 -10z"/>
<path d="M9937 7044 c-4 -4 -7 -14 -7 -21 0 -11 15 -13 68 -11 52 2 67 6 67
18 0 11 -15 16 -60 18 -34 2 -64 0 -68 -4z"/>
<path d="M10140 7030 c0 -19 5 -21 68 -18 52 2 67 6 67 18 0 12 -15 16 -67 18
-63 3 -68 1 -68 -18z"/>
<path d="M10355 7040 c-13 -21 12 -31 71 -28 44 2 59 7 59 18 0 19 -119 28
-130 10z"/>
<path d="M10565 7040 c-13 -21 12 -31 71 -28 44 2 59 7 59 18 0 19 -119 28
-130 10z"/>
<path d="M10775 7040 c-13 -21 12 -31 71 -28 44 2 59 7 59 18 0 19 -119 28
-130 10z"/>
<path d="M10985 7040 c-13 -21 8 -30 71 -30 57 0 64 2 64 20 0 18 -7 20 -64
20 -36 0 -68 -4 -71 -10z"/>
<path d="M787 6104 c-12 -12 -8 -64 8 -93 18 -36 31 -39 190 -43 127 -2 130
-2 133 19 3 21 -1 22 -90 25 -93 3 -93 3 -96 46 -3 33 -7 42 -22 42 -15 0 -19
-9 -22 -42 -2 -23 -8 -43 -13 -45 -22 -7 -48 24 -49 58 -1 32 -22 50 -39 33z"/>
<path d="M11691 6021 c-50 -14 -60 -45 -61 -181 -1 -69 -1 -131 -1 -138 1 -8
10 -12 23 -10 22 3 23 7 23 93 0 90 0 90 43 93 34 3 42 7 42 23 0 16 -7 19
-39 19 -45 0 -57 11 -41 40 8 14 21 20 46 20 37 0 58 25 33 41 -16 10 -33 10
-68 0z"/>
<path d="M12640 6015 c-9 -11 -11 -51 -8 -154 5 -149 12 -171 54 -171 27 0 32
21 9 40 -11 9 -15 44 -17 153 -3 141 -10 166 -38 132z"/>
<path d="M11520 5995 c-11 -13 -11 -19 3 -32 21 -21 49 -9 45 19 -4 28 -30 35
-48 13z"/>
<path d="M11314 5988 c-4 -6 -7 -75 -7 -152 1 -141 1 -141 83 -144 85 -3 115
7 92 30 -7 7 -38 13 -70 13 -57 0 -57 0 -60 127 -2 99 -6 127 -17 132 -8 3
-17 0 -21 -6z"/>
<path d="M15460 5975 c-21 -25 -8 -239 16 -266 26 -28 109 -24 109 6 0 17 -6
20 -37 17 -32 -3 -38 0 -43 20 -4 14 -5 47 -3 74 3 48 4 49 35 49 35 0 59 17
49 34 -4 6 -25 11 -46 11 -36 0 -39 2 -42 32 -3 36 -19 46 -38 23z"/>
<path d="M784 5926 c-10 -26 5 -82 27 -102 18 -16 41 -19 161 -22 107 -3 143
0 149 9 16 27 -10 38 -76 32 -88 -8 -117 1 -115 35 3 45 1 52 -20 52 -17 0
-20 -7 -20 -40 0 -31 -4 -40 -17 -40 -31 0 -47 18 -48 52 0 36 -30 53 -41 24z"/>
<path d="M12362 5917 c-8 -10 -42 -126 -42 -143 0 -2 -6 -4 -13 -4 -12 0 -38
61 -51 123 -5 19 -13 27 -27 27 -19 0 -21 -4 -16 -34 3 -19 18 -63 32 -98 39
-91 42 -114 15 -128 -12 -6 -27 -9 -34 -7 -20 8 -40 -9 -33 -27 4 -9 17 -16
31 -16 46 0 73 18 94 63 24 50 82 216 82 233 0 17 -27 25 -38 11z"/>
<path d="M11522 5808 c3 -105 4 -113 23 -113 19 0 20 7 20 110 0 107 -1 110
-23 113 -23 3 -23 3 -20 -110z"/>
<path d="M11816 5889 c-49 -58 -47 -130 5 -173 24 -21 41 -26 84 -26 36 0 55
4 58 14 9 23 -12 34 -56 29 -33 -4 -46 -1 -61 15 -27 31 -12 42 59 42 35 0 66
4 69 8 10 16 -14 88 -35 105 -12 9 -38 17 -59 17 -30 0 -44 -6 -64 -31z m102
-36 c3 -21 -1 -23 -37 -23 -46 0 -58 12 -35 35 24 23 68 16 72 -12z"/>
<path d="M12067 5909 c-27 -16 -47 -64 -47 -114 0 -38 5 -52 30 -76 26 -27 35
-30 82 -27 45 3 53 6 53 23 0 17 -6 20 -42 17 -59 -5 -87 24 -80 81 7 50 30
69 77 65 29 -2 35 0 35 17 0 17 -8 20 -45 22 -25 2 -53 -2 -63 -8z"/>
<path d="M12473 5902 c-64 -50 -50 -190 20 -207 44 -11 102 -2 105 18 3 14 -4
17 -40 17 -52 0 -63 7 -78 44 -8 21 -8 38 0 62 12 36 37 49 81 42 19 -2 25 2
27 20 3 20 0 22 -45 22 -30 0 -56 -7 -70 -18z"/>
<path d="M12784 5902 c-64 -51 -57 -169 11 -200 37 -17 121 -16 128 2 9 23
-12 34 -56 29 -33 -4 -46 -1 -61 15 -27 31 -12 42 59 42 35 0 66 4 69 8 9 16
-15 87 -36 105 -26 22 -87 22 -114 -1z m94 -49 c3 -21 -1 -23 -42 -23 -49 0
-56 9 -30 35 24 23 68 16 72 -12z"/>
<path d="M13090 5905 c-7 -8 -10 -50 -8 -111 3 -91 5 -99 23 -99 18 0 20 8 25
90 5 88 6 90 31 93 40 5 52 -19 53 -106 1 -71 3 -77 23 -80 21 -3 22 1 25 90
3 89 4 93 26 96 42 6 52 -13 52 -105 0 -82 1 -84 23 -81 27 4 32 34 22 126
-10 95 -17 99 -163 100 -89 0 -124 -3 -132 -13z"/>
<path d="M13453 5905 c-8 -23 3 -29 43 -27 72 5 89 -43 18 -51 -25 -2 -53 -11
-61 -19 -20 -21 -19 -74 2 -98 16 -18 29 -20 84 -18 66 3 66 3 66 96 0 87 -2
95 -24 113 -30 24 -119 27 -128 4z m107 -145 c0 -28 -3 -30 -35 -30 -23 0 -38
6 -41 15 -9 23 15 45 47 45 26 0 29 -4 29 -30z"/>
<path d="M13677 5913 c-4 -3 -7 -55 -7 -115 0 -108 0 -109 23 -106 21 3 22 7
19 74 -5 95 2 114 38 114 45 0 63 -35 58 -117 -3 -67 -3 -68 22 -68 17 0 25 5
24 18 0 9 -1 49 -2 87 -2 61 -6 74 -27 95 -20 21 -34 25 -83 25 -32 0 -62 -3
-65 -7z"/>
<path d="M13917 5906 c-8 -21 2 -26 48 -26 43 0 73 -20 60 -40 -3 -5 -21 -10
-39 -10 -72 0 -112 -74 -66 -120 15 -15 33 -20 79 -20 35 0 62 5 68 13 5 6 7
52 4 100 -5 72 -10 91 -25 103 -26 19 -122 19 -129 0z m111 -148 c3 -21 -1
-28 -15 -29 -31 -2 -48 2 -62 16 -22 21 4 47 43 43 25 -2 32 -8 34 -30z"/>
<path d="M14173 5908 c-12 -6 -29 -25 -37 -43 -41 -85 5 -165 94 -165 39 0 46
-16 16 -35 -18 -12 -36 -15 -70 -10 -42 7 -46 5 -46 -13 0 -53 147 -39 169 16
12 33 19 232 8 250 -10 15 -103 15 -134 0z m95 -86 c3 -58 -8 -82 -41 -82 -33
0 -57 29 -57 68 0 47 25 74 64 70 30 -3 31 -5 34 -56z"/>
<path d="M14403 5896 c-25 -22 -28 -30 -28 -91 0 -61 2 -69 29 -91 24 -21 37
-24 85 -22 48 3 56 6 56 23 0 17 -6 20 -42 17 -49 -4 -83 11 -83 38 0 18 7 20
70 20 70 0 70 0 70 30 0 37 -23 85 -45 94 -36 13 -84 6 -112 -18z m95 -28 c25
-25 13 -38 -33 -38 -30 0 -45 4 -45 13 0 19 21 37 45 37 12 0 26 -5 33 -12z"/>
<path d="M14620 5906 c-7 -9 -10 -50 -8 -112 3 -94 4 -99 25 -102 21 -3 22 0
25 90 3 89 4 93 26 96 42 6 52 -13 52 -105 0 -82 1 -84 23 -81 21 3 22 8 22
83 0 89 6 105 39 105 36 0 45 -19 48 -105 3 -74 5 -80 26 -83 21 -3 22 0 22
73 0 83 -18 140 -47 148 -10 3 -68 5 -130 5 -82 1 -114 -2 -123 -12z"/>
<path d="M15004 5897 c-23 -20 -28 -34 -32 -85 -4 -58 -3 -63 27 -92 28 -29
35 -31 88 -28 50 3 58 6 58 23 0 17 -6 20 -42 17 -49 -4 -83 11 -83 38 0 18 7
20 70 20 70 0 70 0 70 31 0 34 -15 68 -39 86 -27 21 -87 16 -117 -10z m94 -29
c25 -25 13 -38 -33 -38 -30 0 -45 4 -45 13 0 19 21 37 45 37 12 0 26 -5 33
-12z"/>
<path d="M15221 5906 c-8 -9 -11 -48 -9 -112 3 -94 4 -99 25 -102 21 -3 22 0
25 90 3 92 3 93 29 96 46 5 59 -20 59 -109 0 -78 1 -80 23 -77 15 2 22 10 21
26 0 12 -1 51 -2 87 -3 89 -27 115 -105 115 -35 0 -59 -5 -66 -14z"/>
<path d="M892 5718 c3 -22 6 -23 75 -20 93 5 113 -2 113 -38 0 -48 -22 -60
-111 -60 -71 0 -79 -2 -79 -19 0 -26 12 -28 108 -22 108 8 124 24 120 115 -3
61 -3 61 -116 64 -113 3 -113 3 -110 -20z"/>
<path d="M9088 5599 c-6 -4 -8 -14 -5 -23 9 -23 125 -23 134 -1 3 9 3 19 -1
22 -8 8 -115 10 -128 2z"/>
<path d="M9299 5593 c-19 -22 1 -33 62 -33 45 0 61 4 66 15 3 9 3 18 0 21 -11
12 -119 9 -128 -3z"/>
<path d="M9514 5597 c-12 -7 -13 -12 -3 -23 17 -20 118 -19 126 1 3 9 3 18 0
21 -9 9 -107 10 -123 1z"/>
<path d="M9725 5597 c-8 -4 -12 -14 -9 -22 9 -22 122 -21 131 0 3 9 3 18 0 21
-9 9 -107 10 -122 1z"/>
<path d="M9938 5599 c-6 -4 -8 -14 -5 -23 5 -12 21 -16 67 -16 33 0 60 4 60
10 0 6 1 13 3 18 3 9 -111 19 -125 11z"/>
<path d="M10148 5599 c-6 -4 -8 -14 -5 -23 8 -21 109 -23 126 -2 9 10 9 16 1
21 -15 9 -109 12 -122 4z"/>
<path d="M10358 5599 c-6 -4 -8 -14 -5 -23 5 -12 21 -16 66 -16 59 0 83 12 63
32 -12 12 -108 17 -124 7z"/>
<path d="M10568 5599 c-6 -4 -8 -14 -5 -23 9 -23 125 -23 134 -1 3 9 3 18 0
21 -8 8 -117 10 -129 3z"/>
<path d="M10785 5597 c-8 -4 -12 -14 -9 -22 9 -22 122 -21 131 0 3 9 3 19 -1
22 -9 9 -105 9 -121 0z"/>
<path d="M10994 5597 c-12 -7 -13 -12 -3 -23 17 -20 118 -19 126 1 3 9 3 19
-1 22 -9 10 -105 9 -122 0z"/>
<path d="M11350 5518 c-42 -68 -58 -164 -40 -240 24 -99 65 -157 92 -130 9 9
7 16 -5 30 -28 30 -47 101 -47 172 0 54 6 78 29 125 17 33 28 62 25 67 -11 17
-35 6 -54 -24z"/>
<path d="M13787 5544 c-4 -4 -7 -29 -7 -55 0 -48 0 -48 -46 -47 -37 0 -51 -5
-72 -26 -23 -23 -27 -35 -27 -87 0 -56 3 -63 33 -90 27 -24 41 -29 87 -29 29
0 57 4 60 10 3 5 7 81 7 167 1 132 -1 158 -13 161 -8 1 -18 0 -22 -4z m-12
-219 c0 -68 -1 -70 -26 -73 -41 -5 -74 29 -74 76 0 53 19 74 64 70 36 -3 36
-3 36 -73z"/>
<path d="M14127 5544 c-13 -13 -8 -277 6 -304 16 -32 67 -41 67 -12 0 11 -7
22 -15 26 -12 4 -15 33 -17 148 -3 119 -6 143 -18 146 -9 1 -19 0 -23 -4z"/>
<path d="M15270 5533 c0 -9 7 -24 15 -33 25 -27 47 -136 40 -192 -8 -56 -29
-113 -45 -123 -19 -12 -11 -45 11 -45 15 0 27 15 46 58 23 48 27 71 27 147 0
80 -3 97 -28 148 -20 38 -35 57 -48 57 -10 0 -18 -7 -18 -17z"/>
<path d="M1083 5517 c-4 -7 -6 -24 -5 -38 4 -38 -18 -50 -85 -47 -57 3 -58 4
-60 33 0 17 -2 36 -2 43 -1 8 -9 12 -18 10 -13 -2 -20 -16 -23 -43 -4 -33 -9
-41 -30 -43 -34 -5 -47 -19 -32 -34 9 -9 47 -12 130 -9 146 3 162 11 162 80 0
49 -20 75 -37 48z"/>
<path d="M11463 5508 c-12 -6 -27 -24 -34 -40 -20 -49 -3 -78 69 -116 49 -26
62 -38 62 -56 0 -34 -24 -49 -68 -43 -20 3 -44 8 -53 12 -25 10 -35 -26 -12
-43 27 -20 136 -12 162 12 22 20 29 79 12 105 -5 8 -35 28 -67 45 -60 32 -75
55 -53 82 10 12 24 14 65 9 36 -4 54 -2 60 6 19 32 -90 53 -143 27z"/>
<path d="M11657 5503 c-2 -5 -1 -66 2 -136 7 -147 14 -160 86 -155 32 2 40 7
40 23 0 16 -6 20 -31 18 -44 -4 -56 15 -52 84 3 58 3 58 38 61 19 2 39 8 45
13 15 14 -11 33 -47 33 -30 1 -33 4 -36 34 -2 24 -8 32 -22 32 -10 0 -20 -3
-23 -7z"/>
<path d="M12209 5501 c-2 -6 -3 -64 -1 -130 3 -103 6 -121 23 -140 16 -17 30
-21 62 -19 35 3 43 7 45 26 3 21 1 23 -31 17 -45 -9 -59 14 -55 88 3 52 3 52
46 55 33 3 42 7 42 22 0 15 -9 19 -42 22 -40 3 -43 5 -43 33 0 23 -5 31 -21
33 -12 2 -24 -2 -25 -7z"/>
<path d="M12774 5496 c-3 -9 -5 -68 -2 -132 3 -108 5 -117 27 -135 34 -28 106
-23 106 6 0 16 -6 20 -29 18 -46 -3 -56 12 -56 83 0 64 0 64 40 64 33 0 40 3
40 19 0 16 -8 20 -37 23 -33 3 -39 7 -43 33 -6 33 -36 47 -46 21z"/>
<path d="M14473 5494 c-3 -8 -3 -68 -1 -132 5 -105 8 -117 28 -134 33 -27 105
-22 105 7 0 16 -6 20 -29 18 -46 -3 -56 12 -56 83 0 64 0 64 39 64 66 0 63 43
-4 44 -26 1 -30 5 -33 34 -3 24 -8 32 -23 32 -11 0 -22 -7 -26 -16z"/>
<path d="M11841 5436 c-19 -23 -5 -36 38 -36 39 0 68 -20 56 -40 -3 -5 -24
-10 -45 -10 -72 0 -102 -77 -48 -122 22 -19 112 -25 137 -9 22 14 9 177 -15
201 -27 26 -106 36 -123 16z m97 -149 c4 -31 -14 -43 -53 -33 -48 12 -21 69
30 63 14 -1 21 -11 23 -30z"/>
<path d="M12095 5443 c-16 -3 -34 -8 -38 -12 -4 -4 -8 -55 -9 -112 -2 -97 -1
-104 17 -104 18 0 21 9 25 90 5 90 5 90 43 93 33 3 38 6 35 25 -3 23 -20 28
-73 20z"/>
<path d="M12613 5434 c-59 -29 -51 -86 18 -118 30 -15 44 -27 44 -41 0 -18 -6
-20 -53 -18 -50 2 -53 1 -50 -20 3 -19 10 -22 60 -25 47 -2 61 1 78 18 20 20
26 55 12 77 -4 6 -27 22 -52 35 -60 31 -59 52 3 56 38 3 47 7 47 21 0 34 -54
41 -107 15z"/>
<path d="M12990 5432 c-41 -20 -60 -53 -60 -105 0 -134 170 -164 200 -34 22
101 -58 181 -140 139z m84 -54 c34 -48 7 -128 -43 -128 -32 0 -64 49 -57 88 3
19 10 40 17 48 18 22 66 17 83 -8z"/>
<path d="M13944 5440 c-38 -15 -64 -59 -64 -107 0 -86 45 -127 131 -121 36 2
44 7 44 23 0 18 -6 20 -45 17 -36 -3 -50 1 -64 17 -32 35 -15 48 53 43 71 -5
81 6 62 69 -15 50 -69 78 -117 59z m66 -55 c18 -22 3 -35 -41 -35 -25 0 -39 5
-39 13 0 34 57 50 80 22z"/>
<path d="M14304 5443 c-36 -7 -66 -48 -71 -97 -10 -89 39 -141 127 -134 37 2
45 6 45 23 0 17 -6 20 -38 17 -23 -2 -49 3 -63 13 -25 16 -33 45 -11 46 6 0
37 1 67 2 49 2 55 4 58 25 6 40 -19 83 -54 98 -19 8 -35 13 -36 13 -2 -1 -13
-4 -24 -6z m56 -58 c17 -21 4 -35 -35 -35 -19 0 -37 5 -40 10 -10 16 14 40 40
40 12 0 28 -7 35 -15z"/>
<path d="M14695 5436 c-73 -33 -84 -154 -18 -206 29 -22 111 -28 130 -9 24 24
3 40 -42 33 -36 -5 -47 -2 -64 15 -39 39 -32 45 60 41 32 -1 60 3 63 9 10 16
-11 86 -31 103 -27 23 -65 28 -98 14z m73 -63 c3 -21 -1 -23 -36 -23 -46 0
-55 6 -41 32 15 28 73 21 77 -9z"/>
<path d="M13195 5431 c-3 -6 -6 -74 -7 -153 -1 -135 0 -143 18 -143 15 0 20 8
22 38 3 36 4 37 43 37 22 0 49 5 60 10 28 16 49 63 49 114 0 36 -6 50 -31 75
-27 28 -37 31 -89 31 -32 0 -61 -4 -65 -9z m119 -47 c56 -56 3 -160 -63 -124
-18 9 -21 20 -21 69 0 32 3 61 7 64 12 13 62 7 77 -9z"/>
<path d="M1021 5331 c-8 -5 -24 -29 -35 -53 -28 -58 -51 -57 -51 2 0 38 -3 45
-20 45 -18 0 -20 -7 -20 -54 0 -46 4 -57 25 -72 37 -28 67 -15 96 42 17 35 30
49 45 49 19 0 21 -5 17 -52 -3 -47 -1 -53 17 -53 17 0 20 8 23 53 4 66 -16
102 -56 102 -15 0 -33 -4 -41 -9z"/>
<path d="M14895 5264 c-18 -19 -19 -26 -3 -42 27 -27 66 -3 52 32 -9 22 -32
27 -49 10z"/>
<path d="M12385 5258 c-2 -7 -5 -26 -8 -43 -2 -16 -6 -37 -8 -45 -5 -19 37
-26 44 -7 3 8 9 35 12 61 7 43 6 46 -14 46 -12 0 -23 -6 -26 -12z"/>
<path d="M13439 5263 c-2 -26 -8 -62 -14 -85 -6 -24 -4 -28 14 -28 24 0 37 26
43 81 2 29 0 34 -19 37 -13 2 -23 0 -24 -5z"/>
<path d="M15030 5255 c-10 -12 -10 -18 0 -30 20 -25 55 -15 55 15 0 30 -35 40
-55 15z"/>
<path d="M15170 5255 c-10 -12 -10 -18 0 -30 20 -25 55 -15 55 15 0 30 -35 40
-55 15z"/>
<path d="M6419 5183 c-1 -5 -2 -19 -3 -32 -1 -26 -11 -29 -496 -167 -129 -37
-289 -82 -355 -101 -1523 -439 -2239 -643 -2255 -643 -6 0 -15 12 -20 26 -6
14 -14 24 -19 22 -23 -9 -133 -120 -125 -127 10 -9 116 -33 154 -35 22 -1 25
2 22 30 -3 30 0 33 45 48 47 15 543 158 1118 321 160 46 376 108 480 138 105
31 253 74 330 95 77 22 363 103 635 181 463 134 495 142 507 125 7 -10 13 -21
13 -26 0 -19 22 -5 81 52 35 32 60 62 57 66 -6 5 -140 34 -160 34 -5 0 -9 -3
-9 -7z"/>
<path d="M6829 5176 c-2 -2 -28 -6 -57 -9 -65 -6 -71 -11 -46 -38 19 -21 19
-21 -5 -40 -13 -11 -299 -206 -636 -434 -395 -267 -619 -413 -629 -409 -8 3
-18 15 -21 25 -4 11 -11 19 -16 17 -14 -5 -89 -145 -82 -152 4 -3 46 -6 95 -6
91 0 103 7 74 39 -26 28 -108 -31 844 610 168 112 329 222 359 242 56 39 76
41 86 8 4 -11 11 -19 15 -17 12 4 88 157 82 163 -6 6 -57 7 -63 1z"/>
<path d="M7170 5172 c0 -11 55 -141 63 -149 4 -3 16 2 27 12 19 17 22 18 53 2
17 -9 213 -139 434 -289 221 -150 488 -331 593 -402 105 -71 194 -135 197
-143 3 -7 -3 -23 -13 -34 -10 -12 -14 -23 -8 -28 12 -12 164 -25 164 -15 0 5
-11 38 -24 74 -14 36 -27 74 -31 85 -6 19 -8 18 -30 -10 -24 -29 -24 -29 -320
170 -162 110 -440 298 -618 417 -177 119 -326 224 -332 232 -6 10 -4 21 10 35
10 12 16 23 14 25 -18 17 -179 33 -179 18z"/>
<path d="M953 5043 c-33 -6 -63 -50 -63 -90 0 -25 8 -43 29 -64 26 -25 37 -29
86 -29 49 0 60 4 86 29 25 26 29 37 29 86 0 42 -4 57 -16 62 -23 9 -32 -12
-27 -61 5 -42 -5 -61 -37 -68 -12 -2 -16 12 -20 67 -5 75 -10 80 -67 68z m25
-91 c2 -30 -1 -42 -10 -42 -34 0 -51 53 -26 78 20 20 33 8 36 -36z"/>
<path d="M1012 4801 c-102 -7 -122 -24 -122 -101 0 -81 -2 -80 122 -80 108 0
109 0 106 23 -3 21 -8 22 -95 25 -93 3 -93 3 -93 32 0 48 22 60 111 60 77 0
80 1 77 22 -4 26 -3 26 -106 19z"/>
<path d="M812 4561 c-21 -13 -10 -46 16 -49 27 -4 40 22 22 43 -14 17 -20 18
-38 6z"/>
<path d="M893 4545 c-3 -9 -3 -19 1 -22 8 -8 211 -7 225 1 6 4 8 13 4 21 -8
22 -221 22 -230 0z"/>
<path d="M896 4434 c-11 -28 -6 -94 9 -123 18 -36 64 -55 117 -48 54 7 79 34
85 91 4 30 10 46 20 46 20 0 34 -46 27 -91 -6 -35 -4 -39 14 -39 46 0 37 131
-11 165 -32 22 -252 22 -261 -1z m162 -36 c30 -30 5 -82 -45 -94 -50 -13 -112
72 -71 97 20 13 102 11 116 -3z"/>
<path d="M955 4203 c-45 -11 -65 -43 -65 -104 0 -32 5 -61 11 -64 6 -4 56 -7
112 -8 97 -1 102 0 105 21 3 20 -1 21 -90 24 -93 3 -93 3 -96 31 -6 48 11 57
104 57 83 0 84 0 84 25 0 24 -2 25 -72 24 -40 -1 -82 -3 -93 -6z"/>
<path d="M11979 4113 c-4 -31 2 -317 7 -324 3 -5 30 -9 59 -9 46 0 60 5 86 28
35 31 49 96 30 144 -15 40 -68 69 -108 62 -33 -6 -33 -6 -33 50 0 49 -2 56
-20 56 -11 0 -20 -3 -21 -7z m129 -155 c7 -7 12 -33 12 -60 0 -39 -4 -50 -24
-64 -14 -8 -35 -14 -48 -12 -21 3 -23 9 -26 62 -2 32 -1 65 2 72 7 17 68 18
84 2z"/>
<path d="M12227 4113 c-13 -12 -7 -277 6 -303 15 -30 67 -41 67 -14 0 9 -8 23
-17 30 -16 11 -18 31 -18 153 0 122 -2 141 -16 141 -9 0 -19 -3 -22 -7z"/>
<path d="M13110 3967 c0 -136 2 -156 18 -170 40 -36 78 -11 42 28 -20 21 -21
31 -19 156 2 131 2 134 -19 137 -22 3 -22 2 -22 -151z"/>
<path d="M14179 4108 c-2 -7 -2 -83 1 -168 5 -155 5 -155 63 -158 55 -3 60 -1
92 31 31 31 35 41 35 86 0 42 -5 56 -29 83 -26 29 -35 33 -75 31 -46 -1 -46
-1 -46 53 0 46 -3 54 -19 54 -10 0 -20 -6 -22 -12z m135 -160 c37 -52 -3 -133
-62 -126 -26 3 -27 6 -30 61 -2 35 2 64 9 73 18 22 66 17 83 -8z"/>
<path d="M14427 4113 c-10 -15 -7 -249 3 -282 10 -37 25 -51 53 -51 21 0 22
26 2 46 -12 12 -15 44 -15 155 0 131 -1 139 -19 139 -11 0 -22 -3 -24 -7z"/>
<path d="M2015 4081 c-11 -5 -29 -19 -40 -31 -19 -21 -20 -38 -23 -339 -2
-194 1 -328 7 -344 23 -59 37 -62 360 -67 296 -5 296 -5 296 -60 0 -45 3 -55
18 -58 17 -3 19 2 15 55 -3 58 -3 58 292 63 211 4 301 9 317 18 53 30 53 32
53 379 0 323 0 323 -29 355 -29 33 -29 33 -638 35 -334 1 -617 -2 -628 -6z
m1204 -44 c27 -9 37 -20 43 -45 5 -18 8 -161 6 -317 -3 -262 -4 -284 -22 -304
-19 -21 -22 -21 -611 -21 -569 0 -594 1 -616 19 -24 19 -24 19 -27 303 -4 322
0 352 51 367 50 14 1134 13 1176 -2z"/>
<path d="M2360 3888 c-5 -359 0 -422 32 -390 8 8 11 43 10 104 -2 51 2 100 7
108 6 8 25 14 46 14 55 0 65 -20 65 -130 0 -94 7 -111 40 -94 12 7 14 26 10
115 -5 102 -7 108 -33 131 -21 18 -40 24 -77 24 -56 0 -64 12 -58 86 3 34 0
39 -19 42 -14 2 -23 -2 -23 -10z"/>
<path d="M2647 3874 c-15 -16 -7 -53 14 -59 30 -10 58 19 43 43 -12 18 -45 28
-57 16z"/>
<path d="M2143 3755 c-17 -12 -23 -26 -23 -54 0 -43 13 -58 78 -90 34 -17 43
-27 40 -44 -3 -20 -9 -22 -63 -22 -55 0 -60 -2 -63 -22 -3 -20 1 -23 35 -25
95 -3 138 13 149 57 9 36 -17 70 -76 100 -80 41 -64 79 30 72 29 -2 35 1 35
18 0 17 -8 20 -60 23 -42 2 -67 -2 -82 -13z"/>
<path d="M2647 3764 c-4 -4 -7 -65 -7 -135 0 -116 2 -127 19 -132 38 -10 42 4
39 139 -3 121 -4 129 -23 132 -12 2 -24 0 -28 -4z"/>
<path d="M2783 3759 c-9 -9 -13 -51 -13 -135 0 -105 2 -123 17 -128 29 -12 36
10 34 113 -2 91 0 101 18 111 29 15 71 2 82 -27 5 -13 9 -62 9 -108 0 -83 7
-98 38 -88 8 3 12 35 12 113 0 108 0 108 28 113 15 3 37 -1 50 -9 20 -13 22
-22 22 -113 0 -79 3 -100 15 -105 36 -14 45 3 45 88 0 153 -28 194 -123 182
-28 -4 -59 -7 -67 -6 -8 0 -46 3 -85 6 -49 4 -74 2 -82 -7z"/>
<path d="M4205 4081 c-11 -5 -29 -19 -40 -31 -19 -21 -20 -38 -23 -341 -3
-344 -1 -362 51 -391 16 -9 105 -14 322 -18 300 -5 300 -5 297 -53 -4 -48 11
-82 30 -71 5 4 8 32 6 63 -3 56 -3 56 287 61 207 4 296 9 312 18 53 30 53 32
53 383 0 327 0 327 -35 358 -36 31 -36 31 -638 30 -331 0 -611 -4 -622 -8z
m1232 -54 c16 -16 18 -45 21 -320 3 -296 2 -304 -18 -330 -21 -27 -21 -27
-614 -27 -519 0 -594 2 -614 16 -22 15 -22 16 -22 327 0 172 4 318 9 325 4 7
21 17 37 22 16 5 289 8 606 7 539 -2 578 -3 595 -20z"/>
<path d="M4550 3890 c-5 -117 1 -385 8 -392 5 -5 16 -6 25 -2 14 5 17 23 17
114 0 106 0 108 24 114 31 8 71 -7 80 -29 3 -9 6 -56 6 -105 0 -73 3 -89 17
-94 29 -12 35 10 31 119 -3 103 -4 108 -31 131 -22 18 -40 24 -78 24 -49 0
-49 0 -49 65 0 63 -1 65 -25 65 -14 0 -25 -4 -25 -10z"/>
<path d="M4837 3873 c-13 -12 -7 -51 9 -57 21 -8 20 -8 38 10 12 12 13 20 6
35 -10 19 -40 26 -53 12z"/>
<path d="M4345 3758 c-28 -16 -35 -28 -35 -65 0 -34 11 -45 83 -83 22 -12 32
-25 32 -41 0 -23 -3 -24 -63 -22 -60 1 -63 0 -60 -20 2 -17 12 -23 41 -28 93
-15 156 25 142 90 -5 26 -17 37 -66 61 -32 17 -59 36 -59 44 0 24 27 37 71 34
38 -3 44 0 44 17 0 17 -7 20 -55 22 -30 2 -64 -2 -75 -9z"/>
<path d="M4839 3763 c-5 -56 2 -258 8 -264 6 -6 17 -7 27 -3 15 6 16 22 14
138 -3 127 -4 131 -25 134 -13 2 -23 0 -24 -5z"/>
<path d="M4978 3760 c-16 -10 -18 -28 -18 -134 0 -101 3 -125 15 -130 38 -14
45 2 45 114 0 117 5 127 56 114 36 -9 44 -33 44 -132 0 -92 9 -111 40 -92 11
6 13 33 11 109 -3 101 -3 101 24 111 59 22 88 -25 84 -137 -4 -77 5 -98 36
-87 16 6 17 18 13 117 -4 106 -6 111 -33 134 -24 22 -35 24 -79 19 -64 -7 -66
-7 -151 -1 -42 3 -77 1 -87 -5z"/>
<path d="M8564 4080 c-12 -4 -31 -21 -43 -36 -20 -26 -21 -35 -21 -346 0 -279
2 -322 16 -344 31 -47 43 -49 354 -54 295 -5 295 -5 295 -60 0 -45 3 -55 18
-58 17 -3 18 3 16 55 -3 58 -3 58 292 63 210 4 300 9 316 18 53 30 53 33 53
374 0 207 -4 325 -11 341 -6 13 -23 31 -39 40 -25 15 -85 17 -627 16 -329 0
-608 -4 -619 -9z m1233 -53 c16 -16 18 -45 21 -320 3 -296 2 -304 -18 -330
-21 -27 -21 -27 -615 -27 -569 0 -594 1 -616 19 -24 19 -24 19 -27 303 -4 322
0 352 51 367 19 6 270 9 609 8 539 -2 578 -3 595 -20z"/>
<path d="M8907 3893 c-4 -3 -7 -93 -7 -199 0 -161 2 -193 15 -198 38 -14 45 2
45 114 0 103 1 108 22 113 65 17 88 -18 88 -137 0 -84 7 -99 38 -89 8 3 12 32
12 94 0 141 -25 179 -121 179 -39 0 -39 0 -39 65 0 61 -1 65 -23 65 -13 0 -27
-3 -30 -7z"/>
<path d="M9197 3873 c-13 -12 -7 -51 9 -57 21 -8 20 -8 38 10 12 12 13 20 6
35 -10 19 -40 26 -53 12z"/>
<path d="M8694 3756 c-30 -21 -39 -63 -19 -92 8 -13 38 -35 66 -49 40 -21 50
-30 47 -48 -3 -20 -8 -22 -65 -20 -60 1 -63 0 -63 -23 0 -21 5 -24 38 -25 100
-4 126 5 143 50 16 41 -5 74 -66 104 -85 42 -72 81 25 74 29 -2 35 1 35 18 0
17 -8 20 -60 23 -41 2 -67 -2 -81 -12z"/>
<path d="M9200 3766 c-6 -66 1 -261 9 -269 24 -24 33 11 33 139 1 125 0 129
-20 132 -12 2 -22 1 -22 -2z"/>
<path d="M9338 3763 c-16 -4 -18 -19 -18 -134 0 -129 0 -129 30 -129 30 0 30
0 30 109 0 118 5 128 57 115 33 -9 43 -40 43 -139 0 -85 6 -100 34 -89 13 5
16 25 16 114 0 108 0 108 28 113 61 12 91 -48 80 -164 -6 -55 12 -85 35 -58 9
10 11 44 7 122 -5 101 -7 110 -30 129 -21 17 -34 19 -80 14 -30 -4 -62 -6 -70
-6 -8 0 -44 2 -80 5 -36 2 -73 1 -82 -2z"/>
<path d="M11279 4079 c-6 -3 -8 -67 -7 -150 3 -144 3 -144 98 -144 88 0 95 1
95 20 0 18 -7 20 -60 21 -33 1 -66 2 -72 3 -8 1 -13 17 -13 46 0 45 0 45 59
45 97 0 95 42 -1 44 -53 1 -53 1 -56 38 -3 37 -3 37 65 40 60 3 68 5 68 23 0
18 -7 20 -83 20 -46 0 -88 -3 -93 -6z"/>
<path d="M11550 4012 c-35 -7 -35 -7 -38 -120 -3 -113 -3 -113 20 -110 22 3
23 6 20 90 -4 78 -2 87 16 97 14 7 29 8 45 2 29 -11 39 -46 37 -118 -3 -70 -2
-73 20 -73 19 0 20 7 20 89 0 79 -3 93 -22 115 -25 29 -64 38 -118 28z"/>
<path d="M11760 4005 c-19 -22 -2 -38 36 -32 23 4 40 0 55 -12 29 -24 17 -41
-29 -41 -53 0 -82 -23 -82 -65 0 -55 31 -76 105 -73 60 3 60 3 63 83 2 44 0
90 -3 102 -11 44 -117 72 -145 38z m98 -124 c8 -4 12 -19 10 -32 -2 -19 -10
-25 -34 -27 -19 -2 -36 3 -45 14 -12 14 -10 19 10 35 25 21 39 23 59 10z"/>
<path d="M12382 4000 c-36 -22 -52 -54 -52 -106 0 -77 48 -118 131 -112 36 2
44 7 44 23 0 17 -6 20 -38 17 -23 -2 -49 3 -63 13 -25 16 -33 45 -11 46 6 0
37 1 67 2 49 2 55 4 58 25 5 36 -18 81 -49 97 -37 20 -48 19 -87 -5z m69 -30
c10 -6 19 -20 19 -30 0 -17 -7 -20 -39 -20 -49 0 -62 17 -31 42 26 21 26 21
51 8z"/>
<path d="M12598 4005 c-58 -32 -47 -85 23 -121 35 -17 49 -30 47 -42 -3 -14
-15 -17 -58 -17 -54 0 -56 -2 -51 -35 0 -5 26 -10 56 -10 46 0 60 4 80 25 14
13 25 30 25 37 0 24 -31 58 -66 73 -63 26 -53 71 12 59 36 -7 52 9 34 31 -16
19 -67 19 -102 0z"/>
<path d="M12895 4012 c-30 -7 -30 -7 -33 -155 -2 -126 0 -148 13 -153 22 -9
29 1 30 39 0 31 2 32 49 38 82 9 125 84 93 162 -24 57 -83 84 -152 69z m105
-72 c37 -69 -33 -155 -84 -104 -23 22 -22 120 1 132 22 13 70 -4 83 -28z"/>
<path d="M13227 4013 c-4 -3 -7 -40 -7 -80 0 -79 16 -125 49 -143 23 -12 100
-13 118 -2 15 10 21 208 6 223 -23 23 -33 -3 -33 -92 0 -97 -6 -107 -54 -95
-30 7 -39 33 -42 116 -1 36 -2 68 -3 73 -1 9 -25 9 -34 0z"/>
<path d="M13524 4006 c-45 -20 -64 -52 -64 -109 0 -38 5 -53 25 -72 23 -24 30
-27 85 -29 33 -1 32 -27 -2 -43 -19 -10 -33 -10 -54 -3 -22 9 -31 8 -43 -5
-23 -23 -1 -37 58 -38 62 -1 97 17 111 56 15 44 13 237 -2 242 -41 12 -87 13
-114 1z m60 -32 c12 -5 16 -21 16 -65 0 -49 -3 -60 -21 -70 -46 -24 -97 49
-69 101 9 17 22 26 57 39 1 1 8 -2 17 -5z"/>
<path d="M13772 4009 c-46 -14 -74 -61 -69 -117 6 -61 38 -92 93 -92 48 0 59
-9 41 -35 -12 -16 -45 -20 -102 -13 -14 2 -20 -3 -20 -17 0 -38 116 -38 154 0
20 19 34 242 16 261 -15 17 -75 24 -113 13z m76 -102 c-3 -50 -6 -61 -24 -68
-49 -18 -86 32 -70 96 6 25 49 45 79 37 15 -4 17 -14 15 -65z"/>
<path d="M13973 4014 c-7 -3 -13 -14 -13 -25 0 -16 7 -18 46 -17 30 2 48 -2
54 -12 16 -25 5 -35 -45 -41 -75 -8 -100 -65 -50 -114 20 -20 34 -25 78 -25
74 0 81 10 74 112 -6 96 -22 118 -88 124 -24 2 -50 1 -56 -2z m95 -157 c4 -31
-14 -43 -53 -33 -48 12 -21 69 30 63 14 -1 21 -11 23 -30z"/>
<path d="M14583 4001 c-63 -39 -69 -147 -11 -196 26 -22 39 -25 82 -23 45 3
51 6 54 27 3 22 2 23 -37 16 -45 -8 -91 13 -91 40 0 17 2 17 81 15 32 -1 60 3
63 9 10 16 -12 86 -32 104 -30 27 -73 30 -109 8z m88 -52 c12 -24 -4 -32 -53
-27 -39 4 -44 27 -9 44 28 14 48 9 62 -17z"/>
<path d="M1084 3978 c-5 -7 -7 -37 -5 -66 3 -59 -9 -82 -44 -82 -48 0 -55 9
-55 71 0 52 -2 59 -20 59 -18 0 -20 -7 -20 -59 0 -51 -3 -61 -20 -66 -11 -3
-29 -3 -40 0 -17 5 -20 15 -20 70 0 65 -14 91 -34 63 -7 -9 -9 -45 -6 -97 5
-83 5 -83 150 -83 145 0 145 0 145 98 0 65 -4 99 -12 101 -6 2 -15 -2 -19 -9z"/>
<path d="M9982 3693 c3 -15 14 -18 68 -18 51 0 65 3 65 15 0 12 -16 16 -68 18
-62 3 -68 1 -65 -15z"/>
<path d="M10195 3700 c-13 -21 12 -31 71 -28 44 2 59 7 59 18 0 19 -119 28
-130 10z"/>
<path d="M10404 3699 c-12 -20 13 -30 72 -27 47 2 59 7 62 21 3 15 -5 17 -62
17 -36 0 -68 -5 -72 -11z"/>
<path d="M10614 3699 c-12 -20 13 -30 72 -27 47 2 59 7 62 21 3 15 -5 17 -62
17 -36 0 -68 -5 -72 -11z"/>
<path d="M10826 3702 c-13 -22 13 -33 70 -30 47 2 59 7 62 21 3 15 -5 17 -62
17 -36 0 -67 -4 -70 -8z"/>
<path d="M11035 3700 c-13 -22 12 -31 76 -28 49 2 64 7 64 18 0 12 -15 16 -67
18 -41 2 -69 -1 -73 -8z"/>
<path d="M11273 3636 c-4 -8 -6 -81 -3 -162 5 -148 5 -148 32 -164 22 -11 30
-12 40 -2 9 9 7 17 -11 36 -21 22 -22 31 -20 153 1 72 -1 135 -5 141 -10 16
-23 15 -33 -2z"/>
<path d="M12464 3638 c-5 -7 -7 -78 -5 -158 3 -149 11 -180 48 -180 21 0 27
29 10 48 -13 14 -17 47 -19 157 -2 94 -7 140 -15 142 -6 2 -15 -2 -19 -9z"/>
<path d="M13254 3638 c-5 -7 -7 -78 -4 -163 5 -149 5 -149 33 -165 24 -13 29
-13 37 0 6 10 3 21 -10 35 -17 18 -20 39 -22 160 -3 134 -11 165 -34 133z"/>
<path d="M11435 3528 c-39 -21 -55 -51 -55 -105 0 -44 5 -58 29 -85 24 -27 36
-33 71 -33 35 0 47 6 71 33 24 27 29 41 29 83 0 45 -4 55 -34 85 -36 36 -73
43 -111 22z m81 -49 c28 -31 25 -96 -5 -120 -30 -25 -37 -24 -66 6 -31 30 -33
82 -5 113 26 28 52 28 76 1z"/>
<path d="M11606 3532 c-2 -4 11 -56 30 -115 31 -94 38 -107 58 -107 19 0 26
10 41 60 10 33 21 60 25 60 4 0 16 -26 27 -57 14 -43 24 -59 40 -61 18 -3 25
8 48 75 15 43 31 88 36 101 15 38 11 54 -13 50 -22 -3 -25 -9 -48 -100 -7 -27
-16 -48 -20 -48 -8 0 -32 66 -44 123 -11 50 -37 29 -60 -47 -12 -38 -25 -69
-31 -68 -5 0 -17 27 -25 59 -8 32 -19 64 -23 71 -9 13 -33 16 -41 4z"/>
<path d="M11993 3520 c-58 -35 -66 -134 -16 -185 42 -42 148 -45 148 -5 0 11
-12 15 -46 15 -50 0 -79 17 -79 46 0 17 8 19 70 19 68 0 70 1 70 25 0 15 -7
39 -15 55 -27 53 -77 64 -132 30z m78 -30 c39 -21 19 -50 -31 -44 -14 1 -28 3
-32 3 -15 2 -8 30 10 40 22 13 29 13 53 1z"/>
<path d="M12212 3530 c-22 -9 -23 -13 -20 -117 3 -100 4 -108 23 -108 18 0 20
8 25 95 5 95 5 95 42 93 36 -2 56 16 42 38 -7 11 -82 11 -112 -1z"/>
<path d="M12611 3526 c-34 -19 -50 -54 -51 -109 0 -40 5 -53 29 -77 34 -34 68
-45 116 -36 26 5 35 12 35 26 0 18 -6 20 -50 18 -54 -3 -88 18 -77 46 5 12 22
16 73 16 67 0 67 0 61 42 -10 73 -74 108 -136 74z m83 -48 c13 -21 6 -29 -30
-33 -52 -5 -67 10 -38 40 20 20 53 16 68 -7z"/>
<path d="M12780 3528 c0 -10 42 -122 77 -206 3 -7 15 -12 27 -10 17 2 29 23
58 103 44 116 46 128 17 123 -17 -2 -26 -18 -43 -72 -12 -38 -27 -71 -33 -73
-7 -3 -21 26 -35 69 -19 59 -27 74 -45 76 -14 2 -23 -2 -23 -10z"/>
<path d="M13047 3519 c-57 -44 -58 -158 -1 -195 34 -23 104 -29 128 -11 30 22
11 36 -45 34 -40 -2 -54 2 -65 18 -23 31 -11 40 57 43 35 2 68 7 72 11 5 5 3
27 -4 50 -20 67 -90 92 -142 50z m87 -42 c13 -21 -3 -35 -37 -31 -12 1 -25 3
-29 3 -12 1 -9 26 4 39 17 17 48 11 62 -11z"/>
<path d="M1860 3176 c-13 -13 -13 -36 0 -37 6 -1 31 -2 58 -2 43 -1 47 1 47
23 0 22 -4 24 -48 25 -26 0 -52 -4 -57 -9z"/>
<path d="M2068 3173 c-18 -22 7 -39 56 -38 52 1 78 17 58 37 -16 16 -101 17
-114 1z"/>
<path d="M2278 3173 c-18 -22 7 -39 56 -38 52 1 78 17 58 37 -16 16 -101 17
-114 1z"/>
<path d="M2499 3179 c-6 -3 -9 -15 -7 -25 2 -14 13 -18 51 -19 49 -1 72 12 59
32 -8 12 -88 22 -103 12z"/>
<path d="M2708 3179 c-5 -4 -8 -15 -6 -25 2 -14 13 -18 51 -19 60 -1 76 8 61
32 -11 18 -83 26 -106 12z"/>
<path d="M2920 3182 c-14 -5 -12 -42 3 -43 85 -8 107 -4 107 22 0 10 -6 20
-12 20 -36 3 -89 4 -98 1z"/>
<path d="M3130 3182 c-14 -5 -12 -42 3 -43 12 -1 86 -1 100 0 4 1 7 10 7 21 0
11 -3 20 -7 21 -35 3 -95 3 -103 1z"/>
<path d="M3340 3176 c-14 -14 -13 -33 3 -38 6 -2 32 -3 57 -3 39 0 45 3 48 23
2 12 0 22 -5 23 -75 5 -94 4 -103 -5z"/>
<path d="M4048 3173 c-18 -22 7 -39 56 -38 52 1 78 17 58 37 -16 16 -101 17
-114 1z"/>
<path d="M4258 3173 c-18 -22 7 -39 56 -38 52 1 78 17 58 37 -16 16 -101 17
-114 1z"/>
<path d="M4478 3179 c-5 -4 -8 -15 -6 -25 2 -15 12 -18 51 -17 26 0 52 1 57 2
15 1 12 41 -2 42 -46 4 -91 3 -100 -2z"/>
<path d="M4688 3179 c-5 -4 -8 -15 -6 -25 2 -14 13 -18 51 -19 55 -1 72 7 64
28 -6 16 -89 28 -109 16z"/>
<path d="M4902 3182 c-16 -5 -15 -39 1 -44 6 -2 32 -3 57 -3 39 0 45 3 48 23
2 12 0 22 -5 23 -69 4 -91 5 -101 1z"/>
<path d="M5112 3182 c-15 -5 -16 -42 -2 -43 6 -1 31 -2 58 -2 41 -1 47 1 50
21 2 12 0 22 -5 23 -69 4 -91 5 -101 1z"/>
<path d="M5318 3173 c-18 -23 7 -39 59 -38 44 1 48 3 48 25 0 22 -4 24 -48 25
-28 0 -53 -5 -59 -12z"/>
<path d="M5528 3173 c-18 -22 7 -39 56 -38 52 1 78 17 58 37 -16 16 -101 17
-114 1z"/>
<path d="M6088 3169 c-39 -20 -49 -45 -24 -55 15 -6 71 19 82 37 3 6 0 17 -7
24 -12 11 -20 10 -51 -6z"/>
<path d="M6243 3171 c-28 -28 23 -43 110 -32 12 2 8 41 -5 42 -58 5 -94 2
-105 -10z"/>
<path d="M6458 3179 c-5 -4 -8 -15 -6 -25 2 -15 12 -18 51 -17 26 0 52 1 57 2
11 1 14 41 3 42 -45 4 -97 3 -105 -2z"/>
<path d="M6670 3182 c-13 -5 -13 -42 0 -43 6 0 28 -1 50 -1 22 0 45 1 50 1 11
1 14 41 3 42 -35 3 -95 3 -103 1z"/>
<path d="M6880 3182 c-13 -5 -13 -42 0 -43 6 0 28 -1 50 -1 22 0 45 1 50 1 11
1 14 41 3 42 -35 3 -95 3 -103 1z"/>
<path d="M7090 3176 c-12 -12 -13 -36 -2 -37 85 -11 141 6 114 33 -15 15 -99
17 -112 4z"/>
<path d="M7298 3173 c-18 -22 7 -39 56 -38 87 2 87 49 0 50 -25 0 -50 -6 -56
-12z"/>
<path d="M7508 3173 c-18 -22 7 -39 56 -38 52 1 78 17 58 37 -16 16 -101 17
-114 1z"/>
<path d="M7718 3173 c-19 -23 7 -39 62 -37 58 1 69 8 54 31 -13 21 -100 25
-116 6z"/>
<path d="M8409 3173 c-19 -22 5 -39 55 -38 50 1 77 18 59 36 -16 16 -101 18
-114 2z"/>
<path d="M8618 3173 c-18 -22 7 -39 56 -38 52 1 78 17 58 37 -16 16 -101 17
-114 1z"/>
<path d="M8838 3179 c-5 -4 -8 -15 -6 -25 2 -14 13 -18 51 -19 51 -1 79 17 59
37 -12 12 -88 17 -104 7z"/>
<path d="M9049 3179 c-6 -3 -9 -15 -7 -25 2 -14 13 -18 51 -19 48 -1 80 17 61
34 -12 11 -92 19 -105 10z"/>
<path d="M9258 3179 c-5 -4 -8 -15 -6 -25 2 -15 12 -18 51 -17 26 0 52 1 57 2
11 1 14 41 3 42 -45 4 -97 3 -105 -2z"/>
<path d="M9470 3182 c-13 -5 -13 -42 0 -43 6 -1 31 -2 58 -2 41 -1 47 1 50 21
2 12 0 22 -5 23 -38 3 -95 3 -103 1z"/>
<path d="M9680 3182 c-13 -5 -13 -42 0 -43 6 -1 31 -2 58 -2 41 -1 47 1 50 21
2 12 0 22 -5 23 -38 3 -95 3 -103 1z"/>
<path d="M9891 3182 c-12 -4 -15 -41 -3 -43 85 -11 141 6 114 33 -11 11 -88
18 -111 10z"/>
<path d="M1693 3163 c-26 -17 -30 -41 -9 -49 23 -9 76 24 76 46 0 25 -35 26
-67 3z"/>
<path d="M3547 3173 c-15 -14 -5 -39 24 -62 28 -22 32 -23 47 -8 15 15 14 19
-13 47 -28 30 -45 36 -58 23z"/>
<path d="M3881 3161 c-25 -19 -24 -51 1 -51 23 0 80 40 75 53 -6 19 -50 19
-76 -2z"/>
<path d="M5733 3164 c-8 -22 48 -77 70 -68 24 9 21 26 -11 57 -32 31 -50 34
-59 11z"/>
<path d="M7923 3164 c-4 -11 5 -26 26 -45 54 -47 86 -13 34 36 -32 29 -51 32
-60 9z"/>
<path d="M8236 3157 c-25 -20 -26 -24 -12 -36 22 -18 86 11 86 39 0 28 -37 26
-74 -3z"/>
<path d="M10093 3164 c-8 -22 48 -77 70 -68 24 9 21 26 -11 57 -32 31 -50 34
-59 11z"/>
<path d="M1644 3027 c-3 -8 -4 -34 -2 -58 3 -37 7 -45 26 -47 22 -3 23 -1 20
55 -2 46 -7 59 -21 61 -9 2 -20 -3 -23 -11z"/>
<path d="M3839 3033 c-10 -89 0 -132 28 -115 9 6 17 66 14 110 -1 13 -40 17
-42 5z"/>
<path d="M6029 3031 c-1 -6 -2 -32 -2 -58 -1 -45 0 -48 23 -48 24 0 25 3 25
55 0 49 -2 55 -22 58 -13 2 -23 -1 -24 -7z"/>
<path d="M8197 3033 c-7 -12 -3 -97 6 -110 4 -7 14 -10 22 -6 11 4 15 21 15
64 0 52 -2 59 -19 59 -11 0 -22 -3 -24 -7z"/>
<path d="M3592 2953 c3 -50 6 -58 23 -58 18 0 20 7 20 55 0 50 -2 55 -23 58
-22 3 -23 1 -20 -55z"/>
<path d="M5782 2953 c3 -50 6 -58 23 -58 18 0 20 7 20 55 0 50 -2 55 -23 58
-22 3 -23 1 -20 -55z"/>
<path d="M7974 2996 c-3 -7 -4 -33 -2 -57 2 -36 7 -44 23 -44 17 0 20 8 23 58
3 52 1 57 -18 57 -11 0 -23 -6 -26 -14z"/>
<path d="M10139 3001 c-6 -87 5 -119 36 -107 13 4 15 17 13 58 -3 46 -6 53
-25 56 -13 2 -23 -1 -24 -7z"/>
<path d="M2015 2968 c-9 -21 -18 -23 -97 -26 -88 -3 -88 -3 -88 -37 0 -34 0
-34 108 -37 107 -3 107 -3 110 -30 3 -27 3 -27 -75 -30 -78 -3 -78 -3 -81 -40
-3 -38 -3 -38 57 -38 52 0 61 -3 66 -21 10 -31 -3 -38 -79 -41 -76 -3 -102
-21 -80 -55 9 -14 28 -19 83 -21 66 -3 73 -5 81 -28 10 -24 10 -24 247 -22
238 3 238 3 241 226 2 222 2 222 -240 222 -243 0 -243 0 -253 -22z m406 -58
c17 -10 19 -22 19 -135 0 -68 -3 -130 -6 -139 -9 -24 -329 -24 -338 0 -3 9 -6
71 -6 139 0 108 2 125 18 134 23 14 288 14 313 1z"/>
<path d="M2129 2878 c-1 -2 -3 -52 -4 -111 -1 -93 1 -107 14 -105 11 3 15 13
13 31 -4 37 18 35 40 -3 10 -18 25 -30 38 -30 28 0 25 13 -10 53 -16 19 -30
37 -30 41 0 3 14 6 30 6 30 0 30 0 30 60 0 60 0 60 -60 60 -33 0 -61 -1 -61
-2z m79 -37 c25 -15 10 -46 -23 -46 -21 0 -31 5 -33 19 -4 18 13 36 33 36 6 0
16 -4 23 -9z"/>
<path d="M2290 2772 c0 -120 1 -122 63 -122 65 0 78 46 15 52 -33 3 -33 3 -33
68 0 65 0 65 35 70 22 3 35 10 35 20 0 11 -14 16 -57 18 -58 3 -58 3 -58 -106z"/>
<path d="M4213 2973 c-11 -29 -24 -33 -110 -33 -83 0 -83 0 -83 -35 0 -34 0
-34 108 -37 107 -3 107 -3 110 -30 3 -27 3 -27 -75 -30 -78 -3 -78 -3 -81 -40
-3 -38 -3 -38 51 -38 57 0 84 -16 74 -44 -4 -11 -26 -16 -78 -18 -55 -2 -74
-7 -83 -20 -8 -13 -8 -23 0 -35 9 -14 28 -19 83 -21 66 -3 73 -5 81 -27 10
-25 10 -25 249 -25 240 0 240 0 243 93 2 50 2 152 0 225 -3 132 -3 132 -243
132 -219 0 -240 -1 -246 -17z m398 -63 c17 -10 19 -22 19 -135 0 -68 -3 -130
-6 -139 -9 -24 -329 -24 -338 0 -3 9 -6 71 -6 139 0 108 2 125 18 134 23 14
288 14 313 1z"/>
<path d="M4319 2878 c0 -2 -1 -50 -2 -108 -1 -94 1 -105 17 -108 15 -3 17 1
11 27 -8 39 15 43 35 5 17 -31 46 -49 55 -33 4 6 -7 28 -24 49 -17 21 -31 41
-31 44 0 3 13 6 29 6 28 0 29 2 33 50 1 28 2 55 0 60 -3 8 -120 15 -123 8z
m86 -42 c16 -12 17 -16 6 -30 -7 -9 -24 -16 -38 -16 -31 0 -42 29 -18 46 23
17 27 17 50 0z"/>
<path d="M4480 2770 c0 -107 1 -110 24 -116 13 -3 38 -4 57 -2 26 2 34 8 34
23 0 15 -8 21 -35 25 -35 5 -35 5 -35 70 0 65 0 65 38 68 29 3 37 7 37 23 0
17 -7 19 -60 19 -60 0 -60 0 -60 -110z"/>
<path d="M6400 2965 c-9 -23 -14 -24 -97 -27 -88 -3 -88 -3 -88 -33 0 -30 0
-30 105 -35 105 -5 105 -5 108 -32 3 -27 3 -27 -75 -30 -78 -3 -78 -3 -81 -40
-3 -37 -3 -37 60 -40 60 -3 63 -4 63 -28 0 -24 -3 -25 -75 -30 -75 -5 -75 -5
-75 -40 0 -35 0 -35 77 -38 70 -3 77 -5 80 -25 3 -22 4 -22 237 -25 129 -1
238 1 243 6 6 6 13 335 9 430 -1 9 -56 12 -241 12 -240 0 -240 0 -250 -25z
m408 -53 c9 -7 12 -43 10 -148 -3 -139 -3 -139 -168 -139 -165 0 -165 0 -168
139 -2 105 1 141 10 148 7 4 78 8 158 8 80 0 151 -4 158 -8z"/>
<path d="M6509 2785 c-1 -52 -2 -101 -3 -107 -1 -7 8 -14 18 -16 16 -4 18 0
13 27 -9 42 17 42 38 1 9 -18 23 -30 35 -30 27 0 25 22 -5 50 -33 31 -32 48 3
52 26 3 27 5 27 58 0 55 0 55 -62 58 -63 3 -63 3 -64 -93z m86 51 c26 -19 13
-46 -24 -46 -35 0 -50 28 -25 47 22 16 26 16 49 -1z"/>
<path d="M6677 2873 c-4 -3 -7 -53 -7 -109 0 -101 1 -104 24 -110 13 -3 38 -4
57 -2 26 2 35 8 37 25 3 19 -2 22 -35 25 -37 3 -38 4 -41 47 -5 73 3 91 42 91
31 0 53 19 39 34 -9 8 -108 8 -116 -1z"/>
<path d="M8570 2965 c-9 -24 -13 -25 -100 -25 -90 0 -90 0 -90 -35 0 -34 0
-34 108 -37 107 -3 107 -3 107 -28 0 -24 -3 -25 -75 -30 -75 -5 -75 -5 -78
-42 -3 -37 -3 -37 60 -40 60 -3 63 -4 63 -28 0 -24 -3 -25 -74 -30 -81 -5
-107 -23 -85 -57 9 -14 28 -19 83 -21 66 -3 73 -5 81 -28 10 -24 10 -24 247
-22 238 3 238 3 241 226 2 222 2 222 -238 222 -240 0 -240 0 -250 -25z m403
-58 c15 -11 17 -29 15 -147 -3 -135 -3 -135 -173 -135 -170 0 -170 0 -173 134
-2 90 1 138 9 147 16 19 297 20 322 1z"/>
<path d="M8677 2873 c-4 -3 -7 -53 -7 -110 0 -94 2 -104 18 -101 12 2 16 11
14 31 -5 37 18 35 40 -3 10 -18 25 -30 38 -30 28 0 25 13 -10 53 -16 19 -30
37 -30 41 0 3 14 6 30 6 30 0 30 0 30 60 0 60 0 60 -58 60 -32 0 -62 -3 -65
-7z m91 -55 c-2 -18 -10 -23 -33 -23 -23 0 -31 5 -33 23 -3 19 1 22 33 22 32
0 36 -3 33 -22z"/>
<path d="M8842 2768 c3 -113 3 -113 37 -116 50 -5 83 6 79 26 -2 11 -16 19
-38 22 -35 5 -35 5 -35 70 0 65 0 65 38 68 29 3 37 7 37 23 0 17 -7 19 -60 19
-61 0 -61 0 -58 -112z"/>
<path d="M12254 2973 c-12 -2 -30 -13 -40 -25 -16 -17 -19 -41 -22 -164 -3
-144 -3 -144 22 -144 26 0 26 0 26 95 0 95 0 95 40 95 33 0 40 3 40 20 0 17
-7 20 -41 20 -38 0 -40 1 -37 28 3 23 8 28 43 32 32 4 40 9 40 25 0 21 -26 28
-71 18z"/>
<path d="M13717 2974 c-4 -4 -7 -81 -7 -171 0 -164 0 -164 23 -161 21 3 22 7
19 75 -5 94 2 113 38 113 44 0 60 -31 60 -118 0 -70 1 -73 23 -70 12 2 22 9
21 16 -1 6 -2 45 -2 86 -2 94 -19 117 -88 125 -49 6 -49 6 -49 56 0 37 -4 50
-15 53 -9 1 -19 0 -23 -4z"/>
<path d="M14056 2972 c-3 -5 -6 -80 -7 -168 -1 -159 -1 -159 23 -159 20 0 23
4 20 36 -4 50 13 57 46 18 50 -59 61 -69 77 -63 23 9 19 19 -30 74 -25 28 -45
55 -45 60 0 4 18 24 40 43 46 39 51 57 16 57 -17 0 -34 -12 -52 -35 -44 -57
-56 -48 -54 43 1 42 2 83 1 90 -1 13 -27 17 -35 4z"/>
<path d="M15144 2968 c-11 -18 -4 -301 8 -315 17 -21 58 -16 58 6 0 10 -7 21
-15 25 -12 4 -15 33 -17 147 -2 97 -7 144 -15 146 -6 2 -15 -2 -19 -9z"/>
<path d="M13431 2942 c-8 -15 -7 -23 4 -32 21 -18 47 -4 43 22 -4 29 -34 35
-47 10z"/>
<path d="M11283 2943 c-10 -4 -13 -43 -13 -154 0 -149 0 -149 25 -149 25 0 25
0 25 149 0 150 -4 165 -37 154z"/>
<path d="M11631 2931 c-10 -7 -12 -35 -10 -129 5 -143 15 -162 86 -162 31 0
45 5 50 16 8 21 -12 32 -44 26 -34 -6 -43 11 -43 85 0 62 0 62 43 65 58 4 59
32 0 36 -39 3 -42 5 -45 34 -3 34 -15 43 -37 29z"/>
<path d="M13547 2933 c-4 -3 -7 -62 -7 -130 0 -147 9 -163 86 -163 41 0 45 2
42 23 -2 18 -8 21 -34 19 -43 -4 -56 15 -52 85 3 58 3 58 46 61 34 3 43 7 40
20 -2 12 -16 19 -43 22 -37 5 -40 8 -43 38 -3 30 -19 41 -35 25z"/>
<path d="M2793 2883 c-19 -7 -17 -156 2 -193 30 -58 130 -51 152 11 18 51 17
175 -2 182 -23 9 -29 -13 -26 -89 4 -93 -23 -124 -80 -94 -16 9 -19 22 -19 95
0 84 -4 96 -27 88z"/>
<path d="M3132 2878 c-5 -5 -7 -37 -4 -75 6 -82 -4 -80 -56 7 -25 40 -47 66
-60 68 -19 3 -20 -2 -19 -110 2 -93 5 -113 17 -113 12 0 15 14 14 68 -1 71 14
89 37 45 32 -62 74 -118 87 -116 11 2 15 27 16 115 2 111 -6 137 -32 111z"/>
<path d="M4983 2882 c-14 -9 -16 -137 -2 -178 13 -41 56 -61 107 -48 30 7 39
16 49 44 18 52 17 176 -2 183 -22 9 -28 -10 -26 -88 2 -77 -11 -105 -49 -105
-40 0 -53 29 -47 106 5 73 -4 102 -30 86z"/>
<path d="M5323 2877 c-4 -7 -6 -41 -4 -76 2 -41 -1 -62 -8 -60 -5 2 -28 33
-50 69 -24 41 -45 65 -57 65 -15 0 -18 -13 -21 -108 -3 -91 -1 -108 12 -113
24 -10 28 1 26 71 -2 73 9 83 35 33 10 -18 27 -46 38 -63 49 -71 59 -60 61 72
2 85 -1 113 -11 117 -7 3 -17 0 -21 -7z"/>
<path d="M7173 2879 c-5 -5 -8 -46 -6 -91 4 -116 31 -148 109 -134 52 10 64
37 64 138 0 81 -2 88 -20 88 -18 0 -20 -7 -20 -83 0 -88 -8 -107 -46 -107 -38
0 -48 25 -45 110 1 59 -1 79 -12 83 -8 3 -19 1 -24 -4z"/>
<path d="M7521 2881 c-9 -6 -12 -27 -9 -71 2 -37 -1 -65 -7 -66 -5 -2 -28 28
-50 66 -58 101 -74 96 -77 -20 -1 -49 -2 -100 -2 -112 -1 -17 5 -23 19 -23 18
0 20 6 17 68 -2 39 0 67 6 67 5 0 27 -29 48 -65 66 -111 84 -101 84 45 0 109
-4 126 -29 111z"/>
<path d="M9343 2883 c-16 -6 -18 -137 -3 -180 19 -53 91 -70 134 -30 21 19 25
33 29 109 3 64 1 90 -8 98 -21 18 -30 -8 -30 -93 0 -80 -8 -96 -47 -97 -38 0
-51 30 -46 107 5 73 -3 95 -29 86z"/>
<path d="M9682 2878 c-7 -7 -9 -35 -5 -76 8 -81 -4 -80 -55 8 -24 43 -45 66
-58 68 -21 3 -21 -1 -23 -107 -1 -109 6 -134 33 -112 8 7 10 27 6 66 -3 31 -4
58 -1 60 11 11 22 3 41 -32 44 -80 57 -98 75 -98 16 0 18 11 19 112 1 112 -6
137 -32 111z"/>
<path d="M2570 2770 c0 -91 3 -112 15 -117 23 -8 29 3 30 50 0 36 3 42 22 45
35 5 60 -15 67 -53 7 -37 30 -55 47 -38 7 7 4 24 -10 53 -18 38 -19 45 -6 63
21 30 19 63 -5 87 -16 16 -33 20 -90 20 -70 0 -70 0 -70 -110z m135 40 c0 -23
-4 -25 -45 -25 -42 0 -45 2 -48 28 -3 28 -3 28 45 25 44 -3 48 -5 48 -28z"/>
<path d="M3233 2865 c-48 -34 -51 -144 -6 -187 38 -35 107 -32 139 6 28 31 27
50 -2 54 -12 2 -23 -6 -29 -20 -14 -31 -57 -36 -84 -9 -26 26 -27 81 -3 111
19 24 73 31 80 11 2 -6 11 -18 19 -27 12 -11 18 -12 29 -3 19 16 18 22 -12 53
-31 30 -95 36 -131 11z"/>
<path d="M4764 2867 c-2 -7 -3 -58 -2 -113 3 -91 5 -99 23 -99 17 0 20 6 17
43 -3 47 10 59 53 48 17 -4 28 -17 36 -46 12 -40 35 -58 52 -41 6 6 2 25 -11
52 -19 37 -19 44 -6 63 20 29 18 62 -6 86 -16 16 -33 20 -85 20 -45 0 -67 -4
-71 -13z m131 -57 c0 -23 -4 -25 -45 -25 -42 0 -45 2 -48 28 -3 28 -3 28 45
25 44 -3 48 -5 48 -28z"/>
<path d="M5415 2855 c-21 -20 -25 -34 -25 -84 0 -49 4 -65 24 -88 20 -23 32
-28 71 -28 39 0 51 5 71 28 13 15 24 35 24 43 0 23 -36 16 -54 -11 -25 -39
-71 -33 -95 12 -41 79 50 160 101 90 11 -15 25 -24 33 -20 22 8 18 31 -10 58
-34 35 -106 35 -140 0z"/>
<path d="M6960 2873 c-5 -225 -6 -218 15 -218 17 0 20 7 20 45 0 39 3 45 22
48 32 5 60 -14 68 -45 8 -34 23 -53 41 -53 19 0 17 24 -6 69 -17 34 -18 41 -5
51 21 17 19 73 -3 93 -13 12 -37 17 -85 17 -37 0 -67 -3 -67 -7z m128 -45 c22
-22 -5 -48 -49 -48 -41 0 -57 15 -45 45 7 18 76 21 94 3z"/>
<path d="M7612 2860 c-28 -26 -36 -59 -29 -117 7 -61 34 -88 91 -88 49 0 96
33 96 67 0 27 -35 22 -54 -7 -20 -30 -56 -33 -81 -5 -21 23 -24 92 -5 115 19
23 77 19 90 -5 14 -26 50 -27 50 -1 0 53 -113 82 -158 41z"/>
<path d="M9120 2770 c0 -92 3 -112 16 -117 22 -8 33 14 27 53 -6 38 10 50 52
40 18 -5 28 -17 37 -47 12 -43 32 -59 49 -42 7 7 4 24 -11 53 -20 38 -20 43
-6 65 21 33 20 61 -4 85 -16 16 -33 20 -90 20 -70 0 -70 0 -70 -110z m135 40
c0 -23 -4 -25 -47 -28 -48 -3 -48 -3 -48 28 0 31 0 31 48 28 43 -3 47 -5 47
-28z"/>
<path d="M9776 2857 c-53 -53 -37 -165 27 -195 39 -19 91 -7 117 25 24 31 25
42 3 50 -11 4 -23 -3 -37 -20 -38 -48 -92 -29 -103 35 -11 73 48 118 94 72 46
-46 78 -24 37 25 -22 26 -33 31 -70 31 -34 0 -51 -6 -68 -23z"/>
<path d="M11393 2863 c-9 -3 -13 -36 -13 -114 0 -109 0 -109 25 -109 25 0 25
0 25 95 0 95 0 95 29 95 49 0 61 -21 61 -111 0 -78 1 -80 23 -77 12 2 22 9 21
16 -1 6 -2 46 -2 87 -2 66 -5 79 -27 100 -20 21 -34 25 -77 24 -29 0 -59 -3
-65 -6z"/>
<path d="M11814 2839 c-25 -26 -29 -38 -29 -84 0 -46 4 -58 29 -84 26 -28 36
-31 87 -31 39 0 59 4 62 14 9 23 -12 34 -56 29 -33 -4 -46 -1 -61 15 -27 31
-12 42 59 42 35 0 67 4 70 10 11 17 -15 89 -38 105 -37 26 -89 19 -123 -16z
m104 -36 c3 -21 -1 -23 -37 -23 -46 0 -58 12 -35 35 24 23 68 16 72 -12z"/>
<path d="M12043 2863 c-7 -5 -12 -47 -14 -113 -3 -102 -2 -105 19 -108 13 -2
22 2 23 10 0 7 1 49 2 93 2 80 2 80 42 85 27 3 40 10 40 20 0 11 -13 16 -50
18 -27 1 -55 -1 -62 -5z"/>
<path d="M12360 2850 c0 -17 7 -20 44 -20 44 0 74 -19 61 -40 -3 -5 -21 -10
-39 -10 -72 0 -112 -74 -66 -120 26 -26 144 -30 154 -4 9 23 7 103 -4 149 -12
51 -32 65 -97 65 -46 0 -53 -3 -53 -20z m108 -142 c3 -26 1 -28 -33 -28 -37 0
-52 17 -41 46 4 10 16 14 38 12 28 -2 34 -8 36 -30z"/>
<path d="M12601 2842 c-80 -80 -31 -202 81 -202 45 0 49 2 46 22 -3 20 -8 22
-44 20 -34 -3 -45 1 -58 20 -21 29 -20 77 0 107 13 18 24 22 58 19 35 -3 41 0
41 17 0 17 -8 20 -48 23 -41 3 -51 -1 -76 -26z"/>
<path d="M12801 2849 c-58 -54 -54 -147 9 -196 22 -18 126 -17 133 1 9 23 -12
34 -56 29 -33 -4 -46 -1 -61 15 -27 31 -12 42 59 42 35 0 66 4 69 8 10 16 -14
88 -35 105 -30 24 -90 22 -118 -4z m97 -46 c3 -21 -1 -23 -37 -23 -46 0 -58
12 -35 35 24 23 68 16 72 -12z"/>
<path d="M13080 2858 c0 -7 15 -58 34 -113 27 -81 38 -101 55 -103 12 -2 23 3
25 10 19 61 40 107 47 103 4 -3 15 -28 24 -56 17 -51 38 -70 56 -52 13 13 69
180 69 205 0 30 -39 23 -46 -9 -16 -73 -32 -118 -40 -116 -5 1 -18 33 -29 72
-27 95 -44 94 -73 -4 -12 -41 -26 -75 -31 -75 -5 0 -14 21 -21 48 -23 91 -26
97 -48 100 -13 2 -22 -2 -22 -10z"/>
<path d="M13437 2864 c-13 -14 -8 -211 6 -222 29 -25 38 2 35 114 -2 89 -6
109 -18 112 -9 1 -19 0 -23 -4z"/>
<path d="M14297 2859 c-24 -14 -47 -69 -47 -111 0 -42 33 -96 63 -103 13 -4
43 -5 68 -3 36 2 44 6 44 23 0 18 -6 20 -46 17 -48 -4 -79 14 -79 44 0 11 16
14 70 14 70 0 70 0 70 39 0 54 -36 91 -87 91 -21 0 -46 -5 -56 -11z m81 -41
c25 -25 13 -38 -33 -38 -30 0 -45 4 -45 13 0 19 21 37 45 37 12 0 26 -5 33
-12z"/>
<path d="M14511 2861 c-10 -7 -14 -35 -15 -113 0 -98 1 -103 21 -106 21 -3 22
1 25 90 3 93 3 93 41 96 29 3 37 7 37 23 0 16 -7 19 -47 19 -27 0 -54 -4 -62
-9z"/>
<path d="M14667 2863 c-4 -3 -7 -55 -7 -115 0 -101 1 -108 20 -108 11 0 20 6
21 13 0 6 1 48 2 92 2 80 2 80 33 83 46 5 59 -18 59 -107 1 -71 2 -76 23 -79
21 -3 22 0 22 78 0 84 -15 132 -45 144 -22 8 -120 8 -128 -1z"/>
<path d="M14926 2847 c-29 -30 -42 -95 -26 -141 16 -49 49 -68 113 -64 44 3
52 6 52 23 0 18 -6 20 -45 17 -36 -3 -50 1 -64 17 -27 30 -11 41 59 41 35 0
66 4 69 8 10 16 -14 88 -35 105 -32 25 -94 22 -123 -6z m103 -36 c14 -24 5
-31 -39 -31 -44 0 -53 7 -39 31 6 12 21 19 39 19 18 0 33 -7 39 -19z"/>
<path d="M1647 2824 c-13 -14 -8 -112 6 -117 28 -10 38 9 35 64 -2 39 -7 55
-18 57 -9 1 -19 0 -23 -4z"/>
<path d="M3844 2818 c-14 -23 -12 -97 3 -109 21 -18 35 3 36 53 0 60 -19 88
-39 56z"/>
<path d="M6034 2818 c-16 -25 -11 -99 7 -109 25 -13 36 8 35 66 -1 38 -5 50
-18 53 -9 2 -20 -3 -24 -10z"/>
<path d="M8197 2823 c-10 -16 -2 -102 11 -115 21 -21 33 5 30 63 -2 41 -7 55
-20 57 -9 2 -18 -1 -21 -5z"/>
<path d="M10348 2819 c-6 -4 -8 -14 -5 -22 4 -11 20 -14 61 -13 53 1 88 17 73
33 -10 9 -115 11 -129 2z"/>
<path d="M10553 2814 c-9 -24 7 -31 69 -30 51 1 63 4 66 19 2 9 0 17 -5 18
-74 6 -126 4 -130 -7z"/>
<path d="M10773 2823 c-19 -7 -16 -31 5 -36 15 -3 74 -3 110 2 13 1 17 30 5
32 -26 4 -110 5 -120 2z"/>
<path d="M10981 2822 c-12 -4 -15 -31 -3 -33 4 -1 33 -2 65 -4 44 -2 60 1 64
11 3 8 3 18 0 21 -7 6 -110 10 -126 5z"/>
<path d="M3590 2740 c0 -58 1 -61 23 -58 20 3 22 9 22 58 0 49 -2 55 -22 58
-22 3 -23 0 -23 -58z"/>
<path d="M5780 2740 c0 -58 1 -61 23 -58 20 3 22 9 22 58 0 49 -2 55 -22 58
-22 3 -23 0 -23 -58z"/>
<path d="M7974 2786 c-3 -7 -4 -33 -2 -57 2 -37 7 -45 26 -47 21 -3 22 0 22
57 0 55 -2 61 -20 61 -11 0 -23 -6 -26 -14z"/>
<path d="M10140 2740 c0 -58 1 -61 23 -58 20 3 22 9 22 58 0 49 -2 55 -22 58
-22 3 -23 0 -23 -58z"/>
<path d="M1651 2607 c-12 -12 -13 -96 -2 -137 4 -16 15 -26 30 -28 22 -4 24
-1 18 35 -4 21 -7 59 -7 84 0 48 -17 68 -39 46z"/>
<path d="M3843 2608 c-6 -8 -8 -44 -4 -88 5 -67 8 -75 28 -78 20 -3 21 0 17
78 -2 45 -6 86 -9 91 -8 13 -21 11 -32 -3z"/>
<path d="M6033 2608 c-8 -13 -6 -119 3 -150 6 -21 40 -24 47 -5 2 6 0 27 -6
46 -5 19 -6 48 -3 64 9 42 -21 75 -41 45z"/>
<path d="M8204 2610 c-14 -14 -6 -150 10 -167 25 -27 34 1 27 86 -6 82 -15
103 -37 81z"/>
<path d="M3594 2577 c-3 -8 -4 -34 -2 -58 2 -36 7 -44 23 -44 18 0 20 7 20 55
0 44 -3 55 -18 58 -9 2 -20 -3 -23 -11z"/>
<path d="M5787 2584 c-4 -4 -7 -29 -7 -55 0 -34 4 -49 17 -53 26 -10 34 7 31
60 -2 34 -8 50 -18 52 -9 1 -19 0 -23 -4z"/>
<path d="M7977 2584 c-14 -14 -7 -91 8 -104 24 -20 37 1 33 56 -2 34 -8 50
-18 52 -9 1 -19 0 -23 -4z"/>
<path d="M10144 2577 c-3 -8 -4 -34 -2 -58 2 -36 7 -44 23 -44 18 0 20 7 20
55 0 44 -3 55 -18 58 -9 2 -20 -3 -23 -11z"/>
<path d="M1762 2418 c3 -21 9 -23 58 -23 49 0 55 2 58 23 3 21 0 22 -58 22
-58 0 -61 -1 -58 -22z"/>
<path d="M1973 2424 c-9 -25 11 -35 63 -32 42 3 49 6 52 26 3 21 0 22 -53 22
-41 0 -57 -4 -62 -16z"/>
<path d="M2184 2425 c-10 -25 6 -35 55 -35 49 0 79 18 66 40 -10 16 -115 13
-121 -5z"/>
<path d="M2394 2425 c-10 -25 6 -35 55 -35 49 0 79 18 66 40 -10 16 -115 13
-121 -5z"/>
<path d="M2611 2183 c1 -258 1 -258 -399 -263 -375 -5 -401 -6 -421 -24 -21
-19 -21 -25 -21 -445 0 -234 4 -431 8 -437 22 -33 47 -34 861 -34 572 0 817 3
834 11 14 6 30 22 36 36 15 33 15 798 0 841 -6 17 -18 34 -27 39 -9 4 -201 10
-425 13 -408 5 -408 5 -408 235 0 230 0 230 35 233 33 3 52 23 40 43 -3 5 -30
9 -60 9 -55 0 -55 0 -53 -257z m-671 -732 c0 -271 -3 -350 -12 -354 -37 -12
-38 -3 -38 354 0 349 0 349 25 349 25 0 25 0 25 -349z m184 333 c3 -9 6 -161
6 -339 0 -277 -2 -326 -15 -339 -9 -8 -22 -13 -30 -10 -13 5 -15 57 -15 355 0
349 0 349 24 349 13 0 27 -7 30 -16z m180 0 c3 -9 6 -163 6 -344 0 -344 -2
-360 -44 -344 -14 5 -16 42 -16 355 0 349 0 349 24 349 13 0 27 -7 30 -16z
m184 -329 c2 -303 1 -341 -14 -352 -9 -6 -22 -9 -30 -6 -12 4 -14 64 -14 355
0 349 0 349 28 346 27 -3 27 -3 30 -343z m180 -1 c2 -293 0 -343 -13 -354 -8
-7 -22 -10 -30 -6 -13 5 -15 52 -15 356 0 351 0 351 28 348 27 -3 27 -3 30
-344z m180 0 c2 -293 0 -343 -13 -354 -8 -7 -22 -10 -30 -6 -13 5 -15 51 -15
349 0 189 3 347 7 351 4 4 16 6 28 4 20 -3 20 -9 23 -344z m180 0 c2 -293 0
-343 -13 -354 -8 -7 -22 -10 -30 -6 -13 5 -15 51 -15 349 0 189 3 347 7 351 4
4 16 6 28 4 20 -3 20 -9 23 -344z m180 -5 c2 -302 0 -348 -13 -353 -8 -3 -22
-3 -30 0 -13 5 -15 53 -15 348 0 189 3 346 7 350 4 4 16 6 28 4 20 -3 20 -9
23 -349z m180 -2 c2 -304 0 -348 -13 -353 -8 -4 -22 -1 -30 6 -13 11 -15 63
-15 350 0 185 3 340 7 344 4 4 16 6 28 4 20 -3 20 -9 23 -351z"/>
<path d="M2817 2426 c-9 -24 18 -37 70 -34 40 3 48 6 48 23 0 17 -8 20 -56 23
-43 2 -58 -1 -62 -12z"/>
<path d="M3032 2418 c3 -21 8 -23 58 -23 48 0 55 2 55 20 0 17 -8 20 -58 23
-56 3 -58 2 -55 -20z"/>
<path d="M3242 2418 c3 -21 9 -23 58 -23 49 0 55 2 58 23 3 21 0 22 -58 22
-58 0 -61 -1 -58 -22z"/>
<path d="M3454 2425 c-10 -24 5 -35 50 -35 45 0 68 14 59 36 -7 20 -102 19
-109 -1z"/>
<path d="M3953 2424 c-9 -25 11 -35 63 -32 42 3 49 6 52 26 3 21 0 22 -53 22
-41 0 -57 -4 -62 -16z"/>
<path d="M4162 2418 c3 -21 9 -23 58 -23 49 0 55 2 58 23 3 21 0 22 -58 22
-58 0 -61 -1 -58 -22z"/>
<path d="M4373 2424 c-9 -25 11 -35 63 -32 42 3 49 6 52 26 3 21 0 22 -53 22
-41 0 -57 -4 -62 -16z"/>
<path d="M4585 2430 c-13 -22 17 -40 65 -40 47 0 69 17 54 41 -7 13 -111 11
-119 -1z"/>
<path d="M4803 2413 c4 -15 8 -132 9 -260 3 -232 3 -232 -410 -235 -414 -3
-414 -3 -433 -27 -18 -22 -19 -45 -19 -446 0 -424 0 -424 26 -444 27 -21 32
-21 840 -21 583 0 820 3 838 11 13 7 30 24 36 38 7 18 10 154 8 434 -3 406 -3
406 -26 429 -23 23 -23 23 -425 26 -402 3 -402 3 -400 235 2 232 2 232 35 237
25 4 33 10 33 25 0 17 -8 20 -59 23 -59 3 -59 3 -53 -25z m-679 -629 c3 -9 6
-161 6 -339 0 -277 -2 -326 -15 -339 -9 -8 -22 -13 -30 -10 -13 5 -15 57 -15
355 0 349 0 349 24 349 13 0 27 -7 30 -16z m184 -330 c2 -359 1 -374 -42 -358
-14 5 -16 42 -16 356 0 349 0 349 28 346 27 -3 27 -3 30 -344z m180 0 c2 -359
1 -374 -42 -358 -14 5 -16 42 -16 356 0 349 0 349 28 346 27 -3 27 -3 30 -344z
m180 0 c2 -359 1 -374 -42 -358 -14 5 -16 42 -16 356 0 349 0 349 28 346 27
-3 27 -3 30 -344z m180 0 c2 -293 0 -343 -13 -354 -8 -7 -22 -10 -30 -6 -13 5
-15 51 -15 349 0 189 3 347 7 351 4 4 16 6 28 4 20 -3 20 -9 23 -344z m180 -5
c2 -302 0 -348 -13 -353 -8 -3 -22 -3 -30 0 -13 5 -15 53 -15 348 0 189 3 346
7 350 4 4 16 6 28 4 20 -3 20 -9 23 -349z m180 -2 c2 -304 0 -348 -13 -353 -8
-4 -22 -1 -30 6 -13 11 -15 63 -15 350 0 185 3 340 7 344 4 4 16 6 28 4 20 -3
20 -9 23 -351z m180 0 c2 -304 0 -348 -13 -353 -8 -4 -22 -1 -30 6 -13 11 -15
63 -15 350 0 185 3 340 7 344 4 4 16 6 28 4 20 -3 20 -9 23 -351z m180 0 c2
-304 0 -348 -13 -353 -8 -4 -22 -1 -30 6 -13 11 -15 62 -15 340 0 181 3 336 6
345 4 9 15 15 28 13 21 -3 21 -5 24 -351z"/>
<path d="M5012 2418 c3 -21 8 -23 58 -23 48 0 55 2 55 20 0 17 -8 20 -58 23
-56 3 -58 2 -55 -20z"/>
<path d="M5222 2418 c3 -21 9 -23 58 -23 49 0 55 2 58 23 3 21 0 22 -58 22
-58 0 -61 -1 -58 -22z"/>
<path d="M5432 2418 c3 -21 9 -23 58 -23 49 0 55 2 58 23 3 21 0 22 -58 22
-58 0 -61 -1 -58 -22z"/>
<path d="M5642 2418 c3 -20 10 -23 48 -26 52 -3 73 8 64 31 -5 13 -19 17 -61
17 -51 0 -54 -2 -51 -22z"/>
<path d="M6143 2424 c-9 -25 11 -35 63 -32 42 3 49 6 52 26 3 21 0 22 -53 22
-41 0 -57 -4 -62 -16z"/>
<path d="M6356 2431 c-4 -5 -3 -17 0 -26 5 -12 18 -15 58 -13 44 3 51 6 54 26
3 20 0 22 -52 22 -30 0 -57 -4 -60 -9z"/>
<path d="M6572 2418 c3 -20 10 -23 54 -26 40 -2 53 1 58 13 10 28 -3 35 -60
35 -52 0 -55 -2 -52 -22z"/>
<path d="M6777 2426 c-9 -22 14 -36 59 -36 42 0 72 20 59 40 -10 16 -112 13
-118 -4z"/>
<path d="M6990 2422 c0 -10 4 -22 10 -28 5 -5 10 -106 10 -239 1 -230 1 -230
-392 -235 -282 -4 -399 -8 -414 -17 -12 -7 -24 -27 -28 -44 -8 -41 -8 -777 0
-818 13 -63 -21 -61 879 -61 816 0 816 0 840 25 25 24 25 24 25 440 0 253 -4
424 -10 435 -19 36 -61 40 -469 40 -396 0 -396 0 -396 235 0 234 0 234 30 237
22 2 30 8 30 23 0 17 -8 20 -57 23 -51 3 -58 1 -58 -16z m-640 -971 c0 -313
-2 -350 -16 -355 -42 -16 -44 0 -44 354 0 185 3 340 7 343 3 4 17 7 30 7 23 0
23 0 23 -349z m180 0 c0 -313 -2 -350 -16 -355 -42 -16 -44 0 -44 354 0 185 3
340 7 343 3 4 17 7 30 7 23 0 23 0 23 -349z m180 0 c0 -313 -2 -350 -16 -355
-42 -16 -44 0 -44 354 0 185 3 340 7 343 3 4 17 7 30 7 23 0 23 0 23 -349z
m180 0 c0 -365 -1 -371 -42 -349 -17 8 -18 34 -18 338 0 180 3 335 6 344 3 9
17 16 30 16 24 0 24 0 24 -349z m178 -3 c-3 -345 -3 -353 -23 -353 -20 0 -20
8 -23 353 -2 352 -2 352 23 352 25 0 25 0 23 -352z m180 0 c-3 -345 -3 -353
-23 -353 -20 0 -20 8 -23 353 -2 352 -2 352 23 352 25 0 25 0 23 -352z m186
336 c3 -9 6 -161 6 -338 0 -338 -4 -368 -44 -353 -14 6 -16 40 -16 350 0 189
3 347 7 350 12 13 41 7 47 -9z m180 0 c3 -9 6 -163 6 -344 0 -278 -2 -329 -15
-340 -8 -7 -22 -10 -30 -6 -13 5 -15 51 -15 349 0 189 3 347 7 350 12 13 41 7
47 -9z m184 -330 c2 -293 0 -343 -13 -354 -8 -7 -22 -10 -30 -6 -13 5 -15 51
-15 349 0 189 3 347 7 351 4 4 16 6 28 4 20 -3 20 -9 23 -344z"/>
<path d="M7202 2418 c3 -21 9 -23 58 -23 49 0 55 2 58 23 3 21 0 22 -58 22
-58 0 -61 -1 -58 -22z"/>
<path d="M7413 2424 c-9 -25 11 -35 63 -32 42 3 49 6 52 26 3 21 0 22 -53 22
-41 0 -57 -4 -62 -16z"/>
<path d="M7623 2424 c-9 -25 11 -35 63 -32 42 3 49 6 52 26 3 21 0 22 -53 22
-41 0 -57 -4 -62 -16z"/>
<path d="M7834 2425 c-10 -26 10 -36 62 -33 41 3 49 6 49 23 0 17 -8 20 -53
23 -41 2 -54 0 -58 -13z"/>
<path d="M8312 2418 c3 -21 8 -23 58 -23 48 0 55 2 55 20 0 17 -8 20 -58 23
-56 3 -58 2 -55 -20z"/>
<path d="M8522 2418 c3 -21 9 -23 58 -23 49 0 55 2 58 23 3 21 0 22 -58 22
-58 0 -61 -1 -58 -22z"/>
<path d="M8733 2424 c-9 -25 11 -35 63 -32 42 3 49 6 52 26 3 21 0 22 -53 22
-41 0 -57 -4 -62 -16z"/>
<path d="M8943 2424 c-9 -25 11 -35 63 -32 42 3 49 6 52 26 3 21 0 22 -53 22
-41 0 -57 -4 -62 -16z"/>
<path d="M9162 2180 c3 -259 3 -259 -398 -262 -379 -3 -403 -4 -423 -22 -21
-19 -21 -25 -21 -447 0 -428 0 -428 26 -448 27 -21 32 -21 841 -21 818 0 843
1 865 34 4 6 8 203 8 437 0 420 0 426 -21 445 -20 18 -46 19 -430 24 -410 5
-410 5 -410 235 0 230 0 230 33 235 25 4 34 11 36 28 3 21 0 22 -53 22 -56 0
-56 0 -53 -260z m-672 -729 c0 -271 -3 -350 -12 -354 -37 -12 -38 -3 -38 354
0 349 0 349 25 349 25 0 25 0 25 -349z m185 287 c4 -35 5 -190 3 -346 -2 -230
-6 -284 -17 -291 -40 -25 -41 -13 -41 350 0 349 0 349 24 349 23 0 25 -5 31
-62z m179 46 c3 -9 6 -164 6 -344 0 -304 -1 -330 -17 -338 -42 -22 -43 -16
-43 349 0 349 0 349 24 349 13 0 27 -7 30 -16z m184 -330 c2 -359 1 -374 -42
-358 -14 5 -16 42 -16 348 0 189 3 346 7 350 4 4 16 6 28 4 20 -3 20 -9 23
-344z m180 11 c1 -181 0 -340 -3 -353 -4 -17 -12 -22 -28 -20 -22 3 -22 3 -25
343 -1 187 0 346 3 353 3 7 15 12 27 10 23 -3 23 -3 26 -333z m177 -20 c0
-350 0 -350 -25 -350 -25 0 -25 0 -28 340 -1 187 0 346 3 353 3 7 15 12 27 10
23 -3 23 -3 23 -353z m180 0 c0 -350 0 -350 -25 -350 -25 0 -25 0 -28 340 -1
187 0 346 3 353 3 7 15 12 27 10 23 -3 23 -3 23 -353z m180 0 c0 -350 0 -350
-25 -350 -25 0 -25 0 -28 340 -1 187 0 346 3 353 3 7 15 12 27 10 23 -3 23 -3
23 -353z m180 0 c0 -350 0 -350 -25 -350 -25 0 -25 0 -28 340 -1 187 0 346 3
353 3 7 15 12 27 10 23 -3 23 -3 23 -353z"/>
<path d="M9372 2418 c3 -20 10 -23 54 -26 40 -2 53 1 58 13 10 28 -3 35 -60
35 -52 0 -55 -2 -52 -22z"/>
<path d="M9582 2418 c3 -20 10 -23 49 -26 31 -2 50 2 58 12 21 25 3 36 -55 36
-52 0 -55 -2 -52 -22z"/>
<path d="M9792 2418 c3 -21 8 -23 58 -23 48 0 55 2 55 20 0 17 -8 20 -58 23
-56 3 -58 2 -55 -20z"/>
<path d="M10002 2418 c3 -20 9 -23 53 -23 44 0 50 3 53 23 3 21 0 22 -53 22
-53 0 -56 -1 -53 -22z"/>
<path d="M12260 1595 c-17 -21 -5 -45 24 -45 28 0 37 17 24 43 -11 21 -31 22
-48 2z"/>
<path d="M14032 1601 c-21 -13 -10 -46 16 -49 27 -4 40 22 22 43 -14 17 -20
18 -38 6z"/>
<path d="M11274 1577 c-2 -7 -3 -76 -2 -152 3 -132 4 -140 23 -140 17 0 21 8
25 55 4 43 9 56 23 58 23 5 52 -21 84 -75 23 -40 54 -56 67 -35 2 4 -11 32
-29 62 -33 54 -33 54 -9 83 41 48 26 114 -31 142 -41 19 -144 20 -151 2z m140
-53 c37 -36 -3 -89 -61 -82 -26 3 -28 7 -31 51 -3 47 -3 47 37 47 23 0 46 -7
55 -16z"/>
<path d="M13649 1578 c-13 -11 -14 -34 -10 -141 7 -147 14 -160 86 -155 32 2
40 7 40 23 0 16 -7 20 -33 20 -43 1 -53 18 -50 85 3 55 3 55 43 60 32 4 40 9
40 25 0 17 -7 20 -40 20 -37 0 -40 2 -43 30 -4 39 -14 48 -33 33z"/>
<path d="M11534 1506 c-3 -9 -4 -52 -2 -97 3 -74 6 -83 31 -105 22 -19 40 -24
81 -24 34 0 58 5 65 14 8 9 11 50 9 117 -3 96 -4 104 -23 104 -18 0 -20 -8
-25 -95 -4 -81 -8 -95 -23 -98 -10 -2 -29 3 -42 12 -22 14 -24 24 -27 98 -3
70 -6 83 -21 86 -9 2 -20 -4 -23 -12z"/>
<path d="M11818 1513 c-37 -4 -37 -4 -40 -109 -3 -120 -3 -124 23 -124 22 0
22 0 19 96 -1 54 2 75 15 87 21 21 28 21 54 0 17 -15 21 -31 23 -98 3 -74 5
-80 26 -83 21 -3 22 -1 22 87 0 79 -3 93 -22 115 -24 28 -60 36 -120 29z"/>
<path d="M12058 1513 c-38 -4 -38 -4 -38 -119 0 -107 1 -114 20 -114 23 0 23
-1 20 102 -1 69 0 78 20 88 17 9 26 8 45 -4 28 -18 38 -59 33 -131 -3 -45 -1
-50 20 -53 21 -3 22 -1 22 87 0 79 -3 93 -22 115 -24 28 -59 36 -120 29z"/>
<path d="M12264 1507 c-2 -7 -3 -60 -2 -118 3 -96 4 -104 23 -104 19 0 20 8
23 104 2 67 -1 108 -9 117 -14 18 -28 18 -35 1z"/>
<path d="M12408 1513 c-21 -2 -38 -7 -38 -11 -1 -15 -1 -198 -1 -210 1 -8 10
-12 24 -10 21 3 22 8 25 95 3 99 10 111 56 93 20 -7 25 -17 29 -67 3 -32 5
-71 4 -88 -2 -26 1 -30 23 -30 17 0 25 5 24 18 0 9 -1 49 -2 88 -2 64 -5 73
-31 100 -29 29 -35 30 -113 22z"/>
<path d="M12660 1503 c-91 -46 -68 -203 30 -203 44 0 58 -13 39 -36 -9 -11
-27 -15 -63 -12 -45 3 -51 1 -51 -17 0 -42 121 -38 160 5 15 17 20 42 23 136
3 64 1 119 -4 124 -21 19 -99 20 -134 3z m90 -91 c0 -60 -10 -74 -46 -70 -61
7 -71 96 -14 125 39 20 60 1 60 -55z"/>
<path d="M12993 1501 c-60 -38 -68 -147 -13 -196 25 -23 119 -33 130 -15 16
25 0 41 -36 34 -66 -12 -110 72 -66 127 15 17 28 22 61 21 39 -2 42 0 39 21
-4 31 -70 35 -115 8z"/>
<path d="M13195 1507 c-48 -22 -72 -84 -55 -146 18 -69 81 -99 145 -69 35 16
55 57 55 112 0 82 -74 134 -145 103z m91 -71 c21 -42 9 -85 -30 -106 -26 -14
-28 -14 -52 13 -44 51 -22 127 37 127 23 0 32 -7 45 -34z"/>
<path d="M13430 1511 c-35 -6 -35 -6 -35 -116 0 -106 1 -110 23 -113 21 -3 22
-1 22 87 0 99 11 118 57 100 26 -9 32 -30 35 -119 3 -57 5 -65 23 -65 18 0 20
8 23 72 3 86 -15 138 -53 153 -28 11 -40 11 -95 1z"/>
<path d="M13817 1513 c-4 -3 -7 -15 -7 -26 0 -17 5 -19 39 -13 29 4 44 2 55
-10 25 -24 19 -31 -30 -39 -80 -12 -109 -71 -59 -120 19 -20 34 -25 74 -25 78
0 81 3 81 79 0 97 -14 137 -52 150 -35 12 -91 15 -101 4z m91 -132 c22 -14 10
-56 -16 -59 -47 -7 -71 41 -29 58 28 11 29 11 45 1z"/>
<path d="M14034 1509 c-4 -6 -7 -60 -8 -118 0 -102 1 -106 22 -109 22 -3 23
-3 20 114 -2 78 -7 119 -15 121 -6 2 -14 -1 -19 -8z"/>
<path d="M14170 1511 c-35 -6 -35 -6 -35 -116 0 -106 1 -110 23 -113 21 -3 22
-1 22 87 0 77 3 92 18 100 12 7 26 6 43 -2 22 -11 24 -20 29 -97 5 -77 7 -85
25 -85 18 0 20 8 23 72 3 86 -15 138 -53 153 -28 11 -40 11 -95 1z"/>
<path d="M14440 1513 c-57 -22 -88 -90 -69 -154 17 -56 57 -80 124 -77 44 3
50 6 53 27 3 22 2 23 -37 16 -45 -8 -91 13 -91 40 0 12 15 15 71 15 72 0 72 0
66 46 -3 26 -13 54 -23 65 -21 20 -70 32 -94 22z m54 -49 c30 -30 18 -39 -44
-34 -36 3 -38 9 -11 31 28 23 35 23 55 3z"/>
<path d="M14650 1511 c-35 -6 -35 -6 -35 -116 0 -106 1 -110 23 -113 21 -3 22
-1 22 87 0 96 5 106 50 106 18 0 25 5 25 20 0 22 -26 27 -85 16z"/>
<path d="M14803 1510 c-12 -5 -27 -19 -33 -30 -20 -37 -4 -68 50 -95 28 -14
50 -32 50 -39 0 -20 -32 -28 -73 -21 -39 8 -56 -7 -37 -30 15 -18 89 -20 125
-3 54 24 44 88 -18 120 -23 11 -45 26 -49 32 -13 19 23 37 60 30 31 -6 33 -5
30 17 -2 20 -9 24 -43 26 -22 1 -50 -2 -62 -7z"/>
<path d="M10177 1454 c-4 -4 -7 -14 -7 -21 0 -11 15 -13 68 -11 52 2 67 6 67
18 0 11 -15 16 -60 18 -34 2 -64 0 -68 -4z"/>
<path d="M10385 1450 c-13 -21 12 -31 71 -28 44 2 59 7 59 18 0 19 -119 28
-130 10z"/>
<path d="M10595 1450 c-13 -21 12 -31 71 -28 44 2 59 7 59 18 0 19 -119 28
-130 10z"/>
<path d="M10805 1450 c-13 -21 8 -30 71 -30 57 0 65 2 62 18 -3 14 -15 18 -65
20 -35 2 -64 -2 -68 -8z"/>
<path d="M11017 1446 c-9 -22 2 -26 70 -26 56 0 64 2 61 18 -4 23 -122 31
-131 8z"/>
<path d="M4622 521 c-21 -13 -10 -46 16 -49 27 -4 40 22 22 43 -14 17 -20 18
-38 6z"/>
<path d="M6780 515 c-17 -21 -5 -45 24 -45 29 0 40 24 20 45 -19 19 -28 19
-44 0z"/>
<path d="M9720 516 c0 -8 5 -18 10 -21 24 -15 9 -45 -28 -60 -45 -18 -76 -65
-66 -98 14 -46 33 -57 103 -57 66 0 66 0 63 118 -2 64 -5 118 -6 118 0 1 -18
4 -38 8 -30 5 -38 4 -38 -8z m18 -145 c5 -47 -4 -67 -23 -51 -15 13 -21 71 -8
84 14 13 28 -1 31 -33z"/>
<path d="M11115 516 c-24 -17 -13 -46 19 -46 27 0 42 26 25 46 -14 17 -20 17
-44 0z"/>
<path d="M11195 520 c-4 -6 -2 -17 4 -23 6 -7 12 -58 13 -112 3 -99 3 -99 43
-108 66 -14 125 31 125 94 0 31 -44 69 -80 69 -28 0 -30 2 -30 40 0 33 -3 40
-19 40 -11 0 -26 3 -34 6 -8 3 -18 0 -22 -6z m115 -140 c15 -28 2 -70 -21 -70
-15 0 -19 7 -19 38 0 54 20 70 40 32z"/>
<path d="M11415 516 c-25 -18 -13 -46 20 -46 30 0 43 24 25 45 -15 18 -21 19
-45 1z"/>
<path d="M11505 520 c-4 -7 -2 -17 4 -23 16 -16 15 -182 -2 -196 -23 -18 -37
9 -37 70 0 32 -3 60 -7 62 -5 2 -23 0 -40 -5 -33 -9 -42 -21 -23 -33 14 -8 13
-78 -1 -92 -6 -6 -9 -15 -6 -20 6 -9 304 -9 314 0 3 4 1 12 -5 20 -6 7 -12 40
-14 72 -3 60 -3 60 -33 57 -38 -5 -53 -18 -37 -34 15 -15 16 -80 0 -96 -8 -8
-15 -9 -25 -1 -9 8 -13 41 -13 115 0 96 -2 104 -19 104 -11 0 -26 3 -34 6 -8
3 -18 0 -22 -6z"/>
<path d="M11636 517 c-23 -17 -11 -47 20 -47 29 0 41 24 24 45 -15 18 -21 19
-44 2z"/>
<path d="M11860 515 c-17 -21 -5 -45 24 -45 29 0 40 24 20 45 -19 19 -28 19
-44 0z"/>
<path d="M4400 513 c0 -5 7 -17 15 -27 22 -29 21 -159 -1 -181 -22 -22 -11
-30 47 -31 52 -1 73 12 45 28 -24 13 -22 78 2 78 10 0 24 -6 30 -12 22 -22 41
22 23 51 -8 12 -12 12 -25 2 -26 -22 -48 -6 -44 31 4 39 30 49 59 22 26 -23
46 -6 30 25 -11 19 -21 21 -96 21 -47 0 -85 -3 -85 -7z"/>
<path d="M5543 512 c-48 -4 -60 -17 -65 -76 -3 -36 -1 -39 32 -49 29 -10 36
-17 38 -44 4 -36 -12 -43 -47 -21 -10 6 -26 8 -36 5 -41 -16 23 -65 69 -53 40
10 76 50 76 84 0 33 -32 67 -73 78 -33 8 -24 21 17 26 31 3 57 32 41 45 -6 5
-29 7 -52 5z"/>
<path d="M6160 513 c0 -5 7 -17 15 -27 21 -28 21 -159 -1 -180 -26 -27 -6 -36
74 -36 87 0 98 4 107 43 6 21 4 27 -9 27 -9 0 -16 -5 -16 -10 0 -14 -46 -31
-65 -24 -23 9 -20 74 3 74 10 0 23 -5 29 -11 16 -16 33 -2 33 26 0 29 -16 41
-35 25 -25 -21 -47 -4 -43 32 3 37 35 50 58 23 17 -21 40 -19 40 3 0 34 -21
42 -107 42 -46 0 -83 -3 -83 -7z"/>
<path d="M5738 494 c-16 -8 -28 -21 -28 -29 0 -17 35 -20 45 -5 9 15 45 -7 45
-28 0 -21 -34 -78 -67 -114 -32 -34 -23 -48 30 -47 65 2 91 12 101 42 13 36 5
41 -32 20 -17 -10 -33 -15 -37 -12 -3 4 10 30 30 59 36 53 38 79 11 106 -19
20 -69 24 -98 8z"/>
<path d="M8952 465 c-18 -23 -20 -36 -15 -93 4 -50 10 -72 25 -84 23 -21 27
-21 48 -8 12 8 13 13 3 30 -17 26 -17 92 -1 108 9 9 10 15 2 20 -7 4 -13 16
-15 26 -6 30 -25 30 -47 1z"/>
<path d="M11743 462 c-18 -25 -20 -36 -14 -96 5 -50 12 -72 26 -82 24 -17 27
-17 51 1 18 14 18 16 2 26 -23 13 -25 97 -3 105 19 8 20 24 1 24 -8 0 -16 10
-18 22 -5 32 -21 32 -45 0z"/>
<path d="M4743 435 c-33 -23 -46 -51 -34 -74 7 -13 7 -37 0 -77 -10 -52 -9
-59 7 -71 30 -22 92 -16 119 12 32 31 32 58 -1 84 -24 19 -25 23 -12 39 8 9
18 25 21 35 7 20 26 23 32 5 2 -7 6 -30 10 -51 8 -51 35 -66 105 -58 55 6 55
6 52 76 -2 39 -7 73 -11 78 -4 4 -22 2 -40 -4 -24 -9 -30 -15 -25 -28 14 -31
16 -79 4 -86 -19 -12 -30 15 -30 73 0 28 -2 52 -4 52 -3 0 -16 -4 -31 -10 -24
-9 -81 -2 -126 15 -8 3 -24 -2 -36 -10z m41 -41 c7 -19 -2 -37 -15 -29 -12 8
-12 45 0 45 5 0 12 -7 15 -16z m24 -141 c2 -7 -4 -16 -12 -19 -19 -7 -49 14
-40 28 8 13 46 6 52 -9z"/>
<path d="M5255 417 c-42 -42 -46 -83 -12 -115 27 -26 83 -29 113 -8 24 18 12
31 -29 31 -22 0 -33 5 -35 17 -2 13 5 17 35 20 29 2 39 8 41 24 3 22 -21 48
-56 59 -18 5 -30 -1 -57 -28z m55 -17 c0 -5 -4 -10 -10 -10 -5 0 -10 5 -10 10
0 6 5 10 10 10 6 0 10 -4 10 -10z"/>
<path d="M6622 434 c-32 -22 -45 -50 -33 -73 7 -13 7 -37 0 -77 -10 -52 -9
-59 7 -71 30 -22 92 -16 119 12 32 31 32 58 -1 84 -24 19 -25 23 -12 39 19 23
40 73 33 80 -3 3 -15 6 -28 7 -12 1 -31 4 -42 8 -13 4 -29 1 -43 -9z m42 -40
c7 -19 -2 -37 -15 -29 -12 8 -12 45 0 45 5 0 12 -7 15 -16z m24 -141 c2 -7 -4
-16 -12 -19 -19 -7 -49 14 -40 28 8 13 46 6 52 -9z"/>
<path d="M7122 430 c-77 -47 -55 -150 33 -150 43 0 86 22 72 37 -5 4 -25 8
-45 8 -48 0 -52 29 -5 33 46 5 58 23 33 54 -26 34 -52 39 -88 18z m38 -30 c0
-5 -4 -10 -10 -10 -5 0 -10 5 -10 10 0 6 5 10 10 10 6 0 10 -4 10 -10z"/>
<path d="M7518 434 c-77 -41 -58 -142 30 -160 26 -5 36 -1 62 24 49 49 37 112
-25 138 -40 17 -34 17 -67 -2z m52 -43 c15 -29 12 -71 -6 -78 -20 -8 -34 13
-34 53 0 47 21 60 40 25z"/>
<path d="M8202 430 c-18 -11 -37 -32 -43 -48 -11 -27 -11 -27 -23 3 -21 50
-36 57 -107 48 -56 -8 -64 -11 -60 -28 2 -11 6 -52 8 -91 4 -57 1 -74 -12 -87
-24 -25 -12 -33 41 -31 46 2 67 15 45 29 -24 14 -11 44 22 53 19 5 41 21 54
41 22 32 22 32 37 3 39 -76 145 -60 162 25 5 25 1 36 -23 61 -38 41 -61 46
-101 22z m59 -47 c14 -36 3 -75 -19 -71 -11 2 -18 15 -20 37 -6 61 20 84 39
34z m-186 -33 c0 -25 -5 -36 -17 -38 -15 -3 -18 4 -18 38 0 34 3 41 18 38 12
-2 17 -13 17 -38z"/>
<path d="M8600 433 c-38 -26 -49 -45 -50 -80 0 -45 30 -73 78 -73 39 0 62 14
62 37 0 8 -9 11 -27 7 -32 -5 -59 8 -49 25 4 6 20 11 35 11 57 0 63 48 10 75
-34 18 -30 18 -59 -2z m30 -33 c0 -5 -5 -10 -11 -10 -5 0 -7 5 -4 10 3 6 8 10
11 10 2 0 4 -4 4 -10z"/>
<path d="M9079 435 c-49 -26 -46 -62 8 -105 28 -22 25 -23 -26 -9 -20 6 -24
-16 -6 -35 23 -23 59 -20 92 8 25 21 26 26 15 50 -6 14 -23 31 -37 38 -14 6
-25 15 -25 20 0 11 28 10 35 -2 9 -15 35 -12 35 4 0 16 -37 46 -55 46 -5 -1
-22 -7 -36 -15z"/>
<path d="M10102 430 c-38 -23 -44 -33 -45 -75 -1 -49 26 -75 78 -75 26 0 48 6
55 15 17 20 7 29 -32 29 -17 1 -33 7 -35 13 -5 13 2 17 50 27 31 7 36 35 10
58 -30 25 -49 27 -81 8z m38 -30 c0 -5 -4 -10 -10 -10 -5 0 -10 5 -10 10 0 6
5 10 10 10 6 0 10 -4 10 -10z"/>
<path d="M10246 429 c-36 -28 -35 -65 4 -87 16 -9 30 -20 30 -24 0 -12 -28
-10 -35 2 -11 18 -25 10 -25 -14 0 -29 28 -41 68 -31 62 15 70 59 20 99 -18
14 -29 28 -25 32 4 4 13 2 19 -4 16 -16 38 -15 38 2 0 16 -37 46 -56 46 -6 0
-23 -9 -38 -21z"/>
<path d="M10598 434 c-15 -8 -34 -26 -42 -41 -14 -27 -14 -27 -29 4 -21 39
-36 44 -102 37 -66 -8 -85 -18 -67 -36 19 -19 16 -157 -5 -180 -9 -10 -12 -18
-7 -19 83 -4 106 -3 111 4 3 5 -2 14 -11 19 -28 16 -20 48 14 55 17 3 41 19
55 35 24 29 24 29 52 -2 16 -16 42 -33 60 -36 27 -5 37 -1 63 24 49 49 37 112
-25 138 -40 17 -34 17 -67 -2z m52 -43 c15 -29 12 -71 -6 -78 -20 -8 -34 13
-34 53 0 47 21 60 40 25z m-185 -41 c0 -25 -5 -36 -17 -38 -15 -3 -18 4 -18
38 0 34 3 41 18 38 12 -2 17 -13 17 -38z"/>
<path d="M11000 443 c-25 -9 -50 -35 -50 -53 0 -18 31 -55 52 -63 7 -2 10 -8
6 -12 -4 -4 -15 -2 -23 5 -12 10 -19 10 -28 1 -21 -21 6 -46 47 -45 71 2 89
54 34 98 -18 14 -29 28 -25 32 4 4 13 2 19 -4 16 -16 38 -15 38 2 0 32 -35 52
-70 39z"/>
<path d="M12000 433 c-38 -26 -49 -45 -50 -80 0 -45 30 -73 78 -73 36 0 62 14
62 32 0 4 -12 8 -27 8 -16 0 -34 4 -42 9 -20 13 -4 31 28 31 57 0 63 48 10 75
-34 18 -30 18 -59 -2z m30 -33 c0 -5 -5 -10 -11 -10 -5 0 -7 5 -4 10 3 6 8 10
11 10 2 0 4 -4 4 -10z"/>
<path d="M12136 429 c-14 -11 -26 -28 -26 -38 0 -19 31 -56 52 -64 7 -2 10 -8
6 -12 -4 -4 -14 -2 -22 4 -17 14 -36 7 -36 -13 0 -45 88 -44 117 1 17 26 17
26 -22 59 -39 35 -44 56 -6 32 32 -20 49 4 22 31 -27 27 -51 27 -85 0z"/>
<path d="M4623 428 c-33 -9 -42 -21 -23 -33 17 -10 12 -83 -6 -93 -28 -16 -6
-31 39 -27 42 3 42 3 39 77 -2 40 -7 76 -10 79 -4 3 -22 2 -39 -3z"/>
<path d="M5092 432 c-21 -3 -22 -7 -16 -58 5 -37 3 -58 -6 -69 -17 -21 -10
-25 44 -30 49 -4 68 9 41 29 -24 18 -17 80 10 82 11 1 26 2 33 3 8 1 12 10 10
24 -3 19 -9 22 -48 22 -25 0 -55 -1 -68 -3z"/>
<path d="M6435 433 c-60 -5 -74 -16 -50 -39 11 -12 15 -27 12 -48 -3 -17 -7
-40 -9 -51 -2 -11 2 -20 10 -19 6 1 48 2 92 3 80 1 80 1 74 44 -4 23 -12 58
-18 77 -12 38 -19 40 -111 33z m61 -67 c7 -31 -4 -68 -19 -63 -7 2 -13 22 -15
45 -2 32 0 42 12 42 9 0 18 -11 22 -24z"/>
<path d="M6795 430 c-23 -4 -29 -10 -26 -25 2 -11 4 -36 4 -55 0 -19 -2 -43
-4 -53 -4 -17 7 -18 144 -20 144 -2 148 -1 141 18 -3 11 -9 40 -11 65 -7 66
-25 82 -87 75 -93 -11 -98 -13 -86 -36 16 -29 9 -94 -10 -94 -11 0 -16 15 -18
60 -2 33 -6 63 -10 66 -4 3 -20 3 -37 -1z m183 -82 c-4 -51 -31 -61 -36 -15
-4 37 4 57 23 57 13 0 15 -9 13 -42z"/>
<path d="M7339 411 c-56 -56 -28 -131 50 -131 38 0 68 20 57 38 -3 5 -18 7
-35 4 -35 -5 -55 23 -45 63 7 28 15 31 44 13 23 -15 46 1 37 26 -11 28 -74 20
-108 -13z"/>
<path d="M7687 432 c-25 -3 -28 -7 -22 -25 16 -52 17 -78 1 -102 -9 -14 -13
-25 -9 -26 5 0 71 0 148 0 140 1 140 1 137 48 -2 27 -10 63 -18 82 -13 31 -17
33 -46 27 -34 -7 -40 -7 -118 -3 -25 1 -58 1 -73 -1z m91 -77 c1 -17 -2 -36
-7 -44 -15 -23 -31 -2 -31 40 0 33 3 40 18 37 11 -2 18 -14 20 -33z m97 -10
c0 -29 -4 -40 -15 -40 -11 0 -16 13 -18 43 -3 38 -1 43 15 40 14 -2 18 -13 18
-43z"/>
<path d="M8400 431 c-42 -5 -54 -9 -51 -21 12 -41 12 -92 1 -105 -7 -9 -10
-18 -7 -22 4 -3 48 -6 99 -5 85 0 93 1 90 18 -2 11 -6 39 -9 64 -5 49 -27 81
-52 78 -9 -1 -41 -4 -71 -7z m58 -83 c-4 -51 -31 -61 -36 -15 -4 37 4 57 23
57 13 0 15 -9 13 -42z"/>
<path d="M8775 431 c-54 -6 -52 -3 -38 -74 3 -16 -1 -37 -11 -52 -9 -14 -13
-25 -9 -26 5 0 51 -1 103 -1 74 0 94 3 91 14 -2 7 -8 35 -13 63 -17 89 -16 89
-123 76z m61 -65 c7 -31 -4 -68 -19 -63 -7 2 -13 22 -15 45 -2 32 0 42 12 42
9 0 18 -11 22 -24z"/>
<path d="M9285 428 c-24 -14 -35 -29 -29 -40 9 -14 36 -9 57 9 18 17 19 17 16
-7 -3 -17 -11 -26 -25 -28 -30 -4 -56 -35 -48 -56 9 -24 34 -32 94 -28 51 4
51 4 44 65 -4 34 -13 70 -22 80 -17 19 -57 22 -87 5z"/>
<path d="M9485 433 c-56 -5 -75 -17 -57 -35 15 -15 16 -84 1 -93 -27 -18 5
-27 94 -28 94 -2 98 -1 91 18 -3 11 -9 40 -11 65 -5 49 -27 81 -52 78 -9 -1
-38 -3 -66 -5z m53 -85 c-4 -51 -31 -61 -36 -15 -4 37 4 57 23 57 13 0 15 -9
13 -42z"/>
<path d="M9935 432 c-30 -6 -41 -20 -27 -34 15 -15 16 -84 1 -93 -22 -14 -1
-29 44 -30 52 -3 69 9 42 29 -24 18 -17 80 10 82 11 1 26 2 33 3 8 1 12 10 10
24 -3 19 -9 22 -48 22 -25 0 -54 -1 -65 -3z"/>
<path d="M10795 431 c-54 -6 -52 -3 -38 -74 3 -16 -1 -37 -11 -52 -9 -14 -13
-25 -9 -26 5 0 51 -1 103 -1 74 0 94 3 91 14 -2 7 -8 35 -13 63 -17 89 -16 89
-123 76z m61 -65 c7 -31 -4 -68 -19 -63 -7 2 -13 22 -15 45 -2 32 0 42 12 42
9 0 18 -11 22 -24z"/>
<path d="M11123 428 c-33 -9 -42 -21 -23 -33 14 -8 13 -78 -1 -92 -19 -19 -2
-29 43 -28 32 1 42 5 39 16 -3 8 -7 41 -9 74 -2 33 -7 63 -10 66 -4 3 -22 2
-39 -3z"/>
<path d="M11895 435 c-5 -2 -22 -6 -38 -9 -26 -6 -27 -7 -11 -31 10 -15 14
-36 11 -52 -14 -69 -15 -66 29 -69 41 -2 41 -2 36 75 -4 77 -9 91 -27 86z"/>
<path d="M5971 381 c-8 -5 -11 -16 -7 -26 5 -14 14 -15 49 -10 47 8 63 18 53
34 -8 13 -75 14 -95 2z"/>
<path d="M5642 328 c-16 -16 -15 -33 3 -48 20 -17 47 5 43 34 -4 24 -28 32
-46 14z"/>
</g>
</svg>
