<?xml version="1.0" standalone="no"?>
<!DOCTYPE svg PUBLIC "-//W3C//DTD SVG 20010904//EN"
 "http://www.w3.org/TR/2001/REC-SVG-20010904/DTD/svg10.dtd">
<svg version="1.0" xmlns="http://www.w3.org/2000/svg"
 width="2000.000000pt" height="1261.000000pt" viewBox="0 0 2000.000000 1261.000000"
 preserveAspectRatio="xMidYMid meet">
<metadata>
Created by potrace 1.16, written by Peter Selinger 2001-2019
</metadata>
<g transform="translate(0.000000,1261.000000) scale(0.100000,-0.100000)"
fill="#000000" stroke="none">
<path d="M11330 12181 c-22 -6 -25 -12 -22 -49 6 -69 -3 -82 -54 -82 -63 0
-102 -23 -125 -73 -37 -82 -16 -170 50 -214 29 -19 47 -23 118 -23 58 0 85 4
88 13 2 6 6 108 7 225 3 235 7 222 -62 203z m-30 -220 c11 -21 14 -110 4 -135
-3 -9 -16 -16 -28 -16 -68 0 -101 103 -50 155 22 21 61 19 74 -4z"/>
<path d="M12138 12183 c-28 -4 -28 -4 -28 -224 0 -219 0 -219 45 -219 45 0 45
0 45 60 0 33 4 60 9 60 4 0 27 -27 49 -59 40 -56 44 -59 88 -63 52 -4 65 9 40
39 -8 10 -35 44 -60 77 -45 59 -45 59 -26 86 11 15 36 42 55 59 19 17 35 35
35 41 0 5 -21 10 -46 10 -43 0 -50 -4 -87 -45 -22 -25 -44 -45 -49 -45 -4 0
-8 52 -8 115 0 126 5 118 -62 108z"/>
<path d="M16629 12183 c-4 -28 -6 -54 -7 -95 -2 -48 -2 -48 -45 -42 -56 8
-110 -15 -137 -58 -17 -27 -20 -46 -18 -98 5 -105 54 -150 163 -150 100 0 95
-11 95 235 0 215 0 215 -25 215 -14 0 -25 -3 -26 -7z m-20 -192 c11 -7 15 -33
15 -99 1 -50 -2 -93 -6 -97 -4 -4 -26 -7 -49 -7 -52 1 -87 32 -96 84 -12 77
22 128 85 128 20 0 43 -4 51 -9z"/>
<path d="M16904 12156 c-11 -29 1 -51 26 -51 19 0 26 6 28 24 5 35 -42 58 -54
27z"/>
<path d="M9017 12129 c-20 -11 -49 -38 -65 -61 -24 -37 -27 -50 -27 -128 0
-80 2 -89 29 -124 49 -65 79 -78 169 -73 55 3 83 9 95 20 28 29 3 42 -56 27
-63 -15 -122 0 -151 37 -56 70 -48 187 16 243 33 29 40 31 92 27 31 -3 65 -6
76 -8 14 -3 21 2 23 18 3 18 -4 24 -35 32 -58 16 -124 12 -166 -10z"/>
<path d="M18165 12068 c-39 -85 -125 -307 -125 -321 0 -5 12 -7 27 -5 20 2 29
12 40 42 22 65 27 67 117 62 45 -3 84 -5 88 -5 4 -1 14 -22 21 -48 13 -43 17
-48 47 -51 28 -3 32 -1 25 15 -4 10 -24 63 -45 118 -56 147 -99 246 -111 262
-26 30 -46 14 -84 -69z m94 -75 c17 -43 31 -84 31 -90 0 -9 -21 -13 -70 -13
-38 0 -70 3 -70 6 0 16 64 174 71 174 4 0 21 -35 38 -77z"/>
<path d="M18493 12144 c-23 -5 -23 -6 -23 -205 0 -199 0 -199 25 -199 24 0 25
2 25 75 0 75 0 75 36 75 59 0 123 21 154 50 25 24 30 36 30 77 0 85 -43 120
-157 127 -37 3 -78 2 -90 0z m156 -59 c49 -25 56 -78 15 -116 -20 -19 -36 -24
-82 -24 -57 0 -57 0 -60 64 -2 35 -1 70 2 77 7 19 89 18 125 -1z"/>
<path d="M18820 12148 c0 -2 -1 -93 -3 -203 -2 -200 -2 -200 26 -203 27 -3 27
-3 25 200 -3 202 -3 203 -25 206 -13 2 -23 2 -23 0z"/>
<path d="M10764 12125 c-3 -8 -4 -87 -2 -175 3 -162 3 -162 32 -186 24 -21 37
-24 85 -22 49 3 56 6 59 26 3 21 0 22 -53 22 -68 0 -70 4 -70 120 0 85 0 85
58 88 54 3 58 5 55 25 -3 20 -9 22 -58 22 -55 0 -55 0 -58 48 -3 39 -6 47 -23
47 -11 0 -22 -7 -25 -15z"/>
<path d="M17384 12127 c-3 -8 -4 -88 -2 -177 3 -162 3 -162 31 -186 21 -18 40
-24 75 -24 26 0 53 4 60 9 18 11 10 47 -9 43 -8 -2 -29 -4 -48 -5 -51 -2 -62
22 -59 123 3 85 3 85 61 88 31 2 57 7 57 12 0 6 0 13 0 18 0 4 -26 9 -57 12
-58 5 -58 5 -63 50 -4 32 -10 46 -23 48 -9 2 -20 -3 -23 -11z"/>
<path d="M1960 12108 c-68 -35 -87 -71 -95 -181 -4 -50 -5 -267 -3 -482 3
-435 2 -427 75 -482 36 -28 36 -28 1400 -31 750 -1 1363 -6 1363 -10 0 -5 -27
-59 -60 -121 -33 -62 -60 -115 -60 -117 0 -1 21 -4 48 -6 47 -3 47 -3 50 -495
2 -493 2 -493 -20 -495 -13 0 -35 0 -50 1 -28 2 -37 -15 -19 -34 5 -6 34 -58
64 -116 56 -106 56 -106 -1301 -111 -1322 -4 -1358 -4 -1396 -23 -22 -11 -49
-33 -60 -48 -21 -28 -21 -39 -21 -520 0 -492 0 -492 24 -526 46 -64 48 -64
541 -68 245 -2 851 -3 1348 -3 496 0 902 -3 902 -8 0 -4 -25 -55 -55 -112 -30
-57 -55 -106 -55 -107 0 -1 21 -3 48 -5 47 -3 47 -3 47 -238 0 -235 0 -235
-47 -238 -33 -2 -48 -8 -48 -17 0 -8 5 -17 10 -20 12 -7 110 -199 110 -215 0
-7 -437 -10 -1337 -10 -766 0 -1355 -4 -1377 -10 -23 -5 -54 -23 -75 -44 -36
-36 -36 -36 -39 -517 -3 -477 -2 -482 19 -526 17 -35 32 -50 65 -64 41 -19
119 -19 2711 -19 1694 0 2680 3 2702 10 50 14 76 34 95 73 14 31 16 89 16 509
0 521 1 515 -63 562 -28 21 -31 21 -1363 24 -734 1 -1334 4 -1334 7 0 2 29 59
65 126 36 68 63 125 60 128 -3 3 -26 4 -50 2 -45 -3 -45 -3 -45 240 0 242 0
242 45 237 25 -3 47 -2 50 2 3 4 -20 53 -50 109 -30 55 -55 104 -55 109 0 13
731 22 1745 22 870 0 891 1 923 20 18 11 41 34 52 52 19 32 20 52 20 511 0
335 -3 485 -11 500 -18 34 -52 68 -79 79 -16 7 -489 11 -1343 13 -725 2 -1320
5 -1322 7 -2 2 25 58 60 123 36 66 65 123 65 127 0 4 -21 7 -47 5 -48 -2 -48
-2 -57 251 -5 145 -5 355 0 495 9 242 9 242 51 242 22 0 44 3 47 6 3 3 -21 56
-54 117 -33 60 -60 115 -60 121 0 8 386 11 1348 11 1348 0 1348 0 1392 23 57
28 87 73 96 145 4 31 4 249 1 484 -6 473 -5 462 -74 515 -36 28 -36 28 -2762
31 -2727 2 -2727 2 -2771 -20z m808 -309 c3 -35 5 -37 45 -43 62 -10 71 -18
63 -60 -7 -37 -7 -37 -95 -30 -75 6 -89 4 -105 -11 -29 -30 -14 -48 71 -90
143 -70 183 -131 145 -218 -20 -45 -41 -61 -104 -81 -14 -4 -18 -16 -18 -51 0
-45 0 -45 -45 -45 -45 0 -45 0 -45 43 0 43 0 43 -59 55 -73 15 -85 28 -70 71
11 30 14 32 43 26 17 -3 63 -9 101 -12 63 -4 72 -3 90 17 29 32 13 48 -100
105 -91 46 -100 54 -118 94 -17 38 -18 50 -7 85 13 45 59 93 93 98 18 2 23 10
25 46 3 43 3 43 45 40 40 -3 42 -4 45 -39z m770 -241 c2 -235 0 -279 -13 -291
-21 -22 -152 -32 -213 -17 -56 13 -107 56 -128 107 -19 43 -18 145 2 191 38
92 133 132 228 96 13 -5 16 8 18 88 3 93 3 93 43 99 22 3 45 5 50 4 6 -1 11
-104 13 -277z m1072 111 c0 -87 4 -159 9 -159 5 0 20 15 34 33 14 17 41 49 60
70 32 34 39 37 91 37 31 0 56 -4 56 -8 0 -5 -31 -42 -70 -84 -38 -42 -70 -80
-70 -85 0 -5 11 -20 25 -33 30 -28 125 -164 125 -179 0 -16 -106 -14 -122 3
-7 7 -35 45 -63 84 -27 39 -55 71 -62 72 -8 0 -13 -26 -15 -82 -3 -83 -3 -83
-53 -83 -50 0 -50 0 -53 274 -1 187 1 278 9 287 10 12 74 23 92 16 4 -2 7 -75
7 -163z m1649 97 c27 -14 30 -20 25 -44 -11 -47 -24 -64 -42 -57 -36 14 -116
22 -149 14 -107 -24 -150 -195 -71 -284 43 -49 90 -61 179 -46 39 7 73 11 75
8 3 -3 8 -23 11 -45 5 -37 4 -40 -28 -51 -19 -7 -66 -15 -104 -18 -173 -14
-276 71 -292 241 -12 132 55 247 167 287 65 23 179 21 229 -5z m226 8 c14 -6
16 -31 15 -213 -2 -206 -2 -206 112 -211 113 -5 113 -5 116 -53 3 -47 3 -47
-170 -45 -173 3 -173 3 -176 253 -1 137 0 255 3 262 5 14 71 18 100 7z m440
-259 c0 -260 0 -260 -50 -260 -50 0 -50 0 -53 250 -1 137 0 256 3 263 3 9 20
12 52 10 48 -3 48 -3 48 -263z m-3035 135 c20 -5 50 -24 67 -42 121 -125 58
-345 -104 -364 -92 -11 -160 26 -199 110 -80 172 59 345 236 296z m489 -1 c29
-10 32 -14 25 -43 -10 -46 -10 -46 -75 -46 -50 0 -64 -4 -84 -24 -47 -47 -42
-142 8 -180 22 -16 41 -20 92 -18 64 1 64 1 71 -34 10 -52 -4 -59 -104 -59
-74 0 -93 4 -125 24 -99 61 -115 234 -31 325 54 57 149 81 223 55z m805 -12
c46 -26 74 -74 85 -146 13 -81 7 -84 -137 -79 -135 5 -145 -1 -90 -47 30 -25
37 -27 112 -23 80 3 80 3 90 -30 7 -26 6 -36 -6 -48 -21 -21 -146 -30 -203
-14 -102 29 -161 158 -124 271 39 117 173 174 273 116z m405 17 c30 -6 32 -9
29 -48 -3 -41 -3 -41 -68 -41 -65 -1 -65 -1 -70 -155 -5 -155 -5 -155 -55
-155 -50 0 -50 0 -53 181 -2 143 0 184 11 192 25 21 151 37 206 26z m1805
-2313 c26 -24 26 -24 26 -502 0 -478 0 -478 -22 -503 -23 -26 -23 -26 -2713
-27 -1480 0 -2698 3 -2708 7 -45 17 -47 36 -47 523 0 459 0 459 25 490 17 19
37 31 58 33 18 2 1230 3 2694 3 2661 0 2661 0 2687 -24z m7 -2160 c18 -22 19
-46 19 -503 0 -479 0 -479 -25 -503 -24 -25 -24 -25 -2715 -25 -2692 0 -2692
0 -2721 29 -29 29 -29 29 -29 498 0 507 -1 501 54 523 12 5 1208 8 2709 7
2689 -2 2689 -2 2708 -26z"/>
<path d="M3314 11552 c-21 -14 -34 -51 -34 -101 0 -62 32 -105 86 -115 56 -11
63 2 62 107 -1 51 -3 98 -6 105 -5 13 -89 17 -108 4z"/>
<path d="M3778 11549 c-10 -5 -22 -28 -28 -50 -28 -102 31 -186 107 -154 25
11 34 23 43 56 13 47 6 102 -16 137 -11 16 -24 22 -52 22 -20 0 -45 -5 -54
-11z"/>
<path d="M5052 11554 c-29 -20 -47 -54 -34 -63 5 -3 42 -5 81 -3 80 4 89 15
46 57 -28 29 -61 32 -93 9z"/>
<path d="M3037 9293 c-9 -8 -9 -86 -1 -107 5 -12 21 -16 69 -16 63 0 63 0 67
58 2 31 3 60 1 65 -5 9 -127 10 -136 0z"/>
<path d="M4403 9163 c-9 -3 -13 -33 -13 -98 0 -93 0 -93 -77 -88 -70 5 -81 3
-112 -18 -53 -37 -86 -109 -86 -190 0 -59 4 -73 30 -111 17 -23 49 -53 70 -66
36 -21 50 -23 138 -19 70 3 102 8 108 18 6 8 9 131 7 296 -3 283 -3 283 -28
282 -14 0 -31 -3 -37 -6z m-27 -265 c20 -20 23 -246 3 -259 -23 -16 -116 -5
-140 17 -68 60 -65 202 5 245 35 23 108 21 132 -3z"/>
<path d="M2720 9085 c0 -65 0 -65 64 -65 69 0 76 6 76 72 0 52 -7 58 -76 58
-64 0 -64 0 -64 -65z"/>
<path d="M2876 9134 c-3 -9 -6 -31 -6 -49 0 -60 6 -65 75 -65 63 0 63 0 69 45
12 76 5 85 -69 85 -48 0 -64 -4 -69 -16z"/>
<path d="M3036 9134 c-8 -20 -8 -62 0 -91 6 -21 12 -23 69 -23 62 0 62 0 68
50 9 75 5 80 -68 80 -48 0 -64 -4 -69 -16z"/>
<path d="M3447 9074 c-24 -50 -31 -112 -18 -159 7 -27 7 -43 0 -50 -6 -6 -181
-12 -492 -15 -482 -5 -482 -5 -481 -76 3 -176 96 -314 253 -376 48 -19 75 -22
196 -22 158 0 220 13 343 73 121 59 229 163 285 277 30 60 31 62 77 68 29 4
63 18 88 36 44 31 77 83 66 101 -12 19 -72 39 -118 39 -41 0 -47 3 -62 33 -22
43 -84 107 -104 107 -9 0 -24 -16 -33 -36z"/>
<path d="M2557 8994 c-10 -10 -9 -96 2 -112 5 -9 26 -12 67 -10 59 3 59 3 59
63 0 60 0 60 -60 63 -34 2 -64 0 -68 -4z"/>
<path d="M2722 8938 c3 -63 3 -63 56 -66 31 -2 60 2 68 9 17 14 19 90 2 107
-7 7 -38 12 -70 12 -59 0 -59 0 -56 -62z"/>
<path d="M2882 8988 c-15 -15 -16 -72 -2 -99 9 -15 22 -19 66 -19 49 0 55 2
64 25 5 14 6 42 2 63 -8 37 -8 37 -62 40 -34 2 -60 -2 -68 -10z"/>
<path d="M3036 8985 c-9 -25 -7 -74 4 -96 9 -15 22 -19 65 -19 66 0 78 15 67
81 -7 44 -7 44 -68 47 -49 2 -63 0 -68 -13z"/>
<path d="M3196 8985 c-10 -28 -7 -80 7 -99 10 -14 25 -17 72 -14 60 3 60 3 60
63 0 60 0 60 -66 63 -54 2 -68 0 -73 -13z"/>
<path d="M4675 8983 c-70 -9 -76 -12 -73 -41 3 -27 4 -27 65 -24 78 5 100 -2
118 -38 27 -51 22 -57 -59 -63 -86 -6 -130 -26 -151 -67 -30 -59 -14 -118 44
-157 28 -19 47 -23 105 -23 39 0 88 3 109 6 37 7 37 7 37 153 0 159 -10 197
-60 232 -27 19 -87 29 -135 22z m114 -232 c17 -11 20 -96 4 -112 -6 -6 -35
-11 -64 -11 -45 0 -57 4 -76 26 -29 34 -29 51 2 81 19 20 34 25 72 25 26 0 54
-4 62 -9z"/>
<path d="M5035 8939 c-24 -22 -49 -57 -56 -77 -17 -52 -14 -143 6 -186 23 -48
77 -94 121 -102 48 -9 151 1 170 17 22 18 14 55 -11 50 -11 -2 -50 -4 -86 -5
-54 -1 -71 3 -89 19 -26 22 -55 84 -45 94 4 3 66 6 138 6 132 0 132 0 129 55
-8 115 -63 170 -170 170 -59 0 -65 -2 -107 -41z m172 -43 c12 -11 25 -33 28
-48 6 -23 3 -28 -19 -34 -31 -7 -162 -1 -172 8 -12 13 31 70 66 89 39 21 64
17 97 -15z"/>
<path d="M5448 8973 c-28 -4 -28 -4 -28 -204 0 -200 0 -200 33 -197 32 3 32 3
37 173 5 170 5 170 61 173 87 5 93 -6 99 -192 5 -151 5 -151 39 -151 34 0 34
0 32 163 -2 162 -2 162 24 172 41 16 91 12 116 -9 23 -18 24 -25 28 -175 3
-156 3 -156 37 -156 34 0 34 0 34 138 0 165 -15 223 -64 253 -39 24 -115 25
-178 2 -44 -16 -48 -16 -66 0 -14 13 -36 17 -98 16 -43 -1 -91 -4 -106 -6z"/>
<path d="M6152 8959 c-69 -45 -110 -169 -82 -253 14 -45 62 -101 101 -122 71
-36 178 -5 225 66 66 100 37 252 -59 310 -45 28 -140 27 -185 -1z m157 -55
c30 -21 51 -73 51 -124 0 -122 -107 -194 -180 -122 -87 88 -43 262 67 262 21
0 49 -7 62 -16z"/>
<path d="M6565 8971 c-30 -6 -30 -6 -30 -201 0 -195 0 -195 34 -195 35 0 35 0
35 170 1 170 1 170 66 173 43 2 71 -2 84 -11 25 -18 35 -81 36 -220 0 -118 0
-118 33 -115 38 4 37 0 27 194 -7 141 -14 161 -67 195 -22 15 -46 19 -108 18
-44 -1 -93 -4 -110 -8z"/>
<path d="M5925 7097 c-3 -6 -4 -199 -3 -427 3 -415 3 -415 301 -418 297 -2
297 -2 297 428 0 430 0 430 -295 430 -227 0 -297 -3 -300 -13z m490 -487 c0
-245 0 -245 -193 -248 -192 -2 -192 -2 -190 175 3 178 3 178 138 183 135 5
135 5 138 73 3 68 3 68 55 65 52 -3 52 -3 52 -248z"/>
<path d="M6146 6632 c-3 -3 -6 -48 -6 -99 0 -94 0 -94 83 -91 82 3 82 3 85 96
3 92 3 92 -60 93 -35 0 -71 2 -80 4 -9 2 -19 0 -22 -3z"/>
<path d="M4150 6781 c0 -69 0 -70 -27 -73 -28 -3 -32 -16 -24 -80 1 -4 11 -7
24 -5 22 2 22 0 27 -136 5 -139 5 -139 80 -140 75 -1 75 -1 78 46 3 47 3 47
-35 44 -38 -2 -38 -2 -38 93 0 95 0 95 35 95 34 0 35 1 38 43 3 42 2 44 -25
42 -51 -4 -52 -3 -55 67 -3 68 -3 68 -40 70 -38 3 -38 3 -38 -66z"/>
<path d="M4746 6841 c-6 -10 -2 -54 7 -68 7 -12 44 -12 63 -1 5 4 10 21 9 40
0 31 -2 33 -37 35 -21 1 -40 -1 -42 -6z"/>
<path d="M2974 6698 c-3 -4 -4 -84 -3 -178 1 -170 1 -170 175 -170 95 0 175 3
177 8 3 4 3 21 0 37 -5 31 -5 31 -121 27 -172 -4 -162 -11 -162 108 0 100 0
100 140 100 140 0 140 0 140 39 0 38 0 38 -171 37 -94 -1 -173 -4 -175 -8z"/>
<path d="M3370 6529 c0 -179 0 -179 170 -179 170 0 170 0 170 180 0 180 0 180
-170 179 -170 0 -170 0 -170 -180z m270 1 c0 -100 0 -100 -99 -100 -89 0 -99
2 -104 19 -5 20 1 145 8 169 3 8 32 12 100 12 95 0 95 0 95 -100z"/>
<path d="M3760 6530 c0 -180 0 -180 39 -180 39 0 39 0 35 122 -2 67 -1 130 2
140 4 15 17 18 64 18 36 0 62 -5 66 -12 5 -7 7 -70 5 -140 -3 -128 -3 -128 44
-128 44 0 47 2 41 23 -3 12 -6 93 -6 180 0 157 0 157 -145 157 -145 0 -145 0
-145 -180z"/>
<path d="M4430 6667 c0 -44 0 -44 88 -39 72 4 90 2 101 -12 7 -8 11 -23 7 -31
-5 -14 -26 -16 -138 -14 -133 1 -133 1 -133 -111 0 -112 0 -112 173 -112 174
0 174 0 174 179 1 178 1 178 -136 181 -136 3 -136 3 -136 -41z m190 -207 c0
-30 0 -30 -90 -30 -94 0 -111 8 -96 45 4 12 25 15 96 15 90 0 90 0 90 -30z"/>
<path d="M4750 6708 c0 -2 -1 -83 -3 -181 -2 -177 -2 -177 38 -177 40 0 40 0
38 177 -2 178 -2 178 -37 181 -20 2 -36 2 -36 0z"/>
<path d="M4865 6530 c0 -180 0 -180 40 -180 40 0 40 0 40 137 0 138 0 138 65
138 65 0 65 0 66 -135 1 -135 1 -135 43 -138 41 -3 41 -3 41 177 0 181 0 181
-147 181 -148 0 -148 0 -148 -180z"/>
<path d="M5200 6530 c0 -180 0 -180 135 -181 74 -1 141 -2 148 -3 8 -1 12 14
12 43 0 44 0 44 -105 45 -105 1 -105 1 -105 26 0 25 0 25 120 27 120 1 120 1
125 105 3 56 4 106 2 111 -2 4 -77 7 -168 7 -164 0 -164 0 -164 -180z m249 86
c6 -7 9 -21 5 -30 -5 -13 -21 -16 -85 -16 -82 0 -99 9 -85 45 7 20 148 22 165
1z"/>
<path d="M5570 6529 c0 -180 0 -180 41 -177 41 3 41 3 42 138 2 135 2 135 108
138 107 3 107 3 111 38 2 19 2 37 -1 39 -2 3 -71 5 -153 5 -148 0 -148 0 -148
-181z"/>
<path d="M9333 12030 c-50 -30 -68 -66 -68 -135 0 -69 18 -105 68 -135 89 -55
207 20 207 130 -1 119 -115 196 -207 140z m121 -49 c56 -62 30 -178 -45 -196
-56 -14 -109 75 -88 147 13 47 37 68 79 68 23 0 43 -7 54 -19z"/>
<path d="M9648 12043 c-28 -4 -28 -4 -29 -139 -1 -74 -2 -140 -3 -146 -1 -7
11 -14 27 -16 27 -3 27 -3 27 127 0 131 0 131 49 131 80 0 85 -12 86 -200 0
-53 1 -55 29 -58 29 -4 29 -4 24 110 -6 131 -20 170 -69 187 -31 11 -86 12
-141 4z"/>
<path d="M9908 12045 c-8 -9 67 -232 92 -272 31 -51 53 -43 85 29 36 80 85
230 79 240 -3 4 -13 8 -24 8 -14 0 -26 -24 -56 -112 -22 -62 -43 -112 -49
-110 -5 1 -26 50 -46 110 -28 84 -40 108 -55 110 -11 2 -23 0 -26 -3z"/>
<path d="M10269 12027 c-77 -52 -89 -174 -25 -245 29 -32 40 -36 92 -40 70 -5
117 10 112 36 -2 11 -11 16 -23 13 -11 -1 -42 -4 -68 -5 -42 -1 -52 3 -73 27
-13 15 -24 37 -24 47 0 18 9 20 103 22 102 3 102 3 99 38 -11 109 -109 164
-193 107z m123 -51 c33 -39 20 -51 -60 -54 -78 -3 -86 3 -56 46 32 45 83 49
116 8z"/>
<path d="M10590 12041 c-45 -6 -45 -6 -48 -154 -3 -148 -3 -148 25 -145 28 3
28 3 28 128 0 125 0 125 55 128 55 3 72 14 63 39 -5 14 -41 15 -123 4z"/>
<path d="M11519 12023 c-118 -99 -52 -290 98 -285 135 5 192 189 88 281 -31
27 -43 31 -95 31 -49 0 -64 -4 -91 -27z m122 -62 c46 -37 21 -151 -32 -151
-51 0 -79 110 -39 150 25 25 41 25 71 1z"/>
<path d="M11870 12024 c-42 -36 -60 -74 -60 -129 0 -106 53 -155 168 -155 72
0 72 0 72 40 0 41 0 41 -50 34 -45 -6 -54 -4 -75 16 -35 33 -34 92 1 127 22
22 31 24 65 19 36 -6 40 -4 50 21 17 45 7 53 -70 53 -60 0 -74 -3 -101 -26z"/>
<path d="M12469 12023 c-39 -33 -59 -79 -59 -133 0 -50 19 -89 61 -124 29 -25
37 -27 113 -24 81 3 81 3 84 41 3 37 3 37 -50 31 -63 -7 -111 8 -106 34 3 14
16 17 91 18 48 0 89 3 92 6 3 2 1 29 -5 59 -8 42 -18 61 -45 87 -30 28 -42 32
-89 32 -45 0 -60 -5 -87 -27z m125 -62 c20 -22 14 -28 -29 -31 -46 -3 -55 -1
-55 13 0 37 56 49 84 18z"/>
<path d="M12788 12043 c-28 -4 -28 -4 -29 -139 -1 -74 -2 -140 -3 -146 -1 -8
16 -14 46 -16 47 -3 47 -3 50 115 3 118 3 118 47 118 41 0 45 3 52 29 5 16 6
33 3 38 -5 8 -114 9 -166 1z"/>
<path d="M13175 12041 c-30 -6 -30 -6 -33 -154 -3 -148 -3 -148 44 -145 46 3
46 3 47 118 2 115 2 115 52 115 50 0 50 0 53 38 3 37 3 37 -65 36 -37 -1 -81
-4 -98 -8z"/>
<path d="M13380 11945 c0 -176 23 -205 162 -205 48 0 90 4 93 10 3 5 8 75 11
155 6 146 6 146 -41 143 -48 -3 -48 -3 -46 -103 2 -113 -9 -143 -48 -130 -31
10 -41 43 -41 146 0 89 0 89 -45 89 -45 0 -45 0 -45 -105z"/>
<path d="M13733 12038 c-5 -7 -11 -77 -12 -156 -2 -143 -2 -143 45 -140 48 3
48 3 46 108 -2 58 2 111 7 119 10 16 61 7 73 -12 4 -7 8 -58 8 -114 0 -103 0
-103 45 -103 45 0 45 0 45 88 0 120 -8 158 -40 192 -27 29 -31 30 -118 30 -60
0 -93 -4 -99 -12z"/>
<path d="M14259 12027 c-93 -62 -90 -226 5 -271 70 -33 169 -14 152 29 -4 12
-11 13 -33 4 -64 -24 -127 15 -138 86 -13 81 30 128 115 126 38 0 50 3 50 14
0 39 -98 47 -151 12z"/>
<path d="M14534 12040 c-36 -14 -72 -67 -80 -116 -14 -98 46 -184 129 -184
116 0 180 128 121 241 -29 56 -109 84 -170 59z m111 -65 c20 -19 25 -34 25
-77 0 -60 -18 -94 -58 -109 -68 -26 -126 55 -101 144 18 67 88 89 134 42z"/>
<path d="M14838 12041 c-28 -6 -28 -6 -33 -153 -5 -148 -5 -148 25 -148 30 0
30 0 30 130 0 130 0 130 44 130 70 0 76 -12 76 -146 0 -115 0 -115 28 -112 27
3 27 3 23 116 -4 128 2 142 58 142 63 0 66 -6 70 -140 3 -121 3 -121 29 -118
26 3 26 3 24 108 -4 134 -14 168 -58 186 -41 17 -68 17 -118 -1 -34 -12 -42
-12 -60 1 -21 14 -88 17 -138 5z"/>
<path d="M15335 12041 c-30 -6 -30 -6 -33 -154 -3 -148 -3 -148 25 -145 28 3
28 3 25 118 -2 63 1 121 6 128 6 9 25 12 53 10 59 -4 69 -25 69 -156 0 -103 0
-103 26 -100 27 3 27 3 28 128 1 125 1 125 47 128 29 2 50 -2 57 -10 6 -8 13
-65 15 -128 5 -115 5 -115 32 -118 27 -4 27 -4 23 122 -4 115 -6 127 -28 151
-31 33 -79 41 -137 22 -41 -13 -49 -14 -67 -1 -21 14 -87 17 -141 5z"/>
<path d="M15822 12039 c-43 -17 -19 -34 52 -37 62 -3 68 -5 77 -29 16 -42 5
-53 -50 -53 -61 0 -95 -14 -110 -47 -18 -40 -13 -73 18 -104 27 -27 35 -29 99
-29 106 0 102 -4 102 116 0 120 -15 169 -55 184 -32 12 -102 12 -133 -1z m136
-197 c2 -18 -2 -40 -9 -48 -27 -32 -119 -5 -119 36 0 34 29 51 79 48 44 -3 46
-4 49 -36z"/>
<path d="M16128 12043 c-28 -4 -28 -4 -28 -154 0 -149 0 -149 25 -149 24 0 24
0 27 128 3 127 3 127 54 130 70 4 76 -5 82 -144 5 -115 5 -115 30 -112 25 3
25 3 23 107 -2 106 -14 155 -44 180 -17 14 -121 23 -169 14z"/>
<path d="M16907 12043 c-3 -4 -6 -74 -6 -155 -2 -148 -2 -148 29 -148 31 0 31
0 28 153 -3 147 -4 152 -25 155 -11 2 -23 0 -26 -5z"/>
<path d="M17083 12043 c-33 -4 -33 -4 -33 -154 0 -149 0 -149 30 -149 30 0 30
0 28 128 -3 127 -3 127 47 130 78 4 80 0 83 -138 4 -121 4 -121 30 -118 26 3
26 3 23 113 -3 137 -16 170 -68 184 -37 11 -77 12 -140 4z"/>
<path d="M17674 12040 c-36 -14 -72 -67 -80 -116 -14 -97 37 -174 123 -181 64
-6 107 21 135 85 19 42 20 53 10 101 -12 58 -31 85 -74 107 -30 15 -82 17
-114 4z m110 -59 c37 -41 37 -135 0 -172 -32 -31 -68 -33 -98 -7 -48 41 -51
143 -6 180 29 24 82 23 104 -1z"/>
<path d="M1175 11628 c-3 -7 -6 -2351 -8 -5208 -2 -5195 -2 -5195 -49 -5198
-27 -2 -48 -5 -48 -7 0 -2 24 -49 54 -103 29 -54 56 -108 60 -120 10 -31 32
-27 45 9 6 16 33 71 61 121 28 49 49 93 45 96 -3 3 -25 5 -49 3 -43 -2 -43 -2
-50 681 -4 376 -7 2715 -6 5198 1 2483 1 4521 1 4528 -1 6 -12 12 -26 12 -14
0 -28 -6 -30 -12z"/>
<path d="M17565 11470 c-4 -6 10 -43 30 -82 33 -62 38 -82 43 -158 5 -97 -12
-174 -54 -248 -40 -68 -6 -90 39 -24 90 131 89 348 -1 476 -29 43 -46 53 -57
36z"/>
<path d="M11919 11468 c-1 -2 -3 -34 -4 -73 -3 -70 -3 -70 -56 -67 -95 5 -153
-53 -153 -153 -1 -105 62 -159 177 -153 46 3 71 8 77 18 6 8 10 108 10 223 0
207 0 207 -25 207 -14 0 -26 -1 -26 -2z m-22 -196 c6 -4 15 -45 19 -93 5 -73
4 -88 -10 -102 -32 -31 -108 -12 -131 34 -27 51 -11 147 27 162 20 8 82 8 95
-1z"/>
<path d="M13298 11398 c-3 -73 -3 -73 -58 -70 -103 5 -156 -56 -148 -170 5
-63 27 -96 82 -125 37 -19 153 -14 167 8 5 7 9 107 9 222 0 207 0 207 -25 207
-23 0 -24 -3 -27 -72z m-14 -134 c23 -23 23 -166 -1 -189 -22 -22 -77 -14
-109 16 -42 39 -44 129 -3 170 24 24 91 26 113 3z"/>
<path d="M15366 11428 c-45 -77 -59 -122 -63 -208 -4 -66 0 -99 15 -147 27
-85 68 -153 92 -153 27 0 25 10 -16 96 -60 126 -56 285 11 386 30 45 32 68 5
68 -12 0 -28 -15 -44 -42z"/>
<path d="M15678 11398 c-3 -73 -3 -73 -49 -70 -99 7 -159 -48 -159 -146 0
-108 56 -161 168 -162 96 0 92 -10 92 235 0 215 0 215 -25 215 -23 0 -24 -3
-27 -72z m-14 -134 c12 -12 16 -36 16 -99 0 -75 -2 -86 -21 -95 -26 -15 -78
-4 -106 22 -41 38 -42 129 -2 169 24 24 91 26 113 3z"/>
<path d="M14366 11358 c-36 -79 -126 -314 -126 -329 0 -5 11 -9 24 -9 20 0 28
9 44 53 20 52 20 52 104 55 94 3 99 1 122 -64 11 -33 17 -39 42 -39 16 0 28 5
27 10 -5 23 -114 298 -136 342 -16 32 -31 49 -45 51 -19 3 -28 -8 -56 -70z
m93 -89 c17 -44 29 -85 25 -90 -6 -10 -134 -13 -134 -2 0 16 63 173 70 173 4
0 21 -36 39 -81z"/>
<path d="M14683 11423 c-23 -4 -23 -5 -23 -204 0 -200 0 -200 28 -197 26 3 27
5 30 74 3 71 3 71 63 77 107 12 154 51 154 127 0 40 -5 54 -29 79 -40 42 -137
61 -223 44z m178 -69 c20 -18 25 -64 9 -94 -12 -22 -61 -40 -111 -40 -37 0
-37 0 -44 65 -10 94 -7 99 66 92 37 -3 68 -12 80 -23z"/>
<path d="M15015 11418 c-3 -8 -4 -99 -3 -203 3 -190 3 -190 28 -190 25 0 25 0
25 200 0 200 0 200 -23 203 -12 2 -24 -3 -27 -10z"/>
<path d="M10727 11414 c-4 -4 -7 -74 -7 -156 0 -205 16 -238 112 -238 45 0 68
13 68 38 0 11 -10 13 -43 8 -71 -11 -82 4 -82 116 0 93 0 93 60 98 44 4 60 9
60 20 0 11 -16 16 -60 20 -60 5 -60 5 -65 50 -5 43 -24 62 -43 44z"/>
<path d="M13577 11414 c-11 -11 -8 -285 3 -326 14 -48 43 -68 100 -68 54 0 73
11 68 36 -4 19 -14 21 -58 10 -14 -3 -31 -2 -38 2 -17 11 -31 73 -32 134 0 72
5 78 66 78 40 0 56 4 61 15 8 24 -2 29 -56 26 -57 -2 -73 12 -69 60 2 28 -1
35 -17 37 -12 2 -24 0 -28 -4z"/>
<path d="M8973 11323 c-43 -4 -43 -4 -44 -139 -1 -74 -2 -140 -3 -146 -1 -7
11 -14 26 -16 27 -3 27 -3 30 125 3 128 3 128 61 131 54 3 58 5 55 25 -2 18
-10 22 -43 23 -22 1 -59 -1 -82 -3z"/>
<path d="M9199 11307 c-100 -67 -83 -241 28 -277 44 -15 120 -8 141 14 25 25
4 38 -41 25 -21 -6 -51 -7 -68 -4 -32 7 -69 48 -69 76 0 16 11 19 103 21 102
3 102 3 99 38 -11 112 -107 165 -193 107z m124 -49 c33 -40 19 -53 -61 -56
-66 -3 -72 -1 -72 17 0 10 14 31 32 46 36 30 71 28 101 -7z"/>
<path d="M9540 11312 c-53 -26 -80 -74 -80 -141 0 -101 56 -156 154 -149 51 3
51 3 52 -42 2 -70 2 -72 27 -68 22 3 22 4 25 201 2 197 2 197 -23 207 -41 15
-116 12 -155 -8z m128 -92 c2 -30 1 -74 -3 -97 -5 -34 -11 -43 -35 -51 -70
-25 -125 31 -117 118 7 62 42 92 106 88 46 -3 46 -3 49 -58z"/>
<path d="M9810 11225 c0 -122 14 -166 59 -189 34 -18 116 -21 156 -6 26 10 26
10 23 152 -3 140 -4 143 -25 146 -23 3 -23 2 -23 -122 0 -118 -1 -126 -21
-137 -17 -8 -31 -8 -60 0 -48 14 -59 48 -59 174 0 86 0 87 -25 87 -25 0 -25 0
-25 -105z"/>
<path d="M10194 11311 c-92 -56 -89 -226 6 -273 42 -21 129 -24 155 -4 23 17
13 51 -13 41 -39 -15 -74 -17 -102 -5 -32 13 -66 63 -55 80 3 6 51 10 106 10
111 0 109 -1 88 74 -17 60 -58 96 -111 96 -24 0 -56 -8 -74 -19z m110 -42 c15
-12 26 -30 26 -45 0 -23 -3 -24 -69 -24 -39 0 -73 5 -76 10 -9 15 22 59 48 70
33 13 42 12 71 -11z"/>
<path d="M10500 11317 c-13 -7 -31 -24 -39 -39 -25 -45 -6 -77 69 -118 72 -39
88 -69 49 -90 -21 -12 -80 -10 -111 4 -26 12 -37 -23 -13 -40 24 -18 107 -18
149 0 50 21 64 79 28 120 -10 10 -41 29 -70 42 -58 26 -73 47 -48 72 12 12 31
16 71 14 48 -2 55 0 55 17 0 10 -7 22 -16 25 -27 10 -98 6 -124 -7z"/>
<path d="M11105 11317 c-30 -23 -8 -37 55 -37 52 0 62 -3 76 -25 25 -38 13
-53 -45 -53 -54 -1 -105 -22 -115 -47 -14 -38 -6 -77 23 -106 26 -26 36 -29
90 -29 33 0 71 4 85 10 25 9 26 12 26 102 0 126 -12 166 -55 184 -43 18 -116
18 -140 1z m143 -195 c4 -44 -12 -62 -56 -62 -42 0 -72 24 -72 56 0 31 26 44
80 41 43 -2 45 -3 48 -35z"/>
<path d="M11418 11323 c-28 -4 -28 -4 -28 -154 0 -149 0 -149 25 -149 25 0 25
0 25 130 0 130 0 130 54 130 35 0 58 -5 66 -14 7 -9 14 -64 17 -130 6 -113 6
-116 29 -116 23 0 24 2 24 93 -1 173 -20 207 -121 212 -35 2 -76 1 -91 -2z"/>
<path d="M12218 11314 c-27 -14 -45 -54 -39 -84 5 -27 35 -52 89 -76 63 -29
75 -50 42 -76 -24 -20 -63 -21 -117 -3 -19 6 -23 4 -23 -13 0 -31 35 -45 101
-40 44 3 65 10 84 28 48 46 22 115 -54 140 -111 36 -91 112 26 94 35 -5 43 -3
43 10 0 36 -99 49 -152 20z"/>
<path d="M12503 11310 c-43 -26 -67 -74 -67 -135 0 -95 57 -155 146 -155 62 0
100 15 96 38 -2 11 -11 16 -23 13 -11 -1 -42 -4 -68 -5 -42 -1 -52 3 -73 27
-13 15 -24 37 -24 47 0 18 9 20 103 22 102 3 102 3 99 37 -9 109 -103 164
-189 111z m112 -45 c14 -13 25 -33 25 -45 0 -18 -6 -20 -75 -20 -86 0 -95 11
-46 61 36 35 64 37 96 4z"/>
<path d="M12800 11321 c-25 -7 -25 -7 -25 -151 0 -145 0 -145 25 -145 25 0 25
0 28 128 3 127 3 127 51 127 69 0 75 -12 81 -144 5 -111 5 -111 34 -114 29 -4
29 -4 22 113 -7 132 -20 168 -67 184 -35 12 -109 13 -149 2z"/>
<path d="M13853 11310 c-43 -26 -66 -73 -66 -135 0 -62 23 -109 66 -135 123
-76 255 75 187 215 -35 72 -119 97 -187 55z m117 -40 c25 -14 44 -79 36 -123
-7 -39 -55 -87 -86 -87 -73 0 -108 142 -50 200 22 22 70 26 100 10z"/>
<path d="M15843 11323 c-7 -2 -13 -13 -13 -23 0 -17 9 -19 67 -22 64 -3 68 -5
77 -31 13 -36 -2 -47 -67 -47 -40 0 -54 -5 -78 -29 -33 -33 -35 -47 -15 -95
18 -44 59 -59 141 -54 35 2 67 7 71 11 12 12 17 103 9 173 -6 55 -12 73 -35
96 -25 25 -36 28 -87 27 -32 0 -64 -3 -70 -6z m137 -207 c0 -47 -9 -56 -56
-56 -41 0 -64 18 -64 48 0 40 17 52 72 52 48 0 48 0 48 -44z"/>
<path d="M16174 11311 c-89 -54 -85 -224 7 -273 62 -33 169 -19 169 23 0 17
-4 20 -22 15 -57 -16 -80 -18 -106 -7 -30 13 -67 65 -57 81 3 6 50 10 106 10
112 0 112 0 87 82 -24 80 -112 113 -184 69z m110 -43 c14 -13 26 -32 28 -43 3
-18 -3 -20 -74 -23 -59 -2 -78 0 -78 10 1 27 56 77 87 78 7 0 23 -10 37 -22z"/>
<path d="M16473 11323 c-23 -4 -23 -7 -23 -154 0 -149 0 -149 25 -149 24 0 24
0 27 128 3 127 3 127 50 130 61 4 67 -7 70 -144 3 -109 3 -109 32 -112 28 -4
28 -4 21 112 -6 87 -4 120 5 131 15 18 95 20 107 3 4 -7 10 -65 13 -128 5
-115 5 -115 33 -118 27 -3 27 -3 27 65 -1 108 -16 194 -40 217 -16 17 -33 21
-79 21 -33 -1 -66 -6 -74 -13 -13 -11 -21 -10 -46 2 -28 15 -97 19 -148 9z"/>
<path d="M17003 11314 c-20 -10 -40 -32 -53 -58 -53 -111 8 -236 117 -236 80
0 137 64 137 155 0 119 -100 188 -201 139z m126 -60 c30 -38 29 -119 -2 -156
-33 -41 -67 -45 -105 -13 -74 62 -40 195 49 195 29 0 42 -6 58 -26z"/>
<path d="M17313 11323 c-23 -4 -23 -7 -23 -154 0 -149 0 -149 25 -149 25 0 25
0 25 130 0 130 0 130 48 130 75 0 76 -3 82 -137 5 -118 5 -118 30 -118 25 0
25 0 24 111 -2 128 -15 166 -65 183 -31 11 -101 13 -146 4z"/>
<path d="M4847 10863 c-9 -2 -15 -9 -12 -14 9 -14 22 -11 29 6 3 8 4 14 3 14
-1 -1 -10 -3 -20 -6z"/>
<path d="M14963 9452 c-7 -4 -13 -37 -15 -77 -3 -69 -3 -69 -55 -66 -62 3
-106 -17 -128 -59 -46 -89 -19 -195 57 -230 44 -20 92 -25 146 -14 31 6 31 6
34 223 3 225 -1 247 -39 223z m-25 -198 c9 -3 12 -28 10 -101 -3 -98 -3 -98
-37 -101 -72 -7 -111 31 -111 108 0 90 48 122 138 94z"/>
<path d="M10053 9414 c-8 -20 8 -48 30 -52 22 -5 42 35 26 54 -16 19 -48 18
-56 -2z"/>
<path d="M15224 9416 c-6 -16 12 -56 26 -56 36 0 53 33 28 58 -16 16 -47 15
-54 -2z"/>
<path d="M11073 9412 c-16 -11 -45 -74 -102 -222 -28 -74 -56 -143 -62 -154
-13 -22 1 -39 26 -34 20 3 27 14 49 71 15 37 15 37 99 37 92 0 97 -3 116 -62
12 -35 27 -48 58 -48 20 0 16 17 -40 162 -87 224 -113 269 -144 250z m51 -157
c38 -94 37 -95 -39 -95 -36 0 -65 4 -65 10 0 5 9 33 21 62 12 29 25 63 30 76
13 32 23 22 53 -53z"/>
<path d="M8796 9402 c-3 -5 -6 -96 -7 -203 -2 -194 -2 -194 24 -197 26 -3 26
-3 29 80 3 82 3 83 30 86 41 5 64 -12 112 -87 43 -66 61 -81 92 -81 22 0 17
13 -37 94 -51 75 -51 75 -15 109 31 30 36 41 36 79 0 54 -27 94 -76 114 -36
15 -180 19 -188 6z m183 -59 c11 -10 24 -32 27 -48 4 -24 0 -35 -21 -55 -21
-20 -36 -25 -83 -25 -57 0 -57 0 -60 73 -3 72 -3 72 56 72 42 0 66 -5 81 -17z"/>
<path d="M11338 9404 c-5 -4 -8 -97 -8 -206 0 -199 0 -199 28 -196 27 3 27 3
24 72 -4 79 1 86 67 86 55 0 123 32 141 66 29 54 9 125 -46 161 -28 18 -192
32 -206 17z m187 -69 c51 -50 16 -118 -69 -130 -72 -11 -76 -7 -76 80 0 75 0
75 60 75 51 0 65 -4 85 -25z"/>
<path d="M11680 9205 c0 -206 0 -206 28 -203 27 3 27 3 24 203 -3 200 -3 200
-27 203 -25 3 -25 3 -25 -203z"/>
<path d="M13759 9396 c-2 -2 -2 -81 1 -175 5 -153 7 -172 25 -190 30 -30 141
-34 152 -6 8 24 -2 29 -57 26 -63 -3 -70 10 -70 123 0 85 0 85 58 88 49 3 57
6 57 23 0 17 -8 20 -57 23 -58 3 -58 3 -58 47 0 40 -2 45 -23 45 -13 0 -26 -2
-28 -4z"/>
<path d="M15962 9232 c4 -198 10 -217 80 -227 53 -8 101 8 96 32 -3 14 -14 18
-58 18 -54 0 -54 0 -62 40 -5 22 -7 67 -6 100 3 60 3 60 63 65 52 4 60 8 60
25 0 18 -8 20 -62 23 -63 3 -63 3 -63 47 0 42 -2 45 -26 45 -26 0 -26 0 -22
-168z"/>
<path d="M17020 9396 c-3 -2 -3 -81 0 -175 5 -157 7 -172 26 -192 39 -38 163
-24 147 16 -4 11 -16 13 -49 8 -67 -9 -74 2 -74 113 0 105 -8 95 80 98 28 1
35 5 35 21 0 17 -8 20 -57 23 -57 3 -57 3 -60 45 -2 33 -7 43 -23 45 -12 2
-23 1 -25 -2z"/>
<path d="M10176 9311 c-7 -11 75 -251 98 -286 37 -56 61 -26 122 150 32 94 39
127 30 134 -23 19 -41 -8 -77 -116 -19 -59 -40 -107 -45 -105 -5 1 -25 48 -44
105 -19 56 -39 108 -43 115 -10 14 -33 16 -41 3z"/>
<path d="M13265 9309 c-71 -20 -120 -119 -97 -197 17 -57 47 -90 94 -103 48
-13 121 -4 138 16 21 25 2 33 -64 28 -59 -5 -66 -4 -90 20 -14 14 -26 35 -26
47 0 19 6 20 93 20 53 0 98 5 104 11 11 11 1 75 -18 110 -21 40 -83 63 -134
48z m84 -65 c40 -51 19 -68 -75 -62 -59 4 -69 24 -30 63 34 34 78 33 105 -1z"/>
<path d="M9181 9281 c-38 -35 -51 -69 -51 -127 0 -108 90 -174 198 -145 36 10
58 31 46 44 -3 2 -34 2 -69 -1 -61 -4 -65 -3 -94 26 -54 54 -45 62 69 62 80 0
102 3 106 15 11 28 -7 85 -38 120 -27 32 -35 35 -83 35 -44 0 -58 -5 -84 -29z
m114 -17 c19 -7 49 -63 40 -72 -4 -4 -38 -7 -77 -7 -83 0 -93 11 -50 55 30 29
54 36 87 24z"/>
<path d="M9530 9297 c-85 -43 -101 -190 -29 -258 53 -49 170 -50 177 -1 3 20
0 21 -48 15 -84 -10 -120 23 -120 112 0 32 7 51 24 72 21 24 31 28 78 27 55
-1 75 11 56 33 -13 17 -105 17 -138 0z"/>
<path d="M9789 9293 c-43 -27 -64 -71 -64 -139 0 -78 33 -127 97 -145 48 -13
121 -4 138 16 21 25 2 33 -64 28 -59 -5 -66 -4 -90 20 -14 14 -26 35 -26 46 0
19 7 20 98 23 97 3 97 3 100 32 5 37 -24 101 -54 121 -30 20 -102 19 -135 -2z
m120 -49 c40 -51 19 -68 -75 -62 -59 4 -69 24 -30 63 34 34 78 33 105 -1z"/>
<path d="M10062 9158 c3 -145 4 -153 23 -153 19 0 20 8 23 153 3 152 3 152
-23 152 -26 0 -26 0 -23 -152z"/>
<path d="M10538 9295 c-33 -19 -68 -90 -68 -141 0 -48 26 -101 63 -128 37 -27
147 -30 173 -4 27 27 9 36 -60 31 -59 -5 -66 -4 -90 20 -14 14 -26 35 -26 47
0 19 6 20 94 20 65 0 97 4 103 13 17 28 -11 108 -51 139 -26 22 -100 23 -138
3z m121 -51 c25 -32 27 -50 5 -58 -21 -8 -129 -8 -137 0 -9 9 20 61 40 73 33
19 70 12 92 -15z"/>
<path d="M11987 9302 c-16 -7 -18 -23 -19 -152 0 -145 0 -145 23 -145 24 0 24
1 27 127 3 127 3 127 35 132 18 3 43 4 57 3 19 -2 25 3 25 18 0 18 -7 20 -65
22 -36 1 -73 -1 -83 -5z"/>
<path d="M12238 9294 c-36 -19 -68 -82 -68 -134 0 -85 47 -144 123 -155 50 -8
122 13 122 35 0 12 -13 14 -67 12 -61 -4 -69 -2 -92 22 -15 14 -26 34 -26 46
0 19 6 20 100 20 100 0 100 0 100 30 0 43 -28 106 -55 124 -30 20 -101 20
-137 0z m103 -35 c27 -14 44 -60 27 -71 -7 -4 -41 -8 -75 -8 -60 0 -63 1 -63
24 0 28 42 66 72 66 11 0 28 -5 39 -11z"/>
<path d="M12563 9290 c-43 -26 -64 -71 -64 -136 0 -102 61 -161 154 -148 47 6
47 6 47 -49 0 -57 18 -80 45 -57 14 11 16 376 2 398 -14 21 -146 16 -184 -8z
m135 -120 c3 -104 -5 -120 -59 -120 -41 0 -58 9 -74 41 -32 62 -8 153 43 165
15 3 32 7 37 9 6 2 19 3 30 2 18 -2 20 -10 23 -97z"/>
<path d="M12850 9198 c0 -138 14 -170 82 -189 44 -11 135 -6 150 9 5 5 7 71 6
148 -3 139 -3 139 -27 139 -23 0 -23 0 -22 -110 1 -61 -1 -118 -5 -128 -8 -22
-81 -23 -110 -3 -16 13 -19 29 -22 130 -4 115 -4 116 -28 116 -24 0 -24 0 -24
-112z"/>
<path d="M13516 9289 c-28 -22 -35 -64 -15 -100 5 -11 35 -32 66 -47 68 -33
85 -54 61 -78 -19 -19 -55 -22 -111 -11 -36 8 -38 7 -35 -15 6 -47 137 -50
184 -3 48 48 25 99 -66 145 -72 37 -80 48 -49 73 19 15 34 18 71 14 31 -4 48
-2 51 6 10 28 -6 37 -67 37 -49 0 -69 -5 -90 -21z"/>
<path d="M14137 9303 c-4 -3 -7 -15 -7 -26 0 -17 5 -18 50 -12 61 8 100 -11
100 -50 0 -22 -4 -25 -40 -25 -46 0 -99 -19 -118 -43 -24 -28 -17 -86 12 -116
24 -23 34 -26 102 -26 102 0 108 7 101 136 -5 99 -22 151 -52 163 -22 8 -140
8 -148 -1z m143 -174 c6 -11 8 -33 5 -49 -8 -35 -50 -48 -92 -28 -38 18 -40
67 -3 85 38 19 78 16 90 -8z"/>
<path d="M14431 9296 c-8 -9 -11 -59 -9 -152 3 -139 3 -139 28 -139 25 0 25 0
28 126 3 127 3 127 30 132 34 7 80 -2 90 -17 4 -6 9 -63 12 -126 5 -115 5
-115 30 -115 23 0 25 4 28 58 2 31 -1 90 -7 130 -14 100 -34 117 -140 117 -55
0 -82 -4 -90 -14z"/>
<path d="M15230 9155 c0 -155 0 -155 25 -155 25 0 25 0 25 155 0 155 0 155
-25 155 -25 0 -25 0 -25 -155z"/>
<path d="M15380 9303 c0 -5 -1 -73 -3 -153 -2 -145 -2 -145 23 -145 25 0 25 0
28 127 2 118 4 127 23 133 27 9 86 -2 96 -18 4 -7 10 -64 13 -127 5 -110 6
-115 28 -118 33 -5 36 16 25 146 -9 107 -12 117 -37 139 -24 20 -37 23 -112
23 -46 0 -84 -3 -84 -7z"/>
<path d="M15728 9295 c-15 -9 -31 -27 -34 -42 -13 -48 6 -74 79 -110 57 -28
68 -37 65 -56 -5 -34 -49 -50 -99 -37 -28 8 -45 8 -52 1 -19 -19 2 -40 46 -46
88 -13 157 21 157 79 0 44 -15 61 -87 96 -46 22 -63 35 -63 50 0 27 34 42 88
38 41 -3 47 -1 47 17 0 18 -7 20 -60 22 -39 2 -70 -3 -87 -12z"/>
<path d="M16206 9302 c-2 -4 -6 -73 -7 -152 -2 -145 -2 -145 22 -145 24 0 24
0 27 127 3 126 3 126 40 132 20 3 46 5 57 3 14 -1 21 5 23 21 3 21 1 22 -77
22 -44 0 -82 -4 -85 -8z"/>
<path d="M16420 9203 c0 -137 14 -171 79 -192 32 -10 59 -11 100 -5 56 9 56 9
56 154 0 145 0 145 -25 148 -25 3 -25 3 -23 -109 1 -62 -2 -120 -8 -131 -12
-22 -76 -25 -105 -4 -16 13 -19 29 -22 130 -4 115 -4 116 -28 116 -24 0 -24
-1 -24 -107z"/>
<path d="M16820 9303 c-34 -12 -69 -57 -80 -103 -30 -123 62 -221 182 -195 66
15 60 55 -7 47 -24 -2 -55 -2 -69 2 -56 14 -77 131 -32 183 21 24 31 28 78 28
54 0 70 8 61 32 -5 13 -101 18 -133 6z"/>
<path d="M11595 8731 c-30 -6 -30 -7 -27 -63 4 -64 0 -69 -66 -74 -78 -6 -120
-52 -130 -140 -7 -62 28 -128 81 -156 34 -17 53 -20 114 -16 40 3 75 7 77 9 3
2 6 103 7 224 2 240 5 230 -56 216z m-34 -233 c3 -50 -3 -133 -10 -141 -13
-13 -68 13 -80 39 -28 63 1 124 59 124 24 0 30 -4 31 -22z"/>
<path d="M10312 8718 c-17 -17 -15 -63 2 -77 8 -7 27 -11 42 -9 37 4 54 50 28
79 -19 21 -54 25 -72 7z"/>
<path d="M16646 8694 c-8 -20 10 -54 29 -54 21 0 35 32 24 53 -12 21 -45 22
-53 1z"/>
<path d="M9765 8671 c-30 -6 -30 -6 -30 -156 1 -207 17 -235 140 -235 58 0 65
7 56 54 -6 27 -9 30 -51 30 -45 1 -45 1 -54 60 -12 75 -3 91 55 91 44 0 44 0
47 38 3 37 3 37 -41 37 -54 0 -71 17 -62 60 7 33 2 35 -60 21z"/>
<path d="M11872 8512 c3 -189 12 -216 68 -224 55 -8 105 5 108 28 3 20 -1 21
-54 20 -57 -1 -57 -1 -66 32 -5 18 -8 63 -6 100 3 67 3 67 53 70 54 4 77 16
68 38 -4 10 -22 14 -64 14 -59 0 -59 0 -59 45 0 42 -2 45 -26 45 -26 0 -26 0
-22 -168z"/>
<path d="M12824 8665 c-4 -8 -5 -82 -3 -164 4 -132 7 -153 25 -177 37 -51 145
-55 152 -6 3 20 0 21 -45 15 -35 -4 -52 -1 -60 9 -7 7 -13 54 -15 103 -3 90
-3 90 57 95 52 4 60 8 60 25 0 17 -8 21 -60 25 -60 5 -60 5 -57 48 2 39 1 42
-23 42 -14 0 -28 -7 -31 -15z"/>
<path d="M13584 8665 c-4 -8 -5 -84 -3 -168 5 -199 10 -209 107 -205 59 3 67
5 67 23 0 17 -7 20 -54 20 -55 0 -55 0 -63 40 -5 22 -7 67 -6 100 3 60 3 60
61 63 54 3 58 5 55 25 -3 19 -10 22 -60 25 -58 3 -58 3 -58 47 0 39 -3 45 -20
45 -11 0 -23 -7 -26 -15z"/>
<path d="M16117 8674 c-10 -11 -8 -272 3 -319 12 -54 33 -66 105 -63 53 3 60
5 63 25 3 21 1 22 -45 16 -67 -7 -76 5 -77 115 -1 87 -1 87 57 90 31 2 58 7
59 12 5 32 1 35 -57 40 -60 5 -60 5 -60 45 0 33 -4 41 -20 43 -12 2 -24 0 -28
-4z"/>
<path d="M8865 8585 c-102 -36 -135 -169 -63 -251 38 -43 85 -58 154 -49 55 7
55 7 49 38 -9 41 -22 54 -37 39 -30 -30 -94 -2 -109 47 -20 69 33 136 91 114
34 -13 50 -1 50 38 0 22 -6 28 -31 33 -44 8 -58 7 -104 -9z"/>
<path d="M9136 8590 c-62 -19 -96 -76 -96 -158 0 -60 30 -109 80 -134 67 -34
145 -13 187 51 43 64 24 179 -37 223 -30 21 -95 30 -134 18z m87 -88 c12 -10
17 -30 17 -63 0 -39 -5 -51 -26 -68 -46 -36 -84 -4 -84 70 0 39 5 51 26 68 27
21 35 20 67 -7z"/>
<path d="M9443 8593 c-43 -4 -43 -4 -43 -158 0 -155 0 -155 43 -152 42 3 42 3
45 120 3 117 3 117 32 117 47 0 60 -29 60 -142 0 -98 0 -98 43 -95 42 3 42 3
45 60 5 96 -13 197 -41 225 -26 25 -94 35 -184 25z"/>
<path d="M10018 8593 c-24 -4 -28 -9 -28 -39 0 -34 0 -34 65 -31 50 1 68 -2
75 -13 16 -25 13 -27 -56 -38 -37 -6 -75 -19 -85 -28 -28 -26 -26 -95 5 -131
24 -27 27 -28 121 -27 72 0 99 4 106 15 16 23 3 223 -16 252 -27 41 -91 55
-187 40z m117 -208 c0 -27 -3 -30 -34 -30 -45 0 -65 29 -36 51 11 8 31 14 45
12 20 -2 25 -8 25 -33z"/>
<path d="M10520 8591 c-45 -6 -45 -6 -45 -156 0 -150 0 -150 43 -152 42 -1 42
-1 42 118 0 119 0 119 29 119 47 0 56 -22 57 -134 2 -101 2 -101 49 -103 47
-2 47 -2 43 115 -5 128 -13 153 -61 182 -32 20 -69 23 -157 11z"/>
<path d="M10896 8590 c-106 -34 -136 -185 -52 -268 29 -29 43 -36 88 -40 29
-2 69 0 88 5 31 8 35 13 38 45 3 35 3 35 -70 30 -59 -3 -76 -1 -87 11 -23 29
-2 37 90 37 89 0 89 0 89 35 0 106 -88 176 -184 145z m78 -79 c24 -27 12 -41
-34 -41 -48 0 -61 17 -30 42 28 23 43 23 64 -1z"/>
<path d="M11210 8593 c-25 -3 -48 -7 -52 -11 -3 -4 -8 -72 -9 -152 -3 -145 -3
-145 41 -145 45 0 45 0 48 118 3 117 3 117 51 117 47 0 49 1 55 32 10 48 -3
52 -134 41z"/>
<path d="M10302 8438 c3 -153 3 -153 47 -153 43 0 43 0 43 150 -1 150 -1 150
-47 153 -46 3 -46 3 -43 -150z"/>
<path d="M12152 8576 c-59 -32 -86 -127 -57 -201 31 -83 99 -112 178 -77 57
26 81 67 81 142 0 66 -23 114 -64 135 -35 18 -106 19 -138 1z m126 -50 c37
-36 31 -146 -9 -178 -33 -27 -83 -23 -108 8 -38 49 -24 159 23 183 25 13 75 6
94 -13z"/>
<path d="M12579 8561 c-51 -51 -33 -94 62 -141 47 -24 59 -35 59 -54 0 -34
-48 -50 -103 -35 -24 6 -43 7 -49 1 -17 -17 4 -41 43 -47 91 -15 163 23 161
85 -1 41 -17 59 -77 86 -58 25 -78 45 -69 68 8 21 45 30 95 22 31 -5 41 -3 46
10 9 24 -15 34 -80 34 -51 0 -62 -4 -88 -29z"/>
<path d="M13070 8565 c0 -26 1 -26 53 -20 60 7 85 -5 89 -45 3 -23 -1 -25 -54
-31 -95 -10 -132 -50 -112 -122 13 -46 63 -69 136 -64 87 5 91 12 86 139 -3
89 -7 112 -24 135 -19 26 -27 28 -98 31 -76 3 -76 3 -76 -23z m134 -141 c11
-4 16 -19 16 -45 0 -34 -4 -41 -27 -50 -55 -21 -117 20 -100 66 11 27 74 43
111 29z"/>
<path d="M13383 8583 c-23 -4 -23 -7 -23 -154 0 -149 0 -149 25 -149 25 0 25
0 25 130 0 128 0 130 24 136 13 3 39 4 57 2 29 -2 34 0 37 20 3 21 0 22 -60
21 -35 -1 -73 -4 -85 -6z"/>
<path d="M13954 8577 c-2 -7 -3 -76 -2 -152 3 -132 4 -140 23 -140 19 0 20 8
23 127 2 118 4 127 23 133 28 9 84 -2 99 -20 10 -12 20 -133 20 -237 0 -5 11
-8 25 -8 25 0 25 0 25 98 0 179 -24 212 -152 212 -55 0 -80 -4 -84 -13z"/>
<path d="M14315 8557 c-111 -111 -29 -294 123 -273 87 12 99 59 13 49 -27 -3
-61 -3 -75 1 -23 6 -56 50 -56 75 0 6 42 11 103 13 102 3 102 3 99 42 -7 84
-49 126 -125 126 -42 0 -54 -5 -82 -33z m138 -39 c30 -40 17 -58 -40 -58 -96
0 -113 17 -66 64 34 35 78 32 106 -6z"/>
<path d="M14570 8582 c0 -14 58 -207 76 -251 17 -43 39 -58 60 -40 12 10 22
38 61 173 8 27 17 10 47 -85 44 -146 73 -131 136 70 22 70 40 130 40 135 0 4
-12 6 -26 4 -25 -3 -29 -11 -57 -110 -16 -60 -33 -108 -37 -108 -5 0 -16 26
-25 58 -9 31 -23 81 -31 110 -11 37 -20 52 -33 52 -17 0 -34 -41 -72 -177 -7
-24 -16 -43 -20 -43 -8 0 -33 78 -54 165 -10 43 -15 50 -38 53 -15 2 -27 -1
-27 -6z"/>
<path d="M15243 8574 c-83 -41 -97 -196 -23 -257 52 -44 175 -45 175 -2 0 18
-6 20 -57 17 -50 -3 -60 -1 -83 22 -23 24 -30 53 -26 111 5 60 53 92 121 80
40 -7 41 -6 38 16 -3 22 -9 24 -58 27 -35 1 -67 -4 -87 -14z"/>
<path d="M15498 8574 c-56 -30 -82 -126 -54 -199 31 -80 102 -111 178 -77 78
34 109 132 68 217 -11 22 -33 48 -49 58 -35 21 -106 22 -143 1z m105 -35 c56
-25 69 -132 22 -183 -30 -32 -83 -36 -109 -7 -43 47 -37 143 11 181 29 23 42
24 76 9z"/>
<path d="M15796 8582 c-4 -7 -9 -228 -7 -290 1 -8 10 -12 24 -10 21 3 22 7 25
131 3 127 3 127 56 127 35 0 58 -5 66 -15 8 -10 13 -55 14 -127 1 -113 1 -113
26 -113 23 0 25 4 28 60 2 33 0 89 -3 124 -6 52 -12 70 -35 93 -27 26 -34 28
-109 28 -44 0 -82 -4 -85 -8z"/>
<path d="M16354 8575 c-11 -27 6 -35 59 -29 59 6 85 -7 89 -46 3 -23 -1 -25
-52 -31 -88 -9 -120 -35 -120 -96 0 -64 62 -100 156 -90 29 3 58 8 64 12 6 3
10 49 10 106 0 108 -14 160 -48 178 -32 17 -151 14 -158 -4z m144 -157 c7 -7
12 -27 12 -45 0 -40 -27 -58 -77 -48 -40 7 -64 45 -47 73 18 28 91 41 112 20z"/>
<path d="M16652 8438 c3 -145 4 -153 23 -153 19 0 20 8 23 153 3 152 3 152
-23 152 -26 0 -26 0 -23 -152z"/>
<path d="M16806 8582 c-2 -4 -6 -73 -7 -152 -2 -145 -2 -145 22 -145 24 0 24
0 27 127 2 115 4 127 22 133 25 8 87 -4 99 -19 6 -7 12 -64 13 -127 3 -114 3
-114 28 -114 23 0 25 4 28 50 2 28 1 83 -3 124 -6 64 -11 79 -35 103 -27 26
-34 28 -109 28 -44 0 -82 -4 -85 -8z"/>
<path d="M17174 8571 c-18 -11 -38 -36 -47 -60 -44 -108 7 -214 109 -228 48
-6 118 16 122 39 3 15 -4 16 -66 11 -66 -5 -72 -4 -96 20 -14 14 -26 35 -26
47 0 19 6 20 84 20 101 0 116 5 116 36 0 38 -30 102 -55 118 -33 22 -103 20
-141 -3z m107 -32 c27 -14 44 -60 27 -71 -15 -9 -99 -11 -122 -2 -24 9 -19 40
10 63 30 23 55 26 85 10z"/>
<path d="M17467 8583 c-16 -4 -17 -18 -15 -151 3 -139 4 -147 23 -147 19 0 20
8 23 122 3 138 8 147 80 141 32 -3 37 0 40 20 3 21 0 22 -65 21 -37 -1 -76 -3
-86 -6z"/>
<path d="M9985 7320 c-12 -20 6 -50 30 -50 15 0 26 7 30 20 9 27 -1 40 -30 40
-13 0 -27 -5 -30 -10z"/>
<path d="M10870 7302 c0 -37 28 -52 48 -25 19 26 10 48 -21 51 -24 3 -27 0
-27 -26z"/>
<path d="M12886 7322 c-8 -13 4 -50 20 -56 18 -7 46 22 42 43 -3 17 -52 28
-62 13z"/>
<path d="M8717 7303 c-2 -5 -5 -95 -6 -200 -3 -193 -3 -193 28 -193 30 0 30 0
33 78 3 77 3 77 44 80 41 3 41 3 93 -76 46 -71 69 -91 104 -92 15 0 5 22 -43
93 -27 41 -50 76 -50 79 0 3 16 22 35 41 40 40 45 77 19 132 -23 48 -66 65
-167 65 -47 0 -88 -3 -90 -7z m201 -68 c29 -34 28 -60 -3 -89 -24 -22 -116
-43 -136 -30 -11 6 -12 138 -1 148 4 5 32 6 62 3 43 -5 60 -12 78 -32z"/>
<path d="M11604 7296 c-3 -9 -5 -88 -3 -177 4 -161 4 -161 33 -185 24 -21 37
-24 85 -22 50 3 56 5 59 26 3 22 1 23 -40 17 -69 -10 -79 3 -81 115 -2 95 -2
95 58 100 44 4 60 9 60 20 0 11 -16 16 -60 20 -60 5 -60 5 -65 50 -4 32 -10
46 -23 48 -9 2 -20 -4 -23 -12z"/>
<path d="M13853 7303 c-16 -6 -18 -265 -3 -328 12 -54 33 -66 105 -63 54 3 60
5 63 27 4 22 2 23 -45 16 -69 -9 -78 4 -78 119 0 91 0 91 60 96 44 4 60 9 60
20 0 11 -16 16 -60 20 -60 5 -60 5 -63 47 -3 41 -15 54 -39 46z"/>
<path d="M15657 7303 c-11 -10 -8 -285 4 -326 14 -51 44 -69 111 -65 47 3 53
6 56 27 4 23 2 24 -37 17 -66 -10 -78 2 -86 89 -4 41 -5 86 -1 99 6 23 12 25
64 28 43 2 57 7 57 18 0 11 -16 16 -60 20 -60 5 -60 5 -61 41 0 19 -4 41 -8
47 -8 13 -29 16 -39 5z"/>
<path d="M12655 7148 c7 -183 10 -204 38 -223 30 -21 133 -21 141 1 10 27 -4
35 -48 29 -67 -10 -77 6 -74 119 3 91 3 91 61 94 48 3 57 6 57 22 0 16 -9 19
-62 22 -63 3 -63 3 -61 46 2 40 1 42 -28 42 -29 0 -29 0 -24 -152z"/>
<path d="M9135 7202 c-94 -59 -99 -217 -10 -272 41 -26 146 -28 169 -4 26 26
9 36 -49 29 -78 -10 -125 18 -125 76 0 17 8 19 100 19 100 0 100 0 100 30 0
39 -22 90 -48 114 -31 27 -100 31 -137 8z m118 -64 c11 -14 16 -31 13 -37 -4
-6 -37 -11 -77 -11 -78 0 -88 13 -47 57 30 33 83 28 111 -9z"/>
<path d="M9473 7209 c-81 -24 -117 -154 -65 -241 25 -42 68 -60 137 -56 53 3
60 6 63 25 3 21 0 21 -51 16 -49 -5 -57 -3 -85 23 -45 42 -49 128 -7 170 22
21 33 25 75 23 56 -3 80 10 56 30 -20 17 -84 22 -123 10z"/>
<path d="M9722 7200 c-95 -58 -91 -239 6 -279 16 -7 58 -11 93 -9 57 3 64 5
67 24 3 21 -1 22 -68 20 -64 -1 -74 1 -91 23 -10 13 -19 34 -19 47 0 24 1 24
100 24 100 0 100 0 100 28 0 15 -9 46 -19 69 -32 70 -104 92 -169 53z m121
-62 c11 -14 16 -31 13 -37 -4 -6 -37 -11 -77 -11 -78 0 -88 13 -47 57 30 33
83 28 111 -9z"/>
<path d="M9997 7214 c-4 -4 -7 -74 -7 -155 0 -128 2 -148 17 -153 9 -4 20 -3
25 2 5 5 7 76 6 158 -3 125 -5 149 -18 152 -9 1 -19 0 -23 -4z"/>
<path d="M10100 7211 c0 -17 73 -227 91 -263 40 -79 76 -42 134 135 42 129 43
139 13 135 -19 -3 -28 -20 -58 -118 -20 -63 -41 -114 -46 -112 -5 1 -25 48
-44 105 -19 56 -39 108 -43 115 -9 14 -47 17 -47 3z"/>
<path d="M10469 7197 c-43 -28 -69 -80 -69 -135 0 -99 53 -152 152 -152 68 0
88 7 88 29 0 15 -10 17 -71 17 -63 -1 -73 2 -90 23 -10 13 -19 34 -19 47 0 24
1 24 100 24 100 0 100 0 100 28 0 15 -9 46 -19 69 -33 71 -108 93 -172 50z
m114 -44 c8 -10 17 -27 19 -38 3 -18 -3 -20 -69 -23 -64 -2 -73 -1 -73 14 0
52 88 85 123 47z"/>
<path d="M10874 7207 c-2 -7 -3 -78 -2 -157 3 -137 4 -145 23 -145 19 0 20 8
25 148 3 81 4 152 2 157 -5 15 -42 12 -48 -3z"/>
<path d="M11063 7213 c-43 -4 -43 -4 -43 -154 0 -149 0 -149 25 -149 24 0 24
0 27 128 3 127 3 127 54 130 71 4 77 -6 82 -143 3 -88 8 -115 19 -119 28 -11
33 5 33 102 0 113 -12 167 -43 186 -26 17 -94 25 -154 19z"/>
<path d="M11393 7209 c-60 -18 -83 -87 -42 -125 11 -10 44 -31 72 -45 53 -26
68 -49 47 -74 -15 -18 -82 -20 -112 -4 -26 14 -42 -6 -27 -33 8 -15 22 -18 80
-18 65 0 73 2 101 30 24 25 29 36 23 58 -9 39 -31 58 -92 86 -92 43 -82 86 19
86 56 0 59 1 56 23 -3 19 -10 22 -48 24 -25 1 -59 -3 -77 -8z"/>
<path d="M11910 7211 c-65 -6 -65 -6 -65 -156 0 -143 1 -150 20 -150 19 0 20
8 25 130 5 130 5 130 63 133 53 3 58 5 55 25 -3 25 -9 26 -98 18z"/>
<path d="M12062 7098 c5 -172 21 -191 159 -186 74 3 74 3 74 153 0 150 0 150
-24 150 -24 0 -24 0 -22 -122 2 -116 1 -122 -19 -133 -27 -15 -83 -5 -101 17
-9 10 -16 55 -19 127 -5 107 -6 111 -29 114 -23 4 -23 4 -19 -120z"/>
<path d="M12476 7210 c-82 -25 -122 -138 -79 -227 25 -54 65 -74 143 -71 59 3
65 5 68 26 3 22 1 23 -46 16 -77 -10 -116 18 -127 92 -8 46 12 96 44 114 11 5
42 10 70 10 35 0 51 4 51 13 0 35 -57 47 -124 27z"/>
<path d="M12897 7213 c-4 -3 -7 -73 -7 -154 0 -121 3 -148 15 -153 22 -8 47 4
41 21 -3 8 -6 77 -6 154 0 128 -1 139 -18 139 -10 0 -22 -3 -25 -7z"/>
<path d="M13103 7205 c-18 -8 -41 -28 -52 -46 -66 -109 -7 -249 105 -249 85 0
136 51 142 140 7 123 -90 201 -195 155z m115 -57 c43 -47 41 -127 -5 -172 -34
-34 -68 -33 -104 3 -24 25 -29 38 -29 79 0 94 83 148 138 90z"/>
<path d="M13425 7213 c-16 -3 -33 -8 -37 -11 -4 -4 -8 -70 -9 -147 -1 -140 -1
-140 25 -143 25 -3 25 -3 28 125 3 128 3 128 48 131 76 5 83 -7 88 -142 5
-116 5 -116 30 -116 25 0 25 0 20 120 -6 137 -17 163 -75 179 -38 11 -63 12
-118 4z"/>
<path d="M14133 7205 c-93 -40 -107 -194 -25 -267 32 -27 40 -30 89 -26 42 4
60 11 83 33 79 76 58 222 -36 261 -42 17 -70 17 -111 -1z m117 -60 c19 -20 24
-37 24 -81 1 -50 -2 -58 -32 -85 -41 -37 -66 -37 -103 0 -24 25 -29 38 -29 79
0 97 83 148 140 87z"/>
<path d="M14615 7206 c-58 -26 -79 -60 -83 -134 -5 -113 46 -166 156 -160 49
3 57 6 60 24 3 20 -1 21 -57 20 -79 -1 -102 19 -109 98 -4 51 -2 57 27 86 27
27 37 31 76 29 55 -4 80 15 51 37 -24 17 -81 18 -121 0z"/>
<path d="M14885 7211 c-70 -6 -70 -6 -73 -154 -2 -127 0 -148 13 -154 30 -11
37 14 38 138 2 124 2 124 60 127 53 3 58 5 55 24 -4 26 -4 26 -93 19z"/>
<path d="M15093 7204 c-92 -46 -106 -194 -26 -264 30 -27 40 -30 102 -30 71 0
99 14 88 44 -4 11 -13 12 -45 3 -51 -14 -99 0 -125 35 -36 48 -20 58 93 58
101 0 101 0 94 38 -19 107 -99 158 -181 116z m111 -56 c9 -12 16 -30 16 -40 0
-16 -10 -18 -75 -18 -84 0 -95 11 -50 55 32 33 87 34 109 3z"/>
<path d="M15390 7211 c-16 -4 -25 -14 -25 -26 0 -18 6 -20 58 -17 67 4 87 -7
87 -49 0 -28 -2 -29 -50 -29 -55 0 -104 -20 -114 -45 -12 -31 -6 -83 12 -104
21 -27 78 -41 135 -34 75 10 77 13 76 111 -1 118 -15 162 -59 184 -36 18 -76
21 -120 9z m124 -177 c10 -25 7 -59 -6 -72 -7 -7 -30 -12 -53 -12 -23 0 -46 5
-53 12 -18 18 -15 65 6 77 28 17 99 13 106 -5z"/>
<path d="M15944 7206 c-89 -40 -108 -190 -34 -261 27 -26 40 -30 100 -33 71
-4 100 6 100 34 0 10 -14 12 -63 7 -58 -5 -65 -3 -95 22 -22 18 -32 35 -30 49
3 19 10 21 98 24 52 2 98 6 102 10 4 4 2 28 -3 53 -18 85 -100 129 -175 95z
m108 -60 c10 -12 18 -29 18 -38 0 -16 -10 -18 -75 -18 -83 0 -91 7 -55 53 32
41 80 42 112 3z"/>
<path d="M16378 7213 c-37 -4 -37 -4 -40 -146 -3 -146 3 -174 35 -161 14 5 17
26 19 132 3 127 3 127 49 130 72 5 79 -7 79 -144 0 -114 0 -114 31 -114 32 0
32 0 27 113 -6 136 -20 171 -76 186 -37 11 -53 11 -124 4z"/>
<path d="M16723 7201 c-85 -53 -94 -193 -18 -260 32 -28 43 -31 98 -31 65 0
106 17 93 38 -5 8 -26 10 -64 6 -53 -6 -60 -4 -90 21 -22 18 -32 35 -30 49 3
20 10 21 101 24 97 3 97 3 97 33 0 38 -22 89 -48 113 -32 28 -100 31 -139 7z
m103 -39 c13 -8 34 -46 34 -61 0 -7 -29 -11 -75 -11 -84 0 -95 11 -50 55 24
25 68 33 91 17z"/>
<path d="M16958 7215 c-3 -3 -2 -18 3 -33 5 -15 25 -77 44 -138 19 -61 43
-118 54 -128 17 -15 19 -15 32 0 8 9 28 58 45 108 18 50 34 84 37 76 3 -8 17
-54 31 -102 24 -78 29 -88 50 -88 28 0 40 25 92 190 33 104 33 125 -1 118 -13
-2 -26 -33 -49 -111 -17 -60 -35 -109 -40 -110 -4 -1 -22 47 -40 108 -45 159
-54 156 -107 -30 -11 -38 -24 -74 -29 -79 -5 -5 -18 24 -30 65 -44 153 -44
154 -65 157 -12 2 -24 0 -27 -3z"/>
<path d="M12167 6633 c-4 -3 -7 -37 -7 -74 0 -67 0 -67 -58 -66 -35 1 -70 -4
-85 -12 -55 -30 -85 -147 -53 -209 39 -76 109 -100 224 -76 22 4 22 4 22 224
0 207 -1 220 -18 220 -10 0 -22 -3 -25 -7z m-33 -193 c25 -9 26 -12 26 -98 0
-98 -7 -112 -56 -112 -68 0 -118 83 -94 156 19 57 65 77 124 54z"/>
<path d="M10180 6604 c-18 -20 -2 -54 25 -54 39 0 44 53 5 63 -11 3 -24 -1
-30 -9z"/>
<path d="M13730 6604 c-19 -22 -7 -49 23 -52 24 -3 27 0 27 26 0 33 -31 50
-50 26z"/>
<path d="M15742 6583 c2 -22 9 -29 29 -31 17 -2 29 3 32 12 11 27 -4 46 -35
46 -26 0 -29 -3 -26 -27z"/>
<path d="M16710 6580 c-17 -10 -25 -161 -15 -268 9 -102 31 -124 113 -120 52
3 57 5 60 27 4 23 2 24 -37 17 -74 -12 -82 0 -79 112 3 97 3 97 58 102 40 4
55 9 55 20 0 11 -14 16 -55 18 -62 4 -73 14 -65 58 6 34 -10 49 -35 34z"/>
<path d="M9640 6438 c0 -218 17 -252 122 -246 47 3 53 6 56 26 3 22 1 23 -40
17 -64 -9 -78 5 -85 92 -3 39 -3 83 1 98 7 26 9 27 56 23 35 -4 53 -1 62 9 17
21 -1 32 -62 35 -55 3 -55 3 -55 43 0 36 -3 40 -27 43 -28 3 -28 3 -28 -140z"/>
<path d="M14460 6426 c0 -159 9 -209 40 -226 29 -15 116 -12 130 5 20 24 2 37
-45 29 -63 -9 -77 16 -73 127 3 84 3 84 58 85 48 1 55 3 58 22 3 21 -1 22 -57
22 -61 0 -61 0 -61 45 0 41 -2 45 -25 45 -25 0 -25 0 -25 -154z"/>
<path d="M15510 6438 c0 -218 17 -252 122 -246 47 3 53 6 56 27 4 22 2 23 -40
17 -71 -11 -81 3 -82 115 -1 94 -1 94 54 94 49 0 55 3 58 22 3 20 -1 22 -55
25 -58 3 -58 3 -56 46 2 40 1 42 -28 42 -29 0 -29 0 -29 -142z"/>
<path d="M8785 6486 c-56 -25 -79 -60 -83 -130 -7 -111 43 -166 150 -166 46 0
59 4 68 19 13 26 0 34 -45 25 -74 -13 -125 34 -125 116 0 33 6 48 30 72 27 27
36 29 82 26 44 -2 53 0 56 14 7 34 -76 49 -133 24z"/>
<path d="M9033 6484 c-64 -32 -92 -145 -56 -221 44 -93 177 -98 232 -10 25 41
28 124 7 165 -37 71 -117 100 -183 66z m108 -47 c63 -48 44 -185 -27 -203 -34
-9 -74 12 -92 46 -21 41 -10 119 22 147 29 25 72 29 97 10z"/>
<path d="M9355 6492 c-40 -7 -40 -7 -43 -155 -3 -148 -3 -148 25 -145 27 3 27
3 24 110 -3 142 -1 148 55 148 74 0 84 -18 84 -151 0 -110 0 -110 26 -107 27
3 27 3 25 107 -2 112 -16 162 -50 180 -27 15 -97 21 -146 13z"/>
<path d="M9910 6492 c-15 -5 -25 -15 -25 -27 0 -17 8 -19 65 -20 60 0 65 -2
78 -28 18 -37 9 -47 -42 -47 -84 0 -126 -28 -126 -84 0 -67 47 -102 136 -100
87 2 94 11 94 112 0 99 -12 151 -39 176 -21 19 -103 29 -141 18z m128 -200 c2
-18 -2 -40 -9 -48 -16 -19 -78 -18 -101 3 -42 38 -3 86 67 81 37 -3 40 -5 43
-36z"/>
<path d="M10180 6356 c0 -80 -1 -149 -2 -153 -2 -5 9 -9 25 -11 28 -3 28 -3
25 150 -3 150 -3 153 -25 156 -23 3 -23 3 -23 -142z"/>
<path d="M10365 6491 c-40 -6 -40 -6 -43 -153 -3 -148 -3 -148 27 -148 29 0
29 0 24 104 -3 57 -3 116 1 130 6 26 10 27 59 24 68 -4 77 -21 77 -155 0 -103
0 -103 30 -103 30 0 30 0 24 113 -8 127 -14 150 -46 171 -28 18 -99 26 -153
17z"/>
<path d="M10709 6477 c-89 -59 -92 -215 -5 -268 60 -37 189 -18 173 24 -5 14
-11 15 -32 7 -70 -27 -151 9 -143 63 3 21 8 22 101 25 97 3 97 3 97 30 0 15
-9 46 -19 69 -33 71 -108 93 -172 50z m114 -44 c8 -10 17 -27 19 -38 3 -18 -3
-20 -61 -23 -83 -4 -96 1 -80 30 7 13 19 28 28 35 24 18 76 16 94 -4z"/>
<path d="M11055 6493 c-33 -2 -64 -8 -68 -12 -5 -5 -8 -71 -8 -147 0 -139 0
-139 25 -142 25 -3 25 -3 28 125 3 128 3 128 56 131 37 2 55 8 59 19 5 13 -14
36 -27 31 -3 -1 -32 -3 -65 -5z"/>
<path d="M11370 6493 c-71 -13 -43 -52 33 -45 60 5 90 -14 85 -52 -3 -18 -11
-22 -58 -26 -95 -9 -137 -55 -110 -121 7 -17 24 -38 38 -47 26 -17 105 -22
155 -9 27 7 27 7 27 120 0 92 -3 117 -19 143 -24 40 -71 51 -151 37z m115
-213 c0 -45 0 -45 -50 -45 -44 0 -51 3 -65 28 -14 27 -14 29 9 48 18 14 36 19
65 17 41 -3 41 -3 41 -48z"/>
<path d="M11675 6492 c-40 -7 -40 -7 -43 -154 -3 -148 -3 -148 25 -148 28 0
28 0 28 127 0 128 0 128 52 131 74 4 83 -12 83 -150 0 -108 0 -108 28 -108 28
0 28 0 25 98 -5 131 -10 155 -36 180 -25 23 -98 34 -162 24z"/>
<path d="M12473 6493 c-33 -4 -33 -4 -33 -209 0 -204 0 -204 25 -204 22 0 24
4 27 58 3 57 3 57 54 54 98 -7 149 42 148 143 0 67 -19 113 -58 138 -26 18
-110 28 -163 20z m149 -73 c26 -33 25 -129 -2 -158 -28 -29 -63 -37 -97 -20
-27 13 -28 16 -31 97 -4 113 -3 115 60 109 38 -4 57 -12 70 -28z"/>
<path d="M12810 6492 c-14 -5 -25 -14 -25 -22 0 -11 16 -16 63 -18 53 -3 64
-6 78 -27 25 -38 12 -55 -39 -55 -85 0 -127 -31 -127 -94 0 -35 36 -74 79 -86
45 -12 126 -3 142 16 7 8 10 53 7 123 -3 103 -5 112 -28 136 -28 28 -103 41
-150 27z m128 -206 c2 -24 -2 -42 -10 -47 -22 -14 -80 -10 -100 8 -42 38 -3
86 67 81 39 -3 40 -4 43 -42z"/>
<path d="M13110 6483 c-78 -40 -63 -109 35 -158 61 -31 77 -54 55 -80 -15 -18
-82 -20 -112 -4 -27 15 -48 -4 -32 -29 25 -39 153 -33 187 9 24 30 22 81 -5
106 -13 11 -44 30 -71 41 -85 38 -73 82 24 82 91 0 94 36 3 46 -36 4 -58 0
-84 -13z"/>
<path d="M13385 6493 c-35 -9 -65 -44 -65 -78 0 -38 24 -62 98 -99 57 -29 68
-57 31 -77 -22 -11 -80 -8 -111 5 -24 11 -36 -20 -16 -40 20 -21 117 -20 157
0 35 18 48 55 35 95 -6 18 -29 36 -76 60 -70 35 -83 56 -53 81 10 8 33 11 66
8 39 -4 52 -2 56 10 13 32 -54 51 -122 35z"/>
<path d="M13730 6356 c0 -80 -1 -149 -2 -153 -2 -5 9 -9 25 -11 28 -3 28 -3
25 150 -3 150 -3 153 -25 156 -23 3 -23 3 -23 -142z"/>
<path d="M13915 6491 c-40 -6 -40 -6 -43 -154 -3 -148 -3 -148 24 -145 27 3
27 3 28 128 1 125 1 125 56 125 72 0 80 -15 80 -152 0 -103 0 -103 25 -103 25
0 25 0 25 105 0 112 -14 166 -47 183 -26 14 -101 21 -148 13z"/>
<path d="M14255 6493 c-35 -9 -65 -44 -65 -78 0 -38 26 -64 95 -97 54 -25 69
-53 39 -75 -21 -15 -87 -17 -114 -3 -23 12 -34 -1 -25 -29 4 -13 18 -20 51
-24 110 -12 183 51 143 124 -5 11 -39 34 -75 51 -51 24 -64 35 -64 53 0 28 17
35 86 35 42 0 54 3 54 15 0 27 -67 42 -125 28z"/>
<path d="M14770 6491 c-75 -6 -75 -6 -78 -152 -2 -130 -1 -147 14 -153 31 -12
37 11 38 136 1 123 1 123 61 128 51 4 60 8 60 24 0 23 -1 24 -95 17z"/>
<path d="M14917 6493 c-3 -4 -3 -56 -2 -114 3 -120 17 -159 64 -179 29 -11
153 -11 165 1 3 2 6 67 7 143 1 140 -5 164 -35 153 -13 -5 -16 -27 -16 -131 0
-104 -3 -125 -16 -130 -31 -12 -63 -6 -90 17 -27 23 -28 28 -29 133 -2 102 -3
109 -22 112 -12 2 -23 0 -26 -5z"/>
<path d="M15310 6482 c-41 -22 -80 -90 -80 -141 0 -53 35 -116 74 -135 45 -21
130 -21 150 0 25 25 9 35 -47 28 -47 -6 -56 -3 -84 20 -35 29 -47 77 -32 131
13 48 46 67 106 64 40 -3 48 0 51 15 2 10 -2 22 -10 27 -23 15 -92 10 -128 -9z"/>
<path d="M15750 6346 c0 -156 0 -156 25 -156 26 0 26 0 23 153 -3 149 -3 152
-25 155 -23 3 -23 3 -23 -152z"/>
<path d="M15950 6478 c-68 -46 -90 -140 -50 -218 47 -91 178 -93 237 -4 23 36
23 127 0 171 -36 69 -125 93 -187 51z m125 -53 c21 -20 25 -34 25 -80 0 -49
-4 -60 -29 -86 -37 -36 -74 -38 -105 -4 -30 32 -40 86 -26 131 22 65 90 85
135 39z"/>
<path d="M16275 6492 c-40 -7 -40 -7 -42 -153 -2 -135 0 -147 16 -152 35 -9
40 6 43 133 3 125 3 125 47 128 72 5 81 -10 81 -145 0 -113 0 -113 30 -113 29
0 30 2 29 43 0 23 -4 80 -8 125 -7 69 -12 88 -32 107 -27 27 -96 38 -164 27z"/>
<path d="M16981 6482 c-90 -49 -99 -205 -15 -271 35 -28 105 -28 149 -1 87 54
87 209 1 265 -40 26 -96 29 -135 7z m118 -56 c51 -54 34 -160 -30 -186 -59
-25 -109 24 -109 108 0 84 87 133 139 78z"/>
<path d="M17425 6491 c-30 -6 -30 -6 -33 -154 -3 -147 -3 -147 42 -147 45 0
45 0 48 118 3 117 3 117 49 115 46 -3 47 -2 52 30 2 17 3 35 0 40 -5 8 -115 7
-158 -2z"/>
<path d="M17630 6395 c0 -176 23 -205 162 -205 48 0 89 4 92 8 2 4 6 73 7 152
2 145 2 145 -42 145 -44 0 -44 0 -47 -117 -3 -118 -3 -118 -31 -118 -16 0 -33
6 -39 13 -6 7 -13 60 -14 118 -3 104 -3 104 -45 107 -43 3 -43 3 -43 -103z"/>
<path d="M17993 6493 c-23 -4 -23 -7 -23 -154 0 -149 0 -149 45 -149 44 0 44
0 47 118 3 112 4 117 25 120 12 2 31 -6 43 -18 20 -20 21 -31 19 -118 -3 -97
-3 -97 44 -100 47 -3 47 -3 46 45 0 26 -4 83 -8 127 -6 71 -10 81 -39 107 -30
27 -38 29 -105 28 -39 -1 -82 -4 -94 -6z"/>
<path d="M18405 6493 c-64 -16 -105 -79 -105 -160 0 -90 57 -143 156 -143 64
0 84 11 84 46 0 21 -4 23 -56 21 -48 -2 -58 1 -75 22 -28 35 -26 101 6 131 20
19 31 22 65 16 37 -6 41 -4 51 21 8 22 7 30 -7 40 -17 13 -79 16 -119 6z"/>
<path d="M4694 5983 c-26 -48 -53 -98 -60 -110 -22 -35 -17 -42 34 -45 47 -3
47 -3 47 -238 0 -235 0 -235 -47 -238 -27 -2 -48 -7 -48 -11 0 -4 21 -45 46
-92 89 -164 140 -145 -405 -153 -522 -8 -519 -7 -565 -70 -21 -27 -21 -39 -21
-521 0 -483 0 -494 21 -521 11 -15 33 -37 48 -48 27 -20 42 -21 489 -26 462
-5 462 -5 461 -102 0 -88 2 -98 17 -98 16 0 19 12 21 98 3 97 3 97 443 102
308 4 446 8 460 17 48 27 79 72 86 125 10 69 10 827 0 896 -8 58 -33 98 -78
124 -26 16 -75 18 -444 23 -228 3 -420 5 -427 5 -12 0 62 159 99 212 11 14 19
29 19 32 0 3 -24 6 -52 8 -53 3 -53 3 -56 218 -1 118 0 226 3 239 5 21 10 23
50 19 24 -3 46 -3 49 -1 2 2 -17 43 -42 91 -72 136 -77 145 -89 149 -6 2 -33
-36 -59 -84z m936 -971 c34 -28 39 -83 39 -482 0 -428 -5 -501 -37 -533 -22
-22 -22 -22 -905 -25 -485 -2 -900 1 -921 5 -24 5 -47 19 -59 34 -18 25 -19
47 -18 495 0 469 0 469 31 497 30 27 30 27 939 27 863 0 910 -1 931 -18z"/>
<path d="M4287 4794 c-4 -4 -7 -140 -7 -301 0 -294 0 -294 33 -291 32 3 32 3
35 163 3 181 4 185 78 185 31 0 51 -7 71 -24 28 -24 28 -25 33 -173 5 -148 5
-148 35 -148 30 0 30 0 33 110 5 171 -3 212 -48 257 -37 38 -38 38 -119 38
-82 0 -82 0 -80 93 2 92 2 92 -27 95 -17 2 -33 0 -37 -4z"/>
<path d="M4720 4756 c-15 -19 -10 -56 10 -68 9 -6 25 -6 43 1 21 8 27 17 27
40 0 40 -53 58 -80 27z"/>
<path d="M3975 4596 c-35 -15 -55 -52 -55 -102 0 -45 31 -77 115 -115 76 -34
94 -59 70 -95 -15 -24 -21 -25 -83 -21 -37 2 -76 6 -87 8 -16 3 -20 -1 -20
-26 0 -25 5 -31 30 -36 139 -30 256 27 242 117 -8 49 -28 68 -111 108 -39 18
-77 41 -85 49 -41 50 60 99 134 65 34 -15 49 -1 36 35 -10 26 -14 27 -83 27
-40 -1 -87 -7 -103 -14z"/>
<path d="M4722 4408 c3 -203 3 -203 33 -203 30 0 30 0 33 203 2 202 2 202 -33
202 -35 0 -35 0 -33 -202z"/>
<path d="M4941 4601 c-24 -6 -24 -6 -22 -196 1 -105 6 -194 10 -198 5 -5 19
-7 32 -5 24 3 24 4 29 173 5 170 5 170 64 170 86 0 95 -17 97 -199 1 -147 4
-154 52 -143 22 6 22 7 19 164 -4 141 -2 158 14 170 27 19 98 16 125 -6 21
-17 23 -27 28 -172 6 -154 6 -154 36 -154 30 0 30 0 30 150 0 165 -9 202 -55
235 -36 25 -117 27 -182 3 -44 -16 -48 -16 -66 0 -15 13 -37 17 -103 16 -46
-1 -95 -4 -108 -8z"/>
<path d="M10060 4721 c0 -247 -6 -231 84 -231 113 0 182 67 172 166 -9 106
-58 151 -153 141 -53 -6 -53 -6 -53 69 0 72 -1 74 -25 74 -25 0 -25 0 -25
-219z m170 19 c41 -22 45 -139 7 -177 -17 -18 -86 -34 -109 -27 -16 5 -18 18
-18 98 0 58 4 96 12 104 15 15 82 16 108 2z"/>
<path d="M10877 4933 c-2 -5 -5 -87 -5 -183 -2 -205 6 -239 56 -254 49 -14 67
8 30 36 -28 20 -28 20 -28 214 0 194 0 194 -24 194 -14 0 -27 -3 -29 -7z"/>
<path d="M11229 4933 c-3 -15 -6 -48 -7 -94 -2 -46 -2 -46 -54 -42 -96 7 -148
-46 -148 -150 0 -105 55 -157 165 -157 100 0 95 -11 95 235 0 215 0 215 -25
215 -14 0 -26 -3 -26 -7z m-23 -191 c16 -10 26 -92 18 -151 -7 -51 -7 -51 -54
-51 -56 0 -88 27 -97 83 -12 76 22 127 85 127 20 0 42 -4 48 -8z"/>
<path d="M16447 4934 c-3 -3 -3 -12 0 -20 3 -8 2 -38 -1 -67 -7 -54 -7 -54
-59 -50 -99 8 -152 -52 -145 -164 4 -57 8 -67 40 -100 31 -31 45 -37 92 -41
30 -2 71 -1 91 2 35 7 35 7 35 226 0 220 0 220 -23 220 -13 0 -26 -3 -30 -6z
m-3 -276 c4 -48 6 -94 2 -103 -4 -11 -20 -15 -54 -15 -38 0 -53 5 -71 24 -40
43 -40 127 0 167 16 16 30 19 67 17 47 -3 47 -3 56 -90z"/>
<path d="M10724 4906 c-11 -29 1 -51 29 -54 27 -3 28 -1 25 30 -2 25 -8 34
-26 36 -13 2 -24 -3 -28 -12z"/>
<path d="M14464 4906 c-10 -26 1 -51 22 -54 16 -2 23 4 28 24 5 18 3 30 -6 35
-20 13 -38 11 -44 -5z"/>
<path d="M17344 4906 c-10 -26 1 -51 23 -54 14 -2 23 3 28 18 12 37 -38 71
-51 36z"/>
<path d="M13927 4883 c-10 -9 -8 -206 3 -287 11 -89 23 -101 103 -101 60 0 62
1 65 27 3 27 3 27 -48 21 -39 -4 -54 -2 -61 8 -5 8 -9 55 -9 106 0 92 0 92 58
95 49 3 57 6 57 23 0 18 -7 20 -55 20 -55 0 -55 0 -58 48 -3 41 -6 47 -26 47
-12 0 -26 -3 -29 -7z"/>
<path d="M17484 4876 c-8 -22 1 -317 11 -339 11 -26 58 -47 103 -47 41 0 62
14 62 41 0 13 -8 15 -51 11 -37 -3 -54 -1 -60 9 -5 8 -9 55 -9 106 0 92 0 92
57 95 43 2 59 7 61 19 2 12 -11 17 -60 25 -63 9 -63 9 -63 49 0 34 -3 40 -23
43 -13 2 -25 -3 -28 -12z"/>
<path d="M12391 4800 c-10 -5 -4 -36 24 -130 45 -154 59 -182 88 -178 18 2 27
19 51 96 17 50 33 92 37 92 4 0 15 -26 24 -57 36 -132 68 -165 99 -104 13 25
86 258 86 274 0 4 -11 7 -24 7 -20 0 -26 -8 -41 -62 -40 -148 -47 -170 -55
-161 -4 4 -22 55 -39 112 -17 57 -33 106 -36 109 -15 16 -35 -19 -64 -112 -18
-58 -36 -108 -40 -110 -4 -3 -18 32 -30 77 -41 153 -49 167 -80 147z"/>
<path d="M17020 4799 c0 -5 17 -36 38 -67 21 -31 41 -62 45 -68 3 -6 -16 -44
-43 -85 -28 -41 -50 -77 -50 -81 0 -5 9 -8 20 -8 13 0 35 21 63 60 23 33 45
60 49 60 4 0 26 -27 50 -60 30 -44 48 -60 65 -60 13 0 23 4 23 8 0 5 -22 41
-50 81 -27 40 -50 75 -50 78 0 3 21 35 46 70 29 41 43 68 37 74 -15 15 -35 2
-77 -52 -22 -27 -42 -49 -45 -49 -3 0 -17 17 -31 37 -14 21 -33 45 -42 55 -20
20 -48 24 -48 7z"/>
<path d="M8732 4792 c-22 -7 -23 -11 -28 -155 -5 -148 -5 -148 43 -145 47 3
47 3 48 118 0 115 0 115 53 118 52 3 52 3 52 38 0 34 0 34 -72 33 -40 -1 -83
-4 -96 -7z"/>
<path d="M8947 4703 c5 -140 9 -158 44 -187 27 -23 39 -26 109 -26 43 0 85 3
94 6 14 5 16 28 16 155 0 149 0 149 -45 149 -45 0 -45 0 -45 -115 0 -115 0
-115 -35 -115 -20 0 -38 6 -40 13 -3 6 -6 57 -8 112 -3 100 -3 100 -48 103
-45 3 -45 3 -42 -95z"/>
<path d="M9297 4793 c-4 -3 -7 -73 -7 -155 0 -148 0 -148 45 -148 45 0 45 0
45 120 0 120 0 120 29 120 16 0 34 -6 40 -14 6 -8 13 -59 15 -117 3 -104 3
-104 51 -107 48 -3 48 -3 41 115 -7 118 -17 151 -55 180 -17 13 -192 18 -204
6z"/>
<path d="M9691 4782 c-65 -33 -92 -140 -55 -218 26 -54 70 -75 151 -72 68 3
68 3 68 38 0 35 0 35 -51 35 -69 0 -94 22 -94 82 0 61 26 86 88 81 47 -3 47
-3 50 35 3 37 3 37 -60 37 -40 0 -75 -6 -97 -18z"/>
<path d="M10397 4794 c-9 -10 -8 -94 3 -178 12 -98 35 -120 133 -124 39 -1 77
1 83 5 14 9 18 61 16 201 -2 102 -2 102 -27 102 -25 0 -25 0 -25 -130 0 -130
0 -130 -50 -130 -69 0 -78 17 -84 150 -4 93 -6 105 -23 108 -10 2 -22 0 -26
-4z"/>
<path d="M10730 4798 c0 -2 -1 -70 -1 -153 -1 -150 -1 -150 25 -153 26 -3 26
-3 26 152 0 156 0 156 -25 156 -14 0 -25 -1 -25 -2z"/>
<path d="M11410 4793 c-33 -12 -50 -37 -50 -73 0 -43 21 -66 92 -99 25 -12 49
-29 52 -38 15 -38 -56 -60 -126 -39 -24 7 -28 5 -28 -13 0 -27 29 -41 87 -41
89 0 145 60 112 119 -8 14 -41 39 -74 56 -49 24 -60 35 -60 54 0 29 41 44 91
35 36 -7 52 9 34 31 -12 15 -98 20 -130 8z"/>
<path d="M11778 4793 c-16 -4 -18 -20 -18 -154 0 -149 0 -149 25 -149 24 0 24
0 27 128 3 127 3 127 54 130 72 4 78 -6 83 -145 3 -112 3 -113 27 -113 24 0
24 1 24 105 0 168 -26 206 -140 204 -36 -1 -73 -3 -82 -6z"/>
<path d="M12144 4781 c-89 -54 -85 -224 7 -273 43 -23 126 -24 158 -2 34 24
12 38 -54 35 -30 -1 -64 0 -75 4 -19 6 -50 52 -50 75 0 6 38 10 105 10 118 0
118 0 93 82 -24 80 -112 113 -184 69z m111 -46 c14 -13 25 -33 25 -45 0 -18
-6 -20 -69 -20 -39 0 -73 5 -76 10 -9 15 22 59 48 70 35 14 46 12 72 -15z"/>
<path d="M13053 4780 c-94 -57 -89 -224 7 -272 49 -25 122 -24 145 2 24 27 9
42 -30 31 -41 -10 -96 3 -117 30 -28 33 -24 120 6 156 21 25 29 27 85 26 47
-2 61 1 61 12 0 38 -104 48 -157 15z"/>
<path d="M13306 4779 c-38 -30 -59 -77 -59 -134 0 -90 56 -155 134 -155 134 0
188 192 80 283 -42 35 -115 38 -155 6z m133 -51 c62 -66 23 -188 -59 -188 -52
0 -73 27 -78 98 -4 50 -1 60 22 85 32 35 86 37 115 5z"/>
<path d="M13623 4793 c-23 -4 -23 -7 -23 -154 0 -149 0 -149 25 -149 25 0 25
0 25 130 0 130 0 130 54 130 37 0 58 -5 67 -16 8 -10 14 -56 17 -130 4 -112 5
-114 28 -114 24 0 24 2 24 98 0 172 -21 205 -128 208 -37 1 -77 0 -89 -3z"/>
<path d="M14170 4785 c-20 -25 -1 -35 65 -35 53 0 66 -3 75 -19 20 -39 12 -48
-45 -55 -30 -3 -65 -11 -79 -17 -53 -24 -58 -110 -9 -149 20 -16 41 -20 97
-20 39 0 77 4 85 9 10 7 12 36 10 131 -4 119 -5 122 -32 146 -23 20 -39 24
-91 24 -43 0 -67 -5 -76 -15z m134 -151 c11 -4 16 -19 16 -49 0 -46 -10 -55
-56 -55 -44 0 -64 17 -64 55 0 30 4 35 28 41 15 3 32 7 37 9 16 6 23 5 39 -1z"/>
<path d="M14460 4645 c0 -156 0 -156 26 -153 26 3 26 3 26 153 -1 150 -1 150
-27 153 -25 3 -25 3 -25 -153z"/>
<path d="M14628 4794 c-16 -5 -18 -21 -18 -155 0 -149 0 -149 25 -149 25 0 25
0 25 130 0 130 0 130 54 130 37 0 58 -5 67 -16 8 -10 14 -56 17 -130 4 -112 5
-114 28 -114 24 0 24 2 24 98 0 174 -20 206 -133 209 -40 1 -80 -1 -89 -3z"/>
<path d="M14975 4769 c-80 -71 -66 -217 25 -264 56 -29 175 -13 168 22 -2 14
-15 16 -74 14 -67 -2 -73 -1 -93 25 -11 15 -21 35 -21 45 0 17 9 19 100 19
100 0 100 0 100 36 0 117 -120 177 -205 103z m110 -15 c19 -8 48 -61 40 -74
-3 -6 -37 -10 -76 -10 -61 0 -69 2 -69 19 0 21 53 71 75 71 7 0 21 -3 30 -6z"/>
<path d="M15295 4791 c-30 -6 -30 -6 -33 -154 -3 -148 -3 -148 25 -145 28 3
28 3 24 124 -2 79 1 124 8 128 6 4 31 8 56 10 47 2 72 17 61 35 -8 12 -91 13
-141 2z"/>
<path d="M15631 4791 c-8 -5 -11 -16 -8 -25 5 -12 21 -16 72 -16 61 0 66 -2
75 -26 6 -14 10 -29 10 -32 0 -4 -33 -13 -72 -19 -54 -8 -77 -17 -90 -33 -26
-32 -23 -83 6 -117 21 -24 32 -28 93 -31 109 -6 113 -2 113 119 0 115 -15 164
-55 179 -32 12 -125 13 -144 1z m127 -157 c18 -5 22 -13 22 -49 0 -46 -10 -55
-59 -55 -36 0 -71 26 -71 54 0 28 15 42 50 49 14 2 27 5 30 6 3 0 15 -2 28 -5z"/>
<path d="M15938 4793 c-16 -4 -18 -20 -18 -154 0 -149 0 -149 25 -149 24 0 24
0 27 128 3 127 3 127 54 130 71 4 77 -6 82 -144 4 -112 5 -114 28 -114 24 0
24 1 24 108 0 119 -15 167 -60 189 -24 12 -125 16 -162 6z"/>
<path d="M16774 4781 c-40 -24 -64 -77 -64 -138 0 -90 63 -153 153 -153 56 0
87 14 87 38 0 16 -8 17 -66 14 -57 -4 -68 -2 -90 19 -13 12 -24 33 -24 46 0
22 2 23 95 23 107 0 112 3 100 67 -4 22 -20 50 -40 70 -27 27 -41 33 -76 33
-25 0 -57 -8 -75 -19z m101 -27 c19 -8 48 -61 40 -74 -3 -6 -37 -10 -76 -10
-60 0 -69 2 -69 18 0 22 18 46 45 60 23 13 37 14 60 6z"/>
<path d="M17340 4645 c0 -156 0 -156 26 -153 26 3 26 3 26 153 -1 150 -1 150
-27 153 -25 3 -25 3 -25 -153z"/>
<path d="M17730 4771 c-55 -54 -36 -100 59 -145 49 -24 61 -34 61 -53 0 -39
-68 -52 -136 -26 -10 4 -14 -2 -14 -20 0 -29 16 -37 77 -37 58 0 108 24 123
60 18 44 -5 78 -81 115 -35 17 -65 38 -66 46 -6 31 15 44 74 44 51 0 58 3 58
20 0 18 -8 20 -63 23 -58 3 -65 1 -92 -27z"/>
<path d="M8988 4213 c-2 -5 -3 -105 -3 -223 0 -215 0 -215 45 -215 44 0 44 0
41 97 -1 54 0 106 4 118 7 22 35 26 66 10 17 -10 19 -22 19 -120 0 -110 0
-110 46 -110 47 0 47 0 42 125 -5 121 -6 127 -33 155 -23 24 -37 30 -70 30
-65 0 -79 16 -72 84 6 56 6 56 -38 56 -24 0 -45 -3 -47 -7z"/>
<path d="M10130 4002 c0 -251 -8 -232 95 -232 99 0 165 61 165 152 0 104 -55
161 -150 156 -55 -3 -55 -3 -56 67 -1 68 -2 70 -28 73 -26 3 -26 3 -26 -216z
m190 -4 c24 -39 25 -76 6 -123 -18 -42 -45 -57 -99 -53 -42 3 -42 3 -45 85 -4
109 4 123 68 123 46 0 52 -3 70 -32z"/>
<path d="M9324 4186 c-12 -49 -3 -61 46 -61 45 0 45 0 45 40 0 40 0 40 -42 43
-38 3 -43 0 -49 -22z"/>
<path d="M15097 4204 c-4 -4 -7 -23 -7 -41 0 -19 -5 -44 -11 -55 -15 -27 4
-48 29 -32 15 9 24 35 43 114 4 16 -40 27 -54 14z"/>
<path d="M14064 4186 c-8 -21 14 -56 35 -56 22 0 32 30 19 54 -11 20 -47 21
-54 2z"/>
<path d="M13537 4164 c-10 -10 -8 -259 2 -312 11 -55 28 -72 79 -79 61 -8 94
3 90 29 -3 20 -8 22 -55 19 -59 -3 -58 -4 -68 100 -10 99 -5 109 60 109 53 0
68 10 57 38 -3 8 -25 12 -64 12 -60 0 -60 0 -56 43 3 36 0 42 -17 45 -12 2
-24 0 -28 -4z"/>
<path d="M17142 3995 c3 -177 3 -177 31 -201 50 -43 162 -27 144 20 -4 10 -18
12 -53 8 -65 -7 -74 8 -74 120 0 88 0 88 54 88 59 0 87 18 62 40 -9 6 -20 9
-25 6 -5 -4 -28 -4 -50 0 -38 6 -40 8 -43 48 -3 34 -7 42 -26 44 -23 4 -23 4
-20 -173z"/>
<path d="M9545 4081 c-50 -6 -50 -6 -53 -158 -3 -153 -3 -153 42 -153 45 0 45
0 48 118 3 117 3 117 28 117 38 0 51 -36 48 -140 -2 -90 -2 -90 42 -90 44 0
44 0 45 109 0 92 3 110 18 120 12 8 22 8 35 0 14 -9 17 -29 20 -123 3 -111 3
-111 47 -111 45 0 45 0 45 115 0 126 -10 162 -52 182 -43 21 -57 22 -105 10
-38 -10 -57 -10 -88 -1 -44 14 -46 14 -120 5z"/>
<path d="M8726 4055 c-19 -18 -26 -34 -26 -63 0 -44 20 -67 88 -101 23 -12 42
-29 42 -38 0 -14 -9 -15 -71 -9 -70 6 -70 6 -67 -31 3 -38 3 -38 90 -38 78 0
89 2 112 24 27 26 35 76 17 109 -5 10 -37 31 -70 47 -80 38 -79 53 2 57 62 3
62 3 65 36 3 32 3 32 -76 32 -70 0 -82 -3 -106 -25z"/>
<path d="M9325 3927 c0 -152 0 -152 43 -152 44 0 44 0 45 153 2 152 2 152 -43
152 -45 0 -45 0 -45 -153z"/>
<path d="M10523 4060 c-43 -26 -66 -73 -66 -136 0 -94 60 -155 148 -153 63 2
90 12 93 37 4 25 2 25 -51 13 -54 -13 -103 3 -122 39 -8 16 -15 34 -15 39 0 6
42 11 103 13 102 3 102 3 99 42 -4 48 -24 89 -54 110 -31 22 -96 20 -135 -4z
m113 -45 c43 -44 30 -60 -50 -60 -82 0 -91 11 -48 55 37 37 65 38 98 5z"/>
<path d="M10843 4060 c-44 -26 -63 -68 -63 -137 0 -71 26 -118 75 -139 67 -28
166 -11 153 26 -3 10 -19 13 -56 11 -28 -1 -61 0 -72 4 -42 13 -63 99 -40 160
13 33 66 56 112 48 40 -6 57 9 38 32 -19 22 -108 19 -147 -5z"/>
<path d="M11104 4061 c-61 -37 -84 -149 -46 -220 43 -79 145 -93 210 -28 31
31 36 43 40 95 5 72 -17 125 -62 153 -40 24 -102 24 -142 0z m141 -72 c28 -54
11 -147 -30 -163 -24 -9 -64 -7 -85 4 -36 19 -51 105 -28 156 27 59 114 61
143 3z"/>
<path d="M11408 4073 c-16 -4 -18 -20 -18 -154 0 -150 0 -150 26 -147 26 3 26
3 27 128 2 125 2 125 48 128 67 4 73 -8 78 -145 3 -114 3 -114 28 -111 25 3
25 3 26 128 2 125 2 125 53 128 64 4 65 2 69 -143 4 -110 4 -110 31 -113 26
-4 26 -4 22 120 -3 68 -9 131 -13 141 -18 43 -113 61 -168 32 -26 -13 -31 -13
-50 0 -21 14 -117 19 -159 8z"/>
<path d="M11925 4047 c-80 -80 -64 -224 30 -263 47 -19 129 -18 149 2 34 33
13 49 -43 34 -65 -17 -131 20 -131 74 0 14 16 16 99 16 55 0 102 4 105 8 12
19 -17 104 -46 132 -25 25 -37 30 -80 30 -43 0 -54 -4 -83 -33z m131 -32 c43
-43 29 -60 -49 -63 -56 -2 -68 0 -74 14 -8 21 48 74 78 74 11 0 31 -11 45 -25z"/>
<path d="M12239 4065 c-35 -19 -51 -64 -35 -96 6 -13 41 -40 76 -59 72 -39 84
-61 45 -86 -25 -16 -52 -16 -112 2 -19 5 -23 2 -23 -14 0 -28 29 -42 87 -42
89 0 145 59 112 119 -8 14 -38 37 -66 51 -73 35 -87 50 -69 75 11 16 26 20 72
20 58 0 83 17 53 36 -22 14 -111 10 -140 -6z"/>
<path d="M12661 4062 c-46 -25 -71 -74 -71 -141 0 -95 57 -151 152 -151 52 0
84 19 75 44 -5 13 -13 15 -29 9 -76 -26 -148 21 -148 98 0 83 46 123 129 112
43 -6 55 9 29 35 -18 18 -99 14 -137 -6z"/>
<path d="M12918 4064 c-64 -34 -88 -151 -46 -225 49 -88 175 -90 228 -4 24 39
27 119 6 170 -28 65 -122 95 -188 59z m103 -34 c19 0 49 -66 49 -107 0 -77
-68 -126 -130 -93 -21 11 -40 60 -40 102 0 58 56 116 98 102 8 -2 18 -4 23 -4z"/>
<path d="M13223 4073 c-23 -4 -23 -7 -23 -154 0 -150 0 -150 28 -147 27 3 27
3 28 108 2 165 -3 150 53 150 69 0 75 -11 81 -144 5 -110 5 -111 29 -111 25 0
25 0 22 109 -3 120 -8 141 -41 171 -16 15 -38 20 -88 21 -37 1 -77 0 -89 -3z"/>
<path d="M13781 4071 c-8 -5 -11 -16 -7 -26 5 -15 14 -16 56 -11 45 6 53 4 75
-18 41 -41 33 -53 -41 -61 -81 -8 -114 -34 -114 -89 0 -56 35 -88 103 -94 31
-2 72 -1 92 2 35 7 35 7 34 109 0 117 -13 166 -49 184 -29 15 -128 17 -149 4z
m147 -199 c4 -42 -12 -62 -52 -62 -41 0 -76 25 -76 55 0 32 25 45 80 42 43 -2
45 -3 48 -35z"/>
<path d="M14070 3925 c0 -155 0 -155 25 -155 25 0 25 0 25 155 0 155 0 155
-25 155 -25 0 -25 0 -25 -155z"/>
<path d="M14228 4073 c-16 -4 -18 -20 -18 -154 0 -149 0 -149 30 -149 30 0 30
0 27 128 -2 127 -2 127 50 130 74 4 83 -12 83 -151 0 -108 0 -108 28 -105 27
3 27 3 24 108 -4 129 -15 166 -52 185 -27 14 -131 19 -172 8z"/>
<path d="M14598 4063 c-59 -37 -88 -147 -54 -211 29 -55 62 -76 129 -80 63 -4
93 7 99 38 2 11 -10 14 -65 11 -60 -3 -72 0 -93 20 -13 12 -24 33 -24 46 0 22
2 23 95 23 107 0 112 3 100 67 -4 22 -20 50 -40 70 -27 27 -40 33 -76 33 -24
0 -56 -8 -71 -17z m97 -29 c19 -8 48 -61 40 -74 -7 -11 -138 -14 -148 -4 -11
11 16 55 42 69 29 16 42 18 66 9z"/>
<path d="M14893 4073 c-23 -4 -23 -7 -23 -154 0 -149 0 -149 25 -149 25 0 25
0 25 130 0 129 0 129 58 132 49 3 57 6 57 23 0 18 -7 20 -60 21 -33 1 -70 0
-82 -3z"/>
<path d="M15263 4070 c-27 -11 -43 -40 -43 -78 0 -34 17 -51 88 -86 64 -32 74
-52 41 -78 -23 -20 -51 -20 -116 -2 -35 9 -32 -33 3 -46 77 -30 176 7 182 66
4 41 -21 70 -88 102 -89 44 -81 85 17 86 51 1 58 3 58 21 0 18 -7 20 -60 22
-33 1 -70 -2 -82 -7z"/>
<path d="M15642 4070 c-22 -9 -22 -10 -20 -207 3 -198 3 -198 28 -198 24 0 25
3 25 55 0 55 0 55 46 52 100 -7 159 48 159 148 0 107 -53 161 -160 159 -30 0
-65 -4 -78 -9z m149 -53 c54 -41 49 -169 -6 -191 -24 -9 -78 -7 -94 3 -15 10
-28 134 -17 175 6 23 11 26 54 26 26 0 54 -6 63 -13z"/>
<path d="M15977 4073 c-4 -3 -7 -15 -7 -25 0 -16 7 -18 58 -16 65 3 92 -10 92
-47 0 -20 -6 -23 -60 -29 -78 -9 -114 -38 -114 -90 0 -26 8 -44 27 -64 25 -25
34 -27 108 -27 60 0 82 4 89 15 5 8 10 49 10 90 -1 157 -29 200 -134 200 -34
0 -66 -3 -69 -7z m147 -189 c15 -57 -23 -86 -87 -67 -25 7 -33 15 -35 36 -5
42 13 57 68 57 43 0 48 -3 54 -26z"/>
<path d="M16295 4071 c-30 -6 -30 -6 -30 -151 0 -145 0 -145 25 -145 25 0 25
0 28 128 3 127 3 127 57 127 56 0 69 7 59 34 -6 17 -77 20 -139 7z"/>
<path d="M16525 4049 c-86 -76 -62 -235 41 -269 43 -15 134 -7 146 12 19 30 8
35 -65 30 -71 -4 -74 -3 -95 23 -12 15 -22 36 -22 46 0 17 9 19 101 19 102 0
102 0 96 50 -10 84 -48 120 -127 120 -30 0 -48 -8 -75 -31z m110 -15 c19 -8
48 -61 40 -74 -3 -6 -37 -10 -76 -10 -61 0 -69 2 -69 19 0 21 53 71 75 71 7 0
21 -3 30 -6z"/>
<path d="M16833 4073 c-23 -4 -23 -7 -23 -154 0 -149 0 -149 25 -149 25 0 25
0 25 130 0 130 0 130 54 130 36 0 58 -5 66 -15 8 -9 15 -60 18 -130 5 -113 5
-115 28 -115 24 0 24 2 24 93 -1 176 -21 210 -127 213 -38 1 -78 0 -90 -3z"/>
<path d="M17524 4070 c-17 -7 -21 -16 -20 -47 1 -21 3 -111 4 -201 2 -163 2
-163 25 -160 19 3 22 10 25 61 3 57 3 57 55 51 92 -10 152 47 152 145 0 105
-58 162 -165 160 -30 0 -64 -4 -76 -9z m161 -65 c20 -20 25 -34 25 -78 0 -75
-25 -107 -84 -107 -23 0 -47 5 -54 12 -8 8 -12 46 -12 105 0 93 0 93 50 93 41
0 56 -5 75 -25z"/>
<path d="M17878 4073 c-28 -4 -28 -4 -28 -154 0 -149 0 -149 25 -149 25 0 25
0 25 130 0 129 0 129 58 132 49 3 57 6 57 23 0 17 -7 20 -55 21 -30 1 -67 -1
-82 -3z"/>
<path d="M18123 4060 c-94 -57 -87 -227 11 -274 67 -31 136 -9 176 56 25 41
26 117 4 164 -33 68 -125 95 -191 54z m101 -30 c36 -13 59 -64 53 -117 -8 -73
-61 -110 -122 -87 -39 15 -58 105 -33 160 10 21 48 48 75 54 1 0 13 -4 27 -10z"/>
<path d="M18464 4061 c-63 -39 -87 -157 -44 -225 34 -56 148 -86 195 -52 34
25 12 44 -45 38 -82 -8 -120 25 -120 104 0 75 50 119 124 107 38 -6 55 9 36
32 -18 22 -108 19 -146 -4z"/>
<path d="M18733 4060 c-109 -66 -81 -263 41 -285 49 -10 126 3 133 21 10 26
-10 34 -50 23 -65 -18 -137 21 -137 73 0 15 13 18 103 20 102 3 102 3 98 43
-7 79 -50 125 -118 125 -21 0 -52 -9 -70 -20z m113 -45 c43 -44 30 -60 -54
-63 -66 -3 -72 -1 -72 17 0 24 54 71 81 71 11 0 31 -11 45 -25z"/>
<path d="M19035 4070 c-27 -10 -42 -29 -50 -60 -9 -37 26 -76 91 -105 65 -29
77 -50 43 -78 -24 -19 -56 -19 -116 -1 -19 5 -23 2 -23 -15 0 -62 176 -50 200
13 18 49 -5 83 -81 122 -38 19 -69 41 -69 49 0 28 46 48 94 41 48 -8 66 5 46
29 -14 16 -100 20 -135 5z"/>
<path d="M19271 4054 c-56 -47 -39 -101 46 -142 73 -35 86 -56 53 -84 -19 -15
-33 -18 -60 -14 -67 12 -74 11 -78 -6 -9 -45 138 -51 183 -8 32 30 34 79 4
106 -11 10 -44 30 -72 44 -37 18 -53 32 -55 47 -4 30 37 47 90 38 30 -5 39 -3
44 10 10 24 -13 35 -73 35 -41 0 -58 -5 -82 -26z"/>
<path d="M3290 3697 c-56 -23 -68 -42 -38 -60 21 -14 95 10 109 34 13 25 11
49 -3 49 -7 0 -38 -11 -68 -23z"/>
<path d="M3530 3690 c0 -30 0 -30 80 -30 80 0 80 0 80 30 0 30 0 30 -80 30
-80 0 -80 0 -80 -30z"/>
<path d="M3846 3712 c-3 -5 -2 -18 1 -31 5 -20 10 -22 82 -18 74 4 76 4 79 30
3 27 3 27 -77 27 -44 0 -82 -4 -85 -8z"/>
<path d="M4172 3693 c3 -28 3 -28 78 -28 73 0 75 1 75 25 0 24 -2 25 -78 28
-78 3 -78 3 -75 -25z"/>
<path d="M4484 3705 c-12 -31 13 -43 89 -42 70 2 72 3 72 27 0 24 -2 25 -78
28 -63 2 -78 0 -83 -13z"/>
<path d="M4812 3694 c3 -27 4 -27 78 -27 73 0 75 1 75 24 0 23 -3 24 -78 27
-78 3 -78 3 -75 -24z"/>
<path d="M5132 3693 c3 -28 3 -28 78 -28 73 0 75 1 75 25 0 24 -2 25 -78 28
-78 3 -78 3 -75 -25z"/>
<path d="M5452 3693 c3 -28 4 -28 78 -28 74 0 75 0 78 28 3 27 3 27 -78 27
-81 0 -81 0 -78 -27z"/>
<path d="M5772 3693 c3 -28 4 -28 81 -31 77 -3 77 -3 77 28 0 30 0 30 -81 30
-80 0 -80 0 -77 -27z"/>
<path d="M6080 3690 c0 -34 77 -97 105 -86 28 10 16 45 -27 76 -48 35 -78 39
-78 10z"/>
<path d="M14569 3500 c-12 -7 -14 -45 -11 -229 3 -221 3 -221 27 -221 24 0 24
0 27 128 3 127 3 127 54 130 35 2 54 -2 63 -11 9 -12 21 -147 21 -240 0 -5 10
-7 23 -5 21 3 22 6 21 119 -1 69 -6 125 -14 138 -15 30 -68 51 -125 51 -45 0
-45 0 -45 69 0 71 -10 88 -41 71z"/>
<path d="M17712 3501 c-6 -3 -12 -38 -14 -76 -3 -70 -3 -70 -54 -67 -71 5
-110 -17 -136 -75 -38 -86 -12 -178 63 -215 43 -22 127 -23 157 -2 22 15 22
20 22 223 0 165 -3 210 -13 214 -8 3 -19 2 -25 -2z m-24 -203 c8 -8 12 -45 12
-100 0 -86 -1 -89 -26 -99 -36 -13 -90 5 -111 38 -9 14 -17 46 -17 73 -1 65
30 100 89 100 22 0 46 -5 53 -12z"/>
<path d="M3200 3415 c0 -85 0 -85 35 -85 35 0 35 0 35 85 0 85 0 85 -35 85
-35 0 -35 0 -35 -85z"/>
<path d="M9538 3428 c-3 -73 -3 -73 -58 -70 -100 5 -157 -58 -148 -165 5 -62
29 -100 79 -125 37 -20 113 -24 153 -8 26 10 26 10 26 225 0 215 0 215 -25
215 -23 0 -24 -3 -27 -72z m-9 -132 c8 -9 11 -46 9 -102 -3 -85 -4 -88 -30
-97 -42 -13 -99 18 -117 65 -16 45 -8 101 20 129 23 23 100 27 118 5z"/>
<path d="M12072 3468 c-6 -8 -6 -22 -1 -36 12 -32 53 -27 57 7 5 35 -34 55
-56 29z"/>
<path d="M14175 3470 c-4 -6 -4 -22 -1 -36 5 -19 12 -25 29 -22 32 4 32 62 0
66 -11 2 -24 -2 -28 -8z"/>
<path d="M16484 3466 c-11 -29 0 -51 26 -51 21 0 25 5 25 30 0 24 -5 31 -23
33 -13 2 -24 -3 -28 -12z"/>
<path d="M6154 3378 c1 -83 1 -83 31 -83 30 0 30 0 30 80 0 80 0 80 -31 83
-31 3 -31 3 -30 -80z"/>
<path d="M12790 3448 c-8 -56 -10 -192 -5 -256 6 -76 10 -89 35 -114 20 -20
38 -28 64 -28 51 0 88 17 84 38 -3 14 -12 16 -55 14 -66 -5 -73 8 -73 122 0
85 0 85 58 88 49 3 57 6 57 23 0 17 -8 20 -57 23 -57 3 -57 3 -60 45 -2 35 -7
43 -25 45 -13 2 -23 2 -23 0z"/>
<path d="M14327 3444 c-4 -4 -7 -74 -7 -156 0 -166 11 -211 55 -228 58 -22
125 -6 125 30 0 17 -5 18 -48 13 -67 -8 -77 7 -77 116 0 86 0 86 60 91 58 5
62 8 57 40 -1 5 -28 10 -59 12 -58 3 -58 3 -58 43 0 33 -4 41 -20 43 -12 2
-24 0 -28 -4z"/>
<path d="M15952 3276 c3 -163 5 -177 24 -197 40 -40 160 -33 152 9 -3 14 -12
16 -56 14 -49 -4 -52 -2 -62 24 -6 15 -9 61 -8 103 3 76 3 76 61 79 54 3 58 5
55 25 -3 19 -10 22 -60 25 -57 3 -57 3 -60 45 -3 35 -7 43 -26 45 -23 4 -23 4
-20 -172z"/>
<path d="M3774 3425 c-2 -5 -4 -21 -6 -35 -3 -25 -3 -25 -142 -30 -139 -5
-139 -5 -140 -55 -1 -50 -1 -50 164 -55 165 -5 165 -5 168 -38 6 -58 -8 -65
-133 -61 -110 4 -110 4 -113 -53 -3 -57 -3 -57 95 -60 98 -3 98 -3 98 -43 0
-40 0 -40 -120 -45 -120 -5 -120 -5 -120 -59 0 -55 0 -55 102 -52 131 3 143
-1 143 -45 0 -34 0 -34 370 -34 370 0 370 0 370 335 0 335 0 335 -366 337
-238 2 -368 -1 -370 -7z m624 -327 c-3 -223 -3 -223 -258 -223 -255 0 -255 0
-258 223 -2 222 -2 222 258 222 260 0 260 0 258 -222z"/>
<path d="M3923 3255 c-2 -6 -2 -83 -1 -170 3 -152 4 -160 23 -160 18 0 20 6
18 63 -3 79 11 81 62 7 36 -53 61 -75 84 -75 22 0 10 27 -39 87 -27 34 -50 67
-50 73 0 8 18 11 53 8 52 -3 52 -3 52 86 0 88 0 88 -99 90 -60 0 -100 -3 -103
-9z m157 -74 c0 -38 0 -38 -47 -44 -26 -3 -53 -3 -60 0 -13 5 -18 64 -6 76 3
4 30 7 60 7 53 0 53 0 53 -39z"/>
<path d="M4177 3263 c-6 -13 -2 -317 5 -328 3 -6 42 -9 92 -7 86 3 86 3 86 33
0 29 0 29 -60 29 -61 0 -61 0 -58 108 3 107 3 107 60 110 46 2 58 7 63 22 4
11 3 24 0 30 -7 11 -182 14 -188 3z"/>
<path d="M8720 3345 c-20 -24 -2 -35 61 -32 50 2 63 -1 75 -17 25 -35 18 -56
-18 -56 -45 0 -104 -18 -123 -36 -38 -39 -25 -113 26 -139 32 -17 116 -20 154
-5 27 10 27 10 23 131 -3 118 -4 121 -31 145 -23 20 -39 24 -91 24 -43 0 -67
-5 -76 -15z m153 -169 c10 -15 0 -68 -16 -78 -23 -15 -77 -8 -97 12 -24 24
-24 29 -5 57 23 32 97 38 118 9z"/>
<path d="M9032 3353 c-22 -4 -23 -5 -20 -151 3 -147 3 -147 27 -147 24 0 24 0
25 125 1 124 1 124 26 130 41 10 84 -3 97 -30 8 -15 13 -66 13 -128 0 -103 0
-103 28 -100 27 3 27 3 24 108 -4 128 -15 166 -52 185 -27 14 -114 18 -168 8z"/>
<path d="M9873 3341 c-51 -32 -68 -67 -68 -137 0 -72 20 -108 76 -137 39 -21
136 -18 150 5 15 23 -14 40 -46 28 -35 -13 -89 3 -110 33 -25 35 -20 120 9
154 21 24 30 27 80 26 53 -1 57 0 54 20 -3 19 -10 22 -58 25 -41 2 -63 -3 -87
-17z"/>
<path d="M10115 3327 c-74 -74 -65 -207 18 -257 121 -74 254 76 188 212 -26
54 -65 78 -126 78 -40 0 -52 -5 -80 -33z m142 -39 c43 -39 37 -138 -11 -177
-29 -24 -76 -18 -103 13 -18 21 -23 39 -23 79 0 102 71 145 137 85z"/>
<path d="M10438 3353 c-16 -4 -18 -20 -18 -154 0 -149 0 -149 25 -149 24 0 24
0 27 128 3 127 3 127 49 130 29 2 50 -2 57 -10 5 -7 12 -65 15 -128 4 -113 4
-115 28 -115 24 0 24 1 25 111 1 62 4 119 7 128 8 20 92 23 104 4 4 -7 10 -65
13 -128 5 -115 5 -115 30 -115 19 0 25 5 24 23 0 12 -1 67 -2 123 -2 97 -3
102 -31 130 -34 33 -88 39 -144 15 -28 -11 -36 -11 -52 0 -18 13 -117 18 -157
7z"/>
<path d="M10937 3352 c-16 -7 -18 -23 -19 -152 0 -145 0 -145 23 -145 24 0 24
1 27 128 2 112 5 127 20 129 34 3 77 -4 87 -13 6 -6 12 -63 15 -127 5 -116 5
-117 29 -117 25 0 25 0 25 125 1 125 1 125 56 125 66 0 68 -3 69 -153 1 -103
1 -103 28 -100 27 3 27 3 24 107 -3 122 -16 171 -51 188 -33 17 -98 16 -131
-1 -22 -11 -30 -11 -50 0 -25 14 -122 18 -152 6z"/>
<path d="M11410 3255 c0 -131 13 -169 67 -192 44 -18 151 -13 164 9 5 7 8 74
7 148 -3 132 -4 135 -25 138 -23 3 -23 2 -23 -117 0 -95 -3 -123 -16 -135 -18
-19 -18 -19 -66 -6 -47 13 -58 44 -58 166 0 94 0 94 -25 94 -25 0 -25 0 -25
-105z"/>
<path d="M11762 3350 c-22 -9 -23 -12 -20 -152 3 -143 3 -143 28 -143 25 0 25
0 28 128 3 127 3 127 50 127 74 0 76 -3 82 -137 5 -118 5 -118 30 -118 25 0
25 0 22 110 -4 126 -14 160 -53 180 -31 17 -131 19 -167 5z"/>
<path d="M12075 3348 c-3 -8 -4 -77 -3 -153 3 -140 3 -140 31 -143 28 -3 28
-3 25 150 -3 150 -3 153 -26 156 -12 2 -24 -3 -27 -10z"/>
<path d="M12273 3340 c-44 -26 -63 -68 -63 -136 0 -69 25 -115 77 -139 61 -29
163 -9 149 30 -2 6 -12 9 -22 7 -70 -10 -98 -4 -126 27 -21 23 -28 42 -28 72
0 82 50 126 131 113 35 -6 39 -4 39 14 0 25 -18 32 -78 32 -29 0 -59 -8 -79
-20z"/>
<path d="M12500 3340 c-12 -23 -13 -23 63 -24 62 -1 87 -18 87 -58 0 -14 -8
-18 -42 -18 -24 0 -62 -9 -85 -19 -34 -16 -43 -26 -48 -54 -8 -43 11 -87 45
-104 30 -15 118 -17 154 -3 26 9 26 11 26 115 0 157 -21 185 -135 185 -44 0
-56 -4 -65 -20z m148 -190 c4 -40 -16 -60 -60 -60 -30 0 -68 30 -68 54 0 30
31 47 79 44 45 -3 46 -4 49 -38z"/>
<path d="M13064 3341 c-37 -23 -64 -84 -64 -145 0 -79 70 -147 150 -145 58 2
85 13 88 38 3 21 1 22 -35 15 -58 -12 -94 -7 -120 17 -12 13 -23 33 -23 46 0
23 2 23 100 23 100 0 100 0 100 30 0 110 -107 176 -196 121z m101 -27 c22 -9
49 -64 37 -76 -5 -5 -40 -8 -78 -6 -63 3 -69 5 -66 23 7 43 64 75 107 59z"/>
<path d="M13349 3331 c-16 -16 -29 -38 -29 -49 0 -31 38 -70 95 -97 111 -53
66 -104 -74 -84 -26 4 -36 -8 -22 -30 12 -19 101 -26 145 -11 49 16 73 60 55
102 -10 24 -28 38 -76 60 -74 33 -87 53 -53 80 19 16 33 18 72 13 43 -6 48 -5
48 13 0 25 -18 32 -82 32 -41 0 -54 -5 -79 -29z"/>
<path d="M13698 3355 c-5 -5 -2 -17 47 -175 50 -164 79 -171 124 -31 14 44 31
80 36 80 6 0 21 -36 35 -81 27 -88 49 -113 75 -87 21 21 106 282 95 292 -4 5
-16 7 -26 5 -13 -2 -25 -28 -45 -98 -15 -52 -28 -103 -28 -112 -1 -10 -5 -18
-10 -18 -8 0 -55 138 -67 199 -5 22 -12 31 -26 31 -10 0 -20 -6 -23 -12 -2 -7
-18 -60 -35 -117 -18 -58 -35 -100 -40 -95 -5 5 -18 46 -29 91 -29 114 -38
133 -59 133 -10 0 -21 -2 -24 -5z"/>
<path d="M14180 3205 c0 -156 0 -156 23 -153 22 3 22 5 22 153 0 148 0 150
-22 153 -23 3 -23 3 -23 -153z"/>
<path d="M15073 3340 c-42 -25 -62 -57 -69 -112 -8 -55 21 -128 60 -153 57
-37 166 -27 166 15 0 23 -7 24 -46 10 -34 -13 -88 3 -109 33 -9 12 -15 43 -15
74 0 40 5 58 24 80 22 25 30 28 80 26 58 -2 76 8 56 32 -19 22 -108 19 -147
-5z"/>
<path d="M15344 3350 c-72 -29 -101 -147 -57 -233 47 -92 186 -85 235 13 36
70 10 177 -51 213 -31 18 -92 22 -127 7z m134 -96 c37 -110 -66 -210 -135
-130 -31 36 -33 121 -3 159 41 52 117 36 138 -29z"/>
<path d="M15638 3354 c-16 -5 -18 -21 -18 -155 0 -149 0 -149 25 -149 24 0 24
0 27 128 3 127 3 127 54 130 36 2 54 -1 63 -12 8 -9 15 -61 18 -131 6 -111 7
-116 27 -113 19 3 21 11 24 73 5 105 -6 171 -33 203 -21 24 -30 27 -96 29 -41
1 -82 -1 -91 -3z"/>
<path d="M16197 3353 c-4 -3 -7 -15 -7 -25 0 -15 8 -18 59 -16 66 2 91 -11 91
-47 0 -20 -6 -23 -59 -29 -81 -9 -111 -34 -111 -90 0 -74 44 -102 147 -94 71
6 83 22 82 102 -1 165 -28 206 -133 206 -34 0 -66 -3 -69 -7z m147 -179 c17
-45 -7 -84 -52 -84 -56 0 -93 55 -60 88 18 18 105 15 112 -4z"/>
<path d="M16485 3348 c-3 -8 -4 -77 -3 -153 3 -140 3 -140 28 -140 25 0 25 0
25 150 0 148 0 150 -23 153 -12 2 -24 -3 -27 -10z"/>
<path d="M16648 3353 c-16 -4 -18 -20 -18 -154 0 -149 0 -149 25 -149 25 0 25
0 25 130 0 130 0 130 54 130 37 0 58 -5 67 -16 8 -10 14 -56 17 -130 4 -112 5
-114 28 -114 24 0 24 1 24 108 0 119 -15 167 -60 189 -24 12 -125 16 -162 6z"/>
<path d="M17021 3347 c-102 -52 -99 -240 4 -283 55 -22 152 -15 162 13 10 25
-10 33 -50 22 -51 -14 -103 3 -122 41 -8 16 -15 34 -15 40 0 6 37 10 100 10
114 0 118 3 100 71 -17 63 -58 99 -112 99 -24 0 -54 -6 -67 -13z m103 -48 c15
-12 26 -30 26 -45 0 -24 -1 -25 -72 -22 -83 3 -93 15 -50 58 36 35 60 38 96 9z"/>
<path d="M17307 3353 c-28 -4 -28 -4 -25 -151 3 -144 3 -147 26 -150 13 -2 22
2 23 10 0 7 0 64 -1 126 -1 108 0 112 22 121 13 4 40 6 61 3 34 -4 37 -2 37
22 0 25 -2 26 -57 25 -32 -1 -70 -4 -86 -6z"/>
<path d="M4934 3255 c-10 -25 2 -236 15 -268 25 -63 146 -73 203 -17 29 29 29
29 26 162 -3 115 -5 133 -20 136 -14 3 -17 -12 -20 -128 -3 -124 -4 -133 -27
-151 -31 -25 -85 -25 -111 1 -21 21 -22 34 -24 195 -1 68 -4 80 -19 83 -9 2
-20 -4 -23 -13z"/>
<path d="M5250 3123 c0 -82 -2 -157 -3 -168 -1 -14 5 -21 21 -23 22 -3 22 -2
22 124 0 149 -4 150 90 -4 60 -99 103 -145 118 -126 4 5 6 85 4 177 -3 164 -4
168 -24 165 -21 -3 -21 -8 -19 -138 2 -135 2 -135 -17 -105 -10 17 -43 70 -73
118 -107 175 -117 173 -119 -20z"/>
<path d="M5656 3260 c-59 -18 -105 -90 -106 -166 0 -84 70 -164 143 -164 65 0
137 57 137 109 0 31 -17 26 -42 -14 -44 -66 -109 -74 -157 -20 -27 31 -31 43
-31 95 0 53 3 62 34 94 47 51 86 50 137 -4 42 -44 59 -50 59 -21 0 25 -43 69
-85 87 -38 16 -47 16 -89 4z"/>
<path d="M4610 3095 c0 -165 0 -165 29 -165 28 0 28 0 23 71 -5 70 -5 70 59
67 63 -3 63 -3 82 -53 29 -76 32 -80 61 -83 14 -2 26 -1 26 1 0 3 -16 37 -35
76 -36 73 -41 91 -26 91 37 0 52 69 26 119 -17 34 -45 41 -161 41 -84 0 -84 0
-84 -165z m210 105 c15 -24 11 -59 -7 -69 -10 -5 -47 -10 -83 -12 -65 -4 -65
-4 -68 35 -6 65 -1 69 79 64 47 -2 73 -8 79 -18z"/>
<path d="M3202 3098 c3 -83 3 -83 33 -83 30 0 30 0 30 80 0 80 0 80 -33 83
-33 3 -33 3 -30 -80z"/>
<path d="M6160 3138 c-1 -2 -2 -39 -3 -83 -2 -80 -2 -80 26 -83 27 -3 27 -3
29 67 0 39 1 77 2 84 1 10 -53 25 -54 15z"/>
<path d="M3204 2748 c4 -62 12 -118 18 -125 6 -7 21 -13 34 -13 21 0 22 3 18
53 -3 28 -6 84 -7 122 -2 70 -2 70 -36 73 -34 3 -34 3 -27 -110z"/>
<path d="M6162 2743 c3 -70 5 -78 23 -78 18 0 20 8 23 78 3 77 3 77 -23 77
-26 0 -26 0 -23 -77z"/>
<path d="M3380 2571 c0 -16 3 -31 8 -33 4 -3 41 -2 82 1 72 6 75 7 75 31 0 24
-2 25 -82 28 -83 3 -83 3 -83 -27z"/>
<path d="M3703 2584 c-13 -34 9 -46 82 -46 62 0 70 2 77 22 4 12 6 26 2 31 -3
5 -39 9 -80 9 -60 0 -76 -3 -81 -16z"/>
<path d="M4027 2594 c-11 -11 -8 -52 3 -56 5 -1 42 -1 82 2 70 5 73 6 73 30 0
24 -2 25 -75 28 -42 1 -79 0 -83 -4z"/>
<path d="M4344 2585 c-15 -37 2 -46 83 -43 76 3 78 4 78 28 0 24 -2 25 -78 28
-62 2 -78 0 -83 -13z"/>
<path d="M4660 2581 c0 -11 8 -26 18 -33 16 -12 17 -42 17 -378 0 -338 1 -365
17 -368 17 -3 18 21 20 364 3 367 3 367 48 378 35 9 46 16 48 34 3 21 1 22
-82 22 -78 0 -86 -2 -86 -19z"/>
<path d="M4983 2583 c-3 -7 -2 -20 1 -28 5 -13 21 -15 83 -13 74 3 78 4 78 26
0 22 -4 23 -79 25 -56 2 -80 -1 -83 -10z"/>
<path d="M6000 2591 c-48 -5 -55 -9 -52 -26 2 -11 5 -21 5 -21 1 -1 34 1 72 5
61 5 70 8 70 26 0 23 -13 25 -95 16z"/>
<path d="M5302 2568 c3 -22 8 -23 83 -23 75 0 80 1 83 23 3 21 1 22 -83 22
-84 0 -86 -1 -83 -22z"/>
<path d="M5626 2581 c-4 -5 -3 -16 0 -25 7 -17 41 -20 118 -10 36 5 46 11 46
25 0 17 -9 19 -79 19 -44 0 -82 -4 -85 -9z"/>
<path d="M3325 1706 c-16 -16 -25 -40 -30 -77 -3 -30 -5 -352 -3 -717 3 -664
3 -664 36 -693 32 -29 32 -29 1416 -29 1378 0 1383 0 1409 20 15 12 31 38 37
58 14 51 14 1343 0 1394 -21 74 100 68 -1448 68 -1393 0 -1393 0 -1417 -24z
m255 -726 c3 -311 2 -575 -2 -588 -7 -20 -14 -23 -45 -20 -38 3 -38 3 -41 578
-1 316 0 581 3 588 3 9 18 12 42 10 38 -3 38 -3 43 -568z m304 554 c3 -9 6
-269 6 -579 0 -619 3 -589 -62 -583 -33 3 -33 3 -36 578 -1 316 0 581 3 588 7
18 81 16 89 -4z m294 4 c9 -9 12 -153 12 -585 0 -573 0 -573 -25 -579 -14 -3
-36 -3 -50 0 -25 6 -25 6 -25 585 0 318 3 581 7 584 11 12 68 8 81 -5z m307
-578 c0 -585 0 -585 -33 -588 -65 -6 -62 -37 -62 593 0 314 3 575 7 579 4 4
25 6 48 4 40 -3 40 -3 40 -588z m294 576 c8 -9 10 -172 9 -587 -3 -574 -3
-574 -42 -577 -24 -2 -42 2 -47 10 -14 22 -11 1142 3 1156 16 16 63 15 77 -2z
m299 6 c10 -7 12 -131 10 -588 -3 -579 -3 -579 -42 -582 -24 -2 -42 2 -47 10
-14 22 -11 1142 3 1156 14 14 57 16 76 4z m300 0 c10 -7 12 -131 10 -588 -3
-579 -3 -579 -42 -582 -24 -2 -42 2 -47 10 -14 22 -11 1142 3 1156 14 14 57
16 76 4z m300 0 c10 -7 12 -131 10 -588 -3 -579 -3 -579 -36 -582 -68 -7 -64
-38 -60 588 2 311 8 571 12 578 8 14 54 16 74 4z m300 0 c10 -7 12 -131 10
-588 -3 -579 -3 -579 -43 -579 -40 0 -40 0 -43 575 -1 316 0 581 3 588 5 13
53 16 73 4z"/>
</g>
</svg>
